<svg xmlns="http://www.w3.org/2000/svg" xmlns:xlink="http://www.w3.org/1999/xlink" width="142.841" height="131.164" viewBox="0 0 142.841 131.164">
  <defs>
    <filter id="Trazado_1013805" x="0" y="0" width="131.164" height="131.164" filterUnits="userSpaceOnUse">
      <feOffset dy="3" input="SourceAlpha"/>
      <feGaussianBlur stdDeviation="3" result="blur"/>
      <feFlood flood-opacity="0.412"/>
      <feComposite operator="in" in2="blur"/>
    </filter>
    <filter id="Trazado_1013805-2" x="0" y="0" width="131.164" height="131.164" filterUnits="userSpaceOnUse">
      <feOffset dy="3" input="SourceAlpha"/>
      <feGaussianBlur stdDeviation="3" result="blur-2"/>
      <feFlood flood-opacity="0.161" result="color"/>
      <feComposite operator="out" in="SourceGraphic" in2="blur-2"/>
      <feComposite operator="in" in="color"/>
      <feComposite operator="in" in2="SourceGraphic"/>
    </filter>
    <clipPath id="clip-path">
      <rect id="Rectángulo_419875" data-name="Rectángulo 419875" width="141.514" height="66.708" fill="none"/>
    </clipPath>
  </defs>
  <g id="Grupo_1162061" data-name="Grupo 1162061" transform="translate(-236.836 9358.908)">
    <g data-type="innerShadowGroup">
      <g transform="matrix(1, 0, 0, 1, 236.84, -9358.91)" filter="url(#Trazado_1013805)">
        <g id="Trazado_1013805-3" data-name="Trazado 1013805" transform="translate(9 6)" fill="#f2f5f4" opacity="0.9">
          <path d="M 56.58214950561523 111.6642456054688 C 49.14544296264648 111.6642456054688 41.93198013305664 110.2080917358398 35.14215087890625 107.3362274169922 C 31.87862586975098 105.9558792114258 28.73084259033203 104.2473068237305 25.78624153137207 102.2579727172852 C 22.86922645568848 100.2872772216797 20.12613487243652 98.02401733398438 17.63318061828613 95.53105926513672 C 15.14022636413574 93.03810882568359 12.8769645690918 90.29502868652344 10.90627288818359 87.37801361083984 C 8.916934013366699 84.43340301513672 7.208364963531494 81.28562927246094 5.828011035919189 78.02210998535156 C 2.956149578094482 71.23227691650391 1.499995708465576 64.01881408691406 1.499995708465576 56.58212280273438 C 1.499995708465576 49.14541625976562 2.956149578094482 41.93196868896484 5.828011035919189 35.14213943481445 C 7.208364963531494 31.87861442565918 8.916934013366699 28.73083114624023 10.90627288818359 25.78623008728027 C 12.8769645690918 22.86921501159668 15.14022636413574 20.12613868713379 17.63318061828613 17.6331844329834 C 20.12613487243652 15.14023017883301 22.86922645568848 12.87696933746338 25.78624153137207 10.90627670288086 C 28.73084259033203 8.916937828063965 31.87862586975098 7.20836877822876 35.14215087890625 5.828015327453613 C 41.93198013305664 2.956153631210327 49.14544296264648 1.499999761581421 56.58214950561523 1.499999761581421 C 64.01885986328125 1.499999761581421 71.2322998046875 2.956153631210327 78.02214813232422 5.828015327453613 C 81.28565979003906 7.20836877822876 84.43344116210938 8.916937828063965 87.37805938720703 10.90627670288086 C 90.29507446289062 12.87696933746338 93.03814697265625 15.14023017883301 95.53110504150391 17.6331844329834 C 98.02405548095703 20.12613868713379 100.2873153686523 22.86921501159668 102.2580261230469 25.78623008728027 C 104.2473678588867 28.73083114624023 105.9559326171875 31.87861442565918 107.3362884521484 35.14213943481445 C 110.2081527709961 41.93196868896484 111.664306640625 49.14541625976562 111.664306640625 56.58212280273438 C 111.664306640625 64.01881408691406 110.2081527709961 71.23227691650391 107.3362884521484 78.02210998535156 C 105.9559326171875 81.28562927246094 104.2473678588867 84.43340301513672 102.2580261230469 87.37801361083984 C 100.2873153686523 90.29502868652344 98.02405548095703 93.03810882568359 95.53110504150391 95.53105926513672 C 93.03814697265625 98.02401733398438 90.29507446289062 100.2872772216797 87.37805938720703 102.2579727172852 C 84.43344116210938 104.2473068237305 81.28565979003906 105.9558792114258 78.02214813232422 107.3362274169922 C 71.2322998046875 110.2080917358398 64.01885986328125 111.6642456054688 56.58214950561523 111.6642456054688 Z" stroke="none"/>
          <path d="M 56.58214950561523 3.000007629394531 C 49.34728240966797 3.000007629394531 42.33041381835938 4.416290283203125 35.72648620605469 7.209526062011719 C 32.55214691162109 8.552139282226562 29.49030303955078 10.21408843994141 26.62594604492188 12.14920806884766 C 23.78803253173828 14.06645965576172 21.11930084228516 16.26838684082031 18.69384765625 18.69384002685547 C 16.26840209960938 21.11929321289062 14.06646728515625 23.78802490234375 12.14921569824219 26.62593841552734 C 10.21409606933594 29.49028778076172 8.552131652832031 32.55213928222656 7.209518432617188 35.72645568847656 C 4.416282653808594 42.33040618896484 3 49.34725570678711 3 56.58212280273438 C 3 63.81698989868164 4.416282653808594 70.83383941650391 7.209518432617188 77.43777465820312 C 8.552131652832031 80.61209106445312 10.21409606933594 83.67395782470703 12.14921569824219 86.53830718994141 C 14.06646728515625 89.37620544433594 16.26840209960938 92.04495239257812 18.69384765625 94.47040557861328 C 21.11930084228516 96.89584350585938 23.78803253173828 99.09777069091797 26.62594604492188 101.015022277832 C 29.49030303955078 102.9501419067383 32.55216979980469 104.6121063232422 35.72648620605469 105.954719543457 C 42.33041381835938 108.7479553222656 49.34728240966797 110.1642379760742 56.58214950561523 110.1642379760742 C 63.8170166015625 110.1642379760742 70.8338623046875 108.7479553222656 77.43782043457031 105.954719543457 C 80.61213684082031 104.6121063232422 83.67399597167969 102.9501419067383 86.53834533691406 101.015022277832 C 89.37625122070312 99.09777069091797 92.04499816894531 96.89584350585938 94.47045135498047 94.47039031982422 C 96.89589691162109 92.04495239257812 99.09783172607422 89.37620544433594 101.0150833129883 86.53830718994141 C 102.9501953125 83.67395782470703 104.6121520996094 80.61209106445312 105.9547805786133 77.43777465820312 C 108.7480163574219 70.83383941650391 110.1642990112305 63.81698989868164 110.1642990112305 56.58212280273438 C 110.1642990112305 49.34725570678711 108.7480163574219 42.33040618896484 105.9547805786133 35.72645568847656 C 104.6121520996094 32.55213928222656 102.9501953125 29.49028778076172 101.0150833129883 26.62593841552734 C 99.09783172607422 23.78804016113281 96.89589691162109 21.11929321289062 94.47045135498047 18.69384002685547 C 92.04499816894531 16.26838684082031 89.37625122070312 14.06645965576172 86.53834533691406 12.14920806884766 C 83.67399597167969 10.21408843994141 80.61213684082031 8.552139282226562 77.43782043457031 7.209526062011719 C 70.8338623046875 4.416290283203125 63.8170166015625 3.000007629394531 56.58214950561523 3.000007629394531 M 56.58214950561523 7.62939453125e-06 C 87.83160400390625 7.62939453125e-06 113.1642990112305 25.33267211914062 113.1642990112305 56.58212280273438 C 113.1642990112305 87.83155822753906 87.83160400390625 113.1642379760742 56.58214950561523 113.1642379760742 C 25.33267974853516 113.1642379760742 0 87.83155822753906 0 56.58212280273438 C 0 25.33267211914062 25.33267974853516 7.62939453125e-06 56.58214950561523 7.62939453125e-06 Z" stroke="none" fill="#fff"/>
        </g>
      </g>
      <g id="Trazado_1013805-4" data-name="Trazado 1013805" transform="translate(245.836 -9352.908)" fill="#f2f5f4" opacity="0.9">
        <path d="M 56.58214950561523 111.6642456054688 C 49.14544296264648 111.6642456054688 41.93198013305664 110.2080917358398 35.14215087890625 107.3362274169922 C 31.87862586975098 105.9558792114258 28.73084259033203 104.2473068237305 25.78624153137207 102.2579727172852 C 22.86922645568848 100.2872772216797 20.12613487243652 98.02401733398438 17.63318061828613 95.53105926513672 C 15.14022636413574 93.03810882568359 12.8769645690918 90.29502868652344 10.90627288818359 87.37801361083984 C 8.916934013366699 84.43340301513672 7.208364963531494 81.28562927246094 5.828011035919189 78.02210998535156 C 2.956149578094482 71.23227691650391 1.499995708465576 64.01881408691406 1.499995708465576 56.58212280273438 C 1.499995708465576 49.14541625976562 2.956149578094482 41.93196868896484 5.828011035919189 35.14213943481445 C 7.208364963531494 31.87861442565918 8.916934013366699 28.73083114624023 10.90627288818359 25.78623008728027 C 12.8769645690918 22.86921501159668 15.14022636413574 20.12613868713379 17.63318061828613 17.6331844329834 C 20.12613487243652 15.14023017883301 22.86922645568848 12.87696933746338 25.78624153137207 10.90627670288086 C 28.73084259033203 8.916937828063965 31.87862586975098 7.20836877822876 35.14215087890625 5.828015327453613 C 41.93198013305664 2.956153631210327 49.14544296264648 1.499999761581421 56.58214950561523 1.499999761581421 C 64.01885986328125 1.499999761581421 71.2322998046875 2.956153631210327 78.02214813232422 5.828015327453613 C 81.28565979003906 7.20836877822876 84.43344116210938 8.916937828063965 87.37805938720703 10.90627670288086 C 90.29507446289062 12.87696933746338 93.03814697265625 15.14023017883301 95.53110504150391 17.6331844329834 C 98.02405548095703 20.12613868713379 100.2873153686523 22.86921501159668 102.2580261230469 25.78623008728027 C 104.2473678588867 28.73083114624023 105.9559326171875 31.87861442565918 107.3362884521484 35.14213943481445 C 110.2081527709961 41.93196868896484 111.664306640625 49.14541625976562 111.664306640625 56.58212280273438 C 111.664306640625 64.01881408691406 110.2081527709961 71.23227691650391 107.3362884521484 78.02210998535156 C 105.9559326171875 81.28562927246094 104.2473678588867 84.43340301513672 102.2580261230469 87.37801361083984 C 100.2873153686523 90.29502868652344 98.02405548095703 93.03810882568359 95.53110504150391 95.53105926513672 C 93.03814697265625 98.02401733398438 90.29507446289062 100.2872772216797 87.37805938720703 102.2579727172852 C 84.43344116210938 104.2473068237305 81.28565979003906 105.9558792114258 78.02214813232422 107.3362274169922 C 71.2322998046875 110.2080917358398 64.01885986328125 111.6642456054688 56.58214950561523 111.6642456054688 Z" stroke="none"/>
        <path d="M 56.58214950561523 3.000007629394531 C 49.34728240966797 3.000007629394531 42.33041381835938 4.416290283203125 35.72648620605469 7.209526062011719 C 32.55214691162109 8.552139282226562 29.49030303955078 10.21408843994141 26.62594604492188 12.14920806884766 C 23.78803253173828 14.06645965576172 21.11930084228516 16.26838684082031 18.69384765625 18.69384002685547 C 16.26840209960938 21.11929321289062 14.06646728515625 23.78802490234375 12.14921569824219 26.62593841552734 C 10.21409606933594 29.49028778076172 8.552131652832031 32.55213928222656 7.209518432617188 35.72645568847656 C 4.416282653808594 42.33040618896484 3 49.34725570678711 3 56.58212280273438 C 3 63.81698989868164 4.416282653808594 70.83383941650391 7.209518432617188 77.43777465820312 C 8.552131652832031 80.61209106445312 10.21409606933594 83.67395782470703 12.14921569824219 86.53830718994141 C 14.06646728515625 89.37620544433594 16.26840209960938 92.04495239257812 18.69384765625 94.47040557861328 C 21.11930084228516 96.89584350585938 23.78803253173828 99.09777069091797 26.62594604492188 101.015022277832 C 29.49030303955078 102.9501419067383 32.55216979980469 104.6121063232422 35.72648620605469 105.954719543457 C 42.33041381835938 108.7479553222656 49.34728240966797 110.1642379760742 56.58214950561523 110.1642379760742 C 63.8170166015625 110.1642379760742 70.8338623046875 108.7479553222656 77.43782043457031 105.954719543457 C 80.61213684082031 104.6121063232422 83.67399597167969 102.9501419067383 86.53834533691406 101.015022277832 C 89.37625122070312 99.09777069091797 92.04499816894531 96.89584350585938 94.47045135498047 94.47039031982422 C 96.89589691162109 92.04495239257812 99.09783172607422 89.37620544433594 101.0150833129883 86.53830718994141 C 102.9501953125 83.67395782470703 104.6121520996094 80.61209106445312 105.9547805786133 77.43777465820312 C 108.7480163574219 70.83383941650391 110.1642990112305 63.81698989868164 110.1642990112305 56.58212280273438 C 110.1642990112305 49.34725570678711 108.7480163574219 42.33040618896484 105.9547805786133 35.72645568847656 C 104.6121520996094 32.55213928222656 102.9501953125 29.49028778076172 101.0150833129883 26.62593841552734 C 99.09783172607422 23.78804016113281 96.89589691162109 21.11929321289062 94.47045135498047 18.69384002685547 C 92.04499816894531 16.26838684082031 89.37625122070312 14.06645965576172 86.53834533691406 12.14920806884766 C 83.67399597167969 10.21408843994141 80.61213684082031 8.552139282226562 77.43782043457031 7.209526062011719 C 70.8338623046875 4.416290283203125 63.8170166015625 3.000007629394531 56.58214950561523 3.000007629394531 M 56.58214950561523 7.62939453125e-06 C 87.83160400390625 7.62939453125e-06 113.1642990112305 25.33267211914062 113.1642990112305 56.58212280273438 C 113.1642990112305 87.83155822753906 87.83160400390625 113.1642379760742 56.58214950561523 113.1642379760742 C 25.33267974853516 113.1642379760742 0 87.83155822753906 0 56.58212280273438 C 0 25.33267211914062 25.33267974853516 7.62939453125e-06 56.58214950561523 7.62939453125e-06 Z" stroke="none"/>
      </g>
      <g transform="matrix(1, 0, 0, 1, 236.84, -9358.91)" filter="url(#Trazado_1013805-2)">
        <g id="Trazado_1013805-5" data-name="Trazado 1013805" transform="translate(9 6)" fill="#fff" opacity="0.9">
          <path d="M 56.58214950561523 111.6642456054688 C 49.14544296264648 111.6642456054688 41.93198013305664 110.2080917358398 35.14215087890625 107.3362274169922 C 31.87862586975098 105.9558792114258 28.73084259033203 104.2473068237305 25.78624153137207 102.2579727172852 C 22.86922645568848 100.2872772216797 20.12613487243652 98.02401733398438 17.63318061828613 95.53105926513672 C 15.14022636413574 93.03810882568359 12.8769645690918 90.29502868652344 10.90627288818359 87.37801361083984 C 8.916934013366699 84.43340301513672 7.208364963531494 81.28562927246094 5.828011035919189 78.02210998535156 C 2.956149578094482 71.23227691650391 1.499995708465576 64.01881408691406 1.499995708465576 56.58212280273438 C 1.499995708465576 49.14541625976562 2.956149578094482 41.93196868896484 5.828011035919189 35.14213943481445 C 7.208364963531494 31.87861442565918 8.916934013366699 28.73083114624023 10.90627288818359 25.78623008728027 C 12.8769645690918 22.86921501159668 15.14022636413574 20.12613868713379 17.63318061828613 17.6331844329834 C 20.12613487243652 15.14023017883301 22.86922645568848 12.87696933746338 25.78624153137207 10.90627670288086 C 28.73084259033203 8.916937828063965 31.87862586975098 7.20836877822876 35.14215087890625 5.828015327453613 C 41.93198013305664 2.956153631210327 49.14544296264648 1.499999761581421 56.58214950561523 1.499999761581421 C 64.01885986328125 1.499999761581421 71.2322998046875 2.956153631210327 78.02214813232422 5.828015327453613 C 81.28565979003906 7.20836877822876 84.43344116210938 8.916937828063965 87.37805938720703 10.90627670288086 C 90.29507446289062 12.87696933746338 93.03814697265625 15.14023017883301 95.53110504150391 17.6331844329834 C 98.02405548095703 20.12613868713379 100.2873153686523 22.86921501159668 102.2580261230469 25.78623008728027 C 104.2473678588867 28.73083114624023 105.9559326171875 31.87861442565918 107.3362884521484 35.14213943481445 C 110.2081527709961 41.93196868896484 111.664306640625 49.14541625976562 111.664306640625 56.58212280273438 C 111.664306640625 64.01881408691406 110.2081527709961 71.23227691650391 107.3362884521484 78.02210998535156 C 105.9559326171875 81.28562927246094 104.2473678588867 84.43340301513672 102.2580261230469 87.37801361083984 C 100.2873153686523 90.29502868652344 98.02405548095703 93.03810882568359 95.53110504150391 95.53105926513672 C 93.03814697265625 98.02401733398438 90.29507446289062 100.2872772216797 87.37805938720703 102.2579727172852 C 84.43344116210938 104.2473068237305 81.28565979003906 105.9558792114258 78.02214813232422 107.3362274169922 C 71.2322998046875 110.2080917358398 64.01885986328125 111.6642456054688 56.58214950561523 111.6642456054688 Z" stroke="none"/>
          <path d="M 56.58214950561523 3.000007629394531 C 49.34728240966797 3.000007629394531 42.33041381835938 4.416290283203125 35.72648620605469 7.209526062011719 C 32.55214691162109 8.552139282226562 29.49030303955078 10.21408843994141 26.62594604492188 12.14920806884766 C 23.78803253173828 14.06645965576172 21.11930084228516 16.26838684082031 18.69384765625 18.69384002685547 C 16.26840209960938 21.11929321289062 14.06646728515625 23.78802490234375 12.14921569824219 26.62593841552734 C 10.21409606933594 29.49028778076172 8.552131652832031 32.55213928222656 7.209518432617188 35.72645568847656 C 4.416282653808594 42.33040618896484 3 49.34725570678711 3 56.58212280273438 C 3 63.81698989868164 4.416282653808594 70.83383941650391 7.209518432617188 77.43777465820312 C 8.552131652832031 80.61209106445312 10.21409606933594 83.67395782470703 12.14921569824219 86.53830718994141 C 14.06646728515625 89.37620544433594 16.26840209960938 92.04495239257812 18.69384765625 94.47040557861328 C 21.11930084228516 96.89584350585938 23.78803253173828 99.09777069091797 26.62594604492188 101.015022277832 C 29.49030303955078 102.9501419067383 32.55216979980469 104.6121063232422 35.72648620605469 105.954719543457 C 42.33041381835938 108.7479553222656 49.34728240966797 110.1642379760742 56.58214950561523 110.1642379760742 C 63.8170166015625 110.1642379760742 70.8338623046875 108.7479553222656 77.43782043457031 105.954719543457 C 80.61213684082031 104.6121063232422 83.67399597167969 102.9501419067383 86.53834533691406 101.015022277832 C 89.37625122070312 99.09777069091797 92.04499816894531 96.89584350585938 94.47045135498047 94.47039031982422 C 96.89589691162109 92.04495239257812 99.09783172607422 89.37620544433594 101.0150833129883 86.53830718994141 C 102.9501953125 83.67395782470703 104.6121520996094 80.61209106445312 105.9547805786133 77.43777465820312 C 108.7480163574219 70.83383941650391 110.1642990112305 63.81698989868164 110.1642990112305 56.58212280273438 C 110.1642990112305 49.34725570678711 108.7480163574219 42.33040618896484 105.9547805786133 35.72645568847656 C 104.6121520996094 32.55213928222656 102.9501953125 29.49028778076172 101.0150833129883 26.62593841552734 C 99.09783172607422 23.78804016113281 96.89589691162109 21.11929321289062 94.47045135498047 18.69384002685547 C 92.04499816894531 16.26838684082031 89.37625122070312 14.06645965576172 86.53834533691406 12.14920806884766 C 83.67399597167969 10.21408843994141 80.61213684082031 8.552139282226562 77.43782043457031 7.209526062011719 C 70.8338623046875 4.416290283203125 63.8170166015625 3.000007629394531 56.58214950561523 3.000007629394531 M 56.58214950561523 7.62939453125e-06 C 87.83160400390625 7.62939453125e-06 113.1642990112305 25.33267211914062 113.1642990112305 56.58212280273438 C 113.1642990112305 87.83155822753906 87.83160400390625 113.1642379760742 56.58214950561523 113.1642379760742 C 25.33267974853516 113.1642379760742 0 87.83155822753906 0 56.58212280273438 C 0 25.33267211914062 25.33267974853516 7.62939453125e-06 56.58214950561523 7.62939453125e-06 Z" stroke="none"/>
        </g>
      </g>
      <g id="Trazado_1013805-6" data-name="Trazado 1013805" transform="translate(245.836 -9352.908)" fill="none" opacity="0.9">
        <path d="M 56.58214950561523 111.6642456054688 C 49.14544296264648 111.6642456054688 41.93198013305664 110.2080917358398 35.14215087890625 107.3362274169922 C 31.87862586975098 105.9558792114258 28.73084259033203 104.2473068237305 25.78624153137207 102.2579727172852 C 22.86922645568848 100.2872772216797 20.12613487243652 98.02401733398438 17.63318061828613 95.53105926513672 C 15.14022636413574 93.03810882568359 12.8769645690918 90.29502868652344 10.90627288818359 87.37801361083984 C 8.916934013366699 84.43340301513672 7.208364963531494 81.28562927246094 5.828011035919189 78.02210998535156 C 2.956149578094482 71.23227691650391 1.499995708465576 64.01881408691406 1.499995708465576 56.58212280273438 C 1.499995708465576 49.14541625976562 2.956149578094482 41.93196868896484 5.828011035919189 35.14213943481445 C 7.208364963531494 31.87861442565918 8.916934013366699 28.73083114624023 10.90627288818359 25.78623008728027 C 12.8769645690918 22.86921501159668 15.14022636413574 20.12613868713379 17.63318061828613 17.6331844329834 C 20.12613487243652 15.14023017883301 22.86922645568848 12.87696933746338 25.78624153137207 10.90627670288086 C 28.73084259033203 8.916937828063965 31.87862586975098 7.20836877822876 35.14215087890625 5.828015327453613 C 41.93198013305664 2.956153631210327 49.14544296264648 1.499999761581421 56.58214950561523 1.499999761581421 C 64.01885986328125 1.499999761581421 71.2322998046875 2.956153631210327 78.02214813232422 5.828015327453613 C 81.28565979003906 7.20836877822876 84.43344116210938 8.916937828063965 87.37805938720703 10.90627670288086 C 90.29507446289062 12.87696933746338 93.03814697265625 15.14023017883301 95.53110504150391 17.6331844329834 C 98.02405548095703 20.12613868713379 100.2873153686523 22.86921501159668 102.2580261230469 25.78623008728027 C 104.2473678588867 28.73083114624023 105.9559326171875 31.87861442565918 107.3362884521484 35.14213943481445 C 110.2081527709961 41.93196868896484 111.664306640625 49.14541625976562 111.664306640625 56.58212280273438 C 111.664306640625 64.01881408691406 110.2081527709961 71.23227691650391 107.3362884521484 78.02210998535156 C 105.9559326171875 81.28562927246094 104.2473678588867 84.43340301513672 102.2580261230469 87.37801361083984 C 100.2873153686523 90.29502868652344 98.02405548095703 93.03810882568359 95.53110504150391 95.53105926513672 C 93.03814697265625 98.02401733398438 90.29507446289062 100.2872772216797 87.37805938720703 102.2579727172852 C 84.43344116210938 104.2473068237305 81.28565979003906 105.9558792114258 78.02214813232422 107.3362274169922 C 71.2322998046875 110.2080917358398 64.01885986328125 111.6642456054688 56.58214950561523 111.6642456054688 Z" stroke="none"/>
        <path d="M 56.58214950561523 3.000007629394531 C 49.34728240966797 3.000007629394531 42.33041381835938 4.416290283203125 35.72648620605469 7.209526062011719 C 32.55214691162109 8.552139282226562 29.49030303955078 10.21408843994141 26.62594604492188 12.14920806884766 C 23.78803253173828 14.06645965576172 21.11930084228516 16.26838684082031 18.69384765625 18.69384002685547 C 16.26840209960938 21.11929321289062 14.06646728515625 23.78802490234375 12.14921569824219 26.62593841552734 C 10.21409606933594 29.49028778076172 8.552131652832031 32.55213928222656 7.209518432617188 35.72645568847656 C 4.416282653808594 42.33040618896484 3 49.34725570678711 3 56.58212280273438 C 3 63.81698989868164 4.416282653808594 70.83383941650391 7.209518432617188 77.43777465820312 C 8.552131652832031 80.61209106445312 10.21409606933594 83.67395782470703 12.14921569824219 86.53830718994141 C 14.06646728515625 89.37620544433594 16.26840209960938 92.04495239257812 18.69384765625 94.47040557861328 C 21.11930084228516 96.89584350585938 23.78803253173828 99.09777069091797 26.62594604492188 101.015022277832 C 29.49030303955078 102.9501419067383 32.55216979980469 104.6121063232422 35.72648620605469 105.954719543457 C 42.33041381835938 108.7479553222656 49.34728240966797 110.1642379760742 56.58214950561523 110.1642379760742 C 63.8170166015625 110.1642379760742 70.8338623046875 108.7479553222656 77.43782043457031 105.954719543457 C 80.61213684082031 104.6121063232422 83.67399597167969 102.9501419067383 86.53834533691406 101.015022277832 C 89.37625122070312 99.09777069091797 92.04499816894531 96.89584350585938 94.47045135498047 94.47039031982422 C 96.89589691162109 92.04495239257812 99.09783172607422 89.37620544433594 101.0150833129883 86.53830718994141 C 102.9501953125 83.67395782470703 104.6121520996094 80.61209106445312 105.9547805786133 77.43777465820312 C 108.7480163574219 70.83383941650391 110.1642990112305 63.81698989868164 110.1642990112305 56.58212280273438 C 110.1642990112305 49.34725570678711 108.7480163574219 42.33040618896484 105.9547805786133 35.72645568847656 C 104.6121520996094 32.55213928222656 102.9501953125 29.49028778076172 101.0150833129883 26.62593841552734 C 99.09783172607422 23.78804016113281 96.89589691162109 21.11929321289062 94.47045135498047 18.69384002685547 C 92.04499816894531 16.26838684082031 89.37625122070312 14.06645965576172 86.53834533691406 12.14920806884766 C 83.67399597167969 10.21408843994141 80.61213684082031 8.552139282226562 77.43782043457031 7.209526062011719 C 70.8338623046875 4.416290283203125 63.8170166015625 3.000007629394531 56.58214950561523 3.000007629394531 M 56.58214950561523 7.62939453125e-06 C 87.83160400390625 7.62939453125e-06 113.1642990112305 25.33267211914062 113.1642990112305 56.58212280273438 C 113.1642990112305 87.83155822753906 87.83160400390625 113.1642379760742 56.58214950561523 113.1642379760742 C 25.33267974853516 113.1642379760742 0 87.83155822753906 0 56.58212280273438 C 0 25.33267211914062 25.33267974853516 7.62939453125e-06 56.58214950561523 7.62939453125e-06 Z" stroke="none" fill="#fff"/>
      </g>
    </g>
    <g id="Grupo_1162024" data-name="Grupo 1162024" transform="translate(238.162 -9325.708)">
      <g id="Grupo_1162023" data-name="Grupo 1162023" clip-path="url(#clip-path)">
        <path id="Trazado_1015888" data-name="Trazado 1015888" d="M134.335,304.515c0,6.235-30.072,11.29-67.168,11.29S0,310.751,0,304.515s30.072-11.29,67.168-11.29,67.168,5.055,67.168,11.29" transform="translate(0 -252.696)" fill="#e8e8e8" style="mix-blend-mode: multiply;isolation: isolate"/>
        <path id="Trazado_1015890" data-name="Trazado 1015890" d="M59.042,218.479,46.633,217.2l-14.207-2.607s-1.012-5.716,1.829-8.506,24.67,2.835,24.67,2.835Z" transform="translate(-27.793 -176.932)" fill="#12161e"/>
        <path id="Trazado_1015891" data-name="Trazado 1015891" d="M75.183,12.556V1.855L39.117,1.382l-26.28,1.1V32.662l26.28,3.476,2.134-.244L73.263,25.833Z" transform="translate(-11.062 -1.191)" fill="#d8deee"/>
        <path id="Trazado_1015892" data-name="Trazado 1015892" d="M54.086,242.694c-2.728-.046-4.654.2-5.529,3.052s-.676,7.656,1.1,9.433,6.405,1.326,8.032.8,2.952-4,2.452-7.306-1.576-5.9-6.055-5.98" transform="translate(-41.41 -209.145)" fill="#060707"/>
        <path id="Trazado_1015893" data-name="Trazado 1015893" d="M37.54,35.138l-.025,0-26.086-3.5a.191.191,0,0,1-.166-.189L11.3,1.327a.191.191,0,0,1,.183-.191L37.532,0a.191.191,0,0,1,.2.191V34.947a.191.191,0,0,1-.191.191m-25.9-3.854,25.7,3.444V.391L11.682,1.51Z" transform="translate(-9.706 0)" fill="#a3aec6"/>
        <path id="Trazado_1015894" data-name="Trazado 1015894" d="M236.4,12.333h0a.191.191,0,0,1-.19-.192L236.261.849,200.182.382a.191.191,0,0,1,0-.382h0l36.268.469a.191.191,0,0,1,.188.192l-.055,11.482a.191.191,0,0,1-.191.19" transform="translate(-172.351)" fill="#a3aec6"/>
        <path id="Trazado_1015895" data-name="Trazado 1015895" d="M200.185,250.314a.191.191,0,0,1-.023-.381l2.027-.244a.191.191,0,0,1,.045.379l-2.027.244h-.023" transform="translate(-172.351 -215.176)" fill="#a3aec6"/>
        <path id="Trazado_1015896" data-name="Trazado 1015896" d="M483.268,318.5c.4,2.713,2.622,5,4.543,5.335s5.03-.7,6.006-2.988.762-3.384.3-3.9-10.854,1.555-10.854,1.555" transform="translate(-416.471 -273.066)" fill="#060707"/>
        <path id="Trazado_1015897" data-name="Trazado 1015897" d="M265.681,239.717c3.659-.732,7.957-2.378,10.472-2.561s5.762,2.7,5.762,2.7l-3.7-13.125-8-.915-4.024,5.4-.732,3.018.137,4.939Z" transform="translate(-228.761 -194.603)" fill="#12161e"/>
        <path id="Trazado_1015898" data-name="Trazado 1015898" d="M280.647,270.3c-2.413.408-4.421,3.689-4.39,7.287s1.342,7.866,4.268,8.78a5.816,5.816,0,0,0,6.89-2.622,9.573,9.573,0,0,0,.427-8.2c-1.28-3.415-3.049-5.945-7.2-5.244" transform="translate(-238.073 -232.84)" fill="#060707"/>
        <path id="Trazado_1015899" data-name="Trazado 1015899" d="M266.325,84.338c-.367,1.89-1.037,4.817-2.256,5.367s-15.672,2.378-21.585,2.317-10.244.976-11.22.548-2.256-5.67-3.11-7.682-5.793-5.762-8.385-1.708-1.859,6.708-2.225,7.256-.915-1.188-1.8-1.616a32.579,32.579,0,0,0-4.665-1.311.741.741,0,0,1-.67-.487c-1.891-4.451-1.1-21.646.548-27.012s2.5-7.378,9.329-7.5,22.683,1.219,26.525,3.6,11.4,13.6,11.4,13.6a35.231,35.231,0,0,1,5.464,5.831,6.488,6.488,0,0,1,.39.694,13.554,13.554,0,0,1,1.065,4.317,17.689,17.689,0,0,1,.093,1.841s1.463.061,1.1,1.95" transform="translate(-180.381 -45.246)" fill="#99a9ce"/>
        <path id="Trazado_1015900" data-name="Trazado 1015900" d="M51.938,247.931l-4.573.762s-.555-3.89-3.018-4.969c-3.2-1.4-5.213,1.738-5.213,4.055v1.075l-1.433.023s-.183-5.671,3.75-6.921a9.922,9.922,0,0,1,6.89.061c1.555.671,3.445,3.171,3.6,5.915" transform="translate(-32.489 -208.015)" fill="#0a0c0f"/>
        <path id="Trazado_1015901" data-name="Trazado 1015901" d="M300.893,306.171c.111,2.22-.851,4.072-2.151,4.137s-2.442-1.682-2.554-3.9.852-4.072,2.151-4.137,2.442,1.681,2.554,3.9" transform="translate(-255.242 -260.489)" fill="#8b929e"/>
        <path id="Trazado_1015902" data-name="Trazado 1015902" d="M69.112,275.675c.081,1.616-.675,2.967-1.688,3.018s-1.9-1.218-1.982-2.834.675-2.967,1.688-3.018,1.9,1.218,1.982,2.834" transform="translate(-56.391 -235.128)" fill="#8b929e"/>
        <path id="Trazado_1015903" data-name="Trazado 1015903" d="M220.459,253.656a.186.186,0,0,1-.034,0l-4.908-.884a.191.191,0,0,1-.153-.151l-.245-1.222-1.1-.027a.191.191,0,0,1,0-.382h0l1.25.03a.191.191,0,0,1,.183.154l.249,1.245,4.592.827c.177-.943,1.055-4.994,3.338-6.581a6.113,6.113,0,0,1,7.237-.117,8.992,8.992,0,0,1,2.527,3.029.191.191,0,0,1-.347.16,8.78,8.78,0,0,0-2.413-2.886,5.733,5.733,0,0,0-6.787.127c-2.406,1.672-3.205,6.472-3.213,6.52a.191.191,0,0,1-.188.16" transform="translate(-184.278 -211.498)" fill="#7d8fb5"/>
        <path id="Trazado_1015904" data-name="Trazado 1015904" d="M345.707,269.646a.191.191,0,0,1-.067-.37l1.311-.488a.178.178,0,0,1,.072-.012c.129,0,12.917.336,17.436.4,4.421.059,15.131-.464,18.177-1.334a.191.191,0,1,1,.1.367c-3.076.879-13.85,1.408-18.286,1.349-4.4-.059-16.636-.375-17.4-.4l-1.276.475a.2.2,0,0,1-.067.012" transform="translate(-297.759 -230.812)" fill="#7d8fb5"/>
        <path id="Trazado_1015905" data-name="Trazado 1015905" d="M414.51,187.028a.191.191,0,0,1-.172-.109c-1.277-2.678-7.454-9.369-10.315-11.734-2.957-2.444-3.286-2.738-3.3-2.749a.191.191,0,0,1,.255-.284c.013.012.356.316,3.287,2.739,2.885,2.385,9.121,9.147,10.417,11.864a.191.191,0,0,1-.172.273" transform="translate(-345.282 -148.315)" fill="#7d8fb5"/>
        <path id="Trazado_1015906" data-name="Trazado 1015906" d="M601.084,224.153a2.292,2.292,0,0,1-1.083.714.971.971,0,0,1-.358.007c-.87-.452-.349-1.494-.289-2.2.013-.149.026-.288.039-.423.089-.94.189-1.607.236-3.114a6.5,6.5,0,0,1,.39.694,13.554,13.554,0,0,1,1.065,4.317" transform="translate(-516.331 -188.851)" fill="#fec"/>
        <path id="Trazado_1015907" data-name="Trazado 1015907" d="M234.7,210.593h-.018c-3.841-.366-17.835-1.707-17.835-1.707l.036-.38s13.994,1.341,17.835,1.707a.191.191,0,0,1-.018.381" transform="translate(-186.876 -179.686)" fill="#7d8fb5"/>
        <path id="Trazado_1015908" data-name="Trazado 1015908" d="M233.288,197.473l-.029,0c-5.209-.783-16.491-1.818-16.6-1.828a.191.191,0,0,1,.035-.381c.113.01,11.407,1.046,16.627,1.831a.191.191,0,0,1-.028.38" transform="translate(-186.559 -168.273)" fill="#7d8fb5"/>
        <path id="Trazado_1015909" data-name="Trazado 1015909" d="M316.151,191.29h-.014a.191.191,0,0,1-.177-.2c.02-.277.493-6.8.857-8.681a.191.191,0,0,1,.375.073c-.359,1.857-.846,8.568-.851,8.636a.191.191,0,0,1-.19.177" transform="translate(-272.288 -157.059)" fill="#7d8fb5"/>
        <path id="Trazado_1015910" data-name="Trazado 1015910" d="M218.314,89.6a.191.191,0,0,1-.187-.152c-.021-.1-.518-2.608,0-9.748a138.019,138.019,0,0,1,2.962-17.469.191.191,0,0,1,.125-.137,10.9,10.9,0,0,1,5.253-.25c2.7.576,3.54,1.22,4.294,3.284l.133.362c.83,2.263,2.556,6.972,2.408,8.653-.151,1.722-.395,3.617-.4,3.636a.191.191,0,1,1-.379-.049c0-.019.245-1.906.4-3.62.14-1.6-1.631-6.426-2.387-8.488l-.133-.363c-.66-1.807-1.3-2.462-4.014-3.042a10.753,10.753,0,0,0-4.952.207,135.945,135.945,0,0,0-2.928,17.3c-.509,7.07-.009,9.618,0,9.643a.191.191,0,0,1-.148.225.2.2,0,0,1-.039,0" transform="translate(-187.774 -53.113)" fill="#7d8fb5"/>
        <path id="Trazado_1015911" data-name="Trazado 1015911" d="M244.737,86.913a44.134,44.134,0,0,1-5.488-.213c-2.9-.3-4.878-.61-4.7-2.287s1.524-9.695,2.012-10.762,4.39-.945,5.549-.549,2.2,3.285,2.843,5.267,1.517,4.489,1.212,6.166-.183,2.378-1.433,2.378" transform="translate(-202.124 -62.751)" fill="#2d3547"/>
        <path id="Trazado_1015912" data-name="Trazado 1015912" d="M321.447,80.949c-.976-1.341-3.75-8.049-5.061-10.457s-.7-3.75.793-3.78,15,.213,17.927.854a9.133,9.133,0,0,1,5.64,3.11c1.28,1.494,4.482,6.677,5.854,8.384s1.1,2.043.213,2.012-13.323-.427-15.7-.457-9.665.335-9.665.335" transform="translate(-272.035 -57.488)" fill="#2d3547"/>
        <path id="Trazado_1015913" data-name="Trazado 1015913" d="M368.051,180.616a.19.19,0,0,1-.149-.072,58.191,58.191,0,0,0-5.556-6.012.191.191,0,0,1,.251-.288,58.6,58.6,0,0,1,5.6,6.061.191.191,0,0,1-.149.31" transform="translate(-312.206 -150.12)" fill="#7d8fb5"/>
        <path id="Trazado_1015914" data-name="Trazado 1015914" d="M525.865,302.024c-.16.023-8.8.427-8.8.427l-.046,2.4,8.712-.572Z" transform="translate(-445.554 -260.278)" fill="#f6fcfa"/>
        <path id="Trazado_1015915" data-name="Trazado 1015915" d="M408.9,223.958c0,1.229-2.866.823-5.64.427s-4.451-.976-4.97-3.567.915-3.567,3.354-2.8a14.834,14.834,0,0,1,5.64,3.049,5.312,5.312,0,0,1,1.616,2.9" transform="translate(-343.152 -187.662)" fill="#fec"/>
        <path id="Trazado_1015916" data-name="Trazado 1015916" d="M405.909,223.773a30.272,30.272,0,0,1-3.857-.4c-2.558-.365-4.56-.871-5.13-3.719a2.839,2.839,0,0,1,.551-2.775c.649-.583,1.7-.67,3.047-.249a14.991,14.991,0,0,1,5.713,3.091,5.505,5.505,0,0,1,1.677,3.036.789.789,0,0,1-.281.621,2.738,2.738,0,0,1-1.721.394m-6.9-7.019a1.865,1.865,0,0,0-1.279.41,2.5,2.5,0,0,0-.432,2.416c.478,2.388,1.932,3,4.809,3.415,2.166.309,4.622.66,5.273.095a.411.411,0,0,0,.149-.332A5.165,5.165,0,0,0,405.973,220,14.611,14.611,0,0,0,400.406,217a4.761,4.761,0,0,0-1.4-.242" transform="translate(-341.966 -186.462)" fill="#7d8fb5"/>
        <path id="Trazado_1015917" data-name="Trazado 1015917" d="M598.581,223.939a.7.7,0,0,1-.651-.416.189.189,0,0,1-.018-.058,5.315,5.315,0,0,1,.06-1.472c.034-.248.068-.5.082-.752.021-.191.041-.379.061-.574.12-1.157.234-2.715.235-2.731a.191.191,0,1,1,.381.028c0,.016-.115,1.579-.236,2.743-.02.2-.041.385-.06.566-.013.253-.049.517-.083.772a5.076,5.076,0,0,0-.065,1.335c.076.136.206.247.546.132l.026-.007a1.141,1.141,0,0,0,.345-.136,2.961,2.961,0,0,0,.649-.533.191.191,0,0,1,.286.253,3.313,3.313,0,0,1-.747.612,1.538,1.538,0,0,1-.449.176,1.156,1.156,0,0,1-.361.063" transform="translate(-515.242 -187.66)" fill="#7d8fb5"/>
        <path id="Trazado_1015918" data-name="Trazado 1015918" d="M558.568,187.787a.191.191,0,0,1-.191-.186s0-.1-.012-.274c-.134-1.067-.321-2.075-.518-3.141-.087-.472-.178-.959-.264-1.457q-.053-.167-.11-.331a9.391,9.391,0,0,0-.4-.984,52.462,52.462,0,0,0-4.779-6.96.191.191,0,0,1,.3-.24,51.623,51.623,0,0,1,4.825,7.034,9.791,9.791,0,0,1,.42,1.025c.041.117.08.235.117.354a.186.186,0,0,1,.006.025c.087.5.178.99.266,1.465.2,1.074.387,2.089.523,3.17,0,0,0,.009,0,.013.01.187.013.292.013.292a.191.191,0,0,1-.186.2h-.005" transform="translate(-475.918 -150.073)" fill="#7d8fb5"/>
        <path id="Trazado_1015919" data-name="Trazado 1015919" d="M503.412,239.34a5.578,5.578,0,0,1-2.023.689c-.2.029-.4.054-.608.078a41.993,41.993,0,0,1-7.348.064c-2.264-.229-3.156-2.607-3.567-3.636s3.567-.938,5.877-.96c.577-.006,1.182-.01,1.794-.014l.612,0c1.946.407,4.341-1.467,5.8.72.313.521-.417,1.667-.352,2.649a.679.679,0,0,1-.184.415" transform="translate(-422.131 -202.686)" fill="#2b3547"/>
        <path id="Trazado_1015920" data-name="Trazado 1015920" d="M414.9,229.408a.188.188,0,0,1-.062-.011,3.139,3.139,0,0,1-1.621-1.745,3.069,3.069,0,0,1,.026-2.543c.91-1.886,3.226-1.428,3.249-1.423a.191.191,0,1,1-.078.374,2.6,2.6,0,0,0-2.827,1.215,2.676,2.676,0,0,0-.018,2.23,2.756,2.756,0,0,0,1.393,1.531.191.191,0,0,1-.062.372" transform="translate(-355.879 -192.723)" fill="#7d8fb5"/>
        <path id="Trazado_1015921" data-name="Trazado 1015921" d="M534.85,193.631h-.021a.191.191,0,0,1-.169-.211c.01-.087.013-.192.017-.293.012-.344.023-.641.245-.728.2-.08.386.1.455.173a.1.1,0,0,0,.144.016c.27-.179.573-1.17-.21-3.092-.748-1.836-.738-2.041-.519-2.158s.391-.067,2.03,2.371a16.81,16.81,0,0,0,2.127,2.819,2.622,2.622,0,0,1,.32.362.191.191,0,0,1-.309.224,2.256,2.256,0,0,0-.279-.314,16.875,16.875,0,0,1-2.176-2.877c-.619-.921-1.071-1.562-1.353-1.917.088.265.243.684.512,1.346.793,1.947.591,3.208.068,3.555a.474.474,0,0,1-.625-.064l-.027-.026c-.013.094-.018.231-.021.325,0,.109-.008.221-.019.322a.191.191,0,0,1-.19.17" transform="translate(-460.758 -161.412)" fill="#7d8fb5"/>
        <path id="Trazado_1015922" data-name="Trazado 1015922" d="M520.662,281.527c-.134,0-.289,0-.478-.011a.191.191,0,0,1,.015-.382,4.065,4.065,0,0,0,1.625-.171c.354-.09.838-.213,1.628-.382l.1-.023c-.956-.128-3.342-.2-5.492-.262-.6-.017-1.2-.035-1.8-.054-1.115-.036-1.23-.062-1.231-.282,0-.242,0-.3,4.332-.51,2.052-.1,4.132-.178,4.152-.178a.191.191,0,0,1,.014.382c-1.662.062-3.908.159-5.635.256l.177.005c5.681.167,6.182.25,6.214.6.021.23-.227.324-.756.438-.783.168-1.264.29-1.614.379a4.175,4.175,0,0,1-1.255.194" transform="translate(-443.845 -240.67)" fill="#7d8fb5"/>
        <path id="Trazado_1015923" data-name="Trazado 1015923" d="M886.606,182.441c-2.452-.463-4.811-.092-4.88.879s-.208,1.619-1.411,1.55l.278,1.642a5.81,5.81,0,0,1,2.313-.625c1.064.046,5.042.509,5.2-.208s.948-2.775-1.5-3.238" transform="translate(-758.638 -157.054)" fill="#af7346"/>
        <path id="Trazado_1015924" data-name="Trazado 1015924" d="M584.732,176.291c-.069-.971-2.429-1.342-4.881-.879s-1.665,2.521-1.5,3.238,4.14.254,5.2.208a5.805,5.805,0,0,1,2.313.624l.278-1.642c-1.2.069-1.341-.578-1.411-1.55" transform="translate(-498.195 -150.996)" fill="#af7346"/>
        <path id="Trazado_1015925" data-name="Trazado 1015925" d="M578.922,330.313c.173,2.6-.347,6.106-.035,7.98s1.561,1.943,3.3,2.047,2.845-.243,2.914-1.041a83.458,83.458,0,0,0-.416-8.4c-.208-.694-5.759-.59-5.759-.59" transform="translate(-498.786 -284.653)" fill="#060707"/>
        <path id="Trazado_1015926" data-name="Trazado 1015926" d="M872.627,340.354c-.173,2.6.347,6.106.035,7.98s-1.561,1.943-3.3,2.047-2.845-.243-2.914-1.041a83.421,83.421,0,0,1,.416-8.4c.208-.694,5.759-.59,5.759-.59" transform="translate(-746.682 -293.306)" fill="#060707"/>
        <path id="Trazado_1015927" data-name="Trazado 1015927" d="M576.467,133.113a31.711,31.711,0,0,0,.243,6.9c.555,2.914,3.365,5.065,6.106,5.794s12.351.867,15.126,1.145,15.057.451,19.221.347,6.211-3.851,6.7-5.933,1.249-8.257.37-12a28.7,28.7,0,0,0-4.256-8.882c-.833-1.11-4.718-10.871-6.014-12.351s-9.807-1.85-13.461-1.9-9.483-.416-10.917,1.989-4.626,8.512-5.551,9.9-2.776,2.267-4.395,4.672a9.074,9.074,0,0,0-.48.81q-.119.223-.235.464c-.334.8.293,1.41.4,2.1a1.155,1.155,0,0,1-.012.428c-.786,1.081-.885,2.458-1.573,3.637-.2.393-.786.492-.983.983-.1.295-.1.492-.186.811q-.027.2-.048.391c-.027.251-.044.482-.05.688" transform="translate(-496.713 -91.512)" fill="#af7346"/>
        <path id="Trazado_1015928" data-name="Trazado 1015928" d="M657.921,280.4s0,4.487,1.388,5.227,18.226,1.619,20.724,1.434,2.637-.879,2.961-2.637.416-2.729.416-2.729Z" transform="translate(-566.984 -241.642)" fill="#331b0a"/>
        <path id="Trazado_1015929" data-name="Trazado 1015929" d="M677.81,286.084c-4.443,0-18.436-.763-19.782-1.481-1.472-.785-1.489-5.208-1.489-5.4a.191.191,0,0,1,.2-.191l25.489,1.3a.191.191,0,0,1,.18.209c0,.01-.1,1-.418,2.746-.328,1.782-.478,2.6-3.134,2.793-.231.017-.588.025-1.045.025m-20.888-6.676c.024,1.342.284,4.324,1.285,4.858,1.328.708,17.97,1.609,20.62,1.412,2.362-.175,2.469-.756,2.787-2.481.236-1.28.349-2.147.392-2.514Z" transform="translate(-565.793 -240.451)" fill="#995b31"/>
        <path id="Trazado_1015930" data-name="Trazado 1015930" d="M858.464,277.967l-.74,4.672s6.893-.6,8.419-1.064.85-3.348.364-3.8-1.769-.572-3.14-.5-4.9.694-4.9.694" transform="translate(-739.17 -238.933)" fill="#fff"/>
        <path id="Trazado_1015931" data-name="Trazado 1015931" d="M856.533,281.64a.191.191,0,0,1-.189-.221l.74-4.672a.191.191,0,0,1,.155-.158c.145-.025,3.56-.627,4.927-.7.95-.048,2.64-.04,3.28.554a3.961,3.961,0,0,1,.563,2.937,1.485,1.485,0,0,1-1,1.185c-1.528.463-8.176,1.047-8.458,1.071h-.017m.907-4.7-.68,4.3A81,81,0,0,0,864.9,280.2a1.111,1.111,0,0,0,.74-.905,3.715,3.715,0,0,0-.451-2.571,4.962,4.962,0,0,0-3-.452c-1.193.061-4.089.554-4.746.668" transform="translate(-737.979 -237.743)" fill="#995b31"/>
        <path id="Trazado_1015932" data-name="Trazado 1015932" d="M589.434,265.98l.085,4.533s-3.318-.6-5.709-1.1l-.306-.064c-.975-.192-3.334-.487-2.351-1.764a23.566,23.566,0,0,0,1.769-2.556,1.175,1.175,0,0,1,.9-.255c.175.015.351.039.524.065.346.051.683.111.992.151l.313.061c1.615.329,3.782.927,3.782.927" transform="translate(-500.625 -228.172)" fill="#fff"/>
        <path id="Trazado_1015933" data-name="Trazado 1015933" d="M588.327,269.516l-.034,0c-.033-.006-3.348-.6-5.714-1.1l-.305-.064L582,268.3c-.857-.157-2.152-.394-2.416-1.079a.952.952,0,0,1,.226-.937,14.413,14.413,0,0,0,1.29-1.814c.152-.239.309-.486.472-.731a.2.2,0,0,1,.024-.029,1.369,1.369,0,0,1,1.059-.309c.189.016.382.043.528.065l.4.062c.208.033.4.065.591.088.112.021.218.041.327.064,1.6.326,3.773.924,3.795.93a.191.191,0,0,1,.14.181l.086,4.533a.191.191,0,0,1-.191.195m-6.449-5.549c-.157.236-.309.475-.456.707a14.687,14.687,0,0,1-1.317,1.852.6.6,0,0,0-.165.558c.186.485,1.449.716,2.128.841l.282.053.308.064c2,.418,4.682.911,5.474,1.055l-.078-4.157c-.5-.136-2.274-.61-3.632-.886l-.31-.061c-.182-.023-.381-.055-.592-.088l-.393-.061c-.141-.021-.326-.047-.513-.063a1.023,1.023,0,0,0-.736.188" transform="translate(-499.432 -226.984)" fill="#995b31"/>
        <path id="Trazado_1015934" data-name="Trazado 1015934" d="M636.6,250.566c-2.3,0-4.549-.02-6.13-.082-4.965-.193-15.538-.744-18.935-1.158-1.333-.162-2.945-.336-4.793-.517l-.326-.032c-.32-.044-.67-.068-1.008-.09-.377-.025-.767-.051-1.123-.105a.191.191,0,0,1,.057-.378c.341.052.722.077,1.091.1.345.023.7.047,1.028.092l.318.031c1.851.181,3.466.356,4.8.518,3.387.412,13.945.963,18.9,1.155,4.7.182,15.379,0,15.486,0a.193.193,0,0,1,.194.188.191.191,0,0,1-.188.194c-.071,0-4.818.082-9.377.082" transform="translate(-520.624 -213.896)" fill="#995b31"/>
        <path id="Trazado_1015935" data-name="Trazado 1015935" d="M598.714,207.04a.191.191,0,0,1-.17-.278,3.663,3.663,0,0,1,.226-.372l.045-.067a2.46,2.46,0,0,0,.467-.972,5.858,5.858,0,0,0,0-.894,3.09,3.09,0,0,1,.249-1.711c.066-.126.14-.264.218-.407.7-1.275,1.8-3.057,2.06-3.428.288-.4.9-1.2.93-1.232a.191.191,0,1,1,.3.234c-.006.008-.637.823-.921,1.22-.26.365-1.344,2.125-2.036,3.389-.077.141-.15.277-.217.4a2.765,2.765,0,0,0-.2,1.512,6.086,6.086,0,0,1-.007.965,2.8,2.8,0,0,1-.528,1.133l-.045.066a3.358,3.358,0,0,0-.2.333.191.191,0,0,1-.17.1" transform="translate(-515.796 -170.292)" fill="#995b31"/>
        <path id="Trazado_1015936" data-name="Trazado 1015936" d="M889.167,218.454a.191.191,0,0,1-.191-.179l-.115-1.885a13.218,13.218,0,0,0-1.078-4.227c-.839-1.642-1.541-2.968-1.548-2.981a.191.191,0,0,1,.337-.179c.007.013.711,1.342,1.551,2.986a13.338,13.338,0,0,1,1.119,4.375l.116,1.887a.191.191,0,0,1-.179.2h-.012" transform="translate(-763.72 -180.027)" fill="#995b31"/>
        <path id="Trazado_1015937" data-name="Trazado 1015937" d="M622.66,348.836a.191.191,0,0,1-.155-.3,14.455,14.455,0,0,0,1.209-3.139,29.455,29.455,0,0,1-7.052,1.405c-4.691.414-20.88-.049-24.553-.417l-1.037-.1c-3.869-.369-10.261-.98-13.539-2.884a5.928,5.928,0,0,0,.654,2.263.191.191,0,0,1-.335.182,6.24,6.24,0,0,1-.717-2.8.191.191,0,0,1,.3-.157c3.089,2,9.718,2.637,13.679,3.015.372.036.72.069,1.038.1,3.664.366,19.807.829,24.481.416a26.9,26.9,0,0,0,7.3-1.512.191.191,0,0,1,.258.226,17.073,17.073,0,0,1-1.371,3.624.191.191,0,0,1-.155.079" transform="translate(-497.364 -295.467)" fill="#995b31"/>
        <path id="Trazado_1015938" data-name="Trazado 1015938" d="M619.131,356.487c-4.266,0-9.773-.148-16.12-.443-11.839-.551-16.136-2.615-16.313-2.7a.191.191,0,0,1,.169-.342c.043.021,4.422,2.117,16.161,2.664,12.154.565,21.532.584,24.474.049a22.617,22.617,0,0,0,3.984-.959.191.191,0,0,1,.15.351,22.219,22.219,0,0,1-4.065.984,58.177,58.177,0,0,1-8.44.4" transform="translate(-505.513 -304.19)" fill="#995b31"/>
        <path id="Trazado_1015939" data-name="Trazado 1015939" d="M618.8,362.512c-4.266,0-9.773-.148-16.12-.443-11.839-.551-16.136-2.615-16.313-2.7a.191.191,0,1,1,.169-.342c.043.021,4.422,2.117,16.161,2.663,12.154.565,21.532.584,24.474.049a22.618,22.618,0,0,0,3.984-.959.191.191,0,0,1,.15.351,22.237,22.237,0,0,1-4.065.984,58.181,58.181,0,0,1-8.44.4" transform="translate(-505.225 -309.382)" fill="#995b31"/>
        <path id="Trazado_1015940" data-name="Trazado 1015940" d="M627.858,373.117c-4.2,0-13.476-.394-19.5-.837a49.692,49.692,0,0,1-10.592-1.859.191.191,0,0,1,.118-.363,49.325,49.325,0,0,0,10.5,1.841c6.342.466,16.3.878,20.106.832s9.189-.417,10.048-.6a.191.191,0,1,1,.078.374c-.871.183-6.307.559-10.121.606-.2,0-.412,0-.641,0" transform="translate(-515.031 -318.9)" fill="#995b31"/>
        <path id="Trazado_1015941" data-name="Trazado 1015941" d="M595.762,269.477a.194.194,0,0,1-.042,0,5.614,5.614,0,0,1-1.047-.342c-.1-.043-.193-.09-.283-.138-1.717-.614-1.339-2.408-1.035-3.85.05-.239.1-.465.135-.679a.191.191,0,0,1,.376.065c-.038.221-.086.45-.138.693-.3,1.435-.614,2.918.8,3.417a.179.179,0,0,1,.027.012c.086.047.178.091.271.133a5.229,5.229,0,0,0,.976.318.191.191,0,0,1-.042.377" transform="translate(-511.116 -227.771)" fill="#995b31"/>
        <path id="Trazado_1015942" data-name="Trazado 1015942" d="M879.417,281.434a.191.191,0,0,1-.011-.381c2.183-.125,3.694-.848,4.254-2.035a2.674,2.674,0,0,0-.338-2.709.191.191,0,0,1,.308-.226,3.055,3.055,0,0,1,.375,3.1c-.622,1.32-2.248,2.12-4.577,2.254h-.011" transform="translate(-757.7 -237.855)" fill="#995b31"/>
        <path id="Trazado_1015943" data-name="Trazado 1015943" d="M670.754,136.811l-33.584-1.573s4.348-8.7,5.366-9.946c0,0,16.514-.278,24.147,1.064,0,0,3.284,6.846,4.071,10.454" transform="translate(-549.101 -107.954)" fill="#44382c"/>
        <path id="Trazado_1015944" data-name="Trazado 1015944" d="M706.876,114.505h-.005c-1.121-.031-3.1-.128-5.386-.241-5.43-.267-12.866-.633-16.215-.488a.189.189,0,0,1-.2-.182.191.191,0,0,1,.182-.2c3.367-.146,10.813.22,16.251.488,2.286.113,4.261.21,5.378.241a.191.191,0,0,1-.005.382" transform="translate(-590.381 -97.693)" fill="#995b31"/>
        <path id="Trazado_1015945" data-name="Trazado 1015945" d="M631.8,132.518a.188.188,0,0,1-.089-.022.191.191,0,0,1-.079-.258l2.818-5.319c.511-.965,1.076-1.917,1.677-2.83l1.065-1.616a.191.191,0,0,1,.319.21l-1.065,1.616c-.594.9-1.152,1.844-1.658,2.8l-2.818,5.319a.19.19,0,0,1-.169.1" transform="translate(-544.306 -105.471)" fill="#995b31"/>
        <path id="Trazado_1015946" data-name="Trazado 1015946" d="M853.447,133.585a.191.191,0,0,1-.181-.13c-.922-2.732-4.98-10.961-5.021-11.044a.191.191,0,1,1,.342-.169c.041.083,4.11,8.335,5.041,11.091a.191.191,0,0,1-.12.242.188.188,0,0,1-.061.01" transform="translate(-730.984 -105.254)" fill="#995b31"/>
        <path id="Trazado_1015947" data-name="Trazado 1015947" d="M667.841,273.9c-2.688,0-12.533-.289-17.6-.625-5.183-.343-8.887-.737-8.924-.741a.191.191,0,1,1,.04-.38c.037,0,3.734.4,8.909.739,5.063.335,14.893.624,17.577.624,2.526,0,3.946-.137,3.96-.138a.191.191,0,1,1,.037.38c-.014,0-1.45.14-4,.14" transform="translate(-552.526 -234.537)" fill="#995b31"/>
        <path id="Trazado_1015948" data-name="Trazado 1015948" d="M698.09,338.273l-16.5-.576a.348.348,0,0,1-.335-.359l.13-3.71a.348.348,0,0,1,.359-.335l16.5.576a.348.348,0,0,1,.335.359l-.129,3.71a.348.348,0,0,1-.359.335" transform="translate(-587.088 -287.226)" fill="#fff"/>
        <path id="Trazado_1015949" data-name="Trazado 1015949" d="M577.891,312.54a.191.191,0,0,1-.162-.292l.028-.048c.209-.362.6-1.036,3.57-.455a8.769,8.769,0,0,0,3.01.189,5.559,5.559,0,0,0-1.243-.335c-.5-.093-.948-.165-1.385-.234-2.1-.332-3.489-.551-4.307-2.553a.191.191,0,1,1,.354-.145c.737,1.8,1.9,1.986,4.014,2.32.439.07.894.141,1.4.236,1.528.288,1.615.538,1.653.645a.267.267,0,0,1-.054.268c-.321.371-2.048.268-3.51-.018-2.705-.528-3.028.032-3.166.27l-.035.06a.191.191,0,0,1-.162.09m6.576-.526h0Z" transform="translate(-497.582 -265.902)" fill="#995b31"/>
        <path id="Trazado_1015950" data-name="Trazado 1015950" d="M919.078,181.429c-3.97.552-7.169,1.434-7.058,2.757.088,1.055.223,2.412-1.251,2.9a4.542,4.542,0,0,1-1.469.185,12.688,12.688,0,0,0-4.853.772l-.086-.527c.068-.024,2.916-.466,4.019-2.56s2.206-6.617,6.838-7.058a8.508,8.508,0,0,1,2.047.05c3.41.508,5.163,3.014,1.813,3.479" transform="translate(-779.361 -153.277)" fill="#c5d3de"/>
        <path id="Trazado_1015951" data-name="Trazado 1015951" d="M605.807,235.852l.092-.385,41.094,1.7.331,2.109s-14.287.219-19.047-.148-15.274-.846-18.729-1.287-3.786-.515-3.786-.515l-.033-.373a3.427,3.427,0,0,1,.079-1.1" transform="translate(-521.993 -202.921)" fill="#331b0a"/>
        <path id="Trazado_1015952" data-name="Trazado 1015952" d="M637.305,238.336c-3.892,0-8.067-.045-10.235-.213-1.79-.138-4.386-.292-7.134-.454-4.643-.274-9.444-.558-11.6-.833-3.425-.437-3.79-.515-3.8-.518a.191.191,0,0,1-.149-.169l-.033-.373a3.612,3.612,0,0,1,.084-1.158l.092-.385a.194.194,0,0,1,.194-.147l41.094,1.7a.191.191,0,0,1,.181.161l.33,2.109a.19.19,0,0,1-.185.22c-.077,0-4.258.064-8.83.064m-32.559-2.368c.289.046,1.155.172,3.633.489,2.148.274,7.159.57,11.579.831,2.75.162,5.347.316,7.141.454,4.375.338,16.986.176,18.81.151l-.272-1.737-40.781-1.683-.055.232a3.23,3.23,0,0,0-.075,1.036Zm-.131-1.307h0Z" transform="translate(-520.801 -201.731)" fill="#995b31"/>
        <path id="Trazado_1015953" data-name="Trazado 1015953" d="M550.95,145.622l-.244.354s-.252-1.879-1.814-2.229c-.581-.13-1.02-.185-1.325-.286-.514-.17-.648-.467-.441-1.459.331-1.581,1.343-1.691.68-2.444s-4.062-.221-6.175-2.427a1.734,1.734,0,0,1-.212-2.542,6.081,6.081,0,0,1,4.183-1.667,5.215,5.215,0,0,1,5.238,4.65c.129,2.389-2.573,2.665-1.4,4.558s1.507,2.114,1.507,3.492" transform="translate(-466.189 -114.548)" fill="#c5d3de"/>
        <path id="Trazado_1015954" data-name="Trazado 1015954" d="M548.254,151.74c-.349,1.117-.609,1.7-.687,2.122-.515-.17-.648-.466-.441-1.459.331-1.581,1.342-1.692.68-2.445s-4.062-.221-6.175-2.427a1.734,1.734,0,0,1-.213-2.542c1.587,3.21,3.98,3.143,6.247,3.369,2.451.246,1.324,1.03.589,3.382" transform="translate(-466.189 -124.949)" fill="#b2c3ce"/>
        <path id="Trazado_1015955" data-name="Trazado 1015955" d="M959.027,181.985c-3.97.552-7.169,1.434-7.058,2.757.087,1.055.223,2.412-1.251,2.9a1.37,1.37,0,0,0,.369-.99c-.073-1.728-.625-2.867,2.867-4.559,2.91-1.408,4.365-1.414,3.26-3.589,3.41.508,5.163,3.014,1.813,3.479" transform="translate(-819.31 -153.833)" fill="#b2c3ce"/>
        <path id="Trazado_1015956" data-name="Trazado 1015956" d="M754.167,440.032l-.282.881s-2.044.987-3.313,1.762,1.022.564,3.137.211,2.291-.74,2.432-1.3a9.3,9.3,0,0,0,.141-1.656Z" transform="translate(-646.515 -379.12)" fill="#01050f"/>
        <path id="Trazado_1015957" data-name="Trazado 1015957" d="M865.876,442.072l.282.881s2.044.987,3.313,1.762-1.022.564-3.137.211-2.291-.74-2.432-1.3a9.3,9.3,0,0,1-.141-1.656Z" transform="translate(-744.372 -380.878)" fill="#01050f"/>
        <path id="Trazado_1015958" data-name="Trazado 1015958" d="M776.611,237.9s-1.457,9.539-2.35,13.674c-.654,3.03-1.786,10.385-1.786,10.385l3.289.47s1.551-7.143,3.2-12.453,3.1-9.492,3.1-9.492.423,2.631.8,6.72c.366,3.984,1.692,15.46,1.692,15.46l3.148-.376s-.188-22.039-.188-24.342a19.546,19.546,0,0,0-.8-4.9l-9.058.039a21.265,21.265,0,0,0-1.041,4.813" transform="translate(-665.705 -200.834)" fill="#1b1b2d"/>
        <path id="Trazado_1015959" data-name="Trazado 1015959" d="M802.3,242.34a.191.191,0,0,1-.127-.334,13.366,13.366,0,0,0,2.109-2.548.191.191,0,0,1,.322.206,13.507,13.507,0,0,1-2.178,2.628.191.191,0,0,1-.126.048" transform="translate(-691.243 -206.285)" fill="#131323"/>
        <path id="Trazado_1015960" data-name="Trazado 1015960" d="M868.625,246.875a.19.19,0,0,1-.143-.065,11.085,11.085,0,0,1-1.87-3.6.191.191,0,0,1,.366-.109,10.913,10.913,0,0,0,1.79,3.457.191.191,0,0,1-.143.317" transform="translate(-746.823 -209.382)" fill="#131323"/>
        <path id="Trazado_1015961" data-name="Trazado 1015961" d="M835.961,246.613h0a.191.191,0,0,1-.188-.194l.033-2.312-.672-1a.191.191,0,0,1-.032-.1l-.079-2.876a.191.191,0,0,1,.186-.2h.005a.191.191,0,0,1,.191.186l.077,2.82.675,1a.191.191,0,0,1,.033.109l-.034,2.372a.191.191,0,0,1-.191.188" transform="translate(-719.604 -206.774)" fill="#131323"/>
        <path id="Trazado_1015962" data-name="Trazado 1015962" d="M840.346,247.341a.191.191,0,0,1-.191-.188L840.1,243.7a.191.191,0,0,1,.188-.194h0a.191.191,0,0,1,.191.188l.052,3.451a.191.191,0,0,1-.188.194Z" transform="translate(-723.984 -209.85)" fill="#131323"/>
        <path id="Trazado_1015963" data-name="Trazado 1015963" d="M811.544,141.749c-2.444,0-3.729,1.021-4.117,3.452s.235,2.921.235,5.96a32.71,32.71,0,0,1-.275,3.5l9.45.17s-.453-2.314-.549-3.2a35.338,35.338,0,0,1-.427-3.829c-.047-1.894-.11-4.341-.906-5.19-1.176-1.255-2.108-.864-3.412-.864" transform="translate(-695.716 -122.107)" fill="#83a7b0"/>
        <path id="Trazado_1015964" data-name="Trazado 1015964" d="M834.085,131.768V132.9a.8.8,0,0,1-1.6,0v-1.128a.8.8,0,1,1,1.6,0" transform="translate(-717.421 -112.867)" fill="#fcc5b1"/>
        <path id="Trazado_1015965" data-name="Trazado 1015965" d="M824.438,98.669c0,1.358-1.128,3.884-2.519,3.884s-2.519-2.526-2.519-3.884a2.52,2.52,0,0,1,5.038,0" transform="translate(-706.143 -82.912)" fill="#fcc5b1"/>
        <path id="Trazado_1015966" data-name="Trazado 1015966" d="M927.149,159.745c-.169-.1-.475-.083-1.528.076s-1.2.837-1.817,1.294l-.3.345.01.358a2.812,2.812,0,0,0,.83-.22c.325-.169,1.03-.322,1.37-.471a4.072,4.072,0,0,0,.913-.551c.468-.379.7-.734.526-.831" transform="translate(-795.854 -137.612)" fill="#fcc5b1"/>
        <path id="Trazado_1015967" data-name="Trazado 1015967" d="M927.169,160.093l.512.038.272-.445a7.1,7.1,0,0,1,.454-.547c.062-.049.137-.1.222-.155h0l.107-.066c.116-.071.225-.248.025-.237a.681.681,0,0,0-.1.016c-.332.079-.551.073-.764.3a5.769,5.769,0,0,0-.726,1.1" transform="translate(-799.016 -136.749)" fill="#fcc5b1"/>
        <path id="Trazado_1015968" data-name="Trazado 1015968" d="M832.922,140.407a2.257,2.257,0,0,1-.782-.144.127.127,0,0,1,.1-.236,1.7,1.7,0,0,0,1.387-.063.127.127,0,0,1,.137.215,1.54,1.54,0,0,1-.838.229" transform="translate(-717.055 -120.601)" fill="#ce8974"/>
        <path id="Trazado_1015969" data-name="Trazado 1015969" d="M855.932,145.949c1.549,1.206,2.269,2.617,3.859,4.481s-.219,4.057-3.015,2.138-.844-6.619-.844-6.619" transform="translate(-737.055 -125.776)" fill="#83a7b0"/>
        <path id="Trazado_1015970" data-name="Trazado 1015970" d="M877.041,168.216a40.686,40.686,0,0,1,6.332-1.645l.493.987s-4.482,3.413-6.62,3.5-.205-2.837-.205-2.837" transform="translate(-755.126 -143.548)" fill="#83a7b0"/>
        <path id="Trazado_1015971" data-name="Trazado 1015971" d="M729.307,159.674c.169-.1.475-.083,1.528.076s1.2.837,1.817,1.294l.3.345-.01.358a2.814,2.814,0,0,1-.83-.22c-.325-.169-1.03-.322-1.37-.471a4.067,4.067,0,0,1-.913-.551c-.468-.379-.7-.734-.526-.831" transform="translate(-628.455 -137.551)" fill="#fcc5b1"/>
        <path id="Trazado_1015972" data-name="Trazado 1015972" d="M741.752,160.022l-.512.038-.272-.445a7.1,7.1,0,0,0-.454-.547c-.062-.049-.137-.1-.222-.155h0l-.107-.066c-.116-.071-.225-.248-.025-.237a.679.679,0,0,1,.1.016c.332.079.551.073.764.3a5.767,5.767,0,0,1,.726,1.1" transform="translate(-637.758 -136.687)" fill="#fcc5b1"/>
        <path id="Trazado_1015973" data-name="Trazado 1015973" d="M791.5,147.758c-1.549,1.206-2.04,2.357-3.63,4.221s.219,4.057,3.015,2.138.615-6.359.615-6.359" transform="translate(-678.46 -127.335)" fill="#83a7b0"/>
        <path id="Trazado_1015974" data-name="Trazado 1015974" d="M754.962,168.145a40.687,40.687,0,0,0-6.332-1.645l-.493.987s4.482,3.413,6.62,3.5.206-2.837.206-2.837" transform="translate(-644.73 -143.486)" fill="#83a7b0"/>
        <path id="Trazado_1015975" data-name="Trazado 1015975" d="M807.936,233.007a5.146,5.146,0,0,0,2.568.7,18.591,18.591,0,0,1,3.8.392c2.216.333,3.235-.118,3.078-.922s-2.921-.51-5.235-.549a20.281,20.281,0,0,0-4.215.379" transform="translate(-696.264 -200.456)" fill="#83a7b0"/>
        <path id="Trazado_1015976" data-name="Trazado 1015976" d="M821.565,93.333a4.488,4.488,0,0,1-2.108,1.657c-.637.206-.725-.3-.725-.3a3.251,3.251,0,0,1-1.216.6c-.833.245-.676-.99-.353-1.725a2.754,2.754,0,0,1,2.716-1.294,2.306,2.306,0,0,1,1.686,1.069" transform="translate(-703.991 -79.493)" fill="#3d231f"/>
        <path id="Trazado_1015977" data-name="Trazado 1015977" d="M845.185,96.844a1.766,1.766,0,0,0,1.033,1.542c.575.209.68-.444.261-1.373-.337-.748-.81-1.163-1.19-.967-.58.3-.1.8-.1.8" transform="translate(-728.206 -82.729)" fill="#3d231f"/>
        <path id="Trazado_1015978" data-name="Trazado 1015978" d="M851.69,116.455c.353-.588.523-.144.431.392s-.6.889-.863.8.431-1.19.431-1.19" transform="translate(-733.547 -100.118)" fill="#fcc5b1"/>
        <path id="Trazado_1015979" data-name="Trazado 1015979" d="M818.178,116.455c-.353-.588-.523-.144-.432.392s.6.889.863.8-.431-1.19-.431-1.19" transform="translate(-704.697 -100.118)" fill="#fcc5b1"/>
        <path id="Trazado_1015980" data-name="Trazado 1015980" d="M806.748,167.645a.191.191,0,0,1-.19-.176c-.136-1.793-.079-4.249-.079-4.274a.194.194,0,0,1,.2-.186.191.191,0,0,1,.186.2c0,.024-.057,2.462.078,4.235a.191.191,0,0,1-.176.2h-.015" transform="translate(-694.997 -140.477)" fill="#5c8089"/>
        <path id="Trazado_1015981" data-name="Trazado 1015981" d="M865.066,167.193a.191.191,0,0,1-.189-.165l-.588-4.372a.191.191,0,1,1,.378-.051l.588,4.372a.191.191,0,0,1-.164.215l-.026,0" transform="translate(-744.826 -139.987)" fill="#5c8089"/>
        <path id="Trazado_1015982" data-name="Trazado 1015982" d="M867.174,171.077h-.006a.191.191,0,0,1-.185-.2,10.853,10.853,0,0,1,.219-1.619.191.191,0,1,1,.374.075,10.732,10.732,0,0,0-.212,1.557.191.191,0,0,1-.191.185" transform="translate(-747.149 -145.733)" fill="#5c8089"/>
        <path id="Trazado_1015983" data-name="Trazado 1015983" d="M803.065,173.32a.191.191,0,0,1-.186-.147c0-.012-.277-1.172-.573-2.214a.191.191,0,0,1,.368-.1c.3,1.051.575,2.219.577,2.23a.191.191,0,0,1-.186.235" transform="translate(-691.405 -147.12)" fill="#5c8089"/>
        <path id="Trazado_1015984" data-name="Trazado 1015984" d="M787.927,177.266a.191.191,0,0,1-.183-.247,7.009,7.009,0,0,1,.567-1.406.191.191,0,1,1,.3.231,6.668,6.668,0,0,0-.505,1.286.191.191,0,0,1-.182.135" transform="translate(-678.855 -151.275)" fill="#5c8089"/>
        <path id="Trazado_1015985" data-name="Trazado 1015985" d="M880.647,177.516a.191.191,0,0,1-.191-.185,2.75,2.75,0,0,1,.692-1.934.191.191,0,1,1,.253.286,2.409,2.409,0,0,0-.563,1.635.191.191,0,0,1-.185.2h-.006" transform="translate(-758.76 -151.113)" fill="#5c8089"/>
        <path id="Trazado_1015986" data-name="Trazado 1015986" d="M816.684,223.173a1.693,1.693,0,0,1-.592-.142,2.281,2.281,0,0,0-1.083-.181c-.586.048-1.039-.151-1.08-.475-.019-.148.034-.509.928-.661a8.146,8.146,0,0,1,1.847.083c1.529.165,3.623.39,4.5-.525a.191.191,0,0,1,.275.265c-1.011,1.049-3.124.822-4.821.639a8.066,8.066,0,0,0-1.742-.087c-.473.08-.6.213-.613.244.02.046.251.171.67.136a2.648,2.648,0,0,1,1.247.2,1.1,1.1,0,0,0,.543.112.191.191,0,1,1,.06.377.917.917,0,0,1-.143.011" transform="translate(-701.426 -190.638)" fill="#5c8089"/>
        <path id="Trazado_1015987" data-name="Trazado 1015987" d="M174.771,384.335l.282.881s2.044.987,3.313,1.762-1.022.564-3.137.211-2.291-.74-2.432-1.3a9.3,9.3,0,0,1-.141-1.657Z" transform="translate(-148.792 -331.121)" fill="#01050f"/>
        <path id="Trazado_1015988" data-name="Trazado 1015988" d="M63.063,386.375l-.282.881s-2.044.987-3.313,1.762,1.022.564,3.137.211,2.291-.74,2.432-1.3a9.3,9.3,0,0,0,.141-1.656Z" transform="translate(-50.935 -332.879)" fill="#01050f"/>
        <path id="Trazado_1015989" data-name="Trazado 1015989" d="M95.268,182.2s1.457,9.539,2.35,13.674c.654,3.03,1.786,10.385,1.786,10.385l-3.289.47s-1.551-7.143-3.2-12.453-3.1-9.492-3.1-9.492-.423,2.631-.8,6.72c-.366,3.984-1.692,15.46-1.692,15.46l-3.148-.376s.188-22.039.188-24.342a19.546,19.546,0,0,1,.8-4.9l9.058.039a21.262,21.262,0,0,1,1.041,4.813" transform="translate(-72.543 -152.835)" fill="#331a13"/>
        <path id="Trazado_1015990" data-name="Trazado 1015990" d="M148.758,186.644a.19.19,0,0,1-.126-.048,13.5,13.5,0,0,1-2.178-2.629.191.191,0,0,1,.322-.206,13.373,13.373,0,0,0,2.109,2.548.191.191,0,0,1-.127.334" transform="translate(-126.185 -158.287)" fill="#210e0a"/>
        <path id="Trazado_1015991" data-name="Trazado 1015991" d="M84.389,191.178a.191.191,0,0,1-.143-.317,10.9,10.9,0,0,0,1.79-3.457.191.191,0,1,1,.366.109,11.086,11.086,0,0,1-1.87,3.6.19.19,0,0,1-.143.065" transform="translate(-72.561 -161.383)" fill="#210e0a"/>
        <path id="Trazado_1015992" data-name="Trazado 1015992" d="M123.574,187.782a.191.191,0,0,1-.191-.188l-.034-2.372a.191.191,0,0,1,.033-.109l.675-1,.106-3.323a.191.191,0,0,1,.382.012l-.108,3.378a.191.191,0,0,1-.032.1l-.672,1,.033,2.312a.191.191,0,0,1-.188.194Z" transform="translate(-106.3 -155.641)" fill="#210e0a"/>
        <path id="Trazado_1015993" data-name="Trazado 1015993" d="M123.373,185.433a.191.191,0,0,1-.191-.188l-.061-4.447a.191.191,0,1,1,.382-.005l.061,4.447a.191.191,0,0,1-.188.193Z" transform="translate(-106.103 -155.641)" fill="#210e0a"/>
        <path id="Trazado_1015994" data-name="Trazado 1015994" d="M93.481,78.094c-2.431-.258-4.166.116-4.808,2.494a25.6,25.6,0,0,0-.838,4.884,29.785,29.785,0,0,0,.03,3.42c.032.664-.187,2.367.314,2.879a1.227,1.227,0,0,0,.878.25q1.922.04,3.84.116l3.869.148c1.018.039.859-.687.956-1.476.142-1.152.272-2.307.348-3.466.169-2.573.345-5.871-1.288-8.03-1.037-1.372-2-1.082-3.3-1.219" transform="translate(-75.662 -67.24)" fill="#cc896e"/>
        <path id="Trazado_1015995" data-name="Trazado 1015995" d="M124.819,68.333l-.119,1.122a.8.8,0,1,1-1.589-.168l.119-1.122a.8.8,0,1,1,1.589.168" transform="translate(-106.091 -58.127)" fill="#edb3a2"/>
        <path id="Trazado_1015996" data-name="Trazado 1015996" d="M118.3,35.469c-.143,1.351-1.531,3.744-2.914,3.6s-2.239-2.778-2.1-4.128a2.52,2.52,0,0,1,5.01.531" transform="translate(-97.614 -28.218)" fill="#edb3a2"/>
        <path id="Trazado_1015997" data-name="Trazado 1015997" d="M124.105,76.849a2.224,2.224,0,0,1-.957-.236.127.127,0,0,1,.12-.224,1.7,1.7,0,0,0,1.386.083.127.127,0,0,1,.114.228,1.472,1.472,0,0,1-.663.15" transform="translate(-106.069 -65.817)" fill="#db9483"/>
        <path id="Trazado_1015998" data-name="Trazado 1015998" d="M144.335,54.973c.413-.548.535-.088.388.435s-.692.82-.942.7.554-1.137.554-1.137" transform="translate(-123.866 -47.162)" fill="#edb3a2"/>
        <path id="Trazado_1015999" data-name="Trazado 1015999" d="M111.6,51.035c-.289-.622-.5-.2-.47.344s.5.947.774.884-.3-1.228-.3-1.228" transform="translate(-95.765 -43.715)" fill="#edb3a2"/>
        <path id="Trazado_1016000" data-name="Trazado 1016000" d="M116.468,27.767c-.05,1.344-2.193,1.856-3.433,1.872s-.9-.706-.38-1.648a2.781,2.781,0,0,1,2.844-1.2,1.382,1.382,0,0,1,.969.971" transform="translate(-96.678 -23.029)" fill="#3d231f"/>
        <path id="Trazado_1016001" data-name="Trazado 1016001" d="M139.033,32.757c.364,1.443,1.079,1.886,1.464,1.984s.38-.9.09-1.652-1.463-1.19-1.463-1.19Z" transform="translate(-119.816 -27.489)" fill="#3d231f"/>
        <path id="Trazado_1016002" data-name="Trazado 1016002" d="M95.059,183.4c-2.934,0-5.89-.154-5.932-.156a.191.191,0,0,1-.181-.2.193.193,0,0,1,.2-.181c.059,0,5.928.309,9.313.055a.191.191,0,1,1,.029.381c-1,.075-2.213.1-3.43.1" transform="translate(-76.652 -157.59)" fill="#210e0a"/>
        <path id="Trazado_1016003" data-name="Trazado 1016003" d="M107.266,27.951c-.169-.113-.487-.121-1.593-.031s-1.178.7-1.852,1.128l-.454.091-.032.7a3.652,3.652,0,0,0,.9-.2c.35-.152,1.076-.225,1.44-.355a4.233,4.233,0,0,0,.988-.506c.514-.36.776-.713.607-.826" transform="translate(-89.052 -24.008)" fill="#edb3a2"/>
        <path id="Trazado_1016004" data-name="Trazado 1016004" d="M62.964,45.41C62.179,43.8,60.3,41.36,59.608,40s1.382-2.521,3.022-3.325,3.383-1.61,3.7-1.236a1.282,1.282,0,0,1,.338.6,23.11,23.11,0,0,0-2.012,1.874c-.615.713-1.335,1.44-1.335,1.44a3.987,3.987,0,0,0,.637,1.276,2.382,2.382,0,0,0,1.581.781c.48-.039,1.422-.138,2.017-.159a34.853,34.853,0,0,1-.808,3.418l-.794,1.6L63.479,53.73Z" transform="translate(-51.251 -30.457)" fill="#cc896e"/>
        <path id="Trazado_1016005" data-name="Trazado 1016005" d="M110.477,26.054c-.072.037-.138.071-.2.106l0,0a0,0,0,0,0,0,0,1.586,1.586,0,0,0-.159.1,7,7,0,0,0-.513.535l-.315.442-.529-.077c.049-.072.1-.145.143-.213a5.081,5.081,0,0,1,.692-.876c.238-.217.466-.2.818-.252a.031.031,0,0,1,.013,0c.336-.051.193.164.053.236" transform="translate(-93.726 -22.243)" fill="#edb3a2"/>
        <path id="Trazado_1016006" data-name="Trazado 1016006" d="M135.27,28.477c.184-.085.5-.044,1.579.216s1.056.873,1.655,1.4l.434.16-.078.7a3.654,3.654,0,0,1-.854-.34c-.322-.2-1.028-.389-1.367-.574a4.239,4.239,0,0,1-.9-.653c-.452-.435-.656-.824-.471-.91" transform="translate(-116.515 -24.506)" fill="#edb3a2"/>
        <path id="Trazado_1016007" data-name="Trazado 1016007" d="M145.4,49.666c1.026-1.47,3.26-3.587,4.155-4.827s-.974-2.7-2.47-3.753-3.092-2.115-3.462-1.795a1.281,1.281,0,0,0-.428.545A23.126,23.126,0,0,1,144.9,42c.5.8,1.1,1.63,1.1,1.63a3.984,3.984,0,0,1-.827,1.162,2.383,2.383,0,0,1-1.683.526c-.469-.113-1.384-.357-1.968-.469a34.872,34.872,0,0,0,.268,3.5l.536,1.7,1.288,7.751Z" transform="translate(-121.934 -33.811)" fill="#cc896e"/>
        <path id="Trazado_1016008" data-name="Trazado 1016008" d="M145.521,27.866c.066.048.125.091.178.136l0,0a0,0,0,0,1,0,0,1.6,1.6,0,0,1,.142.119,7,7,0,0,1,.424.608l.242.486.534.006c-.037-.079-.071-.158-.108-.232a5.074,5.074,0,0,0-.548-.973c-.2-.251-.429-.266-.769-.376a.029.029,0,0,0-.013,0c-.324-.1-.216.132-.089.225" transform="translate(-125.299 -23.799)" fill="#edb3a2"/>
        <path id="Trazado_1016009" data-name="Trazado 1016009" d="M61.533,34.515a3.355,3.355,0,0,1,1.238,1.85l-2.647,2.4a2.645,2.645,0,0,0,1.164,1.4,7.506,7.506,0,0,0,2.965.294l-.392,14.986s-3.823-.392-4.852-1.078l.049-9.46s-3.039-5.048-3.431-6.225,1.121-2.108,2.426-2.7,3.48-1.47,3.48-1.47" transform="translate(-47.884 -29.744)" fill="#21120d"/>
        <path id="Trazado_1016010" data-name="Trazado 1016010" d="M142.643,34.515a3.355,3.355,0,0,0-1.238,1.85l2.22,3.37a6.888,6.888,0,0,1-.737.429,12.533,12.533,0,0,1-3.447.38l.874,14.9s3.823-.392,4.852-1.078l-.049-9.46s3.114-2.818,3.506-3.995-.957-2.661-2.1-3.529c-1.47-1.121-3.886-2.867-3.886-2.867" transform="translate(-120.168 -29.744)" fill="#21120d"/>
        <path id="Trazado_1016011" data-name="Trazado 1016011" d="M81.42,84.131a.126.126,0,0,1-.071-.022.127.127,0,0,1-.034-.177,14.631,14.631,0,0,0,1.5-3.927.127.127,0,1,1,.248.056,14.584,14.584,0,0,1-1.538,4.013.127.127,0,0,1-.105.056" transform="translate(-70.057 -68.861)" fill="#110805"/>
        <path id="Trazado_1016012" data-name="Trazado 1016012" d="M167.449,89.647a.127.127,0,0,1-.087-.035,8.323,8.323,0,0,1-1.932-3.065.127.127,0,1,1,.241-.083,8.207,8.207,0,0,0,1.866,2.963.127.127,0,0,1-.087.22" transform="translate(-142.558 -74.439)" fill="#110805"/>
        <path id="Trazado_1016013" data-name="Trazado 1016013" d="M107.66,99.179h0a.127.127,0,0,1-.124-.131L107.9,85.7a.127.127,0,0,1,.127-.124h0a.127.127,0,0,1,.124.131l-.368,13.344a.127.127,0,0,1-.127.124" transform="translate(-92.67 -73.752)" fill="#110805"/>
        <path id="Trazado_1016014" data-name="Trazado 1016014" d="M145.9,99.522a.127.127,0,0,1-.127-.119l-.833-13.331a.127.127,0,1,1,.254-.016l.833,13.331a.127.127,0,0,1-.119.135H145.9" transform="translate(-124.91 -74.058)" fill="#110805"/>
        <path id="Trazado_1016015" data-name="Trazado 1016015" d="M106.239,78.884a1.3,1.3,0,0,1-1.011-.331.911.911,0,0,1-.144-.854.127.127,0,1,1,.248.059.677.677,0,0,0,.087.626c.186.211.6.289,1.209.223a.127.127,0,0,1,.028.253,3.869,3.869,0,0,1-.416.024" transform="translate(-90.524 -66.875)" fill="#110805"/>
        <path id="Trazado_1016016" data-name="Trazado 1016016" d="M142.574,78.955q-.205,0-.439-.021a.127.127,0,0,1,.023-.254c.769.069,1.285-.041,1.495-.319a.667.667,0,0,0,.066-.587.127.127,0,0,1,.237-.093.914.914,0,0,1-.1.83,1.53,1.53,0,0,1-1.283.442" transform="translate(-122.389 -66.876)" fill="#110805"/>
      </g>
    </g>
  </g>
</svg>
