<svg xmlns="http://www.w3.org/2000/svg" xmlns:xlink="http://www.w3.org/1999/xlink" width="131.164" height="131.164" viewBox="0 0 131.164 131.164">
  <defs>
    <filter id="Trazado_1013806" x="0" y="0" width="131.164" height="131.164" filterUnits="userSpaceOnUse">
      <feOffset dy="3" input="SourceAlpha"/>
      <feGaussianBlur stdDeviation="3" result="blur"/>
      <feFlood flood-opacity="0.412"/>
      <feComposite operator="in" in2="blur"/>
    </filter>
    <filter id="Trazado_1013806-2" x="0" y="0" width="131.164" height="131.164" filterUnits="userSpaceOnUse">
      <feOffset dy="3" input="SourceAlpha"/>
      <feGaussianBlur stdDeviation="3" result="blur-2"/>
      <feFlood flood-opacity="0.161" result="color"/>
      <feComposite operator="out" in="SourceGraphic" in2="blur-2"/>
      <feComposite operator="in" in="color"/>
      <feComposite operator="in" in2="SourceGraphic"/>
    </filter>
    <clipPath id="clip-path">
      <rect id="Rectángulo_419908" data-name="Rectángulo 419908" width="128.511" height="70.367" fill="none"/>
    </clipPath>
  </defs>
  <g id="Grupo_1162062" data-name="Grupo 1162062" transform="translate(-236.836 9147.231)">
    <g data-type="innerShadowGroup">
      <g transform="matrix(1, 0, 0, 1, 236.84, -9147.23)" filter="url(#Trazado_1013806)">
        <g id="Trazado_1013806-3" data-name="Trazado 1013806" transform="translate(9 6)" fill="#f2f5f4" opacity="0.9">
          <path d="M 56.58214950561523 111.6642456054688 C 49.14544296264648 111.6642456054688 41.93198013305664 110.2080917358398 35.14215087890625 107.3362274169922 C 31.87862586975098 105.9558792114258 28.73084259033203 104.2473068237305 25.78624153137207 102.2579727172852 C 22.86922645568848 100.2872772216797 20.12613487243652 98.02401733398438 17.63318061828613 95.53105926513672 C 15.14022636413574 93.03810882568359 12.8769645690918 90.29502868652344 10.90627288818359 87.37801361083984 C 8.916934013366699 84.43340301513672 7.208364963531494 81.28562927246094 5.828011035919189 78.02210998535156 C 2.956149578094482 71.23227691650391 1.499995708465576 64.01881408691406 1.499995708465576 56.58212280273438 C 1.499995708465576 49.14541625976562 2.956149578094482 41.93196868896484 5.828011035919189 35.14213943481445 C 7.208364963531494 31.87861442565918 8.916934013366699 28.73083114624023 10.90627288818359 25.78623008728027 C 12.8769645690918 22.86921501159668 15.14022636413574 20.12613868713379 17.63318061828613 17.6331844329834 C 20.12613487243652 15.14023017883301 22.86922645568848 12.87696933746338 25.78624153137207 10.90627670288086 C 28.73084259033203 8.916937828063965 31.87862586975098 7.20836877822876 35.14215087890625 5.828015327453613 C 41.93198013305664 2.956153631210327 49.14544296264648 1.499999761581421 56.58214950561523 1.499999761581421 C 64.01885986328125 1.499999761581421 71.2322998046875 2.956153631210327 78.02214813232422 5.828015327453613 C 81.28565979003906 7.20836877822876 84.43344116210938 8.916937828063965 87.37805938720703 10.90627670288086 C 90.29507446289062 12.87696933746338 93.03814697265625 15.14023017883301 95.53110504150391 17.6331844329834 C 98.02405548095703 20.12613868713379 100.2873153686523 22.86921501159668 102.2580261230469 25.78623008728027 C 104.2473678588867 28.73083114624023 105.9559326171875 31.87861442565918 107.3362884521484 35.14213943481445 C 110.2081527709961 41.93196868896484 111.664306640625 49.14541625976562 111.664306640625 56.58212280273438 C 111.664306640625 64.01881408691406 110.2081527709961 71.23227691650391 107.3362884521484 78.02210998535156 C 105.9559326171875 81.28562927246094 104.2473678588867 84.43340301513672 102.2580261230469 87.37801361083984 C 100.2873153686523 90.29502868652344 98.02405548095703 93.03810882568359 95.53110504150391 95.53105926513672 C 93.03814697265625 98.02401733398438 90.29507446289062 100.2872772216797 87.37805938720703 102.2579727172852 C 84.43344116210938 104.2473068237305 81.28565979003906 105.9558792114258 78.02214813232422 107.3362274169922 C 71.2322998046875 110.2080917358398 64.01885986328125 111.6642456054688 56.58214950561523 111.6642456054688 Z" stroke="none"/>
          <path d="M 56.58214950561523 3.000007629394531 C 49.34728240966797 3.000007629394531 42.33041381835938 4.416290283203125 35.72648620605469 7.209526062011719 C 32.55214691162109 8.552139282226562 29.49030303955078 10.21408843994141 26.62594604492188 12.14920806884766 C 23.78803253173828 14.06645965576172 21.11930084228516 16.26838684082031 18.69384765625 18.69384002685547 C 16.26840209960938 21.11929321289062 14.06646728515625 23.78802490234375 12.14921569824219 26.62593841552734 C 10.21409606933594 29.49028778076172 8.552131652832031 32.55213928222656 7.209518432617188 35.72645568847656 C 4.416282653808594 42.33040618896484 3 49.34725570678711 3 56.58212280273438 C 3 63.81698989868164 4.416282653808594 70.83383941650391 7.209518432617188 77.43777465820312 C 8.552131652832031 80.61209106445312 10.21409606933594 83.67395782470703 12.14921569824219 86.53830718994141 C 14.06646728515625 89.37620544433594 16.26840209960938 92.04495239257812 18.69384765625 94.47040557861328 C 21.11930084228516 96.89584350585938 23.78803253173828 99.09777069091797 26.62594604492188 101.015022277832 C 29.49030303955078 102.9501419067383 32.55216979980469 104.6121063232422 35.72648620605469 105.954719543457 C 42.33041381835938 108.7479553222656 49.34728240966797 110.1642379760742 56.58214950561523 110.1642379760742 C 63.8170166015625 110.1642379760742 70.8338623046875 108.7479553222656 77.43782043457031 105.954719543457 C 80.61213684082031 104.6121063232422 83.67399597167969 102.9501419067383 86.53834533691406 101.015022277832 C 89.37625122070312 99.09777069091797 92.04499816894531 96.89584350585938 94.47045135498047 94.47039031982422 C 96.89589691162109 92.04495239257812 99.09783172607422 89.37620544433594 101.0150833129883 86.53830718994141 C 102.9501953125 83.67395782470703 104.6121520996094 80.61209106445312 105.9547805786133 77.43777465820312 C 108.7480163574219 70.83383941650391 110.1642990112305 63.81698989868164 110.1642990112305 56.58212280273438 C 110.1642990112305 49.34725570678711 108.7480163574219 42.33040618896484 105.9547805786133 35.72645568847656 C 104.6121520996094 32.55213928222656 102.9501953125 29.49028778076172 101.0150833129883 26.62593841552734 C 99.09783172607422 23.78804016113281 96.89589691162109 21.11929321289062 94.47045135498047 18.69384002685547 C 92.04499816894531 16.26838684082031 89.37625122070312 14.06645965576172 86.53834533691406 12.14920806884766 C 83.67399597167969 10.21408843994141 80.61213684082031 8.552139282226562 77.43782043457031 7.209526062011719 C 70.8338623046875 4.416290283203125 63.8170166015625 3.000007629394531 56.58214950561523 3.000007629394531 M 56.58214950561523 7.62939453125e-06 C 87.83160400390625 7.62939453125e-06 113.1642990112305 25.33267211914062 113.1642990112305 56.58212280273438 C 113.1642990112305 87.83155822753906 87.83160400390625 113.1642379760742 56.58214950561523 113.1642379760742 C 25.33267974853516 113.1642379760742 0 87.83155822753906 0 56.58212280273438 C 0 25.33267211914062 25.33267974853516 7.62939453125e-06 56.58214950561523 7.62939453125e-06 Z" stroke="none" fill="#fff"/>
        </g>
      </g>
      <g id="Trazado_1013806-4" data-name="Trazado 1013806" transform="translate(245.836 -9141.231)" fill="#f2f5f4" opacity="0.9">
        <path d="M 56.58214950561523 111.6642456054688 C 49.14544296264648 111.6642456054688 41.93198013305664 110.2080917358398 35.14215087890625 107.3362274169922 C 31.87862586975098 105.9558792114258 28.73084259033203 104.2473068237305 25.78624153137207 102.2579727172852 C 22.86922645568848 100.2872772216797 20.12613487243652 98.02401733398438 17.63318061828613 95.53105926513672 C 15.14022636413574 93.03810882568359 12.8769645690918 90.29502868652344 10.90627288818359 87.37801361083984 C 8.916934013366699 84.43340301513672 7.208364963531494 81.28562927246094 5.828011035919189 78.02210998535156 C 2.956149578094482 71.23227691650391 1.499995708465576 64.01881408691406 1.499995708465576 56.58212280273438 C 1.499995708465576 49.14541625976562 2.956149578094482 41.93196868896484 5.828011035919189 35.14213943481445 C 7.208364963531494 31.87861442565918 8.916934013366699 28.73083114624023 10.90627288818359 25.78623008728027 C 12.8769645690918 22.86921501159668 15.14022636413574 20.12613868713379 17.63318061828613 17.6331844329834 C 20.12613487243652 15.14023017883301 22.86922645568848 12.87696933746338 25.78624153137207 10.90627670288086 C 28.73084259033203 8.916937828063965 31.87862586975098 7.20836877822876 35.14215087890625 5.828015327453613 C 41.93198013305664 2.956153631210327 49.14544296264648 1.499999761581421 56.58214950561523 1.499999761581421 C 64.01885986328125 1.499999761581421 71.2322998046875 2.956153631210327 78.02214813232422 5.828015327453613 C 81.28565979003906 7.20836877822876 84.43344116210938 8.916937828063965 87.37805938720703 10.90627670288086 C 90.29507446289062 12.87696933746338 93.03814697265625 15.14023017883301 95.53110504150391 17.6331844329834 C 98.02405548095703 20.12613868713379 100.2873153686523 22.86921501159668 102.2580261230469 25.78623008728027 C 104.2473678588867 28.73083114624023 105.9559326171875 31.87861442565918 107.3362884521484 35.14213943481445 C 110.2081527709961 41.93196868896484 111.664306640625 49.14541625976562 111.664306640625 56.58212280273438 C 111.664306640625 64.01881408691406 110.2081527709961 71.23227691650391 107.3362884521484 78.02210998535156 C 105.9559326171875 81.28562927246094 104.2473678588867 84.43340301513672 102.2580261230469 87.37801361083984 C 100.2873153686523 90.29502868652344 98.02405548095703 93.03810882568359 95.53110504150391 95.53105926513672 C 93.03814697265625 98.02401733398438 90.29507446289062 100.2872772216797 87.37805938720703 102.2579727172852 C 84.43344116210938 104.2473068237305 81.28565979003906 105.9558792114258 78.02214813232422 107.3362274169922 C 71.2322998046875 110.2080917358398 64.01885986328125 111.6642456054688 56.58214950561523 111.6642456054688 Z" stroke="none"/>
        <path d="M 56.58214950561523 3.000007629394531 C 49.34728240966797 3.000007629394531 42.33041381835938 4.416290283203125 35.72648620605469 7.209526062011719 C 32.55214691162109 8.552139282226562 29.49030303955078 10.21408843994141 26.62594604492188 12.14920806884766 C 23.78803253173828 14.06645965576172 21.11930084228516 16.26838684082031 18.69384765625 18.69384002685547 C 16.26840209960938 21.11929321289062 14.06646728515625 23.78802490234375 12.14921569824219 26.62593841552734 C 10.21409606933594 29.49028778076172 8.552131652832031 32.55213928222656 7.209518432617188 35.72645568847656 C 4.416282653808594 42.33040618896484 3 49.34725570678711 3 56.58212280273438 C 3 63.81698989868164 4.416282653808594 70.83383941650391 7.209518432617188 77.43777465820312 C 8.552131652832031 80.61209106445312 10.21409606933594 83.67395782470703 12.14921569824219 86.53830718994141 C 14.06646728515625 89.37620544433594 16.26840209960938 92.04495239257812 18.69384765625 94.47040557861328 C 21.11930084228516 96.89584350585938 23.78803253173828 99.09777069091797 26.62594604492188 101.015022277832 C 29.49030303955078 102.9501419067383 32.55216979980469 104.6121063232422 35.72648620605469 105.954719543457 C 42.33041381835938 108.7479553222656 49.34728240966797 110.1642379760742 56.58214950561523 110.1642379760742 C 63.8170166015625 110.1642379760742 70.8338623046875 108.7479553222656 77.43782043457031 105.954719543457 C 80.61213684082031 104.6121063232422 83.67399597167969 102.9501419067383 86.53834533691406 101.015022277832 C 89.37625122070312 99.09777069091797 92.04499816894531 96.89584350585938 94.47045135498047 94.47039031982422 C 96.89589691162109 92.04495239257812 99.09783172607422 89.37620544433594 101.0150833129883 86.53830718994141 C 102.9501953125 83.67395782470703 104.6121520996094 80.61209106445312 105.9547805786133 77.43777465820312 C 108.7480163574219 70.83383941650391 110.1642990112305 63.81698989868164 110.1642990112305 56.58212280273438 C 110.1642990112305 49.34725570678711 108.7480163574219 42.33040618896484 105.9547805786133 35.72645568847656 C 104.6121520996094 32.55213928222656 102.9501953125 29.49028778076172 101.0150833129883 26.62593841552734 C 99.09783172607422 23.78804016113281 96.89589691162109 21.11929321289062 94.47045135498047 18.69384002685547 C 92.04499816894531 16.26838684082031 89.37625122070312 14.06645965576172 86.53834533691406 12.14920806884766 C 83.67399597167969 10.21408843994141 80.61213684082031 8.552139282226562 77.43782043457031 7.209526062011719 C 70.8338623046875 4.416290283203125 63.8170166015625 3.000007629394531 56.58214950561523 3.000007629394531 M 56.58214950561523 7.62939453125e-06 C 87.83160400390625 7.62939453125e-06 113.1642990112305 25.33267211914062 113.1642990112305 56.58212280273438 C 113.1642990112305 87.83155822753906 87.83160400390625 113.1642379760742 56.58214950561523 113.1642379760742 C 25.33267974853516 113.1642379760742 0 87.83155822753906 0 56.58212280273438 C 0 25.33267211914062 25.33267974853516 7.62939453125e-06 56.58214950561523 7.62939453125e-06 Z" stroke="none"/>
      </g>
      <g transform="matrix(1, 0, 0, 1, 236.84, -9147.23)" filter="url(#Trazado_1013806-2)">
        <g id="Trazado_1013806-5" data-name="Trazado 1013806" transform="translate(9 6)" fill="#fff" opacity="0.9">
          <path d="M 56.58214950561523 111.6642456054688 C 49.14544296264648 111.6642456054688 41.93198013305664 110.2080917358398 35.14215087890625 107.3362274169922 C 31.87862586975098 105.9558792114258 28.73084259033203 104.2473068237305 25.78624153137207 102.2579727172852 C 22.86922645568848 100.2872772216797 20.12613487243652 98.02401733398438 17.63318061828613 95.53105926513672 C 15.14022636413574 93.03810882568359 12.8769645690918 90.29502868652344 10.90627288818359 87.37801361083984 C 8.916934013366699 84.43340301513672 7.208364963531494 81.28562927246094 5.828011035919189 78.02210998535156 C 2.956149578094482 71.23227691650391 1.499995708465576 64.01881408691406 1.499995708465576 56.58212280273438 C 1.499995708465576 49.14541625976562 2.956149578094482 41.93196868896484 5.828011035919189 35.14213943481445 C 7.208364963531494 31.87861442565918 8.916934013366699 28.73083114624023 10.90627288818359 25.78623008728027 C 12.8769645690918 22.86921501159668 15.14022636413574 20.12613868713379 17.63318061828613 17.6331844329834 C 20.12613487243652 15.14023017883301 22.86922645568848 12.87696933746338 25.78624153137207 10.90627670288086 C 28.73084259033203 8.916937828063965 31.87862586975098 7.20836877822876 35.14215087890625 5.828015327453613 C 41.93198013305664 2.956153631210327 49.14544296264648 1.499999761581421 56.58214950561523 1.499999761581421 C 64.01885986328125 1.499999761581421 71.2322998046875 2.956153631210327 78.02214813232422 5.828015327453613 C 81.28565979003906 7.20836877822876 84.43344116210938 8.916937828063965 87.37805938720703 10.90627670288086 C 90.29507446289062 12.87696933746338 93.03814697265625 15.14023017883301 95.53110504150391 17.6331844329834 C 98.02405548095703 20.12613868713379 100.2873153686523 22.86921501159668 102.2580261230469 25.78623008728027 C 104.2473678588867 28.73083114624023 105.9559326171875 31.87861442565918 107.3362884521484 35.14213943481445 C 110.2081527709961 41.93196868896484 111.664306640625 49.14541625976562 111.664306640625 56.58212280273438 C 111.664306640625 64.01881408691406 110.2081527709961 71.23227691650391 107.3362884521484 78.02210998535156 C 105.9559326171875 81.28562927246094 104.2473678588867 84.43340301513672 102.2580261230469 87.37801361083984 C 100.2873153686523 90.29502868652344 98.02405548095703 93.03810882568359 95.53110504150391 95.53105926513672 C 93.03814697265625 98.02401733398438 90.29507446289062 100.2872772216797 87.37805938720703 102.2579727172852 C 84.43344116210938 104.2473068237305 81.28565979003906 105.9558792114258 78.02214813232422 107.3362274169922 C 71.2322998046875 110.2080917358398 64.01885986328125 111.6642456054688 56.58214950561523 111.6642456054688 Z" stroke="none"/>
          <path d="M 56.58214950561523 3.000007629394531 C 49.34728240966797 3.000007629394531 42.33041381835938 4.416290283203125 35.72648620605469 7.209526062011719 C 32.55214691162109 8.552139282226562 29.49030303955078 10.21408843994141 26.62594604492188 12.14920806884766 C 23.78803253173828 14.06645965576172 21.11930084228516 16.26838684082031 18.69384765625 18.69384002685547 C 16.26840209960938 21.11929321289062 14.06646728515625 23.78802490234375 12.14921569824219 26.62593841552734 C 10.21409606933594 29.49028778076172 8.552131652832031 32.55213928222656 7.209518432617188 35.72645568847656 C 4.416282653808594 42.33040618896484 3 49.34725570678711 3 56.58212280273438 C 3 63.81698989868164 4.416282653808594 70.83383941650391 7.209518432617188 77.43777465820312 C 8.552131652832031 80.61209106445312 10.21409606933594 83.67395782470703 12.14921569824219 86.53830718994141 C 14.06646728515625 89.37620544433594 16.26840209960938 92.04495239257812 18.69384765625 94.47040557861328 C 21.11930084228516 96.89584350585938 23.78803253173828 99.09777069091797 26.62594604492188 101.015022277832 C 29.49030303955078 102.9501419067383 32.55216979980469 104.6121063232422 35.72648620605469 105.954719543457 C 42.33041381835938 108.7479553222656 49.34728240966797 110.1642379760742 56.58214950561523 110.1642379760742 C 63.8170166015625 110.1642379760742 70.8338623046875 108.7479553222656 77.43782043457031 105.954719543457 C 80.61213684082031 104.6121063232422 83.67399597167969 102.9501419067383 86.53834533691406 101.015022277832 C 89.37625122070312 99.09777069091797 92.04499816894531 96.89584350585938 94.47045135498047 94.47039031982422 C 96.89589691162109 92.04495239257812 99.09783172607422 89.37620544433594 101.0150833129883 86.53830718994141 C 102.9501953125 83.67395782470703 104.6121520996094 80.61209106445312 105.9547805786133 77.43777465820312 C 108.7480163574219 70.83383941650391 110.1642990112305 63.81698989868164 110.1642990112305 56.58212280273438 C 110.1642990112305 49.34725570678711 108.7480163574219 42.33040618896484 105.9547805786133 35.72645568847656 C 104.6121520996094 32.55213928222656 102.9501953125 29.49028778076172 101.0150833129883 26.62593841552734 C 99.09783172607422 23.78804016113281 96.89589691162109 21.11929321289062 94.47045135498047 18.69384002685547 C 92.04499816894531 16.26838684082031 89.37625122070312 14.06645965576172 86.53834533691406 12.14920806884766 C 83.67399597167969 10.21408843994141 80.61213684082031 8.552139282226562 77.43782043457031 7.209526062011719 C 70.8338623046875 4.416290283203125 63.8170166015625 3.000007629394531 56.58214950561523 3.000007629394531 M 56.58214950561523 7.62939453125e-06 C 87.83160400390625 7.62939453125e-06 113.1642990112305 25.33267211914062 113.1642990112305 56.58212280273438 C 113.1642990112305 87.83155822753906 87.83160400390625 113.1642379760742 56.58214950561523 113.1642379760742 C 25.33267974853516 113.1642379760742 0 87.83155822753906 0 56.58212280273438 C 0 25.33267211914062 25.33267974853516 7.62939453125e-06 56.58214950561523 7.62939453125e-06 Z" stroke="none"/>
        </g>
      </g>
      <g id="Trazado_1013806-6" data-name="Trazado 1013806" transform="translate(245.836 -9141.231)" fill="none" opacity="0.9">
        <path d="M 56.58214950561523 111.6642456054688 C 49.14544296264648 111.6642456054688 41.93198013305664 110.2080917358398 35.14215087890625 107.3362274169922 C 31.87862586975098 105.9558792114258 28.73084259033203 104.2473068237305 25.78624153137207 102.2579727172852 C 22.86922645568848 100.2872772216797 20.12613487243652 98.02401733398438 17.63318061828613 95.53105926513672 C 15.14022636413574 93.03810882568359 12.8769645690918 90.29502868652344 10.90627288818359 87.37801361083984 C 8.916934013366699 84.43340301513672 7.208364963531494 81.28562927246094 5.828011035919189 78.02210998535156 C 2.956149578094482 71.23227691650391 1.499995708465576 64.01881408691406 1.499995708465576 56.58212280273438 C 1.499995708465576 49.14541625976562 2.956149578094482 41.93196868896484 5.828011035919189 35.14213943481445 C 7.208364963531494 31.87861442565918 8.916934013366699 28.73083114624023 10.90627288818359 25.78623008728027 C 12.8769645690918 22.86921501159668 15.14022636413574 20.12613868713379 17.63318061828613 17.6331844329834 C 20.12613487243652 15.14023017883301 22.86922645568848 12.87696933746338 25.78624153137207 10.90627670288086 C 28.73084259033203 8.916937828063965 31.87862586975098 7.20836877822876 35.14215087890625 5.828015327453613 C 41.93198013305664 2.956153631210327 49.14544296264648 1.499999761581421 56.58214950561523 1.499999761581421 C 64.01885986328125 1.499999761581421 71.2322998046875 2.956153631210327 78.02214813232422 5.828015327453613 C 81.28565979003906 7.20836877822876 84.43344116210938 8.916937828063965 87.37805938720703 10.90627670288086 C 90.29507446289062 12.87696933746338 93.03814697265625 15.14023017883301 95.53110504150391 17.6331844329834 C 98.02405548095703 20.12613868713379 100.2873153686523 22.86921501159668 102.2580261230469 25.78623008728027 C 104.2473678588867 28.73083114624023 105.9559326171875 31.87861442565918 107.3362884521484 35.14213943481445 C 110.2081527709961 41.93196868896484 111.664306640625 49.14541625976562 111.664306640625 56.58212280273438 C 111.664306640625 64.01881408691406 110.2081527709961 71.23227691650391 107.3362884521484 78.02210998535156 C 105.9559326171875 81.28562927246094 104.2473678588867 84.43340301513672 102.2580261230469 87.37801361083984 C 100.2873153686523 90.29502868652344 98.02405548095703 93.03810882568359 95.53110504150391 95.53105926513672 C 93.03814697265625 98.02401733398438 90.29507446289062 100.2872772216797 87.37805938720703 102.2579727172852 C 84.43344116210938 104.2473068237305 81.28565979003906 105.9558792114258 78.02214813232422 107.3362274169922 C 71.2322998046875 110.2080917358398 64.01885986328125 111.6642456054688 56.58214950561523 111.6642456054688 Z" stroke="none"/>
        <path d="M 56.58214950561523 3.000007629394531 C 49.34728240966797 3.000007629394531 42.33041381835938 4.416290283203125 35.72648620605469 7.209526062011719 C 32.55214691162109 8.552139282226562 29.49030303955078 10.21408843994141 26.62594604492188 12.14920806884766 C 23.78803253173828 14.06645965576172 21.11930084228516 16.26838684082031 18.69384765625 18.69384002685547 C 16.26840209960938 21.11929321289062 14.06646728515625 23.78802490234375 12.14921569824219 26.62593841552734 C 10.21409606933594 29.49028778076172 8.552131652832031 32.55213928222656 7.209518432617188 35.72645568847656 C 4.416282653808594 42.33040618896484 3 49.34725570678711 3 56.58212280273438 C 3 63.81698989868164 4.416282653808594 70.83383941650391 7.209518432617188 77.43777465820312 C 8.552131652832031 80.61209106445312 10.21409606933594 83.67395782470703 12.14921569824219 86.53830718994141 C 14.06646728515625 89.37620544433594 16.26840209960938 92.04495239257812 18.69384765625 94.47040557861328 C 21.11930084228516 96.89584350585938 23.78803253173828 99.09777069091797 26.62594604492188 101.015022277832 C 29.49030303955078 102.9501419067383 32.55216979980469 104.6121063232422 35.72648620605469 105.954719543457 C 42.33041381835938 108.7479553222656 49.34728240966797 110.1642379760742 56.58214950561523 110.1642379760742 C 63.8170166015625 110.1642379760742 70.8338623046875 108.7479553222656 77.43782043457031 105.954719543457 C 80.61213684082031 104.6121063232422 83.67399597167969 102.9501419067383 86.53834533691406 101.015022277832 C 89.37625122070312 99.09777069091797 92.04499816894531 96.89584350585938 94.47045135498047 94.47039031982422 C 96.89589691162109 92.04495239257812 99.09783172607422 89.37620544433594 101.0150833129883 86.53830718994141 C 102.9501953125 83.67395782470703 104.6121520996094 80.61209106445312 105.9547805786133 77.43777465820312 C 108.7480163574219 70.83383941650391 110.1642990112305 63.81698989868164 110.1642990112305 56.58212280273438 C 110.1642990112305 49.34725570678711 108.7480163574219 42.33040618896484 105.9547805786133 35.72645568847656 C 104.6121520996094 32.55213928222656 102.9501953125 29.49028778076172 101.0150833129883 26.62593841552734 C 99.09783172607422 23.78804016113281 96.89589691162109 21.11929321289062 94.47045135498047 18.69384002685547 C 92.04499816894531 16.26838684082031 89.37625122070312 14.06645965576172 86.53834533691406 12.14920806884766 C 83.67399597167969 10.21408843994141 80.61213684082031 8.552139282226562 77.43782043457031 7.209526062011719 C 70.8338623046875 4.416290283203125 63.8170166015625 3.000007629394531 56.58214950561523 3.000007629394531 M 56.58214950561523 7.62939453125e-06 C 87.83160400390625 7.62939453125e-06 113.1642990112305 25.33267211914062 113.1642990112305 56.58212280273438 C 113.1642990112305 87.83155822753906 87.83160400390625 113.1642379760742 56.58214950561523 113.1642379760742 C 25.33267974853516 113.1642379760742 0 87.83155822753906 0 56.58212280273438 C 0 25.33267211914062 25.33267974853516 7.62939453125e-06 56.58214950561523 7.62939453125e-06 Z" stroke="none" fill="#fff"/>
      </g>
    </g>
    <g id="Grupo_1162026" data-name="Grupo 1162026" transform="translate(238.162 -9113.833)">
      <g id="Grupo_1162025" data-name="Grupo 1162025" clip-path="url(#clip-path)">
        <path id="Trazado_1016017" data-name="Trazado 1016017" d="M128.511,291.712c0,4.943-28.768,8.949-64.255,8.949S0,296.654,0,291.712s28.768-8.949,64.255-8.949,64.255,4.007,64.255,8.949" transform="translate(0 -230.294)" fill="#e8e8e8" style="mix-blend-mode: multiply;isolation: isolate"/>
        <path id="Trazado_1016018" data-name="Trazado 1016018" d="M490.306,81.338c-3.411-.55-6.663.049-6.724,1.4s-.229,2.249-1.9,2.2l.445,2.263a8.048,8.048,0,0,1,3.179-.949c1.475.025,7,.519,7.2-.479s1.211-3.877-2.2-4.428" transform="translate(-392.307 -66.079)" fill="#af4946"/>
        <path id="Trazado_1016019" data-name="Trazado 1016019" d="M178.872,83.635c-.132-1.342-3.411-1.768-6.788-1.037s-2.213,3.551-1.962,4.538,5.741.2,7.212.1a8.043,8.043,0,0,1,3.225.78l.324-2.284c-1.663.14-1.878-.751-2.01-2.093" transform="translate(-138.231 -66.983)" fill="#af4946"/>
        <path id="Trazado_1016020" data-name="Trazado 1016020" d="M175.3,242.678c.336,3.6-.256,8.466.245,11.048s2.233,2.632,4.638,2.713,3.929-.441,4-1.548a115.6,115.6,0,0,0-.885-11.608c-.314-.953-7.994-.6-7.994-.6" transform="translate(-142.772 -197.597)" fill="#060707"/>
        <path id="Trazado_1016021" data-name="Trazado 1016021" d="M481.054,244.234c-.144,3.609.7,8.44.341,11.046s-2.09,2.747-4.488,2.955-3.947-.232-4.073-1.334a115.606,115.606,0,0,1,.268-11.638c.263-.968,7.951-1.028,7.951-1.028" transform="translate(-385.059 -198.915)" fill="#060707"/>
        <path id="Trazado_1016022" data-name="Trazado 1016022" d="M171.453,45.507a43.909,43.909,0,0,0,.59,9.549c.875,4.014,4.845,6.889,8.666,7.8s17.13.747,20.983,1.029,20.861.071,26.621-.226,8.456-5.559,9.052-8.459,1.426-11.477.071-16.632a39.735,39.735,0,0,0-6.218-12.139c-1.193-1.506-6.931-14.876-8.779-16.878s-13.644-2.2-18.705-2.131-13.143-.228-15.04,3.155-6.091,11.953-7.321,13.908-3.759,3.24-5.912,6.63-4,11.128-4.008,14.4" transform="translate(-139.603 -6.032)" fill="#af4946"/>
        <path id="Trazado_1016023" data-name="Trazado 1016023" d="M254.519,189.3s.165,6.212,2.113,7.185,25.291,1.572,28.742,1.224,3.618-1.314,4-3.759.476-3.794.476-3.794Z" transform="translate(-207.292 -154.176)" fill="#330a0a"/>
        <path id="Trazado_1016024" data-name="Trazado 1016024" d="M280.127,196.943c-7.81,0-23.07-.52-24.736-1.352-2.062-1.031-2.248-7.148-2.255-7.408a.256.256,0,0,1,.262-.263l35.333.857a.256.256,0,0,1,.25.274c0,.014-.1,1.387-.479,3.816-.388,2.475-.565,3.6-4.229,3.974-.686.069-2.181.1-4.147.1m-26.468-8.5c.082,1.854.551,5.988,1.962,6.693,1.866.932,24.942,1.566,28.6,1.2,3.27-.33,3.4-1.14,3.774-3.544.281-1.79.405-3,.451-3.5Z" transform="translate(-206.166 -153.051)" fill="#993131"/>
        <path id="Trazado_1016025" data-name="Trazado 1016025" d="M462.389,180.5l-.853,6.5s9.52-1.086,11.616-1.782,1.054-4.666.365-5.273-2.47-.728-4.365-.581-6.763,1.141-6.763,1.141" transform="translate(-375.896 -146.036)" fill="#fff"/>
        <path id="Trazado_1016026" data-name="Trazado 1016026" d="M460.411,186.135a.256.256,0,0,1-.254-.29l.853-6.495a.256.256,0,0,1,.2-.218c.2-.041,4.905-1,6.794-1.145,1.312-.1,3.649-.153,4.554.644a5.473,5.473,0,0,1,.884,4.037,2.049,2.049,0,0,1-1.338,1.671c-2.1.7-11.278,1.749-11.668,1.793l-.029,0m1.083-6.536-.786,5.987c1.688-.2,9.409-1.125,11.238-1.733a1.546,1.546,0,0,0,1-1.287,5.155,5.155,0,0,0-.721-3.55c-.55-.484-2.112-.677-4.176-.518-1.653.128-5.657.92-6.552,1.1" transform="translate(-374.77 -144.915)" fill="#993131"/>
        <path id="Trazado_1016027" data-name="Trazado 1016027" d="M186.326,176.447l.285,6.273s-8.935-1.368-10.9-1.922c-2.292-.644-.868-4.575-.267-5.216s2.022-.566,3.767-.516a59.892,59.892,0,0,1,7.118,1.381" transform="translate(-142.079 -142.556)" fill="#fff"/>
        <path id="Trazado_1016028" data-name="Trazado 1016028" d="M185.493,181.852a.25.25,0,0,1-.039,0c-.365-.056-8.973-1.377-10.934-1.928a1.861,1.861,0,0,1-1.334-1.366,5.944,5.944,0,0,1,.95-4.271c.652-.695,2-.655,3.717-.6l.245.007a58.784,58.784,0,0,1,7.172,1.389.256.256,0,0,1,.194.237l.284,6.272a.256.256,0,0,1-.256.268m-8.839-7.685a3.151,3.151,0,0,0-2.144.467,5.5,5.5,0,0,0-.83,3.783,1.339,1.339,0,0,0,.979,1.011c1.725.485,8.972,1.621,10.563,1.867l-.262-5.768a55.912,55.912,0,0,0-6.878-1.329l-.245-.007c-.414-.012-.813-.024-1.184-.024" transform="translate(-140.961 -141.431)" fill="#993131"/>
        <path id="Trazado_1016029" data-name="Trazado 1016029" d="M233.374,159.577c-.436,0-.848,0-1.232-.007-6.88-.085-21.538-.46-26.255-.907-4.7-.445-10.592-.8-10.65-.806a.256.256,0,0,1-.24-.271.259.259,0,0,1,.271-.241c.059,0,5.964.361,10.668.807s19.341.82,26.213.9c6.519.078,21.29-.562,21.439-.569a.256.256,0,1,1,.022.512c-.14.006-13.247.576-20.236.576" transform="translate(-158.813 -128.149)" fill="#993131"/>
        <path id="Trazado_1016030" data-name="Trazado 1016030" d="M191.522,117.907a.242.242,0,0,1-.043,0,.256.256,0,0,1-.21-.3,27.452,27.452,0,0,1,1.541-5.637c.9-1.845,2.642-4.845,3.016-5.4.384-.569,1.206-1.692,1.241-1.739a.256.256,0,1,1,.414.3c-.008.012-.852,1.163-1.23,1.723-.368.545-2.086,3.509-2.98,5.336a27.567,27.567,0,0,0-1.5,5.5.256.256,0,0,1-.252.214" transform="translate(-155.775 -85.296)" fill="#993131"/>
        <path id="Trazado_1016031" data-name="Trazado 1016031" d="M492.477,122.44a.256.256,0,0,1-.255-.234l-.228-2.591a39.549,39.549,0,0,0-1.662-5.855,19.667,19.667,0,0,0-2.222-4.015.256.256,0,0,1,.408-.31,19.8,19.8,0,0,1,2.288,4.132,40.334,40.334,0,0,1,1.693,5.962.276.276,0,0,1,0,.027l.229,2.605a.257.257,0,0,1-.233.278h-.023" transform="translate(-397.496 -89.046)" fill="#993131"/>
        <path id="Trazado_1016032" data-name="Trazado 1016032" d="M236.224,262.521a.256.256,0,0,1-.212-.4,20.1,20.1,0,0,0,1.564-4.407,40.733,40.733,0,0,1-9.723,2.209c-6.478.745-28.905.7-34,.325-.441-.032-.923-.065-1.439-.1-5.374-.369-14.258-.98-18.86-3.5a8.228,8.228,0,0,0,.991,3.128.256.256,0,1,1-.444.257A8.629,8.629,0,0,1,173,256.184a.256.256,0,0,1,.39-.221c4.353,2.662,13.554,3.295,19.052,3.673.516.035,1,.069,1.441.1,5.086.373,27.451.42,33.908-.323a37.261,37.261,0,0,0,10.05-2.362.256.256,0,0,1,.355.294,23.647,23.647,0,0,1-1.764,5.064.256.256,0,0,1-.212.112" transform="translate(-140.902 -208.437)" fill="#993131"/>
        <path id="Trazado_1016033" data-name="Trazado 1016033" d="M218.51,269.872c-3.853,0-8.094-.045-12.651-.135-16.408-.327-22.43-3.027-22.679-3.141a.256.256,0,0,1,.215-.466c.06.028,6.2,2.77,22.474,3.094,16.847.336,29.831.017,33.885-.831a31.293,31.293,0,0,0,5.482-1.475.256.256,0,0,1,.214.466,30.757,30.757,0,0,1-5.59,1.511c-3.047.638-10.71.977-21.349.977" transform="translate(-149.069 -216.729)" fill="#993131"/>
        <path id="Trazado_1016034" data-name="Trazado 1016034" d="M218.328,276.092c-3.852,0-8.095-.045-12.65-.135-16.407-.328-22.43-3.027-22.679-3.142a.256.256,0,0,1,.215-.466c.06.028,6.2,2.77,22.474,3.094,16.847.336,29.83.017,33.885-.831a31.286,31.286,0,0,0,5.481-1.475.256.256,0,0,1,.214.466,30.742,30.742,0,0,1-5.59,1.511c-3.048.638-10.71.978-21.35.978" transform="translate(-148.922 -221.795)" fill="#993131"/>
        <path id="Trazado_1016035" data-name="Trazado 1016035" d="M231.908,286.585c-6.5,0-15.653-.191-22.108-.494a68.814,68.814,0,0,1-14.73-2.184.256.256,0,1,1,.146-.491,68.342,68.342,0,0,0,14.608,2.164c8.8.412,22.6.617,27.866.413s12.707-.915,13.889-1.2a.256.256,0,1,1,.119.5c-1.2.286-8.709,1.005-13.988,1.21-1.41.055-3.43.08-5.8.08" transform="translate(-158.724 -230.817)" fill="#993131"/>
        <path id="Trazado_1016036" data-name="Trazado 1016036" d="M188.63,180.8a.245.245,0,0,1-.05-.005c-2.635-.524-3.685-1.9-4.1-2.965a4.454,4.454,0,0,1,.522-4.147.256.256,0,1,1,.415.3,3.989,3.989,0,0,0-.459,3.659c.37.944,1.316,2.17,3.724,2.65a.256.256,0,0,1-.05.508" transform="translate(-150.01 -141.372)" fill="#993131"/>
        <path id="Trazado_1016037" data-name="Trazado 1016037" d="M483.945,185.568a.256.256,0,0,1-.021-.512c3.021-.254,5.088-1.311,5.821-2.978a3.712,3.712,0,0,0-.568-3.747.256.256,0,1,1,.405-.314,4.222,4.222,0,0,1,.632,4.267c-.811,1.847-3.03,3.013-6.247,3.283h-.022" transform="translate(-393.938 -144.904)" fill="#993131"/>
        <path id="Trazado_1016038" data-name="Trazado 1016038" d="M277.4,42.576l-46.55-.944s5.7-12.2,7.063-13.966c0,0,22.852-.991,33.467.586,0,0,4.8,9.357,6.019,14.323" transform="translate(-188.014 -22.283)" fill="#442e2c"/>
        <path id="Trazado_1016039" data-name="Trazado 1016039" d="M308.237,16.575h0c-1.553,0-4.293-.064-7.466-.136-7.526-.171-17.833-.4-22.465-.079a.256.256,0,0,1-.036-.511c4.656-.326,14.977-.093,22.512.078,3.17.072,5.908.134,7.455.136a.256.256,0,0,1,0,.513" transform="translate(-226.441 -12.774)" fill="#993131"/>
        <path id="Trazado_1016040" data-name="Trazado 1016040" d="M225.325,40.2a.256.256,0,0,1-.23-.37l3.706-7.466c.673-1.355,1.419-2.694,2.217-3.978l1.415-2.277a.256.256,0,0,1,.436.271l-1.415,2.277c-.79,1.271-1.528,2.595-2.193,3.936l-3.706,7.466a.257.257,0,0,1-.23.142" transform="translate(-183.306 -21.166)" fill="#993131"/>
        <path id="Trazado_1016041" data-name="Trazado 1016041" d="M454.14,36.549a.256.256,0,0,1-.241-.168c-1.377-3.748-7.3-14.992-7.357-15.105a.256.256,0,0,1,.454-.239c.06.113,6,11.387,7.385,15.168a.256.256,0,0,1-.241.345" transform="translate(-363.66 -17.022)" fill="#993131"/>
        <path id="Trazado_1016042" data-name="Trazado 1016042" d="M267.977,182.746c-5.694,0-13.513-.079-18.287-.268-7.187-.285-12.33-.693-12.381-.7a.256.256,0,1,1,.041-.511c.051,0,5.184.412,12.36.7,7.022.278,20.642.317,24.357.218,3.5-.093,5.458-.334,5.477-.336a.256.256,0,1,1,.064.509c-.02,0-2,.246-5.527.34-1.195.032-3.412.049-6.1.049" transform="translate(-193.083 -147.634)" fill="#993131"/>
        <path id="Trazado_1016043" data-name="Trazado 1016043" d="M304.172,249.407l-22.869-.191a.482.482,0,0,1-.477-.485l.043-5.14a.482.482,0,0,1,.485-.477l22.869.191a.482.482,0,0,1,.477.485l-.043,5.14a.482.482,0,0,1-.485.477" transform="translate(-228.718 -198.004)" fill="#fff"/>
        <path id="Trazado_1016044" data-name="Trazado 1016044" d="M335.892,141.948l1.194.376s2.686-1.488,4.533-2.285-.175,1.569-2.215,3.63-2.606,1.953-3.339,1.669a12.577,12.577,0,0,1-1.94-1.137Z" transform="translate(-272.126 -113.926)" fill="#33160d"/>
        <path id="Trazado_1016045" data-name="Trazado 1016045" d="M203.315,118.772s11.622-1.568,14.437-1.97,8.2,2.332,12.788,5.71l-3.619,4.1s-8.2-3.539-9.088-3.539-10.455,3.981-10.455,3.981Z" transform="translate(-165.589 -95.096)" fill="#d8deee"/>
        <path id="Trazado_1016046" data-name="Trazado 1016046" d="M291.438,222.892l-.049,0a.512.512,0,0,1-.462-.558,17.288,17.288,0,0,1,2.23-6.506,13.847,13.847,0,0,1,12.054-6.908.513.513,0,0,1,.039,1.025c-5.037.192-8.8,2.336-11.191,6.371a16.561,16.561,0,0,0-2.112,6.113.513.513,0,0,1-.51.464" transform="translate(-236.942 -170.153)" fill="#161819"/>
        <rect id="Rectángulo_419876" data-name="Rectángulo 419876" width="25.616" height="0.171" transform="translate(23.994 66.159) rotate(-82.266)" fill="#c1ccd3"/>
        <rect id="Rectángulo_419877" data-name="Rectángulo 419877" width="0.171" height="25.616" transform="translate(13.1 51.837) rotate(-82.251)" fill="#c1ccd3"/>
        <rect id="Rectángulo_419878" data-name="Rectángulo 419878" width="0.171" height="25.616" transform="matrix(0.796, -0.605, 0.605, 0.796, 17.982, 43.336)" fill="#c1ccd3"/>
        <rect id="Rectángulo_419879" data-name="Rectángulo 419879" width="25.616" height="0.171" transform="translate(15.555 61.162) rotate(-37.243)" fill="#c1ccd3"/>
        <path id="Trazado_1016047" data-name="Trazado 1016047" d="M102.927,202.247l-.212.279-2.818-2.9a1.573,1.573,0,0,0-1.109-.474l-14.71-.115a1.566,1.566,0,0,0-1.215,2.568l10.888,13.051a.172.172,0,0,1-.263.22L82.6,201.826a1.908,1.908,0,0,1,1.481-3.128l14.71.115a1.914,1.914,0,0,1,1.351.578Z" transform="translate(-66.915 -161.828)" fill="#161819"/>
        <rect id="Rectángulo_419880" data-name="Rectángulo 419880" width="0.171" height="25.616" transform="matrix(0.96, -0.28, 0.28, 0.96, 22.139, 41.206)" fill="#c1ccd3"/>
        <rect id="Rectángulo_419881" data-name="Rectángulo 419881" width="25.616" height="0.171" transform="matrix(0.96, -0.279, 0.279, 0.96, 13.479, 56.969)" fill="#c1ccd3"/>
        <rect id="Rectángulo_419882" data-name="Rectángulo 419882" width="0.171" height="25.616" transform="matrix(0.481, -0.877, 0.877, 0.481, 14.534, 47.391)" fill="#c1ccd3"/>
        <rect id="Rectángulo_419883" data-name="Rectángulo 419883" width="25.616" height="0.171" transform="matrix(0.481, -0.877, 0.877, 0.481, 19.57, 64.669)" fill="#c1ccd3"/>
        <rect id="Rectángulo_419884" data-name="Rectángulo 419884" width="25.616" height="0.171" transform="matrix(0.135, -0.991, 0.991, 0.135, 66.881, 66.159)" fill="#c1ccd3"/>
        <rect id="Rectángulo_419885" data-name="Rectángulo 419885" width="0.171" height="25.616" transform="translate(55.988 51.836) rotate(-82.251)" fill="#c1ccd3"/>
        <rect id="Rectángulo_419886" data-name="Rectángulo 419886" width="0.171" height="25.616" transform="matrix(0.796, -0.605, 0.605, 0.796, 60.87, 43.336)" fill="#c1ccd3"/>
        <rect id="Rectángulo_419887" data-name="Rectángulo 419887" width="25.616" height="0.171" transform="translate(58.443 61.162) rotate(-37.244)" fill="#c1ccd3"/>
        <rect id="Rectángulo_419888" data-name="Rectángulo 419888" width="0.171" height="25.616" transform="matrix(0.96, -0.28, 0.28, 0.96, 65.027, 41.206)" fill="#c1ccd3"/>
        <rect id="Rectángulo_419889" data-name="Rectángulo 419889" width="25.616" height="0.171" transform="translate(56.367 56.969) rotate(-16.194)" fill="#c1ccd3"/>
        <rect id="Rectángulo_419890" data-name="Rectángulo 419890" width="0.171" height="25.616" transform="translate(57.422 47.391) rotate(-61.238)" fill="#c1ccd3"/>
        <rect id="Rectángulo_419891" data-name="Rectángulo 419891" width="25.616" height="0.171" transform="matrix(0.481, -0.877, 0.877, 0.481, 62.458, 64.669)" fill="#c1ccd3"/>
        <path id="Trazado_1016048" data-name="Trazado 1016048" d="M167.393,178.776c-.027,0-.053,0-.078,0a.489.489,0,0,1-.358-.187.4.4,0,0,1,.01-.516,2.033,2.033,0,0,1-.283-.123c-.342-.181-.365-.371-.324-.5a.464.464,0,0,1,.145-.2c-.177-.078-.271-.183-.26-.3.023-.245.461-.372,1.09-.316a.085.085,0,0,1,.078.093.09.09,0,0,1-.093.078c-.664-.059-.9.1-.9.161,0,.032.063.109.263.17a1.4,1.4,0,0,1,.751-.17c.184.025.489.11.47.276-.012.107-.123.206-.852.136a2.3,2.3,0,0,1-.346-.058.4.4,0,0,0-.179.189c-.038.12.11.228.241.3a1.85,1.85,0,0,0,.336.138.9.9,0,0,1,.873-.2c.132.076.135.18.1.248-.09.163-.472.249-.925.139l-.017.018a.248.248,0,0,0-.036.342.321.321,0,0,0,.239.12,2.916,2.916,0,0,0,1.672-.826,1.727,1.727,0,0,1,1.249-.438,1.042,1.042,0,0,0,.3-.03.085.085,0,1,1,.059.16,1.133,1.133,0,0,1-.357.041,1.558,1.558,0,0,0-1.139.4,3.227,3.227,0,0,1-1.724.872m-.066-.793a1.11,1.11,0,0,0,.5-.026.21.21,0,0,0,.1-.055.277.277,0,0,1-.032-.019.68.68,0,0,0-.56.1m-.358-.8.094.011a2.315,2.315,0,0,0,.621.007.89.89,0,0,0-.278-.078,1.076,1.076,0,0,0-.437.061" transform="translate(-135.396 -143.84)" fill="#161819"/>
        <path id="Trazado_1016049" data-name="Trazado 1016049" d="M185.391,177.558a.718.718,0,0,1-.537-.191.378.378,0,0,1-.1-.377.371.371,0,0,1,.074-.132.382.382,0,0,1-.168-.255.333.333,0,0,1,.107-.279.306.306,0,0,1-.083-.149c-.03-.134.019-.4.681-.655a.085.085,0,1,1,.062.159c-.46.179-.6.359-.576.459a.157.157,0,0,0,.06.085.9.9,0,0,1,.16-.062,1.007,1.007,0,0,1,.832.071.122.122,0,0,1,.026.13c-.025.061-.095.126-.427.148a1.218,1.218,0,0,1-.589-.086.179.179,0,0,0-.082.158.246.246,0,0,0,.142.166.656.656,0,0,1,.166-.056c.316-.064.619-.028.7.083a.115.115,0,0,1,.012.124c-.028.053-.106.124-.479.113a1.166,1.166,0,0,1-.388-.07.212.212,0,0,0-.068.1.207.207,0,0,0,.06.207c.053.055.267.224.777.085a.086.086,0,0,1,.045.165,1.565,1.565,0,0,1-.409.06m-.076-.719.062,0a1.733,1.733,0,0,0,.177,0,1.142,1.142,0,0,0-.239,0m-.174-.519a1.311,1.311,0,0,0,.349.02,1.4,1.4,0,0,0,.209-.027,1.133,1.133,0,0,0-.558.007" transform="translate(-150.394 -142.948)" fill="#161819"/>
        <rect id="Rectángulo_419892" data-name="Rectángulo 419892" width="0.171" height="25.616" transform="translate(25.717 40.671)" fill="#c1ccd3"/>
        <rect id="Rectángulo_419893" data-name="Rectángulo 419893" width="25.616" height="0.171" transform="translate(12.995 53.393)" fill="#c1ccd3"/>
        <rect id="Rectángulo_419894" data-name="Rectángulo 419894" width="0.171" height="25.616" transform="translate(16.686 44.483) rotate(-45)" fill="#c1ccd3"/>
        <rect id="Rectángulo_419895" data-name="Rectángulo 419895" width="25.616" height="0.171" transform="translate(16.686 62.475) rotate(-45)" fill="#c1ccd3"/>
        <rect id="Rectángulo_419896" data-name="Rectángulo 419896" width="0.171" height="25.616" transform="translate(20.518 41.812) rotate(-23.987)" fill="#c1ccd3"/>
        <rect id="Rectángulo_419897" data-name="Rectángulo 419897" width="25.616" height="0.171" transform="translate(14.063 58.6) rotate(-23.95)" fill="#c1ccd3"/>
        <rect id="Rectángulo_419898" data-name="Rectángulo 419898" width="0.171" height="25.616" transform="translate(13.816 48.966) rotate(-68.987)" fill="#c1ccd3"/>
        <rect id="Rectángulo_419899" data-name="Rectángulo 419899" width="25.616" height="0.171" transform="translate(21.122 65.402) rotate(-68.949)" fill="#c1ccd3"/>
        <path id="Trazado_1016050" data-name="Trazado 1016050" d="M79.063,242.2a13.718,13.718,0,1,1,13.718-13.718A13.733,13.733,0,0,1,79.063,242.2m0-25.9a12.18,12.18,0,1,0,12.18,12.18,12.193,12.193,0,0,0-12.18-12.18" transform="translate(-53.22 -174.918)" fill="#080c0f"/>
        <path id="Trazado_1016051" data-name="Trazado 1016051" d="M134.2,282.123a1.5,1.5,0,1,1-1.5-1.5,1.5,1.5,0,0,1,1.5,1.5" transform="translate(-106.856 -228.554)" fill="#080c0f"/>
        <path id="Trazado_1016052" data-name="Trazado 1016052" d="M187.911,177.487a.342.342,0,0,1-.319-.22l-2.378-6.218a.342.342,0,0,1,.639-.244l2.378,6.218a.342.342,0,0,1-.319.464" transform="translate(-150.828 -138.932)" fill="#c1ccd3"/>
        <rect id="Rectángulo_419900" data-name="Rectángulo 419900" width="0.171" height="25.616" transform="translate(68.645 40.671)" fill="#c1ccd3"/>
        <rect id="Rectángulo_419901" data-name="Rectángulo 419901" width="25.616" height="0.171" transform="translate(55.923 53.393)" fill="#c1ccd3"/>
        <rect id="Rectángulo_419902" data-name="Rectángulo 419902" width="0.171" height="25.616" transform="translate(59.614 44.483) rotate(-45)" fill="#c1ccd3"/>
        <rect id="Rectángulo_419903" data-name="Rectángulo 419903" width="25.616" height="0.171" transform="translate(59.614 62.475) rotate(-45)" fill="#c1ccd3"/>
        <rect id="Rectángulo_419904" data-name="Rectángulo 419904" width="0.171" height="25.616" transform="translate(63.446 41.812) rotate(-23.987)" fill="#c1ccd3"/>
        <rect id="Rectángulo_419905" data-name="Rectángulo 419905" width="25.616" height="0.171" transform="translate(56.991 58.6) rotate(-23.951)" fill="#c1ccd3"/>
        <rect id="Rectángulo_419906" data-name="Rectángulo 419906" width="0.171" height="25.616" transform="translate(56.744 48.966) rotate(-68.987)" fill="#c1ccd3"/>
        <rect id="Rectángulo_419907" data-name="Rectángulo 419907" width="25.616" height="0.171" transform="matrix(0.359, -0.933, 0.933, 0.359, 64.051, 65.402)" fill="#c1ccd3"/>
        <path id="Trazado_1016053" data-name="Trazado 1016053" d="M310.413,242.2a13.718,13.718,0,1,1,13.718-13.718A13.733,13.733,0,0,1,310.413,242.2m0-25.9a12.18,12.18,0,1,0,12.18,12.18,12.193,12.193,0,0,0-12.18-12.18" transform="translate(-241.642 -174.918)" fill="#080c0f"/>
        <path id="Trazado_1016054" data-name="Trazado 1016054" d="M365.547,282.123a1.5,1.5,0,1,1-1.5-1.5,1.5,1.5,0,0,1,1.5,1.5" transform="translate(-295.278 -228.554)" fill="#080c0f"/>
        <path id="Trazado_1016055" data-name="Trazado 1016055" d="M312.08,164.261a.342.342,0,0,1-.319-.218l-1.689-4.343a.342.342,0,0,1,.637-.248L312.4,163.8a.342.342,0,0,1-.195.442.337.337,0,0,1-.124.023" transform="translate(-252.518 -129.687)" fill="#c1ccd3"/>
        <path id="Trazado_1016056" data-name="Trazado 1016056" d="M202.789,216.994a.512.512,0,0,1-.477-.324l-7.359-18.539a.513.513,0,1,1,.953-.378l7.359,18.539a.513.513,0,0,1-.476.7" transform="translate(-158.749 -160.796)" fill="#4560ad"/>
        <path id="Trazado_1016057" data-name="Trazado 1016057" d="M327.154,200.47a.512.512,0,0,1-.411-.205l-1.24-1.654a26.228,26.228,0,0,1-3.56-6.485L317.5,180.353a.513.513,0,0,1,.96-.362l4.438,11.773A25.188,25.188,0,0,0,326.323,198l1.24,1.654a.513.513,0,0,1-.41.82" transform="translate(-258.563 -146.323)" fill="#4560ad"/>
        <path id="Trazado_1016058" data-name="Trazado 1016058" d="M235.39,216.4a1.111,1.111,0,0,1-.839-1.839l15.532-17.915a1.111,1.111,0,1,1,1.679,1.455L236.23,216.02a1.109,1.109,0,0,1-.84.383" transform="translate(-190.808 -159.848)" fill="#4560ad"/>
        <path id="Trazado_1016059" data-name="Trazado 1016059" d="M200.805,192.55a.769.769,0,0,1-.12-1.529l21.685-3.468a.769.769,0,0,1,.243,1.519l-21.685,3.468a.763.763,0,0,1-.122.01" transform="translate(-162.919 -152.743)" fill="#4560ad"/>
        <path id="Trazado_1016060" data-name="Trazado 1016060" d="M139.94,222.58a.342.342,0,0,1-.274-.545l10.858-14.658a.342.342,0,0,1,.549.407l-10.858,14.658a.341.341,0,0,1-.275.138" transform="translate(-113.695 -168.784)" fill="#4560ad"/>
        <path id="Trazado_1016061" data-name="Trazado 1016061" d="M158.066,289.121a.682.682,0,0,1-.082,0l-18.217-2.172a.684.684,0,0,1,.162-1.358l18.217,2.172a.684.684,0,0,1-.08,1.362" transform="translate(-113.342 -232.591)" fill="#4560ad"/>
        <path id="Trazado_1016062" data-name="Trazado 1016062" d="M220.891,281.979a3.491,3.491,0,1,0,3.492,3.492,3.492,3.492,0,0,0-3.492-3.492m-.01.364a1.247,1.247,0,1,1-1.246,1.248,1.248,1.248,0,0,1,1.246-1.248m-3.328,3.167a1.247,1.247,0,1,1,1.246,1.248,1.246,1.246,0,0,1-1.246-1.248m3.328,3.087a1.247,1.247,0,1,1,1.248-1.246,1.245,1.245,0,0,1-1.248,1.246m2.1-1.839a1.247,1.247,0,1,1,1.246-1.248,1.248,1.248,0,0,1-1.246,1.248" transform="translate(-177.06 -229.656)" fill="#c1ccd3"/>
        <path id="Trazado_1016063" data-name="Trazado 1016063" d="M149.063,286.874a6.59,6.59,0,0,1-1.533-.208c-1.188-.28-13.525-2.863-15.986-3.377l-.162-.034c-.7-.142-2.553-.52-2.426-2.227a1.74,1.74,0,0,1,1.712-1.757l14.655.09,0,.342-14.658-.09a1.387,1.387,0,0,0-1.367,1.44c-.092,1.239,1.037,1.639,2.154,1.866l.164.034c2.462.515,14.8,3.1,15.994,3.379,2.023.477,3.373.045,4.124-1.318l.3.165a3.181,3.181,0,0,1-2.969,1.694" transform="translate(-105.023 -227.451)" fill="#2e3538"/>
        <path id="Trazado_1016064" data-name="Trazado 1016064" d="M235.023,299.574a.324.324,0,1,1-.324-.324.324.324,0,0,1,.324.324" transform="translate(-190.885 -243.723)" fill="#2e3538"/>
        <path id="Trazado_1016065" data-name="Trazado 1016065" d="M241.69,300.11h-7.027a.3.3,0,0,1,0-.6h7.027a.3.3,0,0,1,0,.6" transform="translate(-190.874 -243.932)" fill="#2e3538"/>
        <path id="Trazado_1016066" data-name="Trazado 1016066" d="M268.837,299.45h-2.279a.423.423,0,0,1-.422-.421V298.3a.423.423,0,0,1,.422-.421h2.279a.423.423,0,0,1,.421.421v.725a.423.423,0,0,1-.421.421" transform="translate(-216.754 -242.609)" fill="#161819"/>
        <path id="Trazado_1016067" data-name="Trazado 1016067" d="M168.869,163.847c-1.785.119-2.755,1.126-4.283,1.227a12.018,12.018,0,0,1-4.142-.382c-.724-.3-.664-1.85.1-2.232a5.383,5.383,0,0,1,2.935-.2,14.035,14.035,0,0,0,3.68-.02,2.189,2.189,0,0,1,2.152.452c.472.523.312,1.106-.442,1.156" transform="translate(-130.258 -132.068)" fill="#161819"/>
        <path id="Trazado_1016068" data-name="Trazado 1016068" d="M285.624,144.886a.342.342,0,0,1-.324-.452,3.961,3.961,0,0,0,.172-1.782.582.582,0,0,0-.362-.4,1.213,1.213,0,0,0-.311-.087c-.858.414-1.791.884-2.276,1.133a.342.342,0,0,1-.452-.134c-.982.6-1.924,1.222-1.937,1.231a.342.342,0,1,1-.378-.57c.075-.05,1.846-1.222,3.091-1.9a3.475,3.475,0,0,1,1.835-.457,17.044,17.044,0,0,1,1.657-.727.777.777,0,0,1,.754.109c.4.319.427,1,.351,1.914a3.965,3.965,0,0,1-.437,1.551.342.342,0,0,1-.177.149l-1.086.4a.337.337,0,0,1-.118.021m.014-3.115a1.219,1.219,0,0,1,.5.725,3.757,3.757,0,0,1-.022,1.5l.35-.13a3.523,3.523,0,0,0,.3-1.162c.087-1.055-.04-1.279-.1-1.326a.194.194,0,0,0-.124.012,9.323,9.323,0,0,0-.9.378" transform="translate(-227.72 -114.585)" fill="#c1ccd3"/>
        <path id="Trazado_1016069" data-name="Trazado 1016069" d="M280.629,149.605l-2.174,1.255a.672.672,0,0,1-.915-.245l-.079-.137a.672.672,0,0,1,.245-.915l2.174-1.255a.672.672,0,0,1,.915.245l.079.137a.672.672,0,0,1-.245.915" transform="translate(-225.904 -120.716)" fill="#161819"/>
        <path id="Trazado_1016070" data-name="Trazado 1016070" d="M292.048,146.184l-2.126,1.336a.672.672,0,0,1-.924-.211l-.084-.134a.672.672,0,0,1,.211-.924l2.126-1.336a.672.672,0,0,1,.924.211l.084.134a.672.672,0,0,1-.211.924" transform="translate(-235.222 -117.942)" fill="#161819"/>
        <path id="Trazado_1016071" data-name="Trazado 1016071" d="M97.261,206.573l-.209.28-2.84-2.875a1.574,1.574,0,0,0-1.113-.465H78.388a1.565,1.565,0,0,0-1.195,2.577l10.989,12.965a.172.172,0,0,1-.261.222L76.932,206.312a1.908,1.908,0,0,1,1.456-3.14H93.1a1.915,1.915,0,0,1,1.355.567Z" transform="translate(-62.29 -165.472)" fill="#161819"/>
        <path id="Trazado_1016072" data-name="Trazado 1016072" d="M136.389,285.1a.867.867,0,1,1-.867-.867.867.867,0,0,1,.867.867" transform="translate(-109.669 -231.488)" fill="#c1ccd3"/>
        <path id="Trazado_1016073" data-name="Trazado 1016073" d="M367.522,285.1a.867.867,0,1,1-.867-.867.867.867,0,0,1,.867.867" transform="translate(-297.914 -231.488)" fill="#c1ccd3"/>
        <path id="Trazado_1016074" data-name="Trazado 1016074" d="M59.98,222.833l-.049,0a.512.512,0,0,1-.462-.558,17.288,17.288,0,0,1,2.23-6.506,13.847,13.847,0,0,1,12.054-6.908,13.729,13.729,0,0,1,12.73,6.361,18.35,18.35,0,0,1,2.636,6.706.513.513,0,0,1-1.015.145,17.635,17.635,0,0,0-2.5-6.322c-2.668-4.089-6.644-6.062-11.812-5.865-5.037.192-8.8,2.336-11.191,6.371a16.556,16.556,0,0,0-2.112,6.113.513.513,0,0,1-.51.464" transform="translate(-48.432 -170.093)" fill="#161819"/>
        <path id="Trazado_1016075" data-name="Trazado 1016075" d="M189.012,276.718s7.178-.623,9.41-.342a4.64,4.64,0,0,1,4.061,4.986c-.024,1.779-.181,1.769-.181,1.769l-2.212-.5a5.28,5.28,0,0,0-.342-3.418c-.407-.883-2.976-.9-5.107-.885s-4.926.141-4.926.141Z" transform="translate(-153.94 -225.034)" fill="#4560ad"/>
        <path id="Trazado_1016076" data-name="Trazado 1016076" d="M137.945,287.167a.392.392,0,1,1-.392-.392.392.392,0,0,1,.392.392" transform="translate(-111.71 -233.562)" fill="#080c0f"/>
        <path id="Trazado_1016077" data-name="Trazado 1016077" d="M369.132,287.275a.392.392,0,1,1-.392-.392.392.392,0,0,1,.392.392" transform="translate(-299.999 -233.65)" fill="#080c0f"/>
        <path id="Trazado_1016078" data-name="Trazado 1016078" d="M263.743,281.362l.506,1.145s2.891,1.034,4.709,1.895-1.294.905-4.189.734-3.187-.667-3.458-1.405a12.583,12.583,0,0,1-.427-2.208Z" transform="translate(-212.476 -229.154)" fill="#33160d"/>
        <path id="Trazado_1016079" data-name="Trazado 1016079" d="M310.428,7.134c-.078.312-.436.669-1.8,1.777s-2.075.5-3.293.755l-.615.394-.761-.757a5.931,5.931,0,0,1,1.241-.751c.559-.212,1.469-.923,2.022-1.174a6.677,6.677,0,0,1,1.658-.51c.962-.157,1.626-.046,1.548.266" transform="translate(-247.557 -5.536)" fill="#fcc5b1"/>
        <path id="Trazado_1016080" data-name="Trazado 1016080" d="M316.807,17.9c-.121.038-.232.071-.336.1h0a0,0,0,0,1,0,0,2.445,2.445,0,0,1-.281.065,10.532,10.532,0,0,1-1.142-.041l-.818-.154-.53.664c.13.028.258.059.383.083a7.592,7.592,0,0,0,1.7.23c.5-.016.738-.288,1.2-.61a.048.048,0,0,0,.016-.013c.439-.31.053-.4-.183-.323" transform="translate(-255.484 -14.55)" fill="#fcc5b1"/>
        <path id="Trazado_1016081" data-name="Trazado 1016081" d="M228.211,23.607l7.61-5.231,6.666-1.821-1.453-1.6-7.567.64a71.08,71.08,0,0,0-7.1,4.8c-1.668,1.462-1.907,4.7,1.847,3.215" transform="translate(-183.419 -12.179)" fill="#99a9ce"/>
        <path id="Trazado_1016082" data-name="Trazado 1016082" d="M288.073,140.38a6.747,6.747,0,0,1,1.95.824c.885.583.06,1.83-.342,2.212s-1.347.2-1.347.2a1.765,1.765,0,0,0,.422-.623c.1-.322-.764-.885-1.126-.583s-.462.3-.462.3a8.7,8.7,0,0,1-.784-1.407c-.161-.483,1.689-.925,1.689-.925" transform="translate(-233.236 -114.332)" fill="#fcc5b1"/>
        <path id="Trazado_1016083" data-name="Trazado 1016083" d="M169.8,113.506c-2.574,4.423-2.011,8.525-.322,9.812,1.413,1.076,8.313,7.049,10.531,8.973a3.2,3.2,0,0,1,.958,1.468l3.711,11.958,5.791-.081s-2.735-14.2-4.182-16.447-5.952-9.249-9.089-11.9a21.6,21.6,0,0,0-7.4-3.78" transform="translate(-136.857 -92.444)" fill="#d8deee"/>
        <path id="Trazado_1016084" data-name="Trazado 1016084" d="M177.525,53.4s7.46-11.069,9.792-12.758,4.323-1.056,6.334,1.6S185.568,57.9,185.568,57.9s-6.032-1.046-8.043-4.5" transform="translate(-144.584 -32.338)" fill="#99a9ce"/>
        <path id="Trazado_1016085" data-name="Trazado 1016085" d="M235.227,55.22l3.74,8.807,5.67,5.007,1.87-1.086L241.561,62.1s-.422-7.419-1.267-9.47-5.73-1.387-5.067,2.594" transform="translate(-191.529 -41.939)" fill="#99a9ce"/>
        <path id="Trazado_1016086" data-name="Trazado 1016086" d="M224.472,142.266a.256.256,0,0,1-.2-.094l-3.86-4.705a.256.256,0,1,1,.4-.325l3.861,4.705a.256.256,0,0,1-.2.419" transform="translate(-179.467 -111.619)" fill="#b9c2d6"/>
        <path id="Trazado_1016087" data-name="Trazado 1016087" d="M242.987,32.319,241.8,33.778c-.124.584,1.117,1.191,1.7,1.316a1.08,1.08,0,0,0,1.282-.832l.318-1.493a1.081,1.081,0,1,0-2.114-.45" transform="translate(-196.926 -25.625)" fill="#fcc5b1"/>
        <path id="Trazado_1016088" data-name="Trazado 1016088" d="M242.146,5.011c.168,1.83,2,5.092,3.875,4.92s3.08-3.715,2.911-5.544a3.408,3.408,0,0,0-6.786.625" transform="translate(-197.203 -1.116)" fill="#fcc5b1"/>
        <path id="Trazado_1016089" data-name="Trazado 1016089" d="M249.2,39.026a.167.167,0,0,1-.065-.013,3.694,3.694,0,0,1-1.681-1.688.171.171,0,0,1,.3-.157,3.42,3.42,0,0,0,1.509,1.53.171.171,0,0,1-.066.328" transform="translate(-201.524 -30.195)" fill="#ce8974"/>
        <path id="Trazado_1016090" data-name="Trazado 1016090" d="M254.057,3.971c-1.351,2.115-5.228-.261-6.113-1.206s-.181-1.99.985-2.553,3.137.1,4.021.824,1.568,2.212,1.106,2.936" transform="translate(-201.613 0)" fill="#351b13"/>
        <path id="Trazado_1016091" data-name="Trazado 1016091" d="M244.812,5.789c-.826-.091-2.121,1.04-2.352,2.307a3.024,3.024,0,0,0,.09,1.478c.392.754-.553.347-1.176-1.02-.575-1.262-1.327-3.911-.3-5a2.9,2.9,0,0,1,2.292-.935Z" transform="translate(-195.926 -2.129)" fill="#351b13"/>
        <path id="Trazado_1016092" data-name="Trazado 1016092" d="M247.756,20.715c-.744-1.327-1.568-1.166-1.89-.6s.342,1.689,1.307,2.071.583-1.468.583-1.468" transform="translate(-200.177 -16.04)" fill="#fcc5b1"/>
        <path id="Trazado_1016093" data-name="Trazado 1016093" d="M233.777,40.121l-.427-.327-1.915,1.764,2.021.854,2.654.442.482-.583a28.6,28.6,0,0,0-2.815-2.152" transform="translate(-188.491 -32.41)" fill="#99a9ce"/>
        <path id="Trazado_1016094" data-name="Trazado 1016094" d="M236.059,58.771a.256.256,0,0,1-.242-.172c-.014-.041-1.415-4.086-1.933-5.8a3.373,3.373,0,0,1,.788-3.231.256.256,0,1,1,.363.362,2.856,2.856,0,0,0-.66,2.72c.515,1.7,1.913,5.741,1.927,5.781a.256.256,0,0,1-.242.34" transform="translate(-190.371 -40.309)" fill="#7688ad"/>
      </g>
    </g>
  </g>
</svg>
