<svg xmlns="http://www.w3.org/2000/svg" xmlns:xlink="http://www.w3.org/1999/xlink" width="142" height="131.164" viewBox="0 0 142 131.164">
  <defs>
    <filter id="Trazado_1013807" x="5.418" y="0" width="131.164" height="131.164" filterUnits="userSpaceOnUse">
      <feOffset dy="3" input="SourceAlpha"/>
      <feGaussianBlur stdDeviation="3" result="blur"/>
      <feFlood flood-opacity="0.412"/>
      <feComposite operator="in" in2="blur"/>
    </filter>
    <filter id="Trazado_1013807-2" x="5.418" y="0" width="131.164" height="131.164" filterUnits="userSpaceOnUse">
      <feOffset dy="3" input="SourceAlpha"/>
      <feGaussianBlur stdDeviation="3" result="blur-2"/>
      <feFlood flood-opacity="0.161" result="color"/>
      <feComposite operator="out" in="SourceGraphic" in2="blur-2"/>
      <feComposite operator="in" in="color"/>
      <feComposite operator="in" in2="SourceGraphic"/>
    </filter>
    <clipPath id="clip-path">
      <rect id="Rectángulo_419909" data-name="Rectángulo 419909" width="142" height="74.724" fill="none"/>
    </clipPath>
  </defs>
  <g id="Grupo_1162063" data-name="Grupo 1162063" transform="translate(-1088.418 9353.979)">
    <g data-type="innerShadowGroup">
      <g transform="matrix(1, 0, 0, 1, 1088.42, -9353.98)" filter="url(#Trazado_1013807)">
        <g id="Trazado_1013807-3" data-name="Trazado 1013807" transform="translate(14.42 6)" fill="#f2f5f4" opacity="0.9">
          <path d="M 56.58214950561523 111.6642456054688 C 49.14544296264648 111.6642456054688 41.93198013305664 110.2080917358398 35.14215087890625 107.3362274169922 C 31.87862586975098 105.9558792114258 28.73084259033203 104.2473068237305 25.78624153137207 102.2579727172852 C 22.86922645568848 100.2872772216797 20.12613487243652 98.02401733398438 17.63318061828613 95.53105926513672 C 15.14022636413574 93.03810882568359 12.8769645690918 90.29502868652344 10.90627288818359 87.37801361083984 C 8.916934013366699 84.43340301513672 7.208364963531494 81.28562927246094 5.828011035919189 78.02210998535156 C 2.956149578094482 71.23227691650391 1.499995708465576 64.01881408691406 1.499995708465576 56.58212280273438 C 1.499995708465576 49.14541625976562 2.956149578094482 41.93196868896484 5.828011035919189 35.14213943481445 C 7.208364963531494 31.87861442565918 8.916934013366699 28.73083114624023 10.90627288818359 25.78623008728027 C 12.8769645690918 22.86921501159668 15.14022636413574 20.12613868713379 17.63318061828613 17.6331844329834 C 20.12613487243652 15.14023017883301 22.86922645568848 12.87696933746338 25.78624153137207 10.90627670288086 C 28.73084259033203 8.916937828063965 31.87862586975098 7.20836877822876 35.14215087890625 5.828015327453613 C 41.93198013305664 2.956153631210327 49.14544296264648 1.499999761581421 56.58214950561523 1.499999761581421 C 64.01885986328125 1.499999761581421 71.2322998046875 2.956153631210327 78.02214813232422 5.828015327453613 C 81.28565979003906 7.20836877822876 84.43344116210938 8.916937828063965 87.37805938720703 10.90627670288086 C 90.29507446289062 12.87696933746338 93.03814697265625 15.14023017883301 95.53110504150391 17.6331844329834 C 98.02405548095703 20.12613868713379 100.2873153686523 22.86921501159668 102.2580261230469 25.78623008728027 C 104.2473678588867 28.73083114624023 105.9559326171875 31.87861442565918 107.3362884521484 35.14213943481445 C 110.2081527709961 41.93196868896484 111.664306640625 49.14541625976562 111.664306640625 56.58212280273438 C 111.664306640625 64.01881408691406 110.2081527709961 71.23227691650391 107.3362884521484 78.02210998535156 C 105.9559326171875 81.28562927246094 104.2473678588867 84.43340301513672 102.2580261230469 87.37801361083984 C 100.2873153686523 90.29502868652344 98.02405548095703 93.03810882568359 95.53110504150391 95.53105926513672 C 93.03814697265625 98.02401733398438 90.29507446289062 100.2872772216797 87.37805938720703 102.2579727172852 C 84.43344116210938 104.2473068237305 81.28565979003906 105.9558792114258 78.02214813232422 107.3362274169922 C 71.2322998046875 110.2080917358398 64.01885986328125 111.6642456054688 56.58214950561523 111.6642456054688 Z" stroke="none"/>
          <path d="M 56.58214950561523 3.000007629394531 C 49.34728240966797 3.000007629394531 42.33041381835938 4.416290283203125 35.72648620605469 7.209526062011719 C 32.55214691162109 8.552139282226562 29.49030303955078 10.21408843994141 26.62594604492188 12.14920806884766 C 23.78803253173828 14.06645965576172 21.11930084228516 16.26838684082031 18.69384765625 18.69384002685547 C 16.26840209960938 21.11929321289062 14.06646728515625 23.78802490234375 12.14921569824219 26.62593841552734 C 10.21409606933594 29.49028778076172 8.552131652832031 32.55213928222656 7.209518432617188 35.72645568847656 C 4.416282653808594 42.33040618896484 3 49.34725570678711 3 56.58212280273438 C 3 63.81698989868164 4.416282653808594 70.83383941650391 7.209518432617188 77.43777465820312 C 8.552131652832031 80.61209106445312 10.21409606933594 83.67395782470703 12.14921569824219 86.53830718994141 C 14.06646728515625 89.37620544433594 16.26840209960938 92.04495239257812 18.69384765625 94.47040557861328 C 21.11930084228516 96.89584350585938 23.78803253173828 99.09777069091797 26.62594604492188 101.015022277832 C 29.49030303955078 102.9501419067383 32.55216979980469 104.6121063232422 35.72648620605469 105.954719543457 C 42.33041381835938 108.7479553222656 49.34728240966797 110.1642379760742 56.58214950561523 110.1642379760742 C 63.8170166015625 110.1642379760742 70.8338623046875 108.7479553222656 77.43782043457031 105.954719543457 C 80.61213684082031 104.6121063232422 83.67399597167969 102.9501419067383 86.53834533691406 101.015022277832 C 89.37625122070312 99.09777069091797 92.04499816894531 96.89584350585938 94.47045135498047 94.47039031982422 C 96.89589691162109 92.04495239257812 99.09783172607422 89.37620544433594 101.0150833129883 86.53830718994141 C 102.9501953125 83.67395782470703 104.6121520996094 80.61209106445312 105.9547805786133 77.43777465820312 C 108.7480163574219 70.83383941650391 110.1642990112305 63.81698989868164 110.1642990112305 56.58212280273438 C 110.1642990112305 49.34725570678711 108.7480163574219 42.33040618896484 105.9547805786133 35.72645568847656 C 104.6121520996094 32.55213928222656 102.9501953125 29.49028778076172 101.0150833129883 26.62593841552734 C 99.09783172607422 23.78804016113281 96.89589691162109 21.11929321289062 94.47045135498047 18.69384002685547 C 92.04499816894531 16.26838684082031 89.37625122070312 14.06645965576172 86.53834533691406 12.14920806884766 C 83.67399597167969 10.21408843994141 80.61213684082031 8.552139282226562 77.43782043457031 7.209526062011719 C 70.8338623046875 4.416290283203125 63.8170166015625 3.000007629394531 56.58214950561523 3.000007629394531 M 56.58214950561523 7.62939453125e-06 C 87.83160400390625 7.62939453125e-06 113.1642990112305 25.33267211914062 113.1642990112305 56.58212280273438 C 113.1642990112305 87.83155822753906 87.83160400390625 113.1642379760742 56.58214950561523 113.1642379760742 C 25.33267974853516 113.1642379760742 0 87.83155822753906 0 56.58212280273438 C 0 25.33267211914062 25.33267974853516 7.62939453125e-06 56.58214950561523 7.62939453125e-06 Z" stroke="none" fill="#fff"/>
        </g>
      </g>
      <g id="Trazado_1013807-4" data-name="Trazado 1013807" transform="translate(1102.836 -9347.979)" fill="#f2f5f4" opacity="0.9">
        <path d="M 56.58214950561523 111.6642456054688 C 49.14544296264648 111.6642456054688 41.93198013305664 110.2080917358398 35.14215087890625 107.3362274169922 C 31.87862586975098 105.9558792114258 28.73084259033203 104.2473068237305 25.78624153137207 102.2579727172852 C 22.86922645568848 100.2872772216797 20.12613487243652 98.02401733398438 17.63318061828613 95.53105926513672 C 15.14022636413574 93.03810882568359 12.8769645690918 90.29502868652344 10.90627288818359 87.37801361083984 C 8.916934013366699 84.43340301513672 7.208364963531494 81.28562927246094 5.828011035919189 78.02210998535156 C 2.956149578094482 71.23227691650391 1.499995708465576 64.01881408691406 1.499995708465576 56.58212280273438 C 1.499995708465576 49.14541625976562 2.956149578094482 41.93196868896484 5.828011035919189 35.14213943481445 C 7.208364963531494 31.87861442565918 8.916934013366699 28.73083114624023 10.90627288818359 25.78623008728027 C 12.8769645690918 22.86921501159668 15.14022636413574 20.12613868713379 17.63318061828613 17.6331844329834 C 20.12613487243652 15.14023017883301 22.86922645568848 12.87696933746338 25.78624153137207 10.90627670288086 C 28.73084259033203 8.916937828063965 31.87862586975098 7.20836877822876 35.14215087890625 5.828015327453613 C 41.93198013305664 2.956153631210327 49.14544296264648 1.499999761581421 56.58214950561523 1.499999761581421 C 64.01885986328125 1.499999761581421 71.2322998046875 2.956153631210327 78.02214813232422 5.828015327453613 C 81.28565979003906 7.20836877822876 84.43344116210938 8.916937828063965 87.37805938720703 10.90627670288086 C 90.29507446289062 12.87696933746338 93.03814697265625 15.14023017883301 95.53110504150391 17.6331844329834 C 98.02405548095703 20.12613868713379 100.2873153686523 22.86921501159668 102.2580261230469 25.78623008728027 C 104.2473678588867 28.73083114624023 105.9559326171875 31.87861442565918 107.3362884521484 35.14213943481445 C 110.2081527709961 41.93196868896484 111.664306640625 49.14541625976562 111.664306640625 56.58212280273438 C 111.664306640625 64.01881408691406 110.2081527709961 71.23227691650391 107.3362884521484 78.02210998535156 C 105.9559326171875 81.28562927246094 104.2473678588867 84.43340301513672 102.2580261230469 87.37801361083984 C 100.2873153686523 90.29502868652344 98.02405548095703 93.03810882568359 95.53110504150391 95.53105926513672 C 93.03814697265625 98.02401733398438 90.29507446289062 100.2872772216797 87.37805938720703 102.2579727172852 C 84.43344116210938 104.2473068237305 81.28565979003906 105.9558792114258 78.02214813232422 107.3362274169922 C 71.2322998046875 110.2080917358398 64.01885986328125 111.6642456054688 56.58214950561523 111.6642456054688 Z" stroke="none"/>
        <path d="M 56.58214950561523 3.000007629394531 C 49.34728240966797 3.000007629394531 42.33041381835938 4.416290283203125 35.72648620605469 7.209526062011719 C 32.55214691162109 8.552139282226562 29.49030303955078 10.21408843994141 26.62594604492188 12.14920806884766 C 23.78803253173828 14.06645965576172 21.11930084228516 16.26838684082031 18.69384765625 18.69384002685547 C 16.26840209960938 21.11929321289062 14.06646728515625 23.78802490234375 12.14921569824219 26.62593841552734 C 10.21409606933594 29.49028778076172 8.552131652832031 32.55213928222656 7.209518432617188 35.72645568847656 C 4.416282653808594 42.33040618896484 3 49.34725570678711 3 56.58212280273438 C 3 63.81698989868164 4.416282653808594 70.83383941650391 7.209518432617188 77.43777465820312 C 8.552131652832031 80.61209106445312 10.21409606933594 83.67395782470703 12.14921569824219 86.53830718994141 C 14.06646728515625 89.37620544433594 16.26840209960938 92.04495239257812 18.69384765625 94.47040557861328 C 21.11930084228516 96.89584350585938 23.78803253173828 99.09777069091797 26.62594604492188 101.015022277832 C 29.49030303955078 102.9501419067383 32.55216979980469 104.6121063232422 35.72648620605469 105.954719543457 C 42.33041381835938 108.7479553222656 49.34728240966797 110.1642379760742 56.58214950561523 110.1642379760742 C 63.8170166015625 110.1642379760742 70.8338623046875 108.7479553222656 77.43782043457031 105.954719543457 C 80.61213684082031 104.6121063232422 83.67399597167969 102.9501419067383 86.53834533691406 101.015022277832 C 89.37625122070312 99.09777069091797 92.04499816894531 96.89584350585938 94.47045135498047 94.47039031982422 C 96.89589691162109 92.04495239257812 99.09783172607422 89.37620544433594 101.0150833129883 86.53830718994141 C 102.9501953125 83.67395782470703 104.6121520996094 80.61209106445312 105.9547805786133 77.43777465820312 C 108.7480163574219 70.83383941650391 110.1642990112305 63.81698989868164 110.1642990112305 56.58212280273438 C 110.1642990112305 49.34725570678711 108.7480163574219 42.33040618896484 105.9547805786133 35.72645568847656 C 104.6121520996094 32.55213928222656 102.9501953125 29.49028778076172 101.0150833129883 26.62593841552734 C 99.09783172607422 23.78804016113281 96.89589691162109 21.11929321289062 94.47045135498047 18.69384002685547 C 92.04499816894531 16.26838684082031 89.37625122070312 14.06645965576172 86.53834533691406 12.14920806884766 C 83.67399597167969 10.21408843994141 80.61213684082031 8.552139282226562 77.43782043457031 7.209526062011719 C 70.8338623046875 4.416290283203125 63.8170166015625 3.000007629394531 56.58214950561523 3.000007629394531 M 56.58214950561523 7.62939453125e-06 C 87.83160400390625 7.62939453125e-06 113.1642990112305 25.33267211914062 113.1642990112305 56.58212280273438 C 113.1642990112305 87.83155822753906 87.83160400390625 113.1642379760742 56.58214950561523 113.1642379760742 C 25.33267974853516 113.1642379760742 0 87.83155822753906 0 56.58212280273438 C 0 25.33267211914062 25.33267974853516 7.62939453125e-06 56.58214950561523 7.62939453125e-06 Z" stroke="none"/>
      </g>
      <g transform="matrix(1, 0, 0, 1, 1088.42, -9353.98)" filter="url(#Trazado_1013807-2)">
        <g id="Trazado_1013807-5" data-name="Trazado 1013807" transform="translate(14.42 6)" fill="#fff" opacity="0.9">
          <path d="M 56.58214950561523 111.6642456054688 C 49.14544296264648 111.6642456054688 41.93198013305664 110.2080917358398 35.14215087890625 107.3362274169922 C 31.87862586975098 105.9558792114258 28.73084259033203 104.2473068237305 25.78624153137207 102.2579727172852 C 22.86922645568848 100.2872772216797 20.12613487243652 98.02401733398438 17.63318061828613 95.53105926513672 C 15.14022636413574 93.03810882568359 12.8769645690918 90.29502868652344 10.90627288818359 87.37801361083984 C 8.916934013366699 84.43340301513672 7.208364963531494 81.28562927246094 5.828011035919189 78.02210998535156 C 2.956149578094482 71.23227691650391 1.499995708465576 64.01881408691406 1.499995708465576 56.58212280273438 C 1.499995708465576 49.14541625976562 2.956149578094482 41.93196868896484 5.828011035919189 35.14213943481445 C 7.208364963531494 31.87861442565918 8.916934013366699 28.73083114624023 10.90627288818359 25.78623008728027 C 12.8769645690918 22.86921501159668 15.14022636413574 20.12613868713379 17.63318061828613 17.6331844329834 C 20.12613487243652 15.14023017883301 22.86922645568848 12.87696933746338 25.78624153137207 10.90627670288086 C 28.73084259033203 8.916937828063965 31.87862586975098 7.20836877822876 35.14215087890625 5.828015327453613 C 41.93198013305664 2.956153631210327 49.14544296264648 1.499999761581421 56.58214950561523 1.499999761581421 C 64.01885986328125 1.499999761581421 71.2322998046875 2.956153631210327 78.02214813232422 5.828015327453613 C 81.28565979003906 7.20836877822876 84.43344116210938 8.916937828063965 87.37805938720703 10.90627670288086 C 90.29507446289062 12.87696933746338 93.03814697265625 15.14023017883301 95.53110504150391 17.6331844329834 C 98.02405548095703 20.12613868713379 100.2873153686523 22.86921501159668 102.2580261230469 25.78623008728027 C 104.2473678588867 28.73083114624023 105.9559326171875 31.87861442565918 107.3362884521484 35.14213943481445 C 110.2081527709961 41.93196868896484 111.664306640625 49.14541625976562 111.664306640625 56.58212280273438 C 111.664306640625 64.01881408691406 110.2081527709961 71.23227691650391 107.3362884521484 78.02210998535156 C 105.9559326171875 81.28562927246094 104.2473678588867 84.43340301513672 102.2580261230469 87.37801361083984 C 100.2873153686523 90.29502868652344 98.02405548095703 93.03810882568359 95.53110504150391 95.53105926513672 C 93.03814697265625 98.02401733398438 90.29507446289062 100.2872772216797 87.37805938720703 102.2579727172852 C 84.43344116210938 104.2473068237305 81.28565979003906 105.9558792114258 78.02214813232422 107.3362274169922 C 71.2322998046875 110.2080917358398 64.01885986328125 111.6642456054688 56.58214950561523 111.6642456054688 Z" stroke="none"/>
          <path d="M 56.58214950561523 3.000007629394531 C 49.34728240966797 3.000007629394531 42.33041381835938 4.416290283203125 35.72648620605469 7.209526062011719 C 32.55214691162109 8.552139282226562 29.49030303955078 10.21408843994141 26.62594604492188 12.14920806884766 C 23.78803253173828 14.06645965576172 21.11930084228516 16.26838684082031 18.69384765625 18.69384002685547 C 16.26840209960938 21.11929321289062 14.06646728515625 23.78802490234375 12.14921569824219 26.62593841552734 C 10.21409606933594 29.49028778076172 8.552131652832031 32.55213928222656 7.209518432617188 35.72645568847656 C 4.416282653808594 42.33040618896484 3 49.34725570678711 3 56.58212280273438 C 3 63.81698989868164 4.416282653808594 70.83383941650391 7.209518432617188 77.43777465820312 C 8.552131652832031 80.61209106445312 10.21409606933594 83.67395782470703 12.14921569824219 86.53830718994141 C 14.06646728515625 89.37620544433594 16.26840209960938 92.04495239257812 18.69384765625 94.47040557861328 C 21.11930084228516 96.89584350585938 23.78803253173828 99.09777069091797 26.62594604492188 101.015022277832 C 29.49030303955078 102.9501419067383 32.55216979980469 104.6121063232422 35.72648620605469 105.954719543457 C 42.33041381835938 108.7479553222656 49.34728240966797 110.1642379760742 56.58214950561523 110.1642379760742 C 63.8170166015625 110.1642379760742 70.8338623046875 108.7479553222656 77.43782043457031 105.954719543457 C 80.61213684082031 104.6121063232422 83.67399597167969 102.9501419067383 86.53834533691406 101.015022277832 C 89.37625122070312 99.09777069091797 92.04499816894531 96.89584350585938 94.47045135498047 94.47039031982422 C 96.89589691162109 92.04495239257812 99.09783172607422 89.37620544433594 101.0150833129883 86.53830718994141 C 102.9501953125 83.67395782470703 104.6121520996094 80.61209106445312 105.9547805786133 77.43777465820312 C 108.7480163574219 70.83383941650391 110.1642990112305 63.81698989868164 110.1642990112305 56.58212280273438 C 110.1642990112305 49.34725570678711 108.7480163574219 42.33040618896484 105.9547805786133 35.72645568847656 C 104.6121520996094 32.55213928222656 102.9501953125 29.49028778076172 101.0150833129883 26.62593841552734 C 99.09783172607422 23.78804016113281 96.89589691162109 21.11929321289062 94.47045135498047 18.69384002685547 C 92.04499816894531 16.26838684082031 89.37625122070312 14.06645965576172 86.53834533691406 12.14920806884766 C 83.67399597167969 10.21408843994141 80.61213684082031 8.552139282226562 77.43782043457031 7.209526062011719 C 70.8338623046875 4.416290283203125 63.8170166015625 3.000007629394531 56.58214950561523 3.000007629394531 M 56.58214950561523 7.62939453125e-06 C 87.83160400390625 7.62939453125e-06 113.1642990112305 25.33267211914062 113.1642990112305 56.58212280273438 C 113.1642990112305 87.83155822753906 87.83160400390625 113.1642379760742 56.58214950561523 113.1642379760742 C 25.33267974853516 113.1642379760742 0 87.83155822753906 0 56.58212280273438 C 0 25.33267211914062 25.33267974853516 7.62939453125e-06 56.58214950561523 7.62939453125e-06 Z" stroke="none"/>
        </g>
      </g>
      <g id="Trazado_1013807-6" data-name="Trazado 1013807" transform="translate(1102.836 -9347.979)" fill="none" opacity="0.9">
        <path d="M 56.58214950561523 111.6642456054688 C 49.14544296264648 111.6642456054688 41.93198013305664 110.2080917358398 35.14215087890625 107.3362274169922 C 31.87862586975098 105.9558792114258 28.73084259033203 104.2473068237305 25.78624153137207 102.2579727172852 C 22.86922645568848 100.2872772216797 20.12613487243652 98.02401733398438 17.63318061828613 95.53105926513672 C 15.14022636413574 93.03810882568359 12.8769645690918 90.29502868652344 10.90627288818359 87.37801361083984 C 8.916934013366699 84.43340301513672 7.208364963531494 81.28562927246094 5.828011035919189 78.02210998535156 C 2.956149578094482 71.23227691650391 1.499995708465576 64.01881408691406 1.499995708465576 56.58212280273438 C 1.499995708465576 49.14541625976562 2.956149578094482 41.93196868896484 5.828011035919189 35.14213943481445 C 7.208364963531494 31.87861442565918 8.916934013366699 28.73083114624023 10.90627288818359 25.78623008728027 C 12.8769645690918 22.86921501159668 15.14022636413574 20.12613868713379 17.63318061828613 17.6331844329834 C 20.12613487243652 15.14023017883301 22.86922645568848 12.87696933746338 25.78624153137207 10.90627670288086 C 28.73084259033203 8.916937828063965 31.87862586975098 7.20836877822876 35.14215087890625 5.828015327453613 C 41.93198013305664 2.956153631210327 49.14544296264648 1.499999761581421 56.58214950561523 1.499999761581421 C 64.01885986328125 1.499999761581421 71.2322998046875 2.956153631210327 78.02214813232422 5.828015327453613 C 81.28565979003906 7.20836877822876 84.43344116210938 8.916937828063965 87.37805938720703 10.90627670288086 C 90.29507446289062 12.87696933746338 93.03814697265625 15.14023017883301 95.53110504150391 17.6331844329834 C 98.02405548095703 20.12613868713379 100.2873153686523 22.86921501159668 102.2580261230469 25.78623008728027 C 104.2473678588867 28.73083114624023 105.9559326171875 31.87861442565918 107.3362884521484 35.14213943481445 C 110.2081527709961 41.93196868896484 111.664306640625 49.14541625976562 111.664306640625 56.58212280273438 C 111.664306640625 64.01881408691406 110.2081527709961 71.23227691650391 107.3362884521484 78.02210998535156 C 105.9559326171875 81.28562927246094 104.2473678588867 84.43340301513672 102.2580261230469 87.37801361083984 C 100.2873153686523 90.29502868652344 98.02405548095703 93.03810882568359 95.53110504150391 95.53105926513672 C 93.03814697265625 98.02401733398438 90.29507446289062 100.2872772216797 87.37805938720703 102.2579727172852 C 84.43344116210938 104.2473068237305 81.28565979003906 105.9558792114258 78.02214813232422 107.3362274169922 C 71.2322998046875 110.2080917358398 64.01885986328125 111.6642456054688 56.58214950561523 111.6642456054688 Z" stroke="none"/>
        <path d="M 56.58214950561523 3.000007629394531 C 49.34728240966797 3.000007629394531 42.33041381835938 4.416290283203125 35.72648620605469 7.209526062011719 C 32.55214691162109 8.552139282226562 29.49030303955078 10.21408843994141 26.62594604492188 12.14920806884766 C 23.78803253173828 14.06645965576172 21.11930084228516 16.26838684082031 18.69384765625 18.69384002685547 C 16.26840209960938 21.11929321289062 14.06646728515625 23.78802490234375 12.14921569824219 26.62593841552734 C 10.21409606933594 29.49028778076172 8.552131652832031 32.55213928222656 7.209518432617188 35.72645568847656 C 4.416282653808594 42.33040618896484 3 49.34725570678711 3 56.58212280273438 C 3 63.81698989868164 4.416282653808594 70.83383941650391 7.209518432617188 77.43777465820312 C 8.552131652832031 80.61209106445312 10.21409606933594 83.67395782470703 12.14921569824219 86.53830718994141 C 14.06646728515625 89.37620544433594 16.26840209960938 92.04495239257812 18.69384765625 94.47040557861328 C 21.11930084228516 96.89584350585938 23.78803253173828 99.09777069091797 26.62594604492188 101.015022277832 C 29.49030303955078 102.9501419067383 32.55216979980469 104.6121063232422 35.72648620605469 105.954719543457 C 42.33041381835938 108.7479553222656 49.34728240966797 110.1642379760742 56.58214950561523 110.1642379760742 C 63.8170166015625 110.1642379760742 70.8338623046875 108.7479553222656 77.43782043457031 105.954719543457 C 80.61213684082031 104.6121063232422 83.67399597167969 102.9501419067383 86.53834533691406 101.015022277832 C 89.37625122070312 99.09777069091797 92.04499816894531 96.89584350585938 94.47045135498047 94.47039031982422 C 96.89589691162109 92.04495239257812 99.09783172607422 89.37620544433594 101.0150833129883 86.53830718994141 C 102.9501953125 83.67395782470703 104.6121520996094 80.61209106445312 105.9547805786133 77.43777465820312 C 108.7480163574219 70.83383941650391 110.1642990112305 63.81698989868164 110.1642990112305 56.58212280273438 C 110.1642990112305 49.34725570678711 108.7480163574219 42.33040618896484 105.9547805786133 35.72645568847656 C 104.6121520996094 32.55213928222656 102.9501953125 29.49028778076172 101.0150833129883 26.62593841552734 C 99.09783172607422 23.78804016113281 96.89589691162109 21.11929321289062 94.47045135498047 18.69384002685547 C 92.04499816894531 16.26838684082031 89.37625122070312 14.06645965576172 86.53834533691406 12.14920806884766 C 83.67399597167969 10.21408843994141 80.61213684082031 8.552139282226562 77.43782043457031 7.209526062011719 C 70.8338623046875 4.416290283203125 63.8170166015625 3.000007629394531 56.58214950561523 3.000007629394531 M 56.58214950561523 7.62939453125e-06 C 87.83160400390625 7.62939453125e-06 113.1642990112305 25.33267211914062 113.1642990112305 56.58212280273438 C 113.1642990112305 87.83155822753906 87.83160400390625 113.1642379760742 56.58214950561523 113.1642379760742 C 25.33267974853516 113.1642379760742 0 87.83155822753906 0 56.58212280273438 C 0 25.33267211914062 25.33267974853516 7.62939453125e-06 56.58214950561523 7.62939453125e-06 Z" stroke="none" fill="#fff"/>
      </g>
    </g>
    <g id="Grupo_1162028" data-name="Grupo 1162028" transform="translate(1088.418 -9325.708)">
      <g id="Grupo_1162027" data-name="Grupo 1162027" clip-path="url(#clip-path)">
        <path id="Trazado_1016095" data-name="Trazado 1016095" d="M142,290.951c0,5.462-31.788,9.889-71,9.889s-71-4.427-71-9.889,31.788-9.889,71-9.889,71,4.427,71,9.889" transform="translate(0 -226.116)" fill="#e8e8e8" style="mix-blend-mode: multiply;isolation: isolate"/>
        <path id="Trazado_1016096" data-name="Trazado 1016096" d="M90.629,257.364c-1.889,4.056-.722,12.889,5.056,14.833s14.445.722,14.722-10.222-19.778-4.611-19.778-4.611" transform="translate(-72.24 -205.584)" fill="#07131e"/>
        <path id="Trazado_1016097" data-name="Trazado 1016097" d="M135.82,238.508c-2.767-2-5.9-.352-5.653,8.2s6.4,6.722,7.19,2.278,0-9.37-1.537-10.481" transform="translate(-104.709 -191.265)" fill="#384249"/>
        <path id="Trazado_1016098" data-name="Trazado 1016098" d="M544.609,222.51a5.438,5.438,0,0,1-1.41,2.563l-.025.021a.246.246,0,0,1-.03.019.158.158,0,0,1-.041.019l-.02.008-.043.014c-.046.014-.1.027-.164.039l-.066.013-.071.011c-.023,0-.049.008-.075.011-.052.008-.109.014-.167.022-.088.009-.184.019-.288.027-.063.006-.129.011-.2.016l-.066,0-.145.009-.414.021-.406.016-.446.011c-.05,0-.1,0-.153,0-.115,0-.233,0-.354.006-.066,0-.134,0-.2,0-1.546.019-3.416,0-5.149-.035l.091-1.793-.7-1.927a43.643,43.643,0,0,1,1.942-8.92,10.607,10.607,0,0,1,1.465-2.821q.215-.272.42-.5c2.3-2.511,3.951-.941,5.8,3.5,1.089,2.611,1.113,6.6.916,9.64" transform="translate(-429.656 -167.48)" fill="#477cc0"/>
        <path id="Trazado_1016099" data-name="Trazado 1016099" d="M590.3,172.343c.3-3.555-.444-6.963-1.3-7.741a5.69,5.69,0,0,0-1.37-1l-.518,5.482.7,3.185Z" transform="translate(-472.334 -131.619)" fill="#f9593e"/>
        <path id="Trazado_1016100" data-name="Trazado 1016100" d="M589.131,171.461h-.009l-2.481-.074a.283.283,0,0,1-.268-.222l-.7-3.185a.284.284,0,0,1-.005-.088l.518-5.482a.283.283,0,0,1,.394-.234,5.926,5.926,0,0,1,1.45,1.051c.921.841,1.7,4.245,1.388,7.973a.283.283,0,0,1-.282.26m-2.253-.634,1.991.059c.248-3.574-.532-6.608-1.226-7.24a7.606,7.606,0,0,0-.939-.744l-.473,5Z" transform="translate(-471.168 -130.453)" fill="#285e99"/>
        <path id="Trazado_1016101" data-name="Trazado 1016101" d="M159.811,129.69c.219-2.583-.315-3.722-3.648-3.463s-3.018,3.815-1.815,3.981,2.352.056,3.037.2a7.607,7.607,0,0,1,1.815.889s.444.352.611-1.611" transform="translate(-123.496 -101.521)" fill="#477cc0"/>
        <path id="Trazado_1016102" data-name="Trazado 1016102" d="M548.3,205.46a5.339,5.339,0,0,1-1.436,2.583.955.955,0,0,1-.364.112,70.91,70.91,0,0,1-8.135.126l.091-1.793-.7-1.927a43.636,43.636,0,0,1,1.942-8.92,10.607,10.607,0,0,1,1.465-2.821c2.519-3.184,4.259-1.7,6.222,3,1.089,2.611,1.113,6.6.916,9.64" transform="translate(-432.629 -153.763)" fill="#477cc0"/>
        <path id="Trazado_1016103" data-name="Trazado 1016103" d="M371.606,221.661c-.1,0-.184,0-.25.006l-.169,0-12.878-1.9c.294-1.64.842-4.39,1.84-8.672a18.512,18.512,0,0,1,2.015-5.388c2.013-3.29,4.7-3.3,7.208.332,3.3,4.766,2.353,14.516,2.234,15.62" transform="translate(-288.262 -163.54)" fill="#477cc0"/>
        <path id="Trazado_1016104" data-name="Trazado 1016104" d="M321.974,227.322s.167,6.889,3.945,10.444,11.611,1.556,13.111.333,3.389-6.111,3.222-9.611-.583-10.528-5.917-13.444-11.861,7.75-11.861,7.75Z" transform="translate(-259.029 -172.598)" fill="#07131e"/>
        <path id="Trazado_1016105" data-name="Trazado 1016105" d="M278.3,272.152c.815,7.556,4,9.259,5.37,9.852a11.662,11.662,0,0,0,6.37-.148c2.148-1.074,2.482-4.741,2.482-4.741l-.963-4.926-2.556-3.3-6.852-.333Z" transform="translate(-223.898 -216.057)" fill="#07131e"/>
        <path id="Trazado_1016106" data-name="Trazado 1016106" d="M184.554,98.274c-.852,2.592-1.333.7-2.149,2.962-.14.39-.266.737-.379,1.047a5.339,5.339,0,0,1-1.436,2.583c-.411.324-4.77.308-8.5.238-2.651-.049-4.984-.126-5.353-.126-.8,0-13.808.331-16.322.4l-.419.01-12.877-1.9-.159-.024s-26.666,4.741-52.445.518c0,0-.944-1.777-1.138-7.582S86.878,83.7,88.1,82.2s13.943-5.195,13.943-5.195,7.889-11.861,9.473-13.749,6.89-3.279,8.7-3.584,11.787-.508,19.49-.88,28.3,1.185,32.741,1.927,7.852,8.815,9.037,12.519a31.864,31.864,0,0,1,1.407,6.11l.667,7.148a11.565,11.565,0,0,1,1.777,1.7c.3.518.074,7.482-.778,10.074" transform="translate(-67.072 -47.253)" fill="#477cc0"/>
        <path id="Trazado_1016107" data-name="Trazado 1016107" d="M336.214,157.2a.282.282,0,0,1-.28-.242,2.45,2.45,0,0,1,.912-2.108c1.122-.949,6.074-2.618,12.042-4.059a.283.283,0,1,1,.133.551c-6.569,1.586-10.913,3.183-11.809,3.941a1.886,1.886,0,0,0-.717,1.6.284.284,0,0,1-.243.318l-.039,0" transform="translate(-270.252 -121.308)" fill="#285e99"/>
        <path id="Trazado_1016108" data-name="Trazado 1016108" d="M232.029,84.148S234.622,71.555,234.177,70s-14.963-2-23.7-1.63-11.556,1.065-13.778,3.315-7.778,12.139-7.861,12.389,10.139-.472,13.75-.667,11.667-.278,18.278-.056,11.167.8,11.167.8" transform="translate(-151.918 -54.905)" fill="#2d3547"/>
        <path id="Trazado_1016109" data-name="Trazado 1016109" d="M423.394,90.668s1.833-11.833,2.055-13.222,4.917-1.556,5.694-1.056,1.083,1.833,2,6.667,1.222,7.833,1.222,7.833l-11.083.167Z" transform="translate(-340.533 -61.25)" fill="#2d3547"/>
        <path id="Trazado_1016110" data-name="Trazado 1016110" d="M476.773,89.7s-2.361-9.639-3.222-12.278,1.5-2.583,4.167-2.556,3.778-.111,4.611,2.278,3.167,11.389,3.333,11.972-8.889.583-8.889.583" transform="translate(-380.829 -60.223)" fill="#2d3547"/>
        <path id="Trazado_1016111" data-name="Trazado 1016111" d="M526.342,90.341s6.519-.509,7.158-.87-3.519-9.324-4.8-11.019-1.667-1.694-4.556-2.028-2.5-.305-2.139.972,3.583,12.166,3.694,12.556.639.389.639.389" transform="translate(-419.759 -61.339)" fill="#2d3547"/>
        <path id="Trazado_1016112" data-name="Trazado 1016112" d="M525.021,99.574l-.037,0a.283.283,0,0,1-.244-.318,10.616,10.616,0,0,0-.073-3.4,35.355,35.355,0,0,0-1.889-4.019c-.234-.455-.458-.89-.65-1.274-.32-.64-.517-1.064-.69-1.437-.257-.554-.461-.992-.943-1.857a63.858,63.858,0,0,1-2.274-7.4c-.76-2.748-1.546-5.589-2.021-6.818a.283.283,0,1,1,.528-.2c.485,1.255,1.275,4.11,2.038,6.871a67.237,67.237,0,0,0,2.223,7.274c.492.883.7,1.329.962,1.894.172.37.367.79.683,1.423.191.382.414.814.647,1.268a35.416,35.416,0,0,1,1.925,4.106,10.921,10.921,0,0,1,.094,3.651.283.283,0,0,1-.28.246" transform="translate(-415.27 -58.455)" fill="#285e99"/>
        <path id="Trazado_1016113" data-name="Trazado 1016113" d="M425.954,274.087a.283.283,0,0,1-.006-.567l20.833-.444a.276.276,0,0,1,.289.277.283.283,0,0,1-.277.289l-20.833.444h-.006" transform="translate(-342.454 -219.691)" fill="#285e99"/>
        <path id="Trazado_1016114" data-name="Trazado 1016114" d="M473.981,110.96a.283.283,0,0,1-.283-.268c-.007-.124-.669-12.415-.889-16.314a16.687,16.687,0,0,0-2.8-7.481.284.284,0,0,1-.045-.1l-3.579-15.565a.283.283,0,1,1,.552-.127L470.5,86.615a16.878,16.878,0,0,1,2.871,7.731c.22,3.9.882,16.192.889,16.315a.284.284,0,0,1-.268.3h-.015" transform="translate(-375.204 -57.026)" fill="#285e99"/>
        <path id="Trazado_1016115" data-name="Trazado 1016115" d="M416.008,86.383a.273.273,0,0,1-.053-.005.283.283,0,0,1-.226-.331c.1-.534,2.479-13.086,2.815-14.093.512-1.537,9.018-1.543,12.252-1.416a76.825,76.825,0,0,1,10.291.894,4.2,4.2,0,0,1,2.416,1.943.283.283,0,0,1-.492.281,3.7,3.7,0,0,0-2.029-1.668,76.29,76.29,0,0,0-10.209-.884,63.667,63.667,0,0,0-7.939.152c-3.531.327-3.752.872-3.754.877-.259.777-1.942,9.51-2.8,14.019a.284.284,0,0,1-.278.231" transform="translate(-334.452 -56.708)" fill="#285e99"/>
        <path id="Trazado_1016116" data-name="Trazado 1016116" d="M427.644,181.75a.283.283,0,0,1-.283-.28c0-.165-.2-16.525-3.083-22.51a.283.283,0,1,1,.51-.246c2.938,6.1,3.132,22.073,3.139,22.75a.283.283,0,0,1-.28.286Z" transform="translate(-341.31 -127.557)" fill="#285e99"/>
        <path id="Trazado_1016117" data-name="Trazado 1016117" d="M366.521,204.644H366.5a.283.283,0,0,1-.256-.308c.241-2.652-.031-9.5-2.409-13.724-1.055-1.875-2.223-2.9-3.472-3.057-1.306-.161-2.79.625-4.409,2.335-2.855,3.017-4.816,12.416-4.835,12.511a.283.283,0,0,1-.555-.114c.081-.393,2.014-9.652,4.979-12.786,1.775-1.875,3.374-2.7,4.89-2.508,1.437.177,2.748,1.3,3.9,3.342,2.64,4.694,2.676,11.9,2.48,14.053a.283.283,0,0,1-.281.258" transform="translate(-282.021 -150.414)" fill="#285e99"/>
        <path id="Trazado_1016118" data-name="Trazado 1016118" d="M524.28,205.756l-.03,0a.283.283,0,0,1-.253-.311c.043-.418,1.1-10.292,4.22-14.527,1.186-1.61,2.455-2.352,3.775-2.205,1.668.185,3.3,1.839,4.49,4.537a17.332,17.332,0,0,1,1.189,7.922.283.283,0,0,1-.563-.061,17.083,17.083,0,0,0-1.144-7.633c-1.086-2.471-2.594-4.042-4.034-4.2-1.1-.123-2.2.543-3.257,1.978-3.03,4.112-4.1,14.149-4.113,14.25a.283.283,0,0,1-.281.254" transform="translate(-421.557 -151.804)" fill="#285e99"/>
        <path id="Trazado_1016119" data-name="Trazado 1016119" d="M168.438,188.992l-.548,1.277q-.054.13-.118.279c-.146.34-.329.775-.534,1.255-.221.523-.466,1.1-.712,1.672-.233.543-.467,1.078-.683,1.557-.3.666-.565,1.22-.74,1.517a1.876,1.876,0,0,0-.15.37,13.472,13.472,0,0,0-.345,1.562c-.107.609-.208,1.292-.3,1.957-.074.552-.142,1.091-.2,1.563-.11.932-.178,1.6-.178,1.6H143.773s-.061-.5-.15-1.267c-.061-.534-.137-1.195-.214-1.9-.046-.433-.093-.885-.137-1.333-.009-.094-.019-.186-.027-.274-.077-.84-.109-1.442-.154-1.911a3.014,3.014,0,0,0-.43-1.481c0-.008-.011-.017-.016-.027a5.8,5.8,0,0,1-.25-1.936c-.011-.4-.013-.836-.006-1.264.006-.705.03-1.4.054-1.941.027-.63.052-1.055.052-1.055Z" transform="translate(-114.55 -152.045)" fill="#07131e"/>
        <path id="Trazado_1016120" data-name="Trazado 1016120" d="M371.606,221.661c-.1,0-.184,0-.25.006l-.169,0-12.878-1.9c.294-1.64.842-4.39,1.84-8.672a18.512,18.512,0,0,1,2.015-5.388c2.013-3.29,4.7-3.3,7.208.332,3.3,4.766,2.353,14.516,2.234,15.62" transform="translate(-288.262 -163.54)" fill="#1d4775"/>
        <path id="Trazado_1016121" data-name="Trazado 1016121" d="M87.313,237.962s4.3.056,5.7.241,1.407.963,1.463,2.037.574,2.426-1.667,2.482a34.078,34.078,0,0,1-5.722-.389c-.463-.13-.522-2.708-.389-3.481.139-.806.278-.852.611-.889" transform="translate(-69.702 -191.441)" fill="#f9593e"/>
        <path id="Trazado_1016122" data-name="Trazado 1016122" d="M91.122,241.846a33.647,33.647,0,0,1-5.256-.406c-.824-.231-.664-3.384-.592-3.8.143-.832.32-1.063.859-1.122l.035,0c.176,0,4.329.058,5.737.243,1.6.211,1.652,1.185,1.7,2.216l0,.087c.007.144.024.295.041.453a2.186,2.186,0,0,1-.287,1.747,2.233,2.233,0,0,1-1.7.579c-.178,0-.362.006-.55.006m-5.073-.943a35.036,35.036,0,0,0,5.608.371,1.21,1.21,0,0,0,1.435-1.7c-.017-.16-.036-.325-.044-.485l0-.088c-.052-1.021-.078-1.533-1.212-1.683-1.33-.175-5.352-.234-5.653-.238-.192.022-.241.044-.346.654a8.031,8.031,0,0,0,.217,3.168m.013.014h0Z" transform="translate(-68.553 -190.277)" fill="#285e99"/>
        <path id="Trazado_1016123" data-name="Trazado 1016123" d="M278.36,235.023c-3.819.25-3.778.833-4.222,2.194s-1.167,2.972,3.333,2.722,8.805.111,9.5-1.611.833-2.75.639-3.139-1.472-.695-3.945-.472-5.306.306-5.306.306" transform="translate(-220.277 -188.771)" fill="#f9593e"/>
        <path id="Trazado_1016124" data-name="Trazado 1016124" d="M275.434,239.085c-1.5,0-2.4-.262-2.816-.807a2.287,2.287,0,0,1,.029-2.148l.055-.165c.025-.077.048-.151.071-.223.432-1.364.752-1.927,4.4-2.166h.01c.028,0,2.853-.086,5.289-.3,2.342-.21,3.921.024,4.223.628.334.668-.158,2.2-.629,3.372-.613,1.52-3.378,1.592-6.879,1.684-.93.024-1.892.049-2.868.1q-.473.026-.885.026m1.772-4.943c-3.4.223-3.537.645-3.894,1.771q-.035.11-.073.228l-.056.168c-.2.609-.412,1.239-.117,1.625.359.469,1.442.658,3.22.559.984-.055,1.95-.08,2.884-.1,3.163-.083,5.895-.155,6.369-1.33.912-2.261.678-2.847.648-2.906-.062-.123-.909-.565-3.666-.317-2.4.216-5.178.3-5.317.306" transform="translate(-219.109 -187.607)" fill="#285e99"/>
        <path id="Trazado_1016125" data-name="Trazado 1016125" d="M544.609,222.51a5.438,5.438,0,0,1-1.41,2.563l-.025.021a.246.246,0,0,1-.03.019.158.158,0,0,1-.041.019l-.02.008-.043.014c-.046.014-.1.027-.164.039l-.066.013-.071.011c-.023,0-.049.008-.075.011-.052.008-.109.014-.167.022-.088.009-.184.019-.288.027-.063.006-.129.011-.2.016l-.066,0-.145.009-.414.021-.406.016-.446.011c-.05,0-.1,0-.153,0-.115,0-.233,0-.354.006-.066,0-.134,0-.2,0-1.546.019-3.416,0-5.149-.035l.091-1.793-.7-1.927a43.643,43.643,0,0,1,1.942-8.92,10.607,10.607,0,0,1,1.465-2.821q.215-.272.42-.5c2.3-2.511,3.951-.941,5.8,3.5,1.089,2.611,1.113,6.6.916,9.64" transform="translate(-429.656 -167.48)" fill="#1d4775"/>
        <path id="Trazado_1016126" data-name="Trazado 1016126" d="M343.192,230.73c-.449,3.079-1.939,6.347-3.095,7.374-2.5,2.222-9.333,3.222-13.11-.334-2.344-2.207-3.3-5.695-3.685-8.026,4.195-.494,6.685-.937,6.685-.937l.159.024c.294-1.64.842-4.39,1.84-8.672A18.51,18.51,0,0,1,334,214.772a4.26,4.26,0,0,1,3.4.277c5.333,2.917,5.75,9.943,5.915,13.444a11.919,11.919,0,0,1-.127,2.237" transform="translate(-260.098 -172.602)" fill="#07131e"/>
        <path id="Trazado_1016127" data-name="Trazado 1016127" d="M524.015,226.795c-.09,1.048-.213,2.122-.334,3.2-.072.653-.146,1.311-.209,1.965-.444,4.584-3.11,6.194-6.277,6s-4.5-.889-5.557-2.223a14.317,14.317,0,0,1-1.835-5.61h0c.283,0,1.717.045,3.563.088a1.841,1.841,0,0,0,1.881-1.746v-.009l-.7-1.927a43.629,43.629,0,0,1,1.942-8.92,10.6,10.6,0,0,1,1.465-2.821q.215-.272.42-.5c2.913.258,3.763,2.242,4.96,5,.916,2.108.918,4.722.682,7.5" transform="translate(-410.139 -172.404)" fill="#07131e"/>
        <path id="Trazado_1016128" data-name="Trazado 1016128" d="M417.754,125.162c-.3-3.493.426-5.033,4.933-4.682s4.081,5.158,2.454,5.383-3.18.075-4.106.275a10.287,10.287,0,0,0-2.454,1.2s-.6.476-.826-2.178" transform="translate(-336.038 -96.887)" fill="#477cc0"/>
        <path id="Trazado_1016129" data-name="Trazado 1016129" d="M417.748,126.251a.283.283,0,0,1-.239-.434c.8-1.269,2.325-1.2,3.942-1.124.232.011.467.021.7.029,1.738.053,2.216-.169,2.278-1.825a2.629,2.629,0,0,0-.751-1.935,3.821,3.821,0,0,0-2.708-1.118l-.1,0c-2.038-.04-3.512-.069-4.037,1.112-.607,1.366-.638,1.808-.429,2.62a4.46,4.46,0,0,1,.14,2.081.283.283,0,1,1-.551-.133,3.844,3.844,0,0,0-.138-1.807,3.862,3.862,0,0,1,.46-2.991c.678-1.525,2.48-1.489,4.566-1.448l.1,0a4.388,4.388,0,0,1,3.108,1.3,3.227,3.227,0,0,1,.905,2.346c-.079,2.1-.948,2.427-2.861,2.37-.24-.007-.478-.018-.713-.029-1.51-.069-2.815-.129-3.437.86a.283.283,0,0,1-.24.133" transform="translate(-334.452 -95.947)" fill="#285e99"/>
        <path id="Trazado_1016130" data-name="Trazado 1016130" d="M177.72,93.007a.283.283,0,0,1-.237-.438c.89-1.363,8.728-13.345,9.9-14.237a.283.283,0,1,1,.343.451c-.925.7-7.365,10.414-9.769,14.1a.282.282,0,0,1-.237.128" transform="translate(-142.749 -62.971)" fill="#285e99"/>
        <path id="Trazado_1016131" data-name="Trazado 1016131" d="M472.638,177.392l-2.586.332a.728.728,0,0,1-.186-1.444l2.586-.332a.728.728,0,1,1,.186,1.444" transform="translate(-377.498 -141.546)" fill="#07131e"/>
        <path id="Trazado_1016132" data-name="Trazado 1016132" d="M529.095,169.814l-2.586.332a.728.728,0,0,1-.186-1.444l2.586-.332a.728.728,0,1,1,.185,1.444" transform="translate(-422.918 -135.449)" fill="#07131e"/>
        <path id="Trazado_1016133" data-name="Trazado 1016133" d="M131.117,174.429c-10.165,0-17.372-.48-17.495-.488a.283.283,0,1,1,.039-.565,297.263,297.263,0,0,0,42.4-.611.283.283,0,1,1,.054.564c-8.835.851-17.682,1.1-25,1.1" transform="translate(-91.198 -138.989)" fill="#285e99"/>
        <path id="Trazado_1016134" data-name="Trazado 1016134" d="M166.568,211.916c-.233.543-.467,1.078-.683,1.557l-23.2.379a5.8,5.8,0,0,1-.25-1.936Z" transform="translate(-114.59 -170.487)" fill="#03080c"/>
        <path id="Trazado_1016135" data-name="Trazado 1016135" d="M167.906,195.522q-.054.13-.118.279c-.146.34-.329.775-.534,1.255l-24.85.408c.006-.705.03-1.4.054-1.941Z" transform="translate(-114.565 -157.298)" fill="#03080c"/>
        <path id="Trazado_1016136" data-name="Trazado 1016136" d="M167.859,229.533a13.425,13.425,0,0,0-.345,1.561l-21.365.35c-.077-.841-.109-1.442-.154-1.911Z" transform="translate(-117.454 -184.66)" fill="#03080c"/>
        <path id="Trazado_1016137" data-name="Trazado 1016137" d="M168.525,247.528c-.074.552-.142,1.091-.2,1.563l-20.493.337c-.061-.534-.137-1.195-.214-1.9Z" transform="translate(-118.762 -199.137)" fill="#03080c"/>
        <path id="Trazado_1016138" data-name="Trazado 1016138" d="M105.333,187.154s-6.667-.722-7.25-.722-1.889,3.528-1.889,3.528a2.4,2.4,0,0,1,.944,1.778c.139,1.278.611,2.028,3.028,2.139s3.583.472,4.361.278.667-1,.639-2.083.167-4.917.167-4.917" transform="translate(-77.388 -149.985)" fill="#f6fcfa"/>
        <path id="Trazado_1016139" data-name="Trazado 1016139" d="M102.827,193.329a12.167,12.167,0,0,1-1.329-.114c-.651-.077-1.46-.172-2.51-.221-2.552-.117-3.141-.966-3.3-2.391a2.127,2.127,0,0,0-.814-1.569.286.286,0,0,1-.115-.338c.912-2.464,1.636-3.713,2.155-3.713.592,0,7.008.694,7.28.724a.283.283,0,0,1,.252.3c0,.038-.194,3.835-.166,4.9,0,.1.006.205.009.3.032.941.062,1.831-.863,2.062a2.474,2.474,0,0,1-.6.065M95.367,188.7a2.823,2.823,0,0,1,.888,1.842c.113,1.036.376,1.777,2.759,1.887,1.069.049,1.89.146,2.55.224a5.488,5.488,0,0,0,1.729.062c.441-.11.468-.476.434-1.493q-.005-.15-.01-.308c-.023-.927.11-3.775.154-4.671-1.981-.214-6.362-.676-6.929-.691a11.2,11.2,0,0,0-1.576,3.15" transform="translate(-76.224 -148.82)" fill="#285e99"/>
        <path id="Trazado_1016140" data-name="Trazado 1016140" d="M99.772,198.759a.283.283,0,0,1-.282-.256,3.532,3.532,0,0,1,.948-2.775,3.2,3.2,0,0,1,3-.378c3.973,1.039,4.571,2.037,4.626,2.147a.283.283,0,0,1-.5.263c-.023-.036-.64-.913-4.268-1.862a2.69,2.69,0,0,0-2.486.26,3.015,3.015,0,0,0-.753,2.292.283.283,0,0,1-.256.308h-.027" transform="translate(-80.032 -157.011)" fill="#285e99"/>
        <path id="Trazado_1016141" data-name="Trazado 1016141" d="M260.118,190.571s3.37-.333,7.222-.3,5.926-.3,7.333-2.074,2.3-1.556,3.074-1.889.556-1.259,1.037-2.556.19-1.407-1.393-1.491-12,.334-13,.625-.931.181-1.306.917-2.968,6.764-2.968,6.764" transform="translate(-209.266 -146.625)" fill="#f6fcfa"/>
        <path id="Trazado_1016142" data-name="Trazado 1016142" d="M258.952,189.692a.283.283,0,0,1-.26-.4c.106-.246,2.6-6.045,2.976-6.781l.016-.032c.347-.681.41-.733,1.133-.934l.329-.093c1.057-.308,11.543-.718,13.094-.636.919.048,1.5.1,1.753.49.215.327.118.772-.109,1.383a7.3,7.3,0,0,0-.314,1.205c-.13.665-.242,1.24-.877,1.512a3.957,3.957,0,0,1-.622.192,3.73,3.73,0,0,0-2.342,1.612c-1.5,1.891-3.721,2.217-7.558,2.181-3.79-.035-7.158.292-7.192.3h-.028m16.589-8.318c-2.85,0-11.419.388-12.236.626l-.336.1c-.526.147-.526.147-.781.646l-.016.032c-.308.6-2.17,4.914-2.772,6.311,1.067-.089,3.793-.285,6.777-.256,3.736.036,5.749-.249,7.108-1.966a4.261,4.261,0,0,1,2.648-1.81,3.569,3.569,0,0,0,.537-.163c.344-.148.416-.444.544-1.1a7.95,7.95,0,0,1,.339-1.294c.178-.478.234-.772.167-.874-.113-.172-.833-.21-1.31-.235-.157-.008-.385-.012-.669-.012" transform="translate(-208.1 -145.462)" fill="#285e99"/>
        <path id="Trazado_1016143" data-name="Trazado 1016143" d="M281.262,193.233a.283.283,0,0,1-.23-.448,1.809,1.809,0,0,0,.311-1.52,3.7,3.7,0,0,0-2.27-2.075c-2.744-1.237-7.879.182-10.3,2.182a.283.283,0,1,1-.361-.437c2.6-2.146,7.923-3.6,10.894-2.262a4.161,4.161,0,0,1,2.585,2.444,2.345,2.345,0,0,1-.4,2,.283.283,0,0,1-.231.119" transform="translate(-215.854 -151.374)" fill="#285e99"/>
        <path id="Trazado_1016144" data-name="Trazado 1016144" d="M372.292,240.781c-3.1-2-6.611-.352-6.333,8.2s7.167,6.722,8.056,2.278,0-9.37-1.722-10.482" transform="translate(-294.403 -193.094)" fill="#93a9ba"/>
        <path id="Trazado_1016145" data-name="Trazado 1016145" d="M383.092,268.031c-.934-.6-1.992-.106-1.908,2.472s2.159,2.026,2.427.686,0-2.824-.519-3.158" transform="translate(-306.66 -215.447)" fill="#5b717f"/>
        <path id="Trazado_1016146" data-name="Trazado 1016146" d="M547.245,238.564c-2.355-1.819-5.023-.32-4.812,7.46s5.445,6.113,6.12,2.071,0-8.521-1.308-9.532" transform="translate(-436.381 -191.366)" fill="#93a9ba"/>
        <path id="Trazado_1016147" data-name="Trazado 1016147" d="M555.45,263.344c-.71-.548-1.514-.1-1.45,2.248s1.641,1.842,1.844.624,0-2.568-.394-2.872" transform="translate(-445.692 -211.693)" fill="#5b717f"/>
        <path id="Trazado_1016148" data-name="Trazado 1016148" d="M279.323,178.05h.019a.032.032,0,0,1-.019,0" transform="translate(-224.717 -143.242)" fill="#c5d3de"/>
        <path id="Trazado_1016149" data-name="Trazado 1016149" d="M280.953,42.855c-6,0-5.5.944-3.833,4.167s-4,3.833-7.055,2.223A3.03,3.03,0,0,0,265.4,51.3c-.126.757-.054.894-.011.916l-.767-.027c-2.39-1.055-4.278-8.388-.334-10.167s1.889-3.833.389-7.5,3.778-12.113,9.556-12.723c4.995-.527,12.19-.06,16.345,6.144a16.5,16.5,0,0,1,1.709,3.357c3.556,9.388-5.333,11.555-11.333,11.555" transform="translate(-210.787 -17.408)" fill="#c5d3de"/>
        <path id="Trazado_1016150" data-name="Trazado 1016150" d="M66.176,94.576,63.108,95.61a1.792,1.792,0,0,0-2.141-1.3c-1.779.279-2.736.305-2.125-1.584s.11-3.833-2.666-3.888S53.064,94,49.231,93.224s-3.778-3.778-3.778-3.778c0-.146,0-.293,0-.436.068-13.759,18.977-12.484,16.559-4.787C59.565,92,64.12,90.891,65.037,91.447a3.3,3.3,0,0,1,.965,2,10.3,10.3,0,0,1,.175,1.127" transform="translate(-36.565 -63.167)" fill="#c5d3de"/>
        <path id="Trazado_1016151" data-name="Trazado 1016151" d="M66.176,118.35l-3.068,1.034a1.792,1.792,0,0,0-2.141-1.3c-1.779.279-2.736.305-2.125-1.584s.11-3.833-2.666-3.888-3.112,5.166-6.945,4.389-3.778-3.778-3.778-3.778c0-.146,0-.293,0-.436a4.445,4.445,0,0,1,.411.622c1.851,3.332,4.629-2.741,8.629-4.889s5.667,3.963,6.26,6.556c.576,2.525,2.841,2.626,5.251,2.15a10.3,10.3,0,0,1,.175,1.127" transform="translate(-36.565 -86.941)" fill="#b2c3ce"/>
        <path id="Trazado_1016152" data-name="Trazado 1016152" d="M279.323,178.05h.019a.032.032,0,0,1-.019,0" transform="translate(-224.717 -143.242)" fill="#b2c3ce"/>
        <path id="Trazado_1016153" data-name="Trazado 1016153" d="M290.386,68.8c-6,0-5.5.944-3.833,4.167s-4,3.833-7.055,2.223a3.03,3.03,0,0,0-4.667,2.054c-.126.757-.054.894-.011.916l-.767-.027c-1.056-3.685.5-6.13,4.722-5.166s4.444-.519.148-4.223,2.519-6.444,10.666-3.48c7.822,2.843,13.389-4.617,10.42-11.376a16.5,16.5,0,0,1,1.709,3.357c3.556,9.388-5.333,11.555-11.333,11.555" transform="translate(-220.22 -43.351)" fill="#b2c3ce"/>
        <path id="Trazado_1016154" data-name="Trazado 1016154" d="M136.342,263.747a.283.283,0,0,1-.241-.135c-.7-1.144-1.668-2.712-6.51-2.255-4.682.441-45.656.286-47.4.279a.283.283,0,0,1,0-.567h0c.426,0,42.688.161,47.343-.276,4.8-.452,6.069.935,7.046,2.522a.283.283,0,0,1-.241.432" transform="translate(-65.897 -209.74)" fill="#285e99"/>
        <path id="Trazado_1016155" data-name="Trazado 1016155" d="M587.082,244.672a.283.283,0,0,1-.057-.561A4.2,4.2,0,0,0,590,242.26a.283.283,0,0,1,.506.255,4.733,4.733,0,0,1-3.362,2.151.279.279,0,0,1-.058.006" transform="translate(-472.083 -194.775)" fill="#285e99"/>
        <path id="Trazado_1016156" data-name="Trazado 1016156" d="M525.984,16.672c-.54,1.81-.254,2.889-.381,4.286a34.377,34.377,0,0,1-.317,4.127c-.317,1.714.7,1.27.921,2.476s.7.762,3.778,1.3,3.9-.73,3.587-1.937.7-2.159.794-3.683-.667-3.207-.73-4.413a9.634,9.634,0,0,0-.984-2.984l-1.484-.857Z" transform="translate(-422.546 -12.059)" fill="#512d20"/>
        <path id="Trazado_1016157" data-name="Trazado 1016157" d="M469.178,335.936l-.381,1.191s-2.762,1.333-4.476,2.381,1.381.762,4.238.286,3.1-1,3.286-1.762a12.567,12.567,0,0,0,.19-2.238Z" transform="translate(-373.153 -270.147)" fill="#512d20"/>
        <path id="Trazado_1016158" data-name="Trazado 1016158" d="M575.164,337.884l.381,1.191s2.762,1.333,4.476,2.381-1.381.762-4.238.286-3.1-1-3.286-1.762a12.566,12.566,0,0,1-.19-2.238Z" transform="translate(-460.423 -271.714)" fill="#512d20"/>
        <path id="Trazado_1016159" data-name="Trazado 1016159" d="M490.688,144.523S488.72,157.412,487.514,163c-.884,4.094-2.413,14.032-2.413,14.032l4.445.635s2.1-9.651,4.318-16.826,4.191-12.826,4.191-12.826.571,3.556,1.079,9.08c.495,5.384,2.286,20.889,2.286,20.889l4.254-.508s-.254-29.778-.254-32.89-2.857-6.667-2.857-6.667l-9.08.127a12.043,12.043,0,0,0-2.794,6.476" transform="translate(-390.266 -110.957)" fill="#cc896e"/>
        <path id="Trazado_1016160" data-name="Trazado 1016160" d="M523.726,51.284c-3.3,0-4.524,2.857-5.048,6.143s0,4.762-.667,6.572,1.857,4.349,1.857,4.349l8.9-.064s2.048-2.191,1.9-3.381-.333-2.762-.762-5.286-.857-5-1.762-6.286a5.478,5.478,0,0,0-4.429-2.048" transform="translate(-416.652 -41.258)" fill="#f7624a"/>
        <path id="Trazado_1016161" data-name="Trazado 1016161" d="M544.589,41.724v1.525a1.079,1.079,0,0,1-2.159,0V41.724a1.079,1.079,0,0,1,2.159,0" transform="translate(-436.387 -32.699)" fill="#fcc5b1"/>
        <path id="Trazado_1016162" data-name="Trazado 1016162" d="M536.736,10.762c0,1.835-1.524,5.248-3.4,5.248s-3.4-3.413-3.4-5.248a3.4,3.4,0,0,1,6.807,0" transform="translate(-426.33 -5.985)" fill="#fcc5b1"/>
        <path id="Trazado_1016163" data-name="Trazado 1016163" d="M532.5,4.219c-.714,2.238-2.381,2.191-3.953,2.1a2.784,2.784,0,0,0-2.857,2.476s-1.226-3.136,1.143-5.143a3.582,3.582,0,0,1,5.667.571" transform="translate(-422.667 -2.003)" fill="#512d20"/>
        <path id="Trazado_1016164" data-name="Trazado 1016164" d="M529.8.409c-.246-.094-.651-.012-2.023.422S526.487,2.056,525.76,2.8l-.548.246.163.9a4.739,4.739,0,0,0,1.075-.518c.4-.293,1.295-.6,1.717-.866a5.5,5.5,0,0,0,1.1-.927c.545-.6.774-1.126.528-1.22" transform="translate(-422.535 -0.301)" fill="#fcc5b1"/>
        <path id="Trazado_1016165" data-name="Trazado 1016165" d="M555,10.6c.309,1.857,1.571,2.667,1.5,3.524s.571-.976.69-1.786.1-2.357-1.381-2.738-.81,1-.81,1" transform="translate(-446.381 -7.671)" fill="#512d20"/>
        <path id="Trazado_1016166" data-name="Trazado 1016166" d="M547.851.035c.246-.094.651-.012,2.023.422s1.427,1.369,2.154,2.108l.333.524-.089.476a3.8,3.8,0,0,1-1.062-.468c-.4-.293-1.307-.646-1.73-.916a5.5,5.5,0,0,1-1.1-.927c-.545-.6-.774-1.126-.528-1.22" transform="translate(-440.669 0)" fill="#fcc5b1"/>
        <path id="Trazado_1016167" data-name="Trazado 1016167" d="M497.233,26.963c-1.46-1.81-4.254-6.064-5.524-7.587s1.016-3.587,2.857-5.08,3.81-3.016,4.318-2.635a1.662,1.662,0,0,1,.6.667,29.987,29.987,0,0,0-2,2.952,17.318,17.318,0,0,1-2.254,2.794,10.78,10.78,0,0,1,1.175,1.428,3.275,3.275,0,0,0,1.746,1.4c.571.254,1.333-.6,1.492-.6s2.444,2.921,2.444,2.921l-.54,2.254L498.789,26.9Z" transform="translate(-395.287 -9.334)" fill="#f7624a"/>
        <path id="Trazado_1016168" data-name="Trazado 1016168" d="M556.446,27.287c1.46-1.81,4.254-6.064,5.524-7.587s-1.016-3.587-2.857-5.08S555.3,11.6,554.8,11.985a1.661,1.661,0,0,0-.6.667,29.985,29.985,0,0,1,2,2.952,17.321,17.321,0,0,0,2.254,2.794,10.777,10.777,0,0,0-1.175,1.428,3.275,3.275,0,0,1-1.746,1.4c-.571.254-1.333-.6-1.492-.6s-2.445,2.921-2.445,2.921l.54,2.254,2.762,1.428Z" transform="translate(-443.756 -9.594)" fill="#f7624a"/>
        <path id="Trazado_1016169" data-name="Trazado 1016169" d="M560.2,2.663l-.691-.057-.27-.65s-.389-.715-.491-.826c-.073-.078-.162-.162-.265-.254h0c-.04-.035-.084-.073-.129-.111-.14-.119-.248-.378.016-.321a.91.91,0,0,1,.135.043c.426.175.72.213.958.556a7.788,7.788,0,0,1,.739,1.619" transform="translate(-449.081 -0.352)" fill="#fcc5b1"/>
        <path id="Trazado_1016170" data-name="Trazado 1016170" d="M531.389.519c-.081.067-.154.13-.219.192l0,0a0,0,0,0,0,0,0,2.032,2.032,0,0,0-.173.167,9.1,9.1,0,0,0-.494.826l-.27.65-.691.056c.04-.105.078-.21.119-.31A6.593,6.593,0,0,1,530.277.8c.237-.343.532-.383.961-.556a.038.038,0,0,1,.016-.005c.41-.162.292.151.135.283" transform="translate(-426.016 -0.153)" fill="#fcc5b1"/>
        <path id="Trazado_1016171" data-name="Trazado 1016171" d="M550.191,148.439a.283.283,0,0,1-.273-.358c.018-.066,1.812-6.661,1.047-9.632a.283.283,0,1,1,.549-.142c.8,3.117-.973,9.647-1.049,9.924a.283.283,0,0,1-.273.208" transform="translate(-442.403 -111.097)" fill="#99614d"/>
        <path id="Trazado_1016172" data-name="Trazado 1016172" d="M547.415,147.6a.283.283,0,0,1-.226-.112,5.2,5.2,0,0,1-.813-3.753c.257-1.614.421-5.429.423-5.467a.283.283,0,1,1,.566.024c-.007.158-.167,3.887-.429,5.533a4.712,4.712,0,0,0,.706,3.322.283.283,0,0,1-.226.453" transform="translate(-439.508 -111.02)" fill="#99614d"/>
        <path id="Trazado_1016173" data-name="Trazado 1016173" d="M526.806,137.164a.283.283,0,0,1,0-.567l9.08-.127a.283.283,0,0,1,.008.567l-9.08.127Z" transform="translate(-423.59 -109.791)" fill="#99614d"/>
        <path id="Trazado_1016174" data-name="Trazado 1016174" d="M522.734,142.178a.283.283,0,0,1,0-.567l10.617-.106a.286.286,0,0,1,.286.281.283.283,0,0,1-.28.286l-10.617.106Z" transform="translate(-420.314 -113.842)" fill="#99614d"/>
        <path id="Trazado_1016175" data-name="Trazado 1016175" d="M520.111,69.312a.283.283,0,0,1-.263-.388,10.649,10.649,0,0,0,.581-3.2,5.979,5.979,0,0,1,.153-1.221.283.283,0,0,1,.54.17,5.966,5.966,0,0,0-.128,1.089,11.123,11.123,0,0,1-.62,3.375.283.283,0,0,1-.263.179" transform="translate(-418.204 -51.73)" fill="#ce4c3e"/>
        <path id="Trazado_1016176" data-name="Trazado 1016176" d="M572.071,67.678a.283.283,0,0,1-.261-.174,8.574,8.574,0,0,1-.27-.847c-.082-.293-.19-.814-.327-1.474-.141-.684-.317-1.535-.509-2.332a.283.283,0,1,1,.551-.133c.194.807.371,1.663.513,2.35.129.623.24,1.162.317,1.436.158.561.247.781.248.783a.283.283,0,0,1-.153.37.281.281,0,0,1-.109.022" transform="translate(-459.127 -50.282)" fill="#ce4c3e"/>
        <path id="Trazado_1016177" data-name="Trazado 1016177" d="M559.613,119.044H559.6a.283.283,0,0,1-.274-.292c.067-2.175.694-3.607,1.251-3.849a.424.424,0,0,1,.46.06c.214.187.236.581.067,1.172a3.313,3.313,0,0,0-.208,1.215,1.66,1.66,0,0,0,.419-.286.283.283,0,1,1,.367.432c-.334.284-.761.582-1.1.361s-.339-.759-.019-1.877a2.477,2.477,0,0,0,.083-.391,6.167,6.167,0,0,0-.749,3.181.283.283,0,0,1-.283.275" transform="translate(-449.983 -92.407)" fill="#ce4c3e"/>
        <path id="Trazado_1016178" data-name="Trazado 1016178" d="M535.382,123.736a.283.283,0,0,1-.251-.152,6.677,6.677,0,0,0-1.016-1.546,2.794,2.794,0,0,0,.094.407.283.283,0,0,1-.543.161c-.077-.259-.311-1.046.15-1.233.162-.066.654-.266,1.817,1.947a.283.283,0,0,1-.25.415" transform="translate(-429.234 -97.618)" fill="#ce4c3e"/>
        <path id="Trazado_1016179" data-name="Trazado 1016179" d="M550.325,124.436a.283.283,0,0,1-.283-.283,22.011,22.011,0,0,0-.183-2.226.283.283,0,1,1,.562-.067,21.932,21.932,0,0,1,.187,2.293.283.283,0,0,1-.283.283Z" transform="translate(-442.362 -97.836)" fill="#ce4c3e"/>
        <path id="Trazado_1016180" data-name="Trazado 1016180" d="M543.118,49.791a3.066,3.066,0,0,1-1.063-.2.189.189,0,0,1,.143-.35,2.283,2.283,0,0,0,1.859-.084.189.189,0,1,1,.2.318,2.1,2.1,0,0,1-1.142.311" transform="translate(-435.992 -39.526)" fill="#ce8974"/>
        <path id="Trazado_1016181" data-name="Trazado 1016181" d="M173.505,212.592H159.061a.966.966,0,0,1-.963-.963v-3.111a.966.966,0,0,1,.963-.963h14.444a.966.966,0,0,1,.963.963v3.111a.966.966,0,0,1-.963.963" transform="translate(-127.191 -166.979)" fill="#f6fcfa"/>
      </g>
    </g>
  </g>
</svg>
