<svg xmlns="http://www.w3.org/2000/svg" xmlns:xlink="http://www.w3.org/1999/xlink" width="136.582" height="139.561" viewBox="0 0 136.582 139.561">
  <defs>
    <filter id="Trazado_1013808" x="5.418" y="8.396" width="131.164" height="131.164" filterUnits="userSpaceOnUse">
      <feOffset dy="3" input="SourceAlpha"/>
      <feGaussianBlur stdDeviation="3" result="blur"/>
      <feFlood flood-opacity="0.412"/>
      <feComposite operator="in" in2="blur"/>
    </filter>
    <filter id="Trazado_1013808-2" x="5.418" y="8.396" width="131.164" height="131.164" filterUnits="userSpaceOnUse">
      <feOffset dy="3" input="SourceAlpha"/>
      <feGaussianBlur stdDeviation="3" result="blur-2"/>
      <feFlood flood-opacity="0.161" result="color"/>
      <feComposite operator="out" in="SourceGraphic" in2="blur-2"/>
      <feComposite operator="in" in="color"/>
      <feComposite operator="in" in2="SourceGraphic"/>
    </filter>
    <clipPath id="clip-path">
      <rect id="Rectángulo_419910" data-name="Rectángulo 419910" width="108.546" height="111.396" fill="none"/>
    </clipPath>
  </defs>
  <g id="Grupo_1162064" data-name="Grupo 1162064" transform="translate(-1088.418 9148.979)">
    <g data-type="innerShadowGroup">
      <g transform="matrix(1, 0, 0, 1, 1088.42, -9148.98)" filter="url(#Trazado_1013808)">
        <g id="Trazado_1013808-3" data-name="Trazado 1013808" transform="translate(14.42 14.4)" fill="#f2f5f4" opacity="0.9">
          <path d="M 56.58214950561523 111.6642456054688 C 49.14544296264648 111.6642456054688 41.93198013305664 110.2080917358398 35.14215087890625 107.3362274169922 C 31.87862586975098 105.9558792114258 28.73084259033203 104.2473068237305 25.78624153137207 102.2579727172852 C 22.86922645568848 100.2872772216797 20.12613487243652 98.02401733398438 17.63318061828613 95.53105926513672 C 15.14022636413574 93.03810882568359 12.8769645690918 90.29502868652344 10.90627288818359 87.37801361083984 C 8.916934013366699 84.43340301513672 7.208364963531494 81.28562927246094 5.828011035919189 78.02210998535156 C 2.956149578094482 71.23227691650391 1.499995708465576 64.01881408691406 1.499995708465576 56.58212280273438 C 1.499995708465576 49.14541625976562 2.956149578094482 41.93196868896484 5.828011035919189 35.14213943481445 C 7.208364963531494 31.87861442565918 8.916934013366699 28.73083114624023 10.90627288818359 25.78623008728027 C 12.8769645690918 22.86921501159668 15.14022636413574 20.12613868713379 17.63318061828613 17.6331844329834 C 20.12613487243652 15.14023017883301 22.86922645568848 12.87696933746338 25.78624153137207 10.90627670288086 C 28.73084259033203 8.916937828063965 31.87862586975098 7.20836877822876 35.14215087890625 5.828015327453613 C 41.93198013305664 2.956153631210327 49.14544296264648 1.499999761581421 56.58214950561523 1.499999761581421 C 64.01885986328125 1.499999761581421 71.2322998046875 2.956153631210327 78.02214813232422 5.828015327453613 C 81.28565979003906 7.20836877822876 84.43344116210938 8.916937828063965 87.37805938720703 10.90627670288086 C 90.29507446289062 12.87696933746338 93.03814697265625 15.14023017883301 95.53110504150391 17.6331844329834 C 98.02405548095703 20.12613868713379 100.2873153686523 22.86921501159668 102.2580261230469 25.78623008728027 C 104.2473678588867 28.73083114624023 105.9559326171875 31.87861442565918 107.3362884521484 35.14213943481445 C 110.2081527709961 41.93196868896484 111.664306640625 49.14541625976562 111.664306640625 56.58212280273438 C 111.664306640625 64.01881408691406 110.2081527709961 71.23227691650391 107.3362884521484 78.02210998535156 C 105.9559326171875 81.28562927246094 104.2473678588867 84.43340301513672 102.2580261230469 87.37801361083984 C 100.2873153686523 90.29502868652344 98.02405548095703 93.03810882568359 95.53110504150391 95.53105926513672 C 93.03814697265625 98.02401733398438 90.29507446289062 100.2872772216797 87.37805938720703 102.2579727172852 C 84.43344116210938 104.2473068237305 81.28565979003906 105.9558792114258 78.02214813232422 107.3362274169922 C 71.2322998046875 110.2080917358398 64.01885986328125 111.6642456054688 56.58214950561523 111.6642456054688 Z" stroke="none"/>
          <path d="M 56.58214950561523 3.000007629394531 C 49.34728240966797 3.000007629394531 42.33041381835938 4.416290283203125 35.72648620605469 7.209526062011719 C 32.55214691162109 8.552139282226562 29.49030303955078 10.21408843994141 26.62594604492188 12.14920806884766 C 23.78803253173828 14.06645965576172 21.11930084228516 16.26838684082031 18.69384765625 18.69384002685547 C 16.26840209960938 21.11929321289062 14.06646728515625 23.78802490234375 12.14921569824219 26.62593841552734 C 10.21409606933594 29.49028778076172 8.552131652832031 32.55213928222656 7.209518432617188 35.72645568847656 C 4.416282653808594 42.33040618896484 3 49.34725570678711 3 56.58212280273438 C 3 63.81698989868164 4.416282653808594 70.83383941650391 7.209518432617188 77.43777465820312 C 8.552131652832031 80.61209106445312 10.21409606933594 83.67395782470703 12.14921569824219 86.53830718994141 C 14.06646728515625 89.37620544433594 16.26840209960938 92.04495239257812 18.69384765625 94.47040557861328 C 21.11930084228516 96.89584350585938 23.78803253173828 99.09777069091797 26.62594604492188 101.015022277832 C 29.49030303955078 102.9501419067383 32.55216979980469 104.6121063232422 35.72648620605469 105.954719543457 C 42.33041381835938 108.7479553222656 49.34728240966797 110.1642379760742 56.58214950561523 110.1642379760742 C 63.8170166015625 110.1642379760742 70.8338623046875 108.7479553222656 77.43782043457031 105.954719543457 C 80.61213684082031 104.6121063232422 83.67399597167969 102.9501419067383 86.53834533691406 101.015022277832 C 89.37625122070312 99.09777069091797 92.04499816894531 96.89584350585938 94.47045135498047 94.47039031982422 C 96.89589691162109 92.04495239257812 99.09783172607422 89.37620544433594 101.0150833129883 86.53830718994141 C 102.9501953125 83.67395782470703 104.6121520996094 80.61209106445312 105.9547805786133 77.43777465820312 C 108.7480163574219 70.83383941650391 110.1642990112305 63.81698989868164 110.1642990112305 56.58212280273438 C 110.1642990112305 49.34725570678711 108.7480163574219 42.33040618896484 105.9547805786133 35.72645568847656 C 104.6121520996094 32.55213928222656 102.9501953125 29.49028778076172 101.0150833129883 26.62593841552734 C 99.09783172607422 23.78804016113281 96.89589691162109 21.11929321289062 94.47045135498047 18.69384002685547 C 92.04499816894531 16.26838684082031 89.37625122070312 14.06645965576172 86.53834533691406 12.14920806884766 C 83.67399597167969 10.21408843994141 80.61213684082031 8.552139282226562 77.43782043457031 7.209526062011719 C 70.8338623046875 4.416290283203125 63.8170166015625 3.000007629394531 56.58214950561523 3.000007629394531 M 56.58214950561523 7.62939453125e-06 C 87.83160400390625 7.62939453125e-06 113.1642990112305 25.33267211914062 113.1642990112305 56.58212280273438 C 113.1642990112305 87.83155822753906 87.83160400390625 113.1642379760742 56.58214950561523 113.1642379760742 C 25.33267974853516 113.1642379760742 0 87.83155822753906 0 56.58212280273438 C 0 25.33267211914062 25.33267974853516 7.62939453125e-06 56.58214950561523 7.62939453125e-06 Z" stroke="none" fill="#fff"/>
        </g>
      </g>
      <g id="Trazado_1013808-4" data-name="Trazado 1013808" transform="translate(1102.836 -9134.582)" fill="#f2f5f4" opacity="0.9">
        <path d="M 56.58214950561523 111.6642456054688 C 49.14544296264648 111.6642456054688 41.93198013305664 110.2080917358398 35.14215087890625 107.3362274169922 C 31.87862586975098 105.9558792114258 28.73084259033203 104.2473068237305 25.78624153137207 102.2579727172852 C 22.86922645568848 100.2872772216797 20.12613487243652 98.02401733398438 17.63318061828613 95.53105926513672 C 15.14022636413574 93.03810882568359 12.8769645690918 90.29502868652344 10.90627288818359 87.37801361083984 C 8.916934013366699 84.43340301513672 7.208364963531494 81.28562927246094 5.828011035919189 78.02210998535156 C 2.956149578094482 71.23227691650391 1.499995708465576 64.01881408691406 1.499995708465576 56.58212280273438 C 1.499995708465576 49.14541625976562 2.956149578094482 41.93196868896484 5.828011035919189 35.14213943481445 C 7.208364963531494 31.87861442565918 8.916934013366699 28.73083114624023 10.90627288818359 25.78623008728027 C 12.8769645690918 22.86921501159668 15.14022636413574 20.12613868713379 17.63318061828613 17.6331844329834 C 20.12613487243652 15.14023017883301 22.86922645568848 12.87696933746338 25.78624153137207 10.90627670288086 C 28.73084259033203 8.916937828063965 31.87862586975098 7.20836877822876 35.14215087890625 5.828015327453613 C 41.93198013305664 2.956153631210327 49.14544296264648 1.499999761581421 56.58214950561523 1.499999761581421 C 64.01885986328125 1.499999761581421 71.2322998046875 2.956153631210327 78.02214813232422 5.828015327453613 C 81.28565979003906 7.20836877822876 84.43344116210938 8.916937828063965 87.37805938720703 10.90627670288086 C 90.29507446289062 12.87696933746338 93.03814697265625 15.14023017883301 95.53110504150391 17.6331844329834 C 98.02405548095703 20.12613868713379 100.2873153686523 22.86921501159668 102.2580261230469 25.78623008728027 C 104.2473678588867 28.73083114624023 105.9559326171875 31.87861442565918 107.3362884521484 35.14213943481445 C 110.2081527709961 41.93196868896484 111.664306640625 49.14541625976562 111.664306640625 56.58212280273438 C 111.664306640625 64.01881408691406 110.2081527709961 71.23227691650391 107.3362884521484 78.02210998535156 C 105.9559326171875 81.28562927246094 104.2473678588867 84.43340301513672 102.2580261230469 87.37801361083984 C 100.2873153686523 90.29502868652344 98.02405548095703 93.03810882568359 95.53110504150391 95.53105926513672 C 93.03814697265625 98.02401733398438 90.29507446289062 100.2872772216797 87.37805938720703 102.2579727172852 C 84.43344116210938 104.2473068237305 81.28565979003906 105.9558792114258 78.02214813232422 107.3362274169922 C 71.2322998046875 110.2080917358398 64.01885986328125 111.6642456054688 56.58214950561523 111.6642456054688 Z" stroke="none"/>
        <path d="M 56.58214950561523 3.000007629394531 C 49.34728240966797 3.000007629394531 42.33041381835938 4.416290283203125 35.72648620605469 7.209526062011719 C 32.55214691162109 8.552139282226562 29.49030303955078 10.21408843994141 26.62594604492188 12.14920806884766 C 23.78803253173828 14.06645965576172 21.11930084228516 16.26838684082031 18.69384765625 18.69384002685547 C 16.26840209960938 21.11929321289062 14.06646728515625 23.78802490234375 12.14921569824219 26.62593841552734 C 10.21409606933594 29.49028778076172 8.552131652832031 32.55213928222656 7.209518432617188 35.72645568847656 C 4.416282653808594 42.33040618896484 3 49.34725570678711 3 56.58212280273438 C 3 63.81698989868164 4.416282653808594 70.83383941650391 7.209518432617188 77.43777465820312 C 8.552131652832031 80.61209106445312 10.21409606933594 83.67395782470703 12.14921569824219 86.53830718994141 C 14.06646728515625 89.37620544433594 16.26840209960938 92.04495239257812 18.69384765625 94.47040557861328 C 21.11930084228516 96.89584350585938 23.78803253173828 99.09777069091797 26.62594604492188 101.015022277832 C 29.49030303955078 102.9501419067383 32.55216979980469 104.6121063232422 35.72648620605469 105.954719543457 C 42.33041381835938 108.7479553222656 49.34728240966797 110.1642379760742 56.58214950561523 110.1642379760742 C 63.8170166015625 110.1642379760742 70.8338623046875 108.7479553222656 77.43782043457031 105.954719543457 C 80.61213684082031 104.6121063232422 83.67399597167969 102.9501419067383 86.53834533691406 101.015022277832 C 89.37625122070312 99.09777069091797 92.04499816894531 96.89584350585938 94.47045135498047 94.47039031982422 C 96.89589691162109 92.04495239257812 99.09783172607422 89.37620544433594 101.0150833129883 86.53830718994141 C 102.9501953125 83.67395782470703 104.6121520996094 80.61209106445312 105.9547805786133 77.43777465820312 C 108.7480163574219 70.83383941650391 110.1642990112305 63.81698989868164 110.1642990112305 56.58212280273438 C 110.1642990112305 49.34725570678711 108.7480163574219 42.33040618896484 105.9547805786133 35.72645568847656 C 104.6121520996094 32.55213928222656 102.9501953125 29.49028778076172 101.0150833129883 26.62593841552734 C 99.09783172607422 23.78804016113281 96.89589691162109 21.11929321289062 94.47045135498047 18.69384002685547 C 92.04499816894531 16.26838684082031 89.37625122070312 14.06645965576172 86.53834533691406 12.14920806884766 C 83.67399597167969 10.21408843994141 80.61213684082031 8.552139282226562 77.43782043457031 7.209526062011719 C 70.8338623046875 4.416290283203125 63.8170166015625 3.000007629394531 56.58214950561523 3.000007629394531 M 56.58214950561523 7.62939453125e-06 C 87.83160400390625 7.62939453125e-06 113.1642990112305 25.33267211914062 113.1642990112305 56.58212280273438 C 113.1642990112305 87.83155822753906 87.83160400390625 113.1642379760742 56.58214950561523 113.1642379760742 C 25.33267974853516 113.1642379760742 0 87.83155822753906 0 56.58212280273438 C 0 25.33267211914062 25.33267974853516 7.62939453125e-06 56.58214950561523 7.62939453125e-06 Z" stroke="none"/>
      </g>
      <g transform="matrix(1, 0, 0, 1, 1088.42, -9148.98)" filter="url(#Trazado_1013808-2)">
        <g id="Trazado_1013808-5" data-name="Trazado 1013808" transform="translate(14.42 14.4)" fill="#fff" opacity="0.9">
          <path d="M 56.58214950561523 111.6642456054688 C 49.14544296264648 111.6642456054688 41.93198013305664 110.2080917358398 35.14215087890625 107.3362274169922 C 31.87862586975098 105.9558792114258 28.73084259033203 104.2473068237305 25.78624153137207 102.2579727172852 C 22.86922645568848 100.2872772216797 20.12613487243652 98.02401733398438 17.63318061828613 95.53105926513672 C 15.14022636413574 93.03810882568359 12.8769645690918 90.29502868652344 10.90627288818359 87.37801361083984 C 8.916934013366699 84.43340301513672 7.208364963531494 81.28562927246094 5.828011035919189 78.02210998535156 C 2.956149578094482 71.23227691650391 1.499995708465576 64.01881408691406 1.499995708465576 56.58212280273438 C 1.499995708465576 49.14541625976562 2.956149578094482 41.93196868896484 5.828011035919189 35.14213943481445 C 7.208364963531494 31.87861442565918 8.916934013366699 28.73083114624023 10.90627288818359 25.78623008728027 C 12.8769645690918 22.86921501159668 15.14022636413574 20.12613868713379 17.63318061828613 17.6331844329834 C 20.12613487243652 15.14023017883301 22.86922645568848 12.87696933746338 25.78624153137207 10.90627670288086 C 28.73084259033203 8.916937828063965 31.87862586975098 7.20836877822876 35.14215087890625 5.828015327453613 C 41.93198013305664 2.956153631210327 49.14544296264648 1.499999761581421 56.58214950561523 1.499999761581421 C 64.01885986328125 1.499999761581421 71.2322998046875 2.956153631210327 78.02214813232422 5.828015327453613 C 81.28565979003906 7.20836877822876 84.43344116210938 8.916937828063965 87.37805938720703 10.90627670288086 C 90.29507446289062 12.87696933746338 93.03814697265625 15.14023017883301 95.53110504150391 17.6331844329834 C 98.02405548095703 20.12613868713379 100.2873153686523 22.86921501159668 102.2580261230469 25.78623008728027 C 104.2473678588867 28.73083114624023 105.9559326171875 31.87861442565918 107.3362884521484 35.14213943481445 C 110.2081527709961 41.93196868896484 111.664306640625 49.14541625976562 111.664306640625 56.58212280273438 C 111.664306640625 64.01881408691406 110.2081527709961 71.23227691650391 107.3362884521484 78.02210998535156 C 105.9559326171875 81.28562927246094 104.2473678588867 84.43340301513672 102.2580261230469 87.37801361083984 C 100.2873153686523 90.29502868652344 98.02405548095703 93.03810882568359 95.53110504150391 95.53105926513672 C 93.03814697265625 98.02401733398438 90.29507446289062 100.2872772216797 87.37805938720703 102.2579727172852 C 84.43344116210938 104.2473068237305 81.28565979003906 105.9558792114258 78.02214813232422 107.3362274169922 C 71.2322998046875 110.2080917358398 64.01885986328125 111.6642456054688 56.58214950561523 111.6642456054688 Z" stroke="none"/>
          <path d="M 56.58214950561523 3.000007629394531 C 49.34728240966797 3.000007629394531 42.33041381835938 4.416290283203125 35.72648620605469 7.209526062011719 C 32.55214691162109 8.552139282226562 29.49030303955078 10.21408843994141 26.62594604492188 12.14920806884766 C 23.78803253173828 14.06645965576172 21.11930084228516 16.26838684082031 18.69384765625 18.69384002685547 C 16.26840209960938 21.11929321289062 14.06646728515625 23.78802490234375 12.14921569824219 26.62593841552734 C 10.21409606933594 29.49028778076172 8.552131652832031 32.55213928222656 7.209518432617188 35.72645568847656 C 4.416282653808594 42.33040618896484 3 49.34725570678711 3 56.58212280273438 C 3 63.81698989868164 4.416282653808594 70.83383941650391 7.209518432617188 77.43777465820312 C 8.552131652832031 80.61209106445312 10.21409606933594 83.67395782470703 12.14921569824219 86.53830718994141 C 14.06646728515625 89.37620544433594 16.26840209960938 92.04495239257812 18.69384765625 94.47040557861328 C 21.11930084228516 96.89584350585938 23.78803253173828 99.09777069091797 26.62594604492188 101.015022277832 C 29.49030303955078 102.9501419067383 32.55216979980469 104.6121063232422 35.72648620605469 105.954719543457 C 42.33041381835938 108.7479553222656 49.34728240966797 110.1642379760742 56.58214950561523 110.1642379760742 C 63.8170166015625 110.1642379760742 70.8338623046875 108.7479553222656 77.43782043457031 105.954719543457 C 80.61213684082031 104.6121063232422 83.67399597167969 102.9501419067383 86.53834533691406 101.015022277832 C 89.37625122070312 99.09777069091797 92.04499816894531 96.89584350585938 94.47045135498047 94.47039031982422 C 96.89589691162109 92.04495239257812 99.09783172607422 89.37620544433594 101.0150833129883 86.53830718994141 C 102.9501953125 83.67395782470703 104.6121520996094 80.61209106445312 105.9547805786133 77.43777465820312 C 108.7480163574219 70.83383941650391 110.1642990112305 63.81698989868164 110.1642990112305 56.58212280273438 C 110.1642990112305 49.34725570678711 108.7480163574219 42.33040618896484 105.9547805786133 35.72645568847656 C 104.6121520996094 32.55213928222656 102.9501953125 29.49028778076172 101.0150833129883 26.62593841552734 C 99.09783172607422 23.78804016113281 96.89589691162109 21.11929321289062 94.47045135498047 18.69384002685547 C 92.04499816894531 16.26838684082031 89.37625122070312 14.06645965576172 86.53834533691406 12.14920806884766 C 83.67399597167969 10.21408843994141 80.61213684082031 8.552139282226562 77.43782043457031 7.209526062011719 C 70.8338623046875 4.416290283203125 63.8170166015625 3.000007629394531 56.58214950561523 3.000007629394531 M 56.58214950561523 7.62939453125e-06 C 87.83160400390625 7.62939453125e-06 113.1642990112305 25.33267211914062 113.1642990112305 56.58212280273438 C 113.1642990112305 87.83155822753906 87.83160400390625 113.1642379760742 56.58214950561523 113.1642379760742 C 25.33267974853516 113.1642379760742 0 87.83155822753906 0 56.58212280273438 C 0 25.33267211914062 25.33267974853516 7.62939453125e-06 56.58214950561523 7.62939453125e-06 Z" stroke="none"/>
        </g>
      </g>
      <g id="Trazado_1013808-6" data-name="Trazado 1013808" transform="translate(1102.836 -9134.582)" fill="none" opacity="0.9">
        <path d="M 56.58214950561523 111.6642456054688 C 49.14544296264648 111.6642456054688 41.93198013305664 110.2080917358398 35.14215087890625 107.3362274169922 C 31.87862586975098 105.9558792114258 28.73084259033203 104.2473068237305 25.78624153137207 102.2579727172852 C 22.86922645568848 100.2872772216797 20.12613487243652 98.02401733398438 17.63318061828613 95.53105926513672 C 15.14022636413574 93.03810882568359 12.8769645690918 90.29502868652344 10.90627288818359 87.37801361083984 C 8.916934013366699 84.43340301513672 7.208364963531494 81.28562927246094 5.828011035919189 78.02210998535156 C 2.956149578094482 71.23227691650391 1.499995708465576 64.01881408691406 1.499995708465576 56.58212280273438 C 1.499995708465576 49.14541625976562 2.956149578094482 41.93196868896484 5.828011035919189 35.14213943481445 C 7.208364963531494 31.87861442565918 8.916934013366699 28.73083114624023 10.90627288818359 25.78623008728027 C 12.8769645690918 22.86921501159668 15.14022636413574 20.12613868713379 17.63318061828613 17.6331844329834 C 20.12613487243652 15.14023017883301 22.86922645568848 12.87696933746338 25.78624153137207 10.90627670288086 C 28.73084259033203 8.916937828063965 31.87862586975098 7.20836877822876 35.14215087890625 5.828015327453613 C 41.93198013305664 2.956153631210327 49.14544296264648 1.499999761581421 56.58214950561523 1.499999761581421 C 64.01885986328125 1.499999761581421 71.2322998046875 2.956153631210327 78.02214813232422 5.828015327453613 C 81.28565979003906 7.20836877822876 84.43344116210938 8.916937828063965 87.37805938720703 10.90627670288086 C 90.29507446289062 12.87696933746338 93.03814697265625 15.14023017883301 95.53110504150391 17.6331844329834 C 98.02405548095703 20.12613868713379 100.2873153686523 22.86921501159668 102.2580261230469 25.78623008728027 C 104.2473678588867 28.73083114624023 105.9559326171875 31.87861442565918 107.3362884521484 35.14213943481445 C 110.2081527709961 41.93196868896484 111.664306640625 49.14541625976562 111.664306640625 56.58212280273438 C 111.664306640625 64.01881408691406 110.2081527709961 71.23227691650391 107.3362884521484 78.02210998535156 C 105.9559326171875 81.28562927246094 104.2473678588867 84.43340301513672 102.2580261230469 87.37801361083984 C 100.2873153686523 90.29502868652344 98.02405548095703 93.03810882568359 95.53110504150391 95.53105926513672 C 93.03814697265625 98.02401733398438 90.29507446289062 100.2872772216797 87.37805938720703 102.2579727172852 C 84.43344116210938 104.2473068237305 81.28565979003906 105.9558792114258 78.02214813232422 107.3362274169922 C 71.2322998046875 110.2080917358398 64.01885986328125 111.6642456054688 56.58214950561523 111.6642456054688 Z" stroke="none"/>
        <path d="M 56.58214950561523 3.000007629394531 C 49.34728240966797 3.000007629394531 42.33041381835938 4.416290283203125 35.72648620605469 7.209526062011719 C 32.55214691162109 8.552139282226562 29.49030303955078 10.21408843994141 26.62594604492188 12.14920806884766 C 23.78803253173828 14.06645965576172 21.11930084228516 16.26838684082031 18.69384765625 18.69384002685547 C 16.26840209960938 21.11929321289062 14.06646728515625 23.78802490234375 12.14921569824219 26.62593841552734 C 10.21409606933594 29.49028778076172 8.552131652832031 32.55213928222656 7.209518432617188 35.72645568847656 C 4.416282653808594 42.33040618896484 3 49.34725570678711 3 56.58212280273438 C 3 63.81698989868164 4.416282653808594 70.83383941650391 7.209518432617188 77.43777465820312 C 8.552131652832031 80.61209106445312 10.21409606933594 83.67395782470703 12.14921569824219 86.53830718994141 C 14.06646728515625 89.37620544433594 16.26840209960938 92.04495239257812 18.69384765625 94.47040557861328 C 21.11930084228516 96.89584350585938 23.78803253173828 99.09777069091797 26.62594604492188 101.015022277832 C 29.49030303955078 102.9501419067383 32.55216979980469 104.6121063232422 35.72648620605469 105.954719543457 C 42.33041381835938 108.7479553222656 49.34728240966797 110.1642379760742 56.58214950561523 110.1642379760742 C 63.8170166015625 110.1642379760742 70.8338623046875 108.7479553222656 77.43782043457031 105.954719543457 C 80.61213684082031 104.6121063232422 83.67399597167969 102.9501419067383 86.53834533691406 101.015022277832 C 89.37625122070312 99.09777069091797 92.04499816894531 96.89584350585938 94.47045135498047 94.47039031982422 C 96.89589691162109 92.04495239257812 99.09783172607422 89.37620544433594 101.0150833129883 86.53830718994141 C 102.9501953125 83.67395782470703 104.6121520996094 80.61209106445312 105.9547805786133 77.43777465820312 C 108.7480163574219 70.83383941650391 110.1642990112305 63.81698989868164 110.1642990112305 56.58212280273438 C 110.1642990112305 49.34725570678711 108.7480163574219 42.33040618896484 105.9547805786133 35.72645568847656 C 104.6121520996094 32.55213928222656 102.9501953125 29.49028778076172 101.0150833129883 26.62593841552734 C 99.09783172607422 23.78804016113281 96.89589691162109 21.11929321289062 94.47045135498047 18.69384002685547 C 92.04499816894531 16.26838684082031 89.37625122070312 14.06645965576172 86.53834533691406 12.14920806884766 C 83.67399597167969 10.21408843994141 80.61213684082031 8.552139282226562 77.43782043457031 7.209526062011719 C 70.8338623046875 4.416290283203125 63.8170166015625 3.000007629394531 56.58214950561523 3.000007629394531 M 56.58214950561523 7.62939453125e-06 C 87.83160400390625 7.62939453125e-06 113.1642990112305 25.33267211914062 113.1642990112305 56.58212280273438 C 113.1642990112305 87.83155822753906 87.83160400390625 113.1642379760742 56.58214950561523 113.1642379760742 C 25.33267974853516 113.1642379760742 0 87.83155822753906 0 56.58212280273438 C 0 25.33267211914062 25.33267974853516 7.62939453125e-06 56.58214950561523 7.62939453125e-06 Z" stroke="none" fill="#fff"/>
      </g>
    </g>
    <g id="Grupo_1162030" data-name="Grupo 1162030" transform="translate(1088.418 -9148.979)">
      <g id="Grupo_1162029" data-name="Grupo 1162029" clip-path="url(#clip-path)">
        <path id="Trazado_1016182" data-name="Trazado 1016182" d="M108.546,617.992c0,5.076-24.3,9.19-54.273,9.19S0,623.068,0,617.992s24.3-9.19,54.273-9.19,54.273,4.115,54.273,9.19" transform="translate(0 -515.787)" fill="#e8e8e8" style="mix-blend-mode: multiply;isolation: isolate"/>
        <path id="Trazado_1016183" data-name="Trazado 1016183" d="M486.023,472.31a3.174,3.174,0,0,0-4.051-.045,9.3,9.3,0,0,0-1.86,3.715l.349.521a1.719,1.719,0,0,1,.93-.725c.6-.159,2.922-.136,4.035-.453a1.819,1.819,0,0,0,.6-3.013" transform="translate(-406.759 -399.511)" fill="#55aa96"/>
        <path id="Trazado_1016184" data-name="Trazado 1016184" d="M278.563,557.767l16.067-1.752-10.088-11.145-6.282.936-2.054,4.289-.242,4.44Z" transform="translate(-233.803 -461.624)" fill="#1c443a"/>
        <path id="Trazado_1016185" data-name="Trazado 1016185" d="M51.184,545.169s-.287,2.3.687,3.141,9.2-3.285,9.2-3.285l-2.582-5.776-4.417-.408s-1.744.43-1.948.748a19.553,19.553,0,0,0-.725,2.333l-.174,2.484Z" transform="translate(-43.331 -456.516)" fill="#1c443a"/>
        <path id="Trazado_1016186" data-name="Trazado 1016186" d="M485.593,619.6s-.453,4.2-3.413,5.648-9.393,1.359-10.842-3.956c-.674-2.472,2.335-3.011,5.748-2.879l.409.016c.848.293,1.632-.155,2.528-.38a5.87,5.87,0,0,1,1.1-.042,4.549,4.549,0,0,1,.542.054,5.977,5.977,0,0,1,2.658,1.292l.481.1c.423.089.667.145.667.145Z" transform="translate(-399.245 -523.576)" fill="#060707"/>
        <path id="Trazado_1016187" data-name="Trazado 1016187" d="M242.3,628.772c-1.782,2.265-3.473,2.084-5.587,1.752a3.566,3.566,0,0,1-2.658-2.628Z" transform="translate(-198.298 -531.964)" fill="#060707"/>
        <path id="Trazado_1016188" data-name="Trazado 1016188" d="M303.783,576.359a7.066,7.066,0,0,0-5.572-.725,7.173,7.173,0,0,0-4.455,6.629c.015,2.612.815,6.267,3.9,7.566s7.233.619,8.623-.634a7.28,7.28,0,0,0,1.872-4.817c-.03-1.057-1.012-6.388-1.012-6.388Z" transform="translate(-248.875 -487.418)" fill="#060707"/>
        <path id="Trazado_1016189" data-name="Trazado 1016189" d="M66.01,570.071a9.27,9.27,0,0,1-1.925,3.828c-1.291,1.2-4.417,1.2-5.686.657s-2.945-2.854-2.741-7.135,2.718-6.75,6.229-6.071,4.123,8.721,4.123,8.721" transform="translate(-47.14 -475.491)" fill="#060707"/>
        <path id="Trazado_1016190" data-name="Trazado 1016190" d="M486.373,600.063c.726-.014,1.287-.911,1.847-.35,1.009.9,1.233,2.353,1.671,3.6a3.791,3.791,0,0,1-.08,1.436,4.362,4.362,0,0,1-.108.5,3.008,3.008,0,0,1-.595,1.172c-1.342,1.519-4.922.94-5.817-1.591-.82-2.321.406-4.459,2.493-4.716.19-.023.387-.031.589-.045" transform="translate(-409.235 -507.931)" fill="#384249"/>
        <path id="Trazado_1016191" data-name="Trazado 1016191" d="M50.547,426.261s.06-4.531,3.322-4.409,5.286,4.681,5.829,7.791,1.451,2.991,3.172,2.991,24.886,2.416,24.886,2.416a19.32,19.32,0,0,1-.483-6.554c.422-3.172,2.445-6.706,6.523-4.983s5.949,10.539,6.191,11.356,5.739.453,9.786.724a129.381,129.381,0,0,0,13.748-.559c.229-.019.452-.038.669-.06.962-.094,1.971-.206,3.009-.257a5.532,5.532,0,0,0,.572-.085,3.788,3.788,0,0,0,2.645-1.843,5.932,5.932,0,0,0,.71-2.753c.008-.2.012-.409.01-.624,0-.638-.041-1.319-.095-1.965-.062-.737-.144-1.429-.215-1.965q-.077-.579-.114-1.16c-.01-.171-.018-.341-.022-.513a9.041,9.041,0,0,0-1.96-5.26q-.108-.139-.224-.279a11.256,11.256,0,0,0-2.425-2.167q-.19-.128-.39-.255-.6-.379-1.3-.732c-6.976-3.5-7.218-3.654-7.218-3.654s-6.585-8-12.293-9.845-14.95-2.748-21.383-3.051-17.879.363-20.839.966-5.376,4.138-6.916,6.494a46.625,46.625,0,0,0-3.683,6.174,9.359,9.359,0,0,0-.788,2.585,15.5,15.5,0,0,0-.112,1.968c.009,1.515.225,2.439-.038,3.076a7.5,7.5,0,0,0-.725,2.416c-.03.756.151,4.018.151,4.018" transform="translate(-42.693 -337.607)" fill="#55aa96"/>
        <path id="Trazado_1016192" data-name="Trazado 1016192" d="M395.157,518.013c2.927.475,4.394,3.217,4.19,4.689s-2.967,1.835-5.255-.249-2.288-4.983,1.065-4.44" transform="translate(-332.524 -438.812)" fill="#f6fcfa"/>
        <path id="Trazado_1016193" data-name="Trazado 1016193" d="M396.287,522.948a5.336,5.336,0,0,1-3.5-1.512c-1.382-1.259-2-2.861-1.5-3.9.226-.468.883-1.208,2.739-.908,2.968.481,4.593,3.284,4.366,4.926a1.559,1.559,0,0,1-1.1,1.228,2.963,2.963,0,0,1-1,.162m-3.066-5.963a1.579,1.579,0,0,0-1.557.739c-.413.854.177,2.285,1.4,3.4a4.3,4.3,0,0,0,4.08,1.266,1.139,1.139,0,0,0,.824-.889,4.8,4.8,0,0,0-4.749-4.515" transform="translate(-331.357 -437.64)" fill="#407f6f"/>
        <path id="Trazado_1016194" data-name="Trazado 1016194" d="M364.969,559.678a3.911,3.911,0,0,0,1.122,1.122,3.961,3.961,0,0,0,1.823.759,29.967,29.967,0,0,0,5.233.51,14.343,14.343,0,0,1,4.813.555c.476.317.623,1.3.623,1.3s.284,2.016.352,2.571a2.036,2.036,0,0,0,1.087,1.449,9.481,9.481,0,0,0,2.843.272s2.866-.025,4.873-.09c.223-.007.435-.015.632-.023,2.8-.127,4.709-2.592,5.752-4.9a4.091,4.091,0,0,1,.285-.314,3.6,3.6,0,0,1,.508-.423,11.453,11.453,0,0,1,2.13-.747.775.775,0,0,0,.13-.053c-.062-.737-.144-1.429-.214-1.965q-.077-.58-.114-1.16l-.689.069c-.2.013-.391.023-.587.026-1.034-.07-2.043-.63-3.051-.518a1.886,1.886,0,0,0-.675.164,1.574,1.574,0,0,1-1.847,0,6.187,6.187,0,0,1-.833-.6c-.268-.223-.53-.459-.791-.683a.714.714,0,0,0-.672,0c-.9.672-1.232,1.793-2.327,1.88l-.6-.007c-3.071-.037-9.621-.119-9.621-.119l-8.506-.035s-1.63-.113-1.982-.078.012.578.306,1.041" transform="translate(-308.827 -471.826)" fill="#003324"/>
        <path id="Trazado_1016195" data-name="Trazado 1016195" d="M541.748,518.39c-.934-.433-2.615.128-2.278.912.9,1.9,2.017,4.482,4.546,4.678a1.069,1.069,0,0,0,.218-.37,4.594,4.594,0,0,0-.218-2.789,4.39,4.39,0,0,0-1.074-1.48c-.085-.082-.171-.16-.254-.233-.167-.147-.328-.276-.467-.382-.279-.213-.473-.336-.473-.336" transform="translate(-457.01 -439.061)" fill="#f6fcfa"/>
        <path id="Trazado_1016196" data-name="Trazado 1016196" d="M542.845,523.039h-.016c-2.564-.2-3.756-2.741-4.626-4.6l-.094-.2a.728.728,0,0,1,.2-.852,2.412,2.412,0,0,1,2.362-.342l.024.013c.008.005.206.13.489.346.166.127.326.258.478.391.086.075.174.155.261.239a4.522,4.522,0,0,1,1.124,1.556,4.787,4.787,0,0,1,.22,2.938,1.283,1.283,0,0,1-.264.444.211.211,0,0,1-.153.066m-3.028-5.741a1.893,1.893,0,0,0-1.219.392.309.309,0,0,0-.105.376l.092.195c.859,1.831,1.924,4.1,4.168,4.346a.988.988,0,0,0,.113-.223,4.4,4.4,0,0,0-.217-2.639,4.113,4.113,0,0,0-1.023-1.4c-.083-.08-.166-.155-.248-.227-.144-.126-.3-.252-.456-.373-.229-.175-.4-.289-.446-.318a1.629,1.629,0,0,0-.659-.125" transform="translate(-455.84 -437.909)" fill="#407f6f"/>
        <path id="Trazado_1016197" data-name="Trazado 1016197" d="M302.234,426.256s-6.173-6.4-8.675-8.109a15.408,15.408,0,0,0-6.161-2.5c-1.178-.17-6.093-.306-10.835-.276s-7.852.181-7.732.574,2.084,2.144,4.107,5.255,1.873,3.836,2.93,4.53,11.084.574,15.222.755,11.144-.227,11.144-.227" transform="translate(-227.755 -351.904)" fill="#2d3547"/>
        <path id="Trazado_1016198" data-name="Trazado 1016198" d="M197.177,430.132a1.008,1.008,0,0,0,1.121-.8,8.589,8.589,0,0,0,.25-3.156,49.437,49.437,0,0,0-4.107-6.977c-.846-.876-4.938-1.389-7.294-1.525-1.94-.112-2.628.045-2.809.589s-1.676,9.937-1.676,9.937Z" transform="translate(-154.754 -353.832)" fill="#2d3547"/>
        <path id="Trazado_1016199" data-name="Trazado 1016199" d="M98.65,424.765s.544-4.107,1.087-6.433a25.915,25.915,0,0,1,.853-3.005c0-.091.34-1.178-1.518-1.336-1.628-.139-5.014-.174-6.282.461s-2.748,2.492-3.851,4.123a18.585,18.585,0,0,0-2.054,5.617c0,.06,1.857-.053,4.757.106,2.538.139,7.007.468,7.007.468" transform="translate(-73.611 -350.669)" fill="#2d3547"/>
        <path id="Trazado_1016200" data-name="Trazado 1016200" d="M109.725,439.2h-.014c-.976-.065-23.917-1.593-25.33-2.048-.989-.319-1.355-1.145-1.962-2.515a30.044,30.044,0,0,0-1.374-2.792,18.042,18.042,0,0,0-2.424-3.315,6.072,6.072,0,0,1-1.444-2.162c-.518-1.647-.36-5.415-.053-7.389.287-1.842,1.965-7.116,4.42-9.233,2.356-2.033,3.715-2.84,7.737-2.633,1.694.087,3.249.087,4.753.087a40.79,40.79,0,0,1,5.277.209c.292.04.585.075.878.11,2.4.286,4.876.582,6.745,3.427,2.159,3.287,3.228,5.331,3.363,6.433a20.808,20.808,0,0,1-.434,4c-.126.774-.244,1.506-.29,1.976-.038.385-.13,1.069-.247,1.936-.3,2.252-.762,5.655-.794,7.742-.04,2.591.158,5.195.2,5.676l1.011.068a.211.211,0,0,1-.014.422m-21.605-31.7c-3.018,0-4.229.776-6.3,2.563-2.185,1.885-3.947,6.847-4.279,8.979-.3,1.935-.46,5.611.038,7.2a5.692,5.692,0,0,0,1.358,2.009,18.409,18.409,0,0,1,2.475,3.387,30.442,30.442,0,0,1,1.392,2.829c.578,1.3.9,2.023,1.705,2.284,1.031.332,15.265,1.358,23.792,1.933-.049-.62-.232-3.143-.193-5.654.033-2.112.493-5.53.8-7.792.116-.862.208-1.543.245-1.92.048-.484.167-1.222.294-2a21.4,21.4,0,0,0,.431-3.886c-.125-1.02-1.2-3.065-3.3-6.252-1.761-2.681-4.035-2.952-6.442-3.239-.3-.035-.591-.071-.885-.11a40.512,40.512,0,0,0-5.22-.205c-1.509,0-3.07,0-4.774-.088-.407-.021-.786-.032-1.14-.032" transform="translate(-65.1 -344.888)" fill="#407f6f"/>
        <path id="Trazado_1016201" data-name="Trazado 1016201" d="M165.785,438.566a.211.211,0,0,1-.207-.17,79.26,79.26,0,0,1-1.272-9.7,20.618,20.618,0,0,1,.448-5.668c.213-1.153.478-2.587.761-4.817a53.387,53.387,0,0,1,2.276-10.193.211.211,0,0,1,.4.143,52.942,52.942,0,0,0-2.254,10.1c-.284,2.242-.551,3.683-.765,4.841a20.048,20.048,0,0,0-.442,5.573,78.768,78.768,0,0,0,1.265,9.633.211.211,0,0,1-.207.252" transform="translate(-139.176 -345.564)" fill="#407f6f"/>
        <path id="Trazado_1016202" data-name="Trazado 1016202" d="M446.432,537.6a1.44,1.44,0,0,1-.305-.032l-.331,0c-2.223-.017-4.106-.125-4.461-.147a3.107,3.107,0,0,1-1.481-.535,3.639,3.639,0,0,0-.86-.409,12.042,12.042,0,0,0-1.922-.325.211.211,0,1,1,.034-.421,12.251,12.251,0,0,1,2,.34,4.028,4.028,0,0,1,.958.451,2.729,2.729,0,0,0,1.292.478c.353.021,2.226.129,4.439.146l.353,0a.222.222,0,0,1,.048.006,1,1,0,0,0,.862-.187,3.83,3.83,0,0,1,3.317-1.29c.2.016.406.044.62.083l.02,0c.506.143.718-.157,1.048-.7.29-.477.62-1.017,1.318-1.088a.211.211,0,1,1,.043.42c-.49.05-.737.457-1,.888-.319.524-.68,1.119-1.513.889-.2-.035-.388-.061-.568-.075a3.4,3.4,0,0,0-2.979,1.161,1.352,1.352,0,0,1-.934.344" transform="translate(-370.131 -452.389)" fill="#407f6f"/>
        <path id="Trazado_1016203" data-name="Trazado 1016203" d="M347.539,558.859a.221.221,0,0,1-.084-.017.217.217,0,0,1-.112-.282c.051-.124.419-.748,2.628-.885.658-.041,3.246.014,6.828.089,4.032.085,9.051.19,13.722.212.13,0,.263,0,.393-.005h.012c.578,0,.886-.442,1.212-.909.337-.483.685-.982,1.332-.982h.021a2.4,2.4,0,0,1,1.33.733l.11.1c.147.132.3.269.454.391a.206.206,0,0,1,.025.023c.471.509,1.145.327,1.8.1l.03-.01a4.818,4.818,0,0,1,.79-.21,3.346,3.346,0,0,1,1.75.24,3.532,3.532,0,0,0,1.271.254c.2,0,.384,0,.57-.009q.215-.023.406-.048t.363-.053a.211.211,0,1,1,.068.417c-.117.019-.243.038-.376.055s-.275.034-.425.05h-.017c-.193.005-.385.009-.576.009a3.884,3.884,0,0,1-1.415-.274,2.977,2.977,0,0,0-1.536-.228l-.016,0a4.386,4.386,0,0,0-.726.194l-.025.008a1.968,1.968,0,0,1-2.23-.2c-.163-.128-.316-.266-.464-.4l-.109-.1a2.05,2.05,0,0,0-1.08-.626c-.421.006-.678.375-.976.8-.356.511-.76,1.089-1.544,1.089h-.018c-.129.007-.275.006-.4.006-4.674-.022-9.694-.127-13.728-.212-3.437-.072-6.152-.13-6.793-.09-1.957.121-2.267.631-2.27.637a.2.2,0,0,1-.189.125" transform="translate(-294.261 -471.121)" fill="#407f6f"/>
        <path id="Trazado_1016204" data-name="Trazado 1016204" d="M380,576.543c-2.3,0-2.98-.662-3.277-2.853-.058-.426-.085-.8-.108-1.137-.1-1.46-.137-1.952-2.568-2.055-.587-.025-1.194-.046-1.8-.067a33.32,33.32,0,0,1-6.927-.645c-1.769-.566-2.8-2.872-2.847-2.97a.211.211,0,1,1,.386-.171c.01.022,1,2.231,2.589,2.738a33.27,33.27,0,0,0,6.814.625c.611.021,1.219.042,1.807.068,2.7.115,2.855.791,2.972,2.447.023.327.049.7.105,1.11.3,2.208.872,2.6,3.609,2.468.726-.035,1.631-.046,2.59-.058.913-.011,1.857-.023,2.758-.056.232-.008.46-.018.683-.031,2.846-.05,4.237-2.5,5.318-4.787a.2.2,0,0,1,.022-.036,2.152,2.152,0,0,1,.529-.483,8.785,8.785,0,0,1,2.751-1,.211.211,0,1,1,.077.415,8.522,8.522,0,0,0-2.592.938,1.774,1.774,0,0,0-.414.368c-1.217,2.574-2.749,4.958-5.674,5.009-.218.012-.449.022-.683.031-.907.033-1.853.044-2.769.056-.954.011-1.856.023-2.575.057q-.412.02-.77.021" transform="translate(-307.075 -479.964)" fill="#407f6f"/>
        <path id="Trazado_1016205" data-name="Trazado 1016205" d="M379.519,496.025a.21.21,0,0,1-.132-.046,37.256,37.256,0,0,0-6.434-3.778.211.211,0,1,1,.175-.384,37.694,37.694,0,0,1,6.523,3.833.211.211,0,0,1-.132.376" transform="translate(-315.867 -416.659)" fill="#407f6f"/>
        <path id="Trazado_1016206" data-name="Trazado 1016206" d="M506.194,496.612a.211.211,0,0,1-.139-.052l-.156-.137a4.614,4.614,0,0,0-.461-.373l-.012-.009q-.156-.128-.349-.281a40.557,40.557,0,0,0-4.345-2.978.211.211,0,1,1,.216-.362,41.012,41.012,0,0,1,4.39,3.009q.192.152.349.28a4.984,4.984,0,0,1,.492.4l.154.135a.211.211,0,0,1-.139.37" transform="translate(-424.141 -417.161)" fill="#407f6f"/>
        <path id="Trazado_1016207" data-name="Trazado 1016207" d="M185.6,504.679l2.427.308a.574.574,0,0,0,.144-1.139l-2.427-.308a.574.574,0,0,0-.145,1.139" transform="translate(-156.817 -426.604)" fill="#060707"/>
        <path id="Trazado_1016208" data-name="Trazado 1016208" d="M88.145,495.161l2.426.317a.574.574,0,0,0,.149-1.138l-2.426-.317a.574.574,0,1,0-.149,1.138" transform="translate(-74.254 -418.54)" fill="#060707"/>
        <path id="Trazado_1016209" data-name="Trazado 1016209" d="M416.536,607.028h0c-1.889-.039-4.27-.3-4.881-1.326a1.227,1.227,0,0,1,.032-1.246c1-1.957,4.4-1.8,4.548-1.791a.211.211,0,1,1-.022.421c-.032,0-3.273-.152-4.15,1.562a.824.824,0,0,0-.045.837c.394.66,2.045,1.069,4.528,1.12a.211.211,0,0,1,0,.422" transform="translate(-348.625 -510.583)" fill="#407f6f"/>
        <path id="Trazado_1016210" data-name="Trazado 1016210" d="M562.145,598.626a.211.211,0,0,1-.073-.013,6.656,6.656,0,0,0-2.71-.158.211.211,0,1,1-.044-.42,7.037,7.037,0,0,1,2.9.181.211.211,0,0,1-.073.409" transform="translate(-473.703 -506.61)" fill="#407f6f"/>
        <path id="Trazado_1016211" data-name="Trazado 1016211" d="M564.288,622.355a.211.211,0,0,1-.013-.422,4.38,4.38,0,0,0,1.261-.313.211.211,0,1,1,.163.389,4.712,4.712,0,0,1-1.4.345h-.013" transform="translate(-477.896 -526.633)" fill="#407f6f"/>
        <path id="Trazado_1016212" data-name="Trazado 1016212" d="M100.955,515.438h-.022c-.327-.034-32.807-3.352-42.2-3.352a.211.211,0,0,1,0-.422c9.416,0,41.917,3.32,42.244,3.354a.211.211,0,0,1-.021.421" transform="translate(-49.58 -433.489)" fill="#407f6f"/>
        <path id="Trazado_1016213" data-name="Trazado 1016213" d="M494.852,540.7a.649.649,0,0,1-.648-.648.65.65,0,0,1,.649-.649s.121,0,.3-.016a4.207,4.207,0,0,0,.791-.24c.51-.187.913-.336,1.147-.141a.421.421,0,0,1,.123.424c-.132.789-1.3,1.173-2.347,1.269h-.021m0-.211h0Zm1.949-1.153a3.287,3.287,0,0,0-.708.209,4.4,4.4,0,0,1-.894.263c-.209.017-.341.018-.346.018a.227.227,0,0,0-.228.227.227.227,0,0,0,.218.226c.885-.083,1.872-.4,1.958-.916,0-.01,0-.019,0-.026Z" transform="translate(-418.698 -456.577)" fill="#407f6f"/>
        <path id="Trazado_1016214" data-name="Trazado 1016214" d="M397.667,532.018a5.8,5.8,0,0,1-3.1-.889.211.211,0,1,1,.241-.346c1.1.766,3.3,1.142,4.385.461a1.314,1.314,0,0,0,.571-1.447.211.211,0,0,1,.417-.067,1.713,1.713,0,0,1-.763,1.871,3.33,3.33,0,0,1-1.751.418" transform="translate(-334.207 -448.644)" fill="#407f6f"/>
        <path id="Trazado_1016215" data-name="Trazado 1016215" d="M541.568,530.706a1.341,1.341,0,0,1-.8-.322c-.044-.031-.089-.063-.137-.095l-.022-.017c-.114-.1-.226-.2-.338-.3a7.15,7.15,0,0,0-2.367-1.6.211.211,0,0,1,.137-.4,7.463,7.463,0,0,1,2.511,1.688l.325.288.134.092a.813.813,0,0,0,.7.231l.015,0a.739.739,0,0,0,.351-.141,1.076,1.076,0,0,0,.234-1.255.211.211,0,0,1,.4-.128,1.414,1.414,0,0,1-.386,1.724,1.158,1.158,0,0,1-.542.219,1.14,1.14,0,0,1-.215.021" transform="translate(-455.603 -447.296)" fill="#407f6f"/>
        <path id="Trazado_1016216" data-name="Trazado 1016216" d="M64.975,587.531c.022.13.046.261.074.393a4.348,4.348,0,0,0,.191.649,2.735,2.735,0,0,0,1.47,1.658,1.464,1.464,0,0,0,1.882-.678c.008-.013.015-.026.022-.038a5.148,5.148,0,0,0,.458-2.036,8.145,8.145,0,0,0-.012-1.015,5.583,5.583,0,0,0-.517-2.074,2.124,2.124,0,0,0-1.136-1.105,1.728,1.728,0,0,0-.47-.1,1.751,1.751,0,0,0-1.644,1.227,4.438,4.438,0,0,0-.337,1.185,6.442,6.442,0,0,0,.019,1.933" transform="translate(-54.977 -494.082)" fill="#93a9ba"/>
        <path id="Trazado_1016217" data-name="Trazado 1016217" d="M461.876,567.17h5.6a2.2,2.2,0,0,0,.805-.125c1.233-1.9,2.913-1.9,4.852-1.594a1.581,1.581,0,0,1,.523.174,2.662,2.662,0,0,1,.564.412c.112-1.008.672-2.577-.56-3.025-.784-.224-1.681-.224-2.242-.907-.119-.112-.234-.228-.349-.339a2,2,0,0,0-1.107-.659c-1.233-.112-1.233,2.129-2.66,1.953-.132,0-.264,0-.4,0h-5.033a.787.787,0,0,0-.785.785v2.537a.788.788,0,0,0,.785.785" transform="translate(-390.644 -475.375)" fill="#f6fcfa"/>
        <path id="Trazado_1016218" data-name="Trazado 1016218" d="M306.992,600.974c.027.137.058.276.094.415a4.827,4.827,0,0,0,.43,1.108,3.646,3.646,0,0,0,2.079,1.8,2.391,2.391,0,0,0,2.636-.7,2.1,2.1,0,0,0,.154-.212,5.476,5.476,0,0,0,.673-2.416,8.454,8.454,0,0,0-.022-1.558,5.831,5.831,0,0,0-.875-2.635,2.908,2.908,0,0,0-1.66-1.221,3.014,3.014,0,0,0-.607-.1,2.461,2.461,0,0,0-2.153,1.077,4.514,4.514,0,0,0-.769,1.807,6.7,6.7,0,0,0,.019,2.635" transform="translate(-259.97 -504.475)" fill="#93a9ba"/>
        <path id="Trazado_1016219" data-name="Trazado 1016219" d="M332.28,606.762c.33.472,1.35.23,2.069-.018a5.831,5.831,0,0,0-.875-2.635c-1.576,1.386-1.715,1.909-1.194,2.653" transform="translate(-281.283 -511.811)" fill="#677c89"/>
        <path id="Trazado_1016220" data-name="Trazado 1016220" d="M333.549,632.769a2.145,2.145,0,0,0,.154-.212,5.477,5.477,0,0,0,.673-2.416c-1.5-.466-1.959-.28-2.31.449-.33.682,1,1.8,1.484,2.178" transform="translate(-281.287 -533.651)" fill="#677c89"/>
        <path id="Trazado_1016221" data-name="Trazado 1016221" d="M312.678,596.531c.375,1.481.77,1.767,1.567,1.693.607-.058,1-1.621,1.193-2.672a3.016,3.016,0,0,0-.607-.1,2.461,2.461,0,0,0-2.153,1.077" transform="translate(-264.906 -504.475)" fill="#677c89"/>
        <path id="Trazado_1016222" data-name="Trazado 1016222" d="M306.992,616.993c1.545-.254,1.87-.624,1.86-1.432-.006-.484-.967-.909-1.879-1.2a6.7,6.7,0,0,0,.019,2.635" transform="translate(-259.97 -520.494)" fill="#677c89"/>
        <path id="Trazado_1016223" data-name="Trazado 1016223" d="M311.2,635.876a3.646,3.646,0,0,0,2.079,1.8c.462-2,.266-2.5-.583-2.8-.386-.136-.968.384-1.5,1.005" transform="translate(-263.653 -537.855)" fill="#677c89"/>
        <path id="Trazado_1016224" data-name="Trazado 1016224" d="M82.771,593.039c.207.3.743.25,1.248.122a5.582,5.582,0,0,0-.517-2.074c-1.058.971-1.128,1.384-.73,1.952" transform="translate(-69.936 -500.779)" fill="#677c89"/>
        <path id="Trazado_1016225" data-name="Trazado 1016225" d="M83.55,612.927c.008-.013.015-.026.022-.038a5.147,5.147,0,0,0,.458-2.036c-.877-.205-1.191-.021-1.44.5-.223.464.484,1.171.96,1.578" transform="translate(-69.936 -517.455)" fill="#677c89"/>
        <path id="Trazado_1016226" data-name="Trazado 1016226" d="M67.518,584.413c.275.828.594,1,1.158.943.475-.045.789-1.214.956-2.072a1.731,1.731,0,0,0-.47-.1,1.751,1.751,0,0,0-1.644,1.227" transform="translate(-57.202 -494.081)" fill="#677c89"/>
        <path id="Trazado_1016227" data-name="Trazado 1016227" d="M64.975,600.926c.9-.207,1.109-.512,1.1-1.094,0-.322-.524-.612-1.121-.839a6.443,6.443,0,0,0,.019,1.933" transform="translate(-54.977 -507.477)" fill="#677c89"/>
        <path id="Trazado_1016228" data-name="Trazado 1016228" d="M67.174,615.4a2.735,2.735,0,0,0,1.47,1.658c.347-1.554.178-1.952-.5-2.193-.254-.09-.612.167-.968.535" transform="translate(-56.911 -520.908)" fill="#677c89"/>
        <path id="Trazado_1016229" data-name="Trazado 1016229" d="M229.451,474.175a5.593,5.593,0,0,1,5.527-.045,8.735,8.735,0,0,1,2.537,3.715l-.476.521a2.3,2.3,0,0,0-1.269-.725c-.815-.159-3.987-.136-5.5-.453s-2.22-1.971-.815-3.013" transform="translate(-193.752 -401.091)" fill="#55aa96"/>
        <path id="Trazado_1016230" data-name="Trazado 1016230" d="M235.244,478.289a.212.212,0,0,1-.2-.131c-.007-.017-.718-1.728-1.8-1.741-.96-.012-4.178-.09-5.282-.609a1.569,1.569,0,0,1-.925-1.213,1.6,1.6,0,0,1,.56-1.434c.811-.695,1.42-.867,3.433-.972a4.536,4.536,0,0,1,4.094,2.187,15.3,15.3,0,0,1,1.385,2.828.211.211,0,0,1-.4.147,15.2,15.2,0,0,0-1.333-2.729,4.15,4.15,0,0,0-3.728-2.011c-2.018.1-2.491.279-3.181.871a1.184,1.184,0,0,0-.417,1.057,1.141,1.141,0,0,0,.686.888,18.33,18.33,0,0,0,5.108.569c1.363.017,2.153,1.923,2.186,2a.211.211,0,0,1-.2.29" transform="translate(-192.341 -400.041)" fill="#407f6f"/>
        <path id="Trazado_1016231" data-name="Trazado 1016231" d="M582.747,471.409c-1.9,1.265-6.643,2.294-10.519,2.294a5.621,5.621,0,0,0-3.773,1.125,7,7,0,0,0-2,3.936L565.94,472s1.463-3.835,3.2-3.6c1.678.23,2.989-.571,2.013-2.9-.035-.085-.074-.173-.115-.262-1.187-2.531,1.82-2.847,6.96-1.107s6.643,6.01,4.745,7.276" transform="translate(-479.474 -392.295)" fill="#c5d3de"/>
        <path id="Trazado_1016232" data-name="Trazado 1016232" d="M573.2,482.5c-4.869.837-4.852,2.091-4.749,5.977a7,7,0,0,0-2,3.936l-.514-6.762s1.463-3.836,3.2-3.6c1.679.23,2.99-.571,2.014-2.9,3.4,1.6,6.311,2.615,2.047,3.349" transform="translate(-479.473 -405.947)" fill="#b2c3ce"/>
        <path id="Trazado_1016233" data-name="Trazado 1016233" d="M422.541,213.21c0-4.478-.5-11.81-.831-17.818.1-.491.195-.992.242-1.421.158-1.424,1.977-3.322,3.876-5.457a50.85,50.85,0,0,0,5.22-6.881l-.475-.87s-1.5-.316-1.74.237a18.614,18.614,0,0,1-3.8,4.9c-1.471,1.1-2.531,2-3.626,1.74,0-.28.005-.537.013-.77.16-4.629.319-11.014.479-16.122a25.506,25.506,0,0,0-2.235-11.971c-1.6-3.831-1.437-18.356-1.437-18.356s-.479,8.619-1.277,15,1.277,9.737,1.915,14.366-1.756,4.948-7.342,1.916-7.981-5.906-11.652-10.375a48.491,48.491,0,0,0-4.31-4.948s1.437,3.033,3.671,7.183,9.418,8.62,13.408,12.45,2.235,2.713,1.756,17.4.314,27.84-4.55,31.4c-1.4.554-3.4,1.081-3.4,1.081s2.795-.211,5.062-.316,3.216.053,2.584.844-1.635,1.9-1.635,1.9,2.267.158,2.9-.58a9.234,9.234,0,0,1,3.849-2.689c1.793-.58,2.373.053,3.375.633s3.955.686,3.955.686-2.162-1.9-2.562-2.149c0,0-1.437-3.831-1.437-11.014" transform="translate(-335.129 -118.97)" fill="#664d36"/>
        <path id="Trazado_1016234" data-name="Trazado 1016234" d="M563.041,330.3c-9.922-.651-9.728-1.186-14,1.424s-2.847,8.424.237,11.508,9.372,2.966,14.593,3.085,5.813-3.2,6.763-7.237-.356-8.3-7.593-8.779" transform="translate(-462.892 -279.379)" fill="#62773d"/>
        <path id="Trazado_1016235" data-name="Trazado 1016235" d="M412.659,0c-11.742-.217-20.557,11.54-22.9,17.535s-1.754,13.3,4.971,14.328,5.41.292,10.965,7.749,14.474.731,21.639.877,13.158-7.457,5.117-17.545S420.554.149,412.659,0" transform="translate(-329.158 0)" fill="#62773d"/>
        <path id="Trazado_1016236" data-name="Trazado 1016236" d="M330.671,228.162c-5.258,5.258-8.494,5.561-16.077,2.326S303.067,222.3,306,216.938s9.4-8.8,12.639-4.449,4.752,0,9.1,1.416,6.269,5.056,5.662,7.584a40.766,40.766,0,0,1-2.73,6.674" transform="translate(-258.424 -178.351)" fill="#62773d"/>
        <path id="Trazado_1016237" data-name="Trazado 1016237" d="M435.34,508.065a.211.211,0,0,1-.186-.311,17.619,17.619,0,0,1,3.124-4.3,35.979,35.979,0,0,0-5.229.547c-1.789.252-2.74.1-2.908-.459-.143-.478.406-1.033,1-1.312a1.435,1.435,0,0,0,.207-.116,14.228,14.228,0,0,0-4.019-.274.211.211,0,1,1,0-.422c4.352,0,4.435.368,4.489.612.07.313-.327.5-.5.581-.492.233-.824.633-.772.809s.63.418,2.445.162c4.418-.622,5.561-.734,5.761-.312.048.1.06.265-.157.465a17.055,17.055,0,0,0-3.068,4.216.211.211,0,0,1-.186.111" transform="translate(-361.858 -424.812)" fill="#407f6f"/>
        <path id="Trazado_1016238" data-name="Trazado 1016238" d="M529.376,424.473c-.533,0-.9-.779-1.023-1.05-1.213-2.6-.469-6.534.622-7.171a.639.639,0,0,1,.9.262.211.211,0,1,1-.344.245c-.173-.242-.285-.178-.345-.143-.759.443-1.651,4.058-.452,6.627.3.644.549.837.679.8.659-.177,1.215-3.6,1.081-5.122-.046-.526-.206-.763-.337-.763h0c-.294.013-.819.8-.819,2.326a.211.211,0,1,1-.422,0c0-1.686.622-2.721,1.223-2.748.159-.006.684.055.781,1.148.112,1.265-.3,5.273-1.393,5.567a.563.563,0,0,1-.148.02" transform="translate(-447.101 -352.578)" fill="#4f3a29"/>
        <path id="Trazado_1016239" data-name="Trazado 1016239" d="M400.1,453.966l-.026.553-.158-.19a7.242,7.242,0,0,0-2.306-1.269c-2.723-1.034-6.267-1.569-6.355-3.167-.119-2.136,1.662-4.983-5.932-7.119s-9.254-4.271-.355-6.407c5.508-1.322,8.743-.371,9.338.884.368.772-.266,1.658-1.983,2.2-4.508,1.424.475,1.779.949,6.051s2.241,1.845,4.258,3.27,2.57,5.193,2.57,5.193" transform="translate(-321.043 -369.158)" fill="#c5d3de"/>
        <path id="Trazado_1016240" data-name="Trazado 1016240" d="M430.435,382.937c-3.085.711-1.819-1.582-6.565-2.373a6.845,6.845,0,0,1-1.48-.411c-3.35-1.364-3.3-4.891,2.509-4.73,2.241.063,3.552-.121,5.127.764a8.337,8.337,0,0,1,1.358.976c2.294,1.978,2.136,5.062-.949,5.774" transform="translate(-355.951 -318.06)" fill="#c5d3de"/>
        <path id="Trazado_1016241" data-name="Trazado 1016241" d="M442.4,462.4l-.026.554-.158-.191a7.244,7.244,0,0,0-2.306-1.269c-1.451-2.006-3.151-2.509-3.93-3.443-1.054-1.266-.58-2.268-1.845-4.535s-.844-2.795-3.48-4.219-2.584-3.586,1.688-2.9c2.269.364,3.555-.15,4.263-.712.368.772-.266,1.658-1.983,2.2-4.508,1.424.475,1.779.949,6.051s2.241,1.846,4.258,3.27,2.57,5.193,2.57,5.193" transform="translate(-363.346 -377.596)" fill="#b2c3ce"/>
        <path id="Trazado_1016242" data-name="Trazado 1016242" d="M442.9,387.2c-3.085.712-1.819-1.582-6.565-2.373a6.847,6.847,0,0,1-1.48-.411c.1-.011.194-.023.294-.037,3.428-.474,5.168-2.794,5.7.053.489,2.642,3.567.881,1.647-3.981a8.329,8.329,0,0,1,1.358.976c2.294,1.978,2.136,5.062-.949,5.774" transform="translate(-368.416 -322.328)" fill="#b2c3ce"/>
      </g>
    </g>
  </g>
</svg>
