<svg xmlns="http://www.w3.org/2000/svg" width="47.213" height="64.917" viewBox="0 0 47.213 64.917">
  <g id="Grupo_1162037" data-name="Grupo 1162037" transform="translate(2572.81 7966.593)">
    <path id="Trazado_1016306" data-name="Trazado 1016306" d="M293.987,475.823h-5.9a1.967,1.967,0,0,0,0,3.934h5.9a1.967,1.967,0,1,0,0-3.934" transform="translate(-2821.551 -8383.4)" fill="#e3e230"/>
    <path id="Trazado_1016307" data-name="Trazado 1016307" d="M288.085,27.992h5.9a1.967,1.967,0,1,0,0-3.934h-5.9a1.967,1.967,0,0,0,0,3.934" transform="translate(-2821.551 -7990.651)" fill="#e3e230"/>
    <path id="Trazado_1016308" data-name="Trazado 1016308" d="M254.711,400.529h-11.8a1.967,1.967,0,0,0,0,3.934h11.8a1.967,1.967,0,0,0,0-3.934" transform="translate(-2782.276 -8317.942)" fill="#e3e230"/>
    <path id="Trazado_1016309" data-name="Trazado 1016309" d="M254.711,99.353h-11.8a1.967,1.967,0,0,0,0,3.934h11.8a1.967,1.967,0,0,0,0-3.934" transform="translate(-2782.276 -8056.11)" fill="#e3e230"/>
    <path id="Trazado_1016310" data-name="Trazado 1016310" d="M293.987,174.647h-5.9a1.967,1.967,0,0,0,0,3.934h5.9a1.967,1.967,0,1,0,0-3.934" transform="translate(-2821.551 -8121.568)" fill="#e3e230"/>
    <path id="Trazado_1016311" data-name="Trazado 1016311" d="M254.711,249.941h-11.8a1.967,1.967,0,0,0,0,3.934h11.8a1.967,1.967,0,0,0,0-3.934" transform="translate(-2782.276 -8187.027)" fill="#e3e230"/>
    <path id="Trazado_1016312" data-name="Trazado 1016312" d="M293.987,325.235h-5.9a1.967,1.967,0,0,0,0,3.934h5.9a1.967,1.967,0,1,0,0-3.934" transform="translate(-2821.551 -8252.484)" fill="#e3e230"/>
    <path id="Trazado_1016313" data-name="Trazado 1016313" d="M56.64,32.085a1.967,1.967,0,1,0-3.934,0V76.7H56.64Z" transform="translate(-2618.63 -7995.92)" fill="#e3e230"/>
    <path id="Trazado_1016314" data-name="Trazado 1016314" d="M52.706,493.765a2,2,0,0,0,1.872,2.021,1.967,1.967,0,0,0,2.062-1.965V492H52.706Z" transform="translate(-2618.63 -8397.464)" fill="#e3e230"/>
    <path id="Trazado_1016315" data-name="Trazado 1016315" d="M3.934,396.542v-5.9H6.885v-3.934H1.967A1.967,1.967,0,0,0,0,388.673v9.836a1.967,1.967,0,0,0,1.732,1.952H6.885v-3.919Z" transform="translate(-2572.81 -8305.926)" fill="#e3e230"/>
    <path id="Trazado_1016316" data-name="Trazado 1016316" d="M91.245,392.362l-3.934-4.918a1.967,1.967,0,0,0-1.536-.738H82.824v3.934h2.005l2.361,2.951-2.361,2.951H82.824v3.919h3.19a1.967,1.967,0,0,0,1.3-.723l3.934-4.918a1.967,1.967,0,0,0,0-2.458" transform="translate(-2644.814 -8305.926)" fill="#e3e230"/>
    <rect id="Rect치ngulo_419913" data-name="Rect치ngulo 419913" width="3.934" height="3.934" transform="translate(-2565.924 -7919.22)" fill="#e3e230"/>
    <rect id="Rect치ngulo_419914" data-name="Rect치ngulo 419914" width="3.934" height="3.919" transform="translate(-2565.924 -7909.384)" fill="#e3e230"/>
  </g>
</svg>
