<svg xmlns="http://www.w3.org/2000/svg" xmlns:xlink="http://www.w3.org/1999/xlink" width="85" height="73.316" viewBox="0 0 85 73.316">
  <defs>
    <clipPath id="clip-path">
      <rect id="Rectángulo_411232" data-name="Rectángulo 411232" width="85" height="73.316" rx="13" fill="#e8f4ff"/>
    </clipPath>
    <clipPath id="clip-path-2">
      <rect id="Rectángulo_411681" data-name="Rectángulo 411681" width="134.826" height="55.448" fill="#d3e9ff"/>
    </clipPath>
  </defs>
  <g id="Grupo_1162055" data-name="Grupo 1162055" transform="translate(-285 -391)">
    <g id="Grupo_1162058" data-name="Grupo 1162058">
      <g id="Grupo_1159423" data-name="Grupo 1159423" transform="translate(105 -2356)">
        <g id="Grupo_1159253" data-name="Grupo 1159253" transform="translate(180 2747)">
          <g id="Grupo_1159155" data-name="Grupo 1159155" transform="translate(0 0)">
            <g id="Enmascarar_grupo_1113751" data-name="Enmascarar grupo 1113751" clip-path="url(#clip-path)">
              <rect id="Rectángulo_411231" data-name="Rectángulo 411231" width="85" height="73.316" fill="#e8f4ff"/>
              <g id="Grupo_1119480" data-name="Grupo 1119480" transform="translate(-24.307 7.829)">
                <g id="Grupo_1119479" data-name="Grupo 1119479" transform="translate(0 0)" clip-path="url(#clip-path-2)">
                  <path id="Trazado_920074" data-name="Trazado 920074" d="M134.826,48.973h0V6.474c-7.4-8.633-19.563-8.633-26.965,0S88.3,15.107,80.9,6.474s-19.563-8.633-26.965,0h0c-7.4,8.633-19.562,8.633-26.965,0h0A17.723,17.723,0,0,0,13.482,0,17.725,17.725,0,0,0,0,6.475v42.5A17.727,17.727,0,0,1,13.482,42.5a17.728,17.728,0,0,1,13.482,6.478h0c7.4,8.632,19.562,8.632,26.965,0h0c7.4-8.633,19.562-8.633,26.965,0s19.563,8.633,26.965,0,19.563-8.633,26.965,0" transform="translate(0 0.001)" fill="#d3e9ff"/>
                </g>
              </g>
            </g>
          </g>
        </g>
      </g>
      <g id="layer1" transform="translate(302.399 402.558)">
        <path id="path8333" d="M8.174.926H36.413a2.348,2.348,0,0,1,2.353,2.353v23.14a2.348,2.348,0,0,1-2.353,2.353H8.174a2.348,2.348,0,0,1-2.353-2.353V3.279A2.348,2.348,0,0,1,8.174.926Z" transform="translate(11.436 1.819)" fill="#e4eff8"/>
        <path id="path8336" d="M5.821,6.275V2.353A2.348,2.348,0,0,1,8.174,0H36.413a2.348,2.348,0,0,1,2.353,2.353V6.275Z" transform="translate(11.436)" fill="#ffca28"/>
        <path id="path8340" d="M3.412,6.35A2.348,2.348,0,0,0,1.058,8.7V31.451H41.848V8.7A2.348,2.348,0,0,0,39.494,6.35Z" transform="translate(2.079 12.476)" fill="#e4eff8"/>
        <path id="path8505" d="M3.175,6.35V22.823a2.348,2.348,0,0,0,2.353,2.353H36.9a2.339,2.339,0,0,0,.784-.143V8.7A2.348,2.348,0,0,0,35.336,6.35Z" transform="translate(6.238 12.476)" fill="#c4dcf0"/>
        <path id="path8342" d="M41.848,9.726C36.679,19.9,9.243,21.976,1.058,22.373v2.447H41.848Z" transform="translate(2.079 19.108)" fill="#c4dcf0"/>
        <path id="path8344" d="M4.47,7.408A2.348,2.348,0,0,0,2.117,9.762V32.51H36.631V9.762a2.348,2.348,0,0,0-2.353-2.353Z" transform="translate(4.159 14.555)" fill="#549ad4"/>
        <path id="path8510" d="M3.175,7.408V20.743A2.348,2.348,0,0,0,5.528,23.1H34.552V9.762A2.348,2.348,0,0,0,32.2,7.408Z" transform="translate(6.238 14.555)" fill="#3588cb"/>
        <path id="path8348" d="M36.631,10.954c-7.916,6.212-25.551,8.191-34.514,8.812v5.776H36.631Z" transform="translate(4.159 21.522)" fill="#3588cb"/>
        <path id="path8350" d="M5.793,2.381H37.169a2.348,2.348,0,0,1,2.353,2.353V30.62a2.348,2.348,0,0,1-2.353,2.353H5.793A2.348,2.348,0,0,1,3.44,30.62V4.734A2.348,2.348,0,0,1,5.793,2.381Z" transform="translate(6.758 4.678)" fill="#e4eff8"/>
        <path id="path8354" d="M38.032,2.438C37.886,26.492,11.47,29.925,3.44,30.416v.093a2.348,2.348,0,0,0,2.353,2.353H37.169a2.348,2.348,0,0,0,2.353-2.353V4.624a2.344,2.344,0,0,0-1.491-2.186Z" transform="translate(6.758 4.789)" fill="#c4dcf0"/>
        <path id="path8356" d="M3.44,8.657V4.734A2.348,2.348,0,0,1,5.793,2.381H37.169a2.348,2.348,0,0,1,2.353,2.353V8.657Z" transform="translate(6.758 4.678)" fill="#427096"/>
        <path id="path8358" d="M47.065,14.817v1.569a4.706,4.706,0,0,1-4.706,4.706H4.706A4.706,4.706,0,0,1,0,16.386V14.817Z" transform="translate(0 29.111)" fill="#e4eff8"/>
        <path id="path8362" d="M17.936,14.817v1.569a4.706,4.706,0,0,1-4.706,4.706h3.138a4.706,4.706,0,0,0,4.706-4.706V14.817Z" transform="translate(25.992 29.111)" fill="#c4dcf0"/>
        <path id="path8364" d="M16.547,14.817v1.569a1.565,1.565,0,0,1-1.569,1.569H7.919A1.565,1.565,0,0,1,6.35,16.386V14.817Z" transform="translate(12.476 29.111)" fill="#427096"/>
        <g id="Grupo_1162057" data-name="Grupo 1162057" transform="translate(12.551 0)">
          <path id="circle8387" d="M5.8,3.959a.784.784,0,1,1-.784-.784.784.784,0,0,1,.784.784Z" transform="translate(-4.233 6.238)" fill="#e4eff8"/>
          <path id="circle8389" d="M6.86,3.959a.784.784,0,1,1-.784-.784A.784.784,0,0,1,6.86,3.959Z" transform="translate(-2.154 6.238)" fill="#e4eff8"/>
          <path id="circle8391" d="M7.919,3.959a.784.784,0,1,1-.784-.784A.784.784,0,0,1,7.919,3.959Z" transform="translate(-0.075 6.238)" fill="#e4eff8"/>
          <path id="path8393" d="M7.408,2.381V8.658H8.977V2.381Z" transform="translate(2.004 4.678)" fill="#e4eff8"/>
          <path id="circle8397" d="M8.183,1.578A.784.784,0,1,1,7.4.794a.784.784,0,0,1,.784.784Z" transform="translate(0.445 1.559)" fill="#e4eff8"/>
          <path id="circle8399" d="M9.242,1.578A.784.784,0,1,1,8.457.794.784.784,0,0,1,9.242,1.578Z" transform="translate(2.524 1.559)" fill="#e4eff8"/>
          <path id="circle8401" d="M10.3,1.578A.784.784,0,1,1,9.516.794.784.784,0,0,1,10.3,1.578Z" transform="translate(4.604 1.559)" fill="#e4eff8"/>
          <path id="path8403" d="M9.789,0V6.277h1.569V0Z" transform="translate(6.682 0)" fill="#e4eff8"/>
        </g>
        <path id="path8405" d="M9.516,6.879a.785.785,0,1,0,0,1.569h14.9a.785.785,0,1,0,0-1.569Z" transform="translate(17.155 13.515)" fill="#427096"/>
        <path id="path8408" d="M9.521,5.82a.785.785,0,1,0,0,1.569H20.488a.785.785,0,1,0,0-1.569Z" transform="translate(17.161 11.435)" fill="#427096"/>
        <path id="path8499" d="M12.087,13.718a1.565,1.565,0,0,1-1.569,1.569H6.6a1.565,1.565,0,0,1-1.569-1.569V10.581c0-.869.719-1.751,1.569-1.569h5.491Z" transform="translate(9.877 17.658)" fill="#ffca28"/>
        <path id="path8410" d="M9.472,9.258a.784.784,0,0,0-.539.237l-1.8,1.8-.232-.226A.786.786,0,1,0,5.8,12.177l.788.782a.784.784,0,0,0,1.112,0l2.351-2.351a.784.784,0,0,0-.573-1.349Z" transform="translate(10.904 18.189)" fill="#427096"/>
        <path id="path8417" d="M12.087,10.279a1.565,1.565,0,0,1-1.569,1.569H6.6a1.565,1.565,0,0,1-1.569-1.569V7.141c0-.869.719-1.751,1.569-1.569h5.491Z" transform="translate(9.877 10.9)" fill="#ffca28"/>
        <path id="path8414" d="M9.483,5.819a.784.784,0,0,0-.539.237l-1.8,1.8-.232-.226A.784.784,0,1,0,5.807,8.731l.788.788a.784.784,0,0,0,1.112,0l2.351-2.351a.784.784,0,0,0-.573-1.349Z" transform="translate(10.893 11.431)" fill="#427096"/>
        <path id="path8490" d="M9.516,10.583a.785.785,0,1,0,0,1.569h14.9a.785.785,0,1,0,0-1.569Z" transform="translate(17.155 20.794)" fill="#365b7a"/>
        <path id="path8492" d="M9.521,9.525a.785.785,0,1,0,0,1.569H20.488a.785.785,0,1,0,0-1.569Z" transform="translate(17.161 18.714)" fill="#427096"/>
        <path id="path8494" d="M13.067,9.525c-.86.568-1.744,1.089-2.644,1.569h6.749a.785.785,0,1,0,0-1.569Z" transform="translate(20.478 18.714)" fill="#365b7a"/>
        <path id="path8515" d="M11.9,9c-.514,4.987-5.828,5.44-6.8,5.482a1.56,1.56,0,0,0,1.357.794h3.922A1.565,1.565,0,0,0,11.947,13.7V9Z" transform="translate(10.017 17.674)" fill="#ecb200"/>
        <path id="path8520" d="M25.779,2.387C23.568,6.044,16.208,7.8,9.331,8.644H27.947V4.722a2.34,2.34,0,0,0-2.168-2.335Z" transform="translate(18.333 4.691)" fill="#365b7a"/>
        <path id="path8525" d="M27.1.006c-2.212,3.656-9.571,5.41-16.448,6.257H29.27V2.341A2.34,2.34,0,0,0,27.1.006Z" transform="translate(20.932 0.012)" fill="#ecb200"/>
        <path id="path8527" d="M11.9,5.556c-.514,4.987-5.828,5.44-6.8,5.482a1.56,1.56,0,0,0,1.357.794h3.922a1.565,1.565,0,0,0,1.569-1.569V5.556Z" transform="translate(10.017 10.916)" fill="#ecb200"/>
      </g>
    </g>
  </g>
</svg>
