<svg xmlns="http://www.w3.org/2000/svg" xmlns:xlink="http://www.w3.org/1999/xlink" width="190" height="143" viewBox="0 0 190 143">
  <defs>
    <clipPath id="clip-path">
      <rect id="Rect치ngulo_418726" data-name="Rect치ngulo 418726" width="190" height="143" rx="24" transform="translate(285 711)" fill="#e8f6f1"/>
    </clipPath>
    <clipPath id="clip-path-2">
      <path id="Trazado_1015736" data-name="Trazado 1015736" d="M826.7,744.3a3.986,3.986,0,1,1,1.55,2.412A4.614,4.614,0,0,1,826.7,744.3Z" transform="translate(-826.704 -744.296)"/>
    </clipPath>
    <clipPath id="clip-path-3">
      <path id="Trazado_1015765" data-name="Trazado 1015765" d="M1569.272,431.07a2.9,2.9,0,1,0-.612,1.994A3.356,3.356,0,0,0,1569.272,431.07Z" transform="translate(-1566.868 -431.07)"/>
    </clipPath>
  </defs>
  <g id="Enmascarar_grupo_1115249" data-name="Enmascarar grupo 1115249" transform="translate(-285 -711)" clip-path="url(#clip-path)">
    <rect id="Rect치ngulo_418726-2" data-name="Rect치ngulo 418726" width="190" height="143" rx="24" transform="translate(285 711)" fill="#e8f6f1"/>
    <g id="Illustration" transform="translate(294 720.25)">
      <g id="Cloud_engineering_1_" transform="translate(0 0)">
        <path id="Trazado_1015800" data-name="Trazado 1015800" d="M86,0A86,86,0,1,1,0,86,86,86,0,0,1,86,0Z" fill="#a9dfcb"/>
        <g id="Grupo_1161967" data-name="Grupo 1161967" transform="translate(41.717 126.02)">
          <g id="Grupo_1161966" data-name="Grupo 1161966" transform="translate(0 0)">
            <path id="Trazado_1015725" data-name="Trazado 1015725" d="M778.151,1690.175l1.505.3a14.184,14.184,0,0,0,.151,2.248l-1.45.5,1.68,4.912,1.454-.5a14.387,14.387,0,0,0,1.255,1.87l-1.01,1.157,3.911,3.414,1.008-1.155a14.176,14.176,0,0,0,2.024.991l-.3,1.505,5.094,1,.3-1.505a14.175,14.175,0,0,0,2.248-.151l.5,1.45,4.912-1.68-.5-1.454a14.346,14.346,0,0,0,1.869-1.255l1.157,1.01,3.414-3.911-1.155-1.008a14.187,14.187,0,0,0,.991-2.024l1.5.3,1-5.094-1.505-.3a14.175,14.175,0,0,0-.151-2.248l1.45-.5-1.68-4.912-1.454.5a14.37,14.37,0,0,0-1.255-1.87l1.01-1.157-3.911-3.414-1.008,1.155a14.16,14.16,0,0,0-2.024-.991l.3-1.505-5.094-1-.3,1.505a14.147,14.147,0,0,0-2.248.151l-.5-1.45-4.912,1.68.5,1.454a14.364,14.364,0,0,0-1.87,1.255l-1.157-1.01-3.414,3.911,1.155,1.008a14.174,14.174,0,0,0-.991,2.024l-1.505-.3Zm17.716-7.925a8.6,8.6,0,1,1-10.425,7A8.634,8.634,0,0,1,795.867,1682.25Z" transform="translate(-778.151 -1674.851)" fill="#fff"/>
          </g>
        </g>
        <g id="Grupo_1161982" data-name="Grupo 1161982" transform="translate(0.367 24.354)">
          <g id="Grupo_1161970" data-name="Grupo 1161970" transform="translate(2.337 55.886)">
            <g id="Grupo_1161968" data-name="Grupo 1161968" transform="translate(4.191 65.427)">
              <path id="Trazado_1015726" data-name="Trazado 1015726" d="M421.837,1899.182H409.448l-1.682-15.352h12.389Z" transform="translate(-407.766 -1883.83)" fill="#e2a18d"/>
              <path id="Trazado_1015727" data-name="Trazado 1015727" d="M431.791,2040.41h-11.4l.534,11.263h28.867l-.887-1.5A19.882,19.882,0,0,0,431.791,2040.41Z" transform="translate(-419.206 -2025.689)" fill="#e6d0be"/>
            </g>
            <g id="Grupo_1161969" data-name="Grupo 1161969" transform="translate(34.995 65.745)">
              <path id="Trazado_1015728" data-name="Trazado 1015728" d="M751.22,1902.244H738.831l-3.415-15.034H747.8Z" transform="translate(-735.416 -1887.21)" fill="#e2a18d"/>
              <path id="Trazado_1015729" data-name="Trazado 1015729" d="M777.874,2040.41h-11.4l1.452,11.263h27.949l-.887-1.5A19.883,19.883,0,0,0,777.874,2040.41Z" transform="translate(-763.556 -2026.007)" fill="#fff"/>
            </g>
            <path id="Trazado_1015730" data-name="Trazado 1015730" d="M363.184,1197.33l.021,62.878h22.771s-4.208-49.822-3.958-55.775h2.83l11.434,55.941h22.6s-14.893-50.591-18.92-65.423C399.964,1194.952,386.738,1177.615,363.184,1197.33Z" transform="translate(-363.184 -1187.906)" fill="#8b865c"/>
          </g>
          <g id="Grupo_1161978" data-name="Grupo 1161978" transform="translate(5.319)">
            <g id="Grupo_1161974" data-name="Grupo 1161974" transform="translate(30.518 7.432)">
              <path id="Trazado_1015731" data-name="Trazado 1015731" d="M783.61,687.478c-2.174.448-5.448-4.8-5.448-4.8l-.215-6.777a5.653,5.653,0,0,1,10.35,4.552S785.824,687.022,783.61,687.478Z" transform="translate(-772.453 -672.519)" fill="#e2a18d"/>
              <path id="Trazado_1015732" data-name="Trazado 1015732" d="M721.965,724.209a3.423,3.423,0,0,0,4.1-1.886L731.3,710.6l-6.271-2.758-5.22,11.691A3.423,3.423,0,0,0,721.965,724.209Z" transform="translate(-719.513 -704.519)" fill="#e2a18d"/>
              <path id="Trazado_1015733" data-name="Trazado 1015733" d="M860.7,768.562s.783,2.159.529,2.527c-.3.439-2.048.02-2.048.02S860.737,768.583,860.7,768.562Z" transform="translate(-846.05 -759.533)" fill="#e2a18d"/>
              <g id="Grupo_1161973" data-name="Grupo 1161973" transform="translate(10.078 6.748)">
                <path id="Trazado_1015734" data-name="Trazado 1015734" d="M826.7,744.3a4.908,4.908,0,0,1,2.116.374c.222.1-.979,1.692-1.146,1.5A4.921,4.921,0,0,1,826.7,744.3Z" transform="translate(-826.704 -744.296)" fill="#fff"/>
                <g id="Grupo_1161972" data-name="Grupo 1161972" transform="translate(0 0)">
                  <g id="Grupo_1161971" data-name="Grupo 1161971" clip-path="url(#clip-path-2)">
                    <path id="Trazado_1015735" data-name="Trazado 1015735" d="M838.019,746.792a1.932,1.932,0,1,1-1.1,2.5A1.932,1.932,0,0,1,838.019,746.792Z" transform="translate(-835.839 -746.437)" fill="#363e44"/>
                  </g>
                </g>
              </g>
              <path id="Trazado_1015737" data-name="Trazado 1015737" d="M835.152,786.591a1,1,0,0,1-.862-1.509.207.207,0,0,1,.357.211.584.584,0,0,0,.6.876.207.207,0,1,1,.065.409A.982.982,0,0,1,835.152,786.591Z" transform="translate(-823.374 -774.407)" fill="#363e44"/>
              <path id="Trazado_1015738" data-name="Trazado 1015738" d="M781.586,784.007a.207.207,0,0,1-.115-.035,17.374,17.374,0,0,1-3.832-4.367.207.207,0,0,1,.352-.219,17.32,17.32,0,0,0,3.711,4.242.207.207,0,0,1-.116.38Z" transform="translate(-772.146 -769.25)" fill="#363e44"/>
            </g>
            <g id="Grupo_1161975" data-name="Grupo 1161975" transform="translate(33.426 6.403)">
              <path id="Trazado_1015739" data-name="Trazado 1015739" d="M750.593,668.421c-.73-1.635,1.356-4.856,3.689-6.072a8.282,8.282,0,0,1,9.157,1.551c.521.524,1.571,1.888,1.318,3.05-.2.9-1.929,1.663-3.316,1.125-1.95-.756-3.765-2.9-4.442-.518C754.946,674.765,751.395,670.217,750.593,668.421Z" transform="translate(-750.445 -661.58)" fill="#b77250"/>
            </g>
            <g id="Grupo_1161977" data-name="Grupo 1161977">
              <g id="Grupo_1161976" data-name="Grupo 1161976">
                <path id="Trazado_1015740" data-name="Trazado 1015740" d="M404.011,600.321c-4.89,1.741-8.189-4.735-9.039-6.844-.084-.208-.081,4.3-.058,8.677,1.013,2.256,5.8,2.057,5.482,2.078a12.556,12.556,0,0,0-5.456,2.026c.016,2.226.032,3.844.032,3.844,1.546-2.009,6.4-2.175,6.4-2.175-4.412.377-8.488,11.42.439,15.413,10.8,4.83,15.561-10.063,19.576-16.158s9.066-1.749,9.066-1.749l1.227-4.358C421.277,586.046,409.829,598.25,404.011,600.321Z" transform="translate(-394.901 -593.47)" fill="#b77250"/>
                <path id="Trazado_1015741" data-name="Trazado 1015741" d="M448.171,668.753a6.038,6.038,0,0,1-4.3-10.429.207.207,0,0,1,.286.3,5.661,5.661,0,0,0,6.437,9.161c1.737-.869,3.07-2.594,4.193-5.43.505-1.275.931-2.609,1.342-3.9.495-1.552,1.007-3.156,1.664-4.681,1.453-3.37,3.408-5.7,5.813-6.93,2.56-1.309,6.434-1.3,8.57,1.287a.207.207,0,0,1-.32.264c-2-2.422-5.645-2.417-8.062-1.182-2.317,1.183-4.208,3.446-5.621,6.725-.649,1.506-1.158,3.1-1.65,4.643-.413,1.3-.841,2.636-1.351,3.925-1.163,2.936-2.559,4.73-4.393,5.648A5.817,5.817,0,0,1,448.171,668.753Z" transform="translate(-437.608 -641.05)" fill="#84524d"/>
              </g>
            </g>
          </g>
          <g id="Grupo_1161981" data-name="Grupo 1161981" transform="translate(0 10.809)">
            <g id="Grupo_1161979" data-name="Grupo 1161979" transform="translate(2.593 14.176)">
              <path id="Trazado_1015742" data-name="Trazado 1015742" d="M365.909,924.867a23.371,23.371,0,0,1,12.347-15.908l8.142,10.862Z" transform="translate(-365.909 -904.283)" fill="#e2a18d"/>
              <path id="Trazado_1015743" data-name="Trazado 1015743" d="M467.469,876.333,457.393,864.35s7.319-4.676,15.181-5.123Z" transform="translate(-448.792 -859.226)" fill="#363e44"/>
            </g>
            <path id="Trazado_1015744" data-name="Trazado 1015744" d="M776.98,738.584c3.429,3.247,10.857.388,13.509-3.519l11.358-16.927,4.079-9.014a11.333,11.333,0,0,0-11.551,2.315l-15.042,15.873C771.376,736.172,773.772,735.546,776.98,738.584Z" transform="translate(-733.013 -708.441)" fill="#e2a18d"/>
            <path id="Trazado_1015745" data-name="Trazado 1015745" d="M790.5,844.14a30.4,30.4,0,0,0-10.078,5.847l4.433,15.322,13.4-6.552Z" transform="translate(-738.859 -831.382)" fill="#363e44"/>
            <g id="Grupo_1161980" data-name="Grupo 1161980" transform="translate(0 10.397)">
              <path id="Trazado_1015746" data-name="Trazado 1015746" d="M338.326,888.445l44.236,1.313,3.487-35.112-.74-7.308s-4.679-5.271-24.713-.579l.84,5.286S344.242,877.414,338.326,888.445Z" transform="translate(-338.326 -842.389)" fill="#363e44"/>
              <path id="Trazado_1015747" data-name="Trazado 1015747" d="M678.587,822.424l.542-3.394a59.653,59.653,0,0,1,13.982,2.674l-.944,3.055Z" transform="translate(-646.597 -819.03)" fill="#363e44"/>
            </g>
          </g>
        </g>
        <g id="Grupo_1161984" data-name="Grupo 1161984" transform="translate(88.351 98.982)">
          <g id="Grupo_1161983" data-name="Grupo 1161983">
            <path id="Trazado_1015748" data-name="Trazado 1015748" d="M1307.739,1444.49h-9.884v-2.833a26.151,26.151,0,0,1-3.67-.982l-1.416,2.452-8.56-4.942,1.419-2.458a26.541,26.541,0,0,1-2.685-2.685l-2.458,1.419-4.942-8.56,2.452-1.416a26.123,26.123,0,0,1-.981-3.67h-2.833v-9.884h2.833a26.163,26.163,0,0,1,.981-3.67l-2.452-1.416,4.942-8.56,2.458,1.419a26.539,26.539,0,0,1,2.685-2.684l-1.419-2.458,8.56-4.942,1.416,2.452a26.189,26.189,0,0,1,3.67-.982v-2.833h9.884v2.833a26.2,26.2,0,0,1,3.67.982l1.416-2.452,8.56,4.942-1.419,2.458a26.526,26.526,0,0,1,2.685,2.684l2.458-1.419,4.942,8.56-2.452,1.416a26.178,26.178,0,0,1,.982,3.67h2.833v9.884h-2.833a26.156,26.156,0,0,1-.982,3.67l2.452,1.416-4.942,8.56-2.458-1.419a26.479,26.479,0,0,1-2.685,2.685l1.419,2.458-8.56,4.942-1.416-2.452a26.135,26.135,0,0,1-3.67.982Zm-9.469-.415h9.055v-2.763l.17-.031a25.74,25.74,0,0,0,3.939-1.054l.163-.058,1.381,2.391,7.842-4.528-1.384-2.4.131-.112a26.082,26.082,0,0,0,2.882-2.882l.112-.131,2.4,1.384,4.528-7.842-2.391-1.381.058-.163a25.73,25.73,0,0,0,1.053-3.939l.031-.17H1331v-9.055h-2.763l-.031-.17a25.728,25.728,0,0,0-1.053-3.939l-.058-.162,2.391-1.381-4.528-7.842-2.4,1.384-.112-.131a26.069,26.069,0,0,0-2.882-2.882l-.131-.112,1.384-2.4-7.842-4.527-1.381,2.391-.163-.058a25.787,25.787,0,0,0-3.939-1.054l-.17-.031v-2.763h-9.055v2.763l-.17.031a25.791,25.791,0,0,0-3.939,1.054l-.162.058-1.381-2.391-7.842,4.527,1.384,2.4-.131.112a26.058,26.058,0,0,0-2.882,2.882l-.112.131-2.4-1.384-4.527,7.842,2.391,1.381-.058.162a25.759,25.759,0,0,0-1.053,3.939l-.031.17H1274.6v9.055h2.764l.031.17a25.729,25.729,0,0,0,1.053,3.939l.058.163-2.391,1.381,4.527,7.842,2.4-1.384.112.131a26.06,26.06,0,0,0,2.882,2.882l.131.112-1.384,2.4,7.842,4.528,1.381-2.391.162.058a25.758,25.758,0,0,0,3.939,1.054l.17.031v2.763Zm4.546-12.37a15.755,15.755,0,0,1-11.223-4.626,16.116,16.116,0,0,1-3.492-17.327,14.747,14.747,0,0,1,8.576-8.575,15.967,15.967,0,0,1,20.818,20.819,14.746,14.746,0,0,1-8.576,8.575A17.25,17.25,0,0,1,1302.815,1431.7Zm-.039-31.248a16.832,16.832,0,0,0-5.954,1.107,14.33,14.33,0,0,0-8.334,8.334,15.553,15.553,0,0,0,20.284,20.284,14.33,14.33,0,0,0,8.334-8.334,15.707,15.707,0,0,0-3.4-16.887A15.344,15.344,0,0,0,1302.776,1400.457Zm14.523,21.464h0Z" transform="translate(-1274.18 -1387.257)" fill="#d3bba3"/>
          </g>
          <path id="Trazado_1015749" data-name="Trazado 1015749" d="M1376.94,1513.167a20.924,20.924,0,0,1-3.133-41.611.207.207,0,1,1,.061.41,20.509,20.509,0,1,0,22.922,25.447.207.207,0,1,1,.4.1A20.917,20.917,0,0,1,1376.94,1513.167Z" transform="translate(-1348.324 -1463.629)" fill="#d3bba3"/>
        </g>
        <g id="Grupo_1161996" data-name="Grupo 1161996" transform="translate(80.508 2.03)">
          <g id="Grupo_1161988" data-name="Grupo 1161988" transform="translate(0 0.352)">
            <g id="Grupo_1161986" data-name="Grupo 1161986" transform="translate(5.523 13.392)">
              <path id="Trazado_1015750" data-name="Trazado 1015750" d="M1280.4,591.225c-.432.715-13.733,1.757-21.8,2.325a8.639,8.639,0,0,1-8.506-5.116,6.837,6.837,0,0,1,3.092-8.836l18.5-9.632Z" transform="translate(-1249.51 -563.596)" fill="#efbc73"/>
              <g id="Grupo_1161985" data-name="Grupo 1161985" transform="translate(22.175)">
                <path id="Trazado_1015751" data-name="Trazado 1015751" d="M1533.464,543.791a7.978,7.978,0,0,0,9.427-8.1c-.175-5.462-3.176-14.692-10.054-25.176a18.418,18.418,0,0,0-19.208-7.913l-28.253,5.971L1492.461,533l31.15,8.016Z" transform="translate(-1485.376 -502.206)" fill="#efbc73"/>
                <path id="Trazado_1015752" data-name="Trazado 1015752" d="M1865.94,688.345a.207.207,0,0,1-.2-.147l-2.242-7.412a.207.207,0,1,1,.4-.12l2.242,7.412a.207.207,0,0,1-.138.258A.213.213,0,0,1,1865.94,688.345Z" transform="translate(-1827.943 -663.754)" fill="#363e44"/>
                <path id="Trazado_1015753" data-name="Trazado 1015753" d="M1884.434,751.9a.207.207,0,0,1-.182-.307c3.932-7.133,12.961-3.895,13.052-3.861a.207.207,0,0,1-.144.389c-.087-.033-8.786-3.146-12.545,3.672A.208.208,0,0,1,1884.434,751.9Z" transform="translate(-1846.729 -723.962)" fill="#363e44"/>
                <path id="Trazado_1015754" data-name="Trazado 1015754" d="M1494.561,682.234a.208.208,0,0,1-.2-.147l-2.686-8.815-3.448-3.542a.207.207,0,1,1,.3-.289l3.483,3.578a.208.208,0,0,1,.05.084l2.7,8.863a.207.207,0,0,1-.138.259A.21.21,0,0,1,1494.561,682.234Z" transform="translate(-1487.908 -653.661)" fill="#363e44"/>
              </g>
            </g>
            <g id="Grupo_1161987" data-name="Grupo 1161987">
              <path id="Trazado_1015755" data-name="Trazado 1015755" d="M1211.74,391.7s-3.887-10.885-6.2-17c-2.432-6.427-6.958-15.562-8.227-14.912-.723.37-.364,1.743.842,5.35a1.813,1.813,0,0,0-1.686.146,1.491,1.491,0,0,0-.576,1.646,2.075,2.075,0,0,0-1.695-.2,1.725,1.725,0,0,0-.938,1.77,2.131,2.131,0,0,0-1.769-.085,1.8,1.8,0,0,0-.557,2.272c.534,1.351,2.085,5,2.659,7.042,1.129,4.009,1.957,20.672,7.648,23.2C1205.527,402.829,1212.21,398.217,1211.74,391.7Z" transform="translate(-1190.76 -359.755)" fill="#84524d"/>
              <path id="Trazado_1015756" data-name="Trazado 1015756" d="M1205.832,422.849a2,2,0,0,1-1.627-1.061.207.207,0,0,1,.348-.225c.594.919,1.29.988,1.706.767.392-.207.472-.847.323-1.345a.23.23,0,0,1,.411-.194,1.3,1.3,0,0,0,1.729.565,1.543,1.543,0,0,0,.423-1.723.236.236,0,0,1,.1-.273.223.223,0,0,1,.285.066,1.674,1.674,0,0,0,1.82.708.9.9,0,0,0,.437-.586c.272-1.089-.888-2.991-1.511-4.013l-.13-.213a.207.207,0,1,1,.355-.215l.129.212c.7,1.149,1.873,3.073,1.559,4.33a1.318,1.318,0,0,1-.629.843,1.855,1.855,0,0,1-1.913-.348,1.768,1.768,0,0,1-.731,1.577,1.616,1.616,0,0,1-1.857-.229,1.209,1.209,0,0,1-1.234,1.357Zm3.7-3.357h0S1209.535,419.493,1209.535,419.493Z" transform="translate(-1202.911 -409.813)" fill="#363e44"/>
              <path id="Trazado_1015757" data-name="Trazado 1015757" d="M1263.594,443.733c.61-.715,3.776,1.048,4.364,1.38l-1.59,3.517C1266.112,448.335,1262.878,444.573,1263.594,443.733Z" transform="translate(-1256.653 -435.684)" fill="#84524d"/>
              <path id="Trazado_1015758" data-name="Trazado 1015758" d="M1264.443,446.907a.207.207,0,0,1-.156-.071c-1.089-1.255-3.54-4.272-2.775-5.168.609-.713,2.85.332,4.623,1.335a.207.207,0,1,1-.2.361c-2.466-1.394-3.856-1.717-4.1-1.426-.385.452,1.107,2.707,2.772,4.627a.207.207,0,0,1-.021.292A.2.2,0,0,1,1264.443,446.907Z" transform="translate(-1254.728 -433.754)" fill="#363e44"/>
            </g>
          </g>
          <g id="Grupo_1161995" data-name="Grupo 1161995" transform="translate(32.701)">
            <g id="Grupo_1161989" data-name="Grupo 1161989" transform="translate(4.526 5.345)">
              <path id="Trazado_1015759" data-name="Trazado 1015759" d="M1592.884,426.554l6.348-2.9-8.017-10.462c-.7-1.041-2.434.743-3.475,1.446a2.274,2.274,0,0,0-.611,3.158Z" transform="translate(-1586.739 -412.872)" fill="#84524d"/>
              <path id="Trazado_1015760" data-name="Trazado 1015760" d="M1636.609,523.312l6.038-5.913-6.781.125-3.026,4.073Z" transform="translate(-1628.506 -507.572)" fill="#84524d"/>
            </g>
            <g id="Grupo_1161994" data-name="Grupo 1161994">
              <path id="Trazado_1015761" data-name="Trazado 1015761" d="M1551.623,399.556c1.491,1.09,5.542-2.247,5.542-2.247l2.748-4.564a4.705,4.705,0,1,0-9.41-.13S1550.1,398.446,1551.623,399.556Z" transform="translate(-1549.34 -384.969)" fill="#84524d"/>
              <path id="Trazado_1015762" data-name="Trazado 1015762" d="M1544.235,450.569s-1.339,1.364-1.274,1.73c.078.437,1.544.723,1.544.723S1544.2,450.572,1544.235,450.569Z" transform="translate(-1542.549 -441.68)" fill="#84524d"/>
              <g id="Grupo_1161992" data-name="Grupo 1161992" transform="translate(2.658 7.056)">
                <path id="Trazado_1015763" data-name="Trazado 1015763" d="M1578.761,431.07a3.571,3.571,0,0,0-1.408.678c-.136.112,1.018.992,1.1.824A3.577,3.577,0,0,0,1578.761,431.07Z" transform="translate(-1576.357 -431.07)" fill="#fff"/>
                <g id="Grupo_1161991" data-name="Grupo 1161991">
                  <g id="Grupo_1161990" data-name="Grupo 1161990" clip-path="url(#clip-path-3)">
                    <path id="Trazado_1015764" data-name="Trazado 1015764" d="M1562.065,438.155a1.406,1.406,0,1,0,1.262,1.536A1.406,1.406,0,0,0,1562.065,438.155Z" transform="translate(-1561.119 -437.483)" fill="#363e44"/>
                  </g>
                </g>
              </g>
              <g id="Grupo_1161993" data-name="Grupo 1161993">
                <path id="Trazado_1015766" data-name="Trazado 1015766" d="M1569.091,374.4s2.175,5-1.146,6.919l-.926-.716-2.038.983.715-2.538a1.568,1.568,0,0,0-1.584-1.836l-4.317.109.077-2.311A8.983,8.983,0,0,1,1569.091,374.4Z" transform="translate(-1557.801 -371.773)" fill="#363e44"/>
                <path id="Trazado_1015767" data-name="Trazado 1015767" d="M1600.872,358.031a.9.9,0,0,0,1.072-.678c.109-.483-.138-1.216-.621-1.325s-1.02.448-1.129.931A.9.9,0,0,0,1600.872,358.031Z" transform="translate(-1594.383 -356.015)" fill="#363e44"/>
                <path id="Trazado_1015768" data-name="Trazado 1015768" d="M1589.337,361.021a.9.9,0,0,0,.608-1.113c-.14-.475-.711-1-1.187-.856s-.674.887-.535,1.362A.9.9,0,0,0,1589.337,361.021Z" transform="translate(-1583.518 -358.745)" fill="#363e44"/>
                <path id="Trazado_1015769" data-name="Trazado 1015769" d="M1567.935,361.489a1.216,1.216,0,0,0,.548-1.63c-.3-.6-1.185-1.161-1.786-.862s-.69,1.343-.391,1.944A1.215,1.215,0,0,0,1567.935,361.489Z" transform="translate(-1563.549 -358.641)" fill="#363e44"/>
                <path id="Trazado_1015770" data-name="Trazado 1015770" d="M1616.255,359.06a.9.9,0,0,0,1.093-.643c.125-.479-.1-1.22-.578-1.344s-1.034.414-1.159.894A.9.9,0,0,0,1616.255,359.06Z" transform="translate(-1608.344 -356.956)" fill="#363e44"/>
                <path id="Trazado_1015771" data-name="Trazado 1015771" d="M1550.946,373.967a1.082,1.082,0,0,0-.558-1.425c-.548-.239-1.472-.115-1.712.432s.3,1.311.844,1.55A1.082,1.082,0,0,0,1550.946,373.967Z" transform="translate(-1547.676 -370.883)" fill="#363e44"/>
                <path id="Trazado_1015772" data-name="Trazado 1015772" d="M1628.573,358.783a1.117,1.117,0,0,0,1.486-.537c.262-.559.159-1.517-.4-1.779s-1.361.271-1.624.83A1.118,1.118,0,0,0,1628.573,358.783Z" transform="translate(-1619.531 -356.363)" fill="#363e44"/>
                <path id="Trazado_1015773" data-name="Trazado 1015773" d="M1644.8,369.03a.872.872,0,0,0,1.226.138c.377-.3.636-1.006.335-1.383a1.124,1.124,0,0,0-1.423.019A.873.873,0,0,0,1644.8,369.03Z" transform="translate(-1634.643 -366.456)" fill="#363e44"/>
                <path id="Trazado_1015774" data-name="Trazado 1015774" d="M1541.6,389.28a1.319,1.319,0,0,0-1.191-1.436c-.725-.068-1.748.43-1.816,1.155s.845,1.4,1.57,1.471A1.318,1.318,0,0,0,1541.6,389.28Z" transform="translate(-1538.593 -384.846)" fill="#363e44"/>
              </g>
              <path id="Trazado_1015775" data-name="Trazado 1015775" d="M1630.631,429.323a1.623,1.623,0,1,1-2.117-.888A1.623,1.623,0,0,1,1630.631,429.323Z" transform="translate(-1619.147 -421.517)" fill="#84524d"/>
              <path id="Trazado_1015776" data-name="Trazado 1015776" d="M1551.18,446.594l.449,3.925a.966.966,0,0,0,1.111.844c.137-.022.284-.046.441-.075a7.966,7.966,0,0,0,5.983-4.92,2.226,2.226,0,0,0-.573-2.459l-.225-.2-.77.421s-.58,2.138-1.383,2.3S1553.921,445.936,1551.18,446.594Z" transform="translate(-1549.997 -435.46)" fill="#363e44"/>
              <path id="Trazado_1015777" data-name="Trazado 1015777" d="M1566.234,476.674a.871.871,0,0,1-.482-.145.207.207,0,0,1,.229-.345.452.452,0,0,0,.7-.425.207.207,0,1,1,.412-.043.874.874,0,0,1-.4.826A.863.863,0,0,1,1566.234,476.674Z" transform="translate(-1563.114 -464.294)" fill="#84524d"/>
              <path id="Trazado_1015778" data-name="Trazado 1015778" d="M1616.091,399.088a.207.207,0,0,1-.13-.369l1.856-1.491a.207.207,0,1,1,.26.323l-1.856,1.491A.2.2,0,0,1,1616.091,399.088Z" transform="translate(-1608.617 -393.312)" fill="#84524d"/>
            </g>
          </g>
        </g>
        <g id="Grupo_1161999" data-name="Grupo 1161999" transform="translate(8.142 32.975)">
          <g id="Grupo_1161997" data-name="Grupo 1161997" transform="translate(5.574)">
            <path id="Trazado_1015779" data-name="Trazado 1015779" d="M505.622,723.209a27.36,27.36,0,0,1,16.986,5.718c-.063-.872-.1-1.75-.1-2.635,0-22.715,21.084-41.13,47.093-41.13s47.093,18.415,47.093,41.13a36.36,36.36,0,0,1-2.271,12.645,19,19,0,0,1,6.174-1.021c9.329,0,16.892,6.6,16.892,14.753s-7.563,14.753-16.892,14.753H505.622c-13.979,0-25.311-9.9-25.311-22.106S491.643,723.209,505.622,723.209Z" transform="translate(-480.311 -685.162)" fill="#fff"/>
          </g>
          <g id="Grupo_1161998" data-name="Grupo 1161998" transform="translate(0 0.473)">
            <path id="Trazado_1015780" data-name="Trazado 1015780" d="M561.517,772.865H446.543c-14.071,0-25.518-10.01-25.518-22.314s11.447-22.314,25.518-22.314a27.69,27.69,0,0,1,16.748,5.479c-.046-.75-.069-1.485-.069-2.189,0-11.047,4.924-21.431,13.864-29.24a52.254,52.254,0,0,1,66.872,0c8.94,7.808,13.864,18.193,13.864,29.24a36.553,36.553,0,0,1-2.138,12.314,19.214,19.214,0,0,1,5.833-.9c9.428,0,17.1,6.711,17.1,14.96S570.946,772.865,561.517,772.865ZM446.543,728.652c-13.842,0-25.1,9.824-25.1,21.9s11.261,21.9,25.1,21.9H561.517c9.2,0,16.685-6.525,16.685-14.546s-7.485-14.546-16.685-14.546a18.767,18.767,0,0,0-6.106,1.01l-.413.142.152-.41a36.156,36.156,0,0,0,2.259-12.573c0-22.565-21.033-40.923-46.885-40.923s-46.885,18.358-46.885,40.923c0,.838.033,1.719.1,2.62l.034.47-.369-.292A27.205,27.205,0,0,0,446.543,728.652Z" transform="translate(-421.025 -690.19)" fill="#d3bba3"/>
          </g>
        </g>
        <g id="Grupo_1162000" data-name="Grupo 1162000" transform="translate(2.331 64.935)">
          <path id="Trazado_1015781" data-name="Trazado 1015781" d="M735.478,1125.231c-1.721.254-9.046.162-10.634,3.183-1.6,3.043-.818,6.762.927,9.724l.041.012a6.763,6.763,0,0,0,3.61,1.281c1.795.055,2.287-.776,4.19-1.013,3.212-.4,4.988,1.664,5.654.731.458-.64-.525-1.887-1.717-2.791-1.224-.928-2.406-1.013-2.37-1.262.04-.273,1.23-.031,2.737.134.7.077,2.493,1.471,3.247.688.6-.624-.9-2.54-2.894-3.272-1.411-.517-2.777-.008-2.82-.279-.032-.2.79-.486,1.571-.519,1.289-.054,3.139,1.352,3.819.619s-.674-2.37-2.466-3.158c-1.51-.665-3.007-.025-3.062-.361-.039-.237.572-.662,2.058-1.135,1.24-.394,3.906-.36,3.688-1.72C740.874,1124.949,738.075,1124.847,735.478,1125.231Z" transform="translate(-689.682 -1115.636)" fill="#e2a18d"/>
          <path id="Trazado_1015782" data-name="Trazado 1015782" d="M369.464,1025.74c-3.717-.964-7.279-1.2-9.053,2.144-1.18,2.224-2,6.89.151,10.168,5.638,8.575,35.866,9.434,35.866,9.434l7.378-6.413C394.885,1034.646,379.695,1028.393,369.464,1025.74Z" transform="translate(-359.222 -1025.113)" fill="#e2a18d"/>
        </g>
        <path id="Trazado_1015783" data-name="Trazado 1015783" d="M1068.232,668.174c.481.805,1.283,2.067,1.932,3.386,1.043,2.118,1.726,4.541.8,5.013-1.1.561-1.808-1.73-2.487-2.683-.813-1.142-1.346-1.547-1.537-1.449-.273.14.687,1.245.533,2.72-.182,1.75-1.226,3.352-2.025,2.979-.815-.38-.12-2.35-.521-3.438-.243-.659-.712-1.285-.877-1.2-.22.111.592,1.141.537,2.49-.077,1.907-1.3,3.72-2,3.377-.877-.43-.177-2.349-.3-2.969-.273-1.335-.394-2.42-.639-2.379-.223.037.029,1.073-.428,2.375-.446,1.269-1.243,2.453-1.917,2.238-.982-.314.3-2.4-.93-5.041-.726-1.564-1.573-1.756-2.02-3.307l-.011-.039a4.16,4.16,0,0,1,1.943-4.684q.169-.1.344-.189a9.438,9.438,0,0,1,2.668-.724C1063.639,664.231,1066.915,666.243,1068.232,668.174Z" transform="translate(-988.329 -633.553)" fill="#e2a18d"/>
        <g id="Grupo_1162004" data-name="Grupo 1162004" transform="translate(96.156 41.351)">
          <path id="Trazado_1015784" data-name="Trazado 1015784" d="M1402.984,897.232,1376.64,880.6l-.976,1.546-12.435-.757-6.028-10.9,1.594-2.526,10.659,6.731,3.217-5.095-10.659-6.731,1.6-2.526,12.435.757,6.028,10.9-.976,1.546,26.345,16.638.977-1.546,12.435.758,6.028,10.9-1.594,2.525-10.659-6.731-3.217,5.095,10.658,6.731-1.594,2.525-12.436-.757-6.028-10.9Z" transform="translate(-1357.2 -852.243)" fill="#d87355"/>
          <g id="Grupo_1162003" data-name="Grupo 1162003" transform="translate(21.873)">
            <g id="Grupo_1162002" data-name="Grupo 1162002">
              <path id="Trazado_1015785" data-name="Trazado 1015785" d="M1599.018,797.041c5.835-6.585,17.163-18.721,17.163-18.721s3.306-4.021,7.872-4.056a14.944,14.944,0,0,1,6.384,1.414,8.747,8.747,0,0,1,2.872,13.615c-6.135,7.166-18.214,16.405-21.572,19.762-2.022,2.021-5.563,6.61-6.787,8.13a2.408,2.408,0,0,1-2.978.348,2.565,2.565,0,0,1-1.114-1.979,2.454,2.454,0,0,1-3.892-2.051,2.318,2.318,0,0,1-2.5.366,2.4,2.4,0,0,1-1.375-1.834,2.177,2.177,0,0,1-2.362-.124C1589.013,810.8,1588.908,808.452,1599.018,797.041Z" transform="translate(-1589.852 -774.264)" fill="#84524d"/>
              <g id="Grupo_1162001" data-name="Grupo 1162001" transform="translate(3.114 33.272)">
                <path id="Trazado_1015786" data-name="Trazado 1015786" d="M1738.345,1195.873a.2.2,0,0,1-.1-.027l-1.53-.871a.207.207,0,1,1,.205-.36l1.529.871a.207.207,0,0,1-.1.388Z" transform="translate(-1725.926 -1188.343)" fill="#363e44"/>
                <path id="Trazado_1015787" data-name="Trazado 1015787" d="M1697.306,1172.267a.206.206,0,0,1-.1-.024l-1.759-.934a.207.207,0,0,1,.194-.366l1.759.933a.207.207,0,0,1-.1.391Z" transform="translate(-1688.537 -1166.899)" fill="#363e44"/>
                <path id="Trazado_1015788" data-name="Trazado 1015788" d="M1656.374,1150.956a.206.206,0,0,1-.1-.027c-.285-.162-.543-.307-.8-.452s-.517-.29-.8-.454a.207.207,0,1,1,.205-.36c.285.162.543.307.8.452s.518.291.8.454a.207.207,0,0,1-.1.387Z" transform="translate(-1651.593 -1147.617)" fill="#363e44"/>
                <path id="Trazado_1015789" data-name="Trazado 1015789" d="M1624.639,1129.546a.207.207,0,0,1-.115-.035l-1.452-.965a.207.207,0,1,1,.23-.345l1.452.965a.207.207,0,0,1-.115.38Z" transform="translate(-1622.979 -1128.167)" fill="#363e44"/>
              </g>
            </g>
          </g>
        </g>
        <g id="Grupo_1162006" data-name="Grupo 1162006" transform="translate(59.78 64.926)">
          <g id="Grupo_1162005" data-name="Grupo 1162005">
            <path id="Trazado_1015790" data-name="Trazado 1015790" d="M1012.507,1042.609h-2.08a19.218,19.218,0,0,0-.789-2.951l1.8-1.039-3.519-6.095-1.8,1.041a19.487,19.487,0,0,0-2.159-2.159l1.041-1.8-6.095-3.519-1.039,1.8a19.206,19.206,0,0,0-2.951-.789v-2.08h-7.038v2.08a19.216,19.216,0,0,0-2.951.789l-1.039-1.8-6.095,3.519,1.041,1.8a19.476,19.476,0,0,0-2.159,2.159l-1.8-1.041-3.519,6.095,1.8,1.039a19.2,19.2,0,0,0-.789,2.951H970.28v7.038h2.08a19.226,19.226,0,0,0,.789,2.951l-1.8,1.039,3.519,6.095,1.8-1.041a19.485,19.485,0,0,0,2.159,2.159l-1.041,1.8,6.095,3.519,1.039-1.8a19.208,19.208,0,0,0,2.951.789v2.079h7.038v-2.079a19.228,19.228,0,0,0,2.951-.789l1.039,1.8,6.095-3.519-1.041-1.8a19.5,19.5,0,0,0,2.159-2.159l1.8,1.041,3.519-6.095-1.8-1.039a19.232,19.232,0,0,0,.789-2.951h2.08v-7.038Zm-10.335,8.015a10.826,10.826,0,0,1-6.284,6.283,11.713,11.713,0,0,1-15.273-15.274,10.826,10.826,0,0,1,6.284-6.284A11.712,11.712,0,0,1,1002.172,1050.623Z" transform="translate(-970.28 -1025.014)" fill="#2ab17f"/>
          </g>
          <path id="Trazado_1015791" data-name="Trazado 1015791" d="M1044.5,1116.492a15.6,15.6,0,0,1-2.336-31.031.207.207,0,1,1,.061.41,15.189,15.189,0,1,0,16.976,18.846.207.207,0,1,1,.4.1A15.6,15.6,0,0,1,1044.5,1116.492Z" transform="translate(-1023.391 -1079.776)" fill="#2ab17f"/>
        </g>
        <g id="Grupo_1162008" data-name="Grupo 1162008" transform="translate(50.931 5.798)">
          <g id="Grupo_1162007" data-name="Grupo 1162007">
            <path id="Trazado_1015792" data-name="Trazado 1015792" d="M888.181,420.835a.208.208,0,0,1-.04,0l-3.926-.772a.208.208,0,0,1-.163-.244l.2-.992a11.171,11.171,0,0,1-1.279-.627l-.664.761a.207.207,0,0,1-.142.071.217.217,0,0,1-.15-.051L879,416.347a.207.207,0,0,1-.02-.292l.666-.763a11.268,11.268,0,0,1-.793-1.182l-.959.328a.2.2,0,0,1-.158-.01.207.207,0,0,1-.1-.119l-1.294-3.786a.207.207,0,0,1,.129-.263l.956-.327a11.168,11.168,0,0,1-.1-1.422l-.992-.195a.208.208,0,0,1-.164-.244l.772-3.925a.208.208,0,0,1,.243-.163l.992.195a11.2,11.2,0,0,1,.627-1.28l-.761-.664a.207.207,0,0,1-.02-.292l2.631-3.014a.207.207,0,0,1,.292-.02l.763.666a11.317,11.317,0,0,1,1.182-.793l-.328-.958a.207.207,0,0,1,.129-.263l3.785-1.294a.207.207,0,0,1,.263.129l.327.956a11.206,11.206,0,0,1,1.422-.1l.195-.992a.208.208,0,0,1,.243-.163l3.925.772a.207.207,0,0,1,.164.243l-.195.992a11.162,11.162,0,0,1,1.28.627l.664-.761a.207.207,0,0,1,.292-.02l3.014,2.631a.207.207,0,0,1,.02.292l-.666.763a11.339,11.339,0,0,1,.794,1.182l.958-.328a.208.208,0,0,1,.263.129l1.294,3.786a.207.207,0,0,1-.129.263l-.956.327a11.178,11.178,0,0,1,.1,1.422l.992.195a.208.208,0,0,1,.164.244l-.772,3.926a.208.208,0,0,1-.243.163l-.992-.195a11.187,11.187,0,0,1-.627,1.28l.761.664a.207.207,0,0,1,.02.292L896.415,418a.207.207,0,0,1-.142.071.211.211,0,0,1-.151-.051l-.763-.666a11.306,11.306,0,0,1-1.182.793l.328.958a.207.207,0,0,1-.129.263l-3.786,1.294a.207.207,0,0,1-.263-.129L890,419.58a11.225,11.225,0,0,1-1.422.1l-.195.992A.207.207,0,0,1,888.181,420.835Zm-3.682-1.142,3.519.692.188-.957a.207.207,0,0,1,.2-.167h0a10.529,10.529,0,0,0,1.7-.114.208.208,0,0,1,.226.138l.315.921,3.393-1.161-.316-.924a.207.207,0,0,1,.094-.248,10.888,10.888,0,0,0,1.414-.949.207.207,0,0,1,.265.006l.736.642,2.358-2.7-.734-.641a.207.207,0,0,1-.042-.262,10.758,10.758,0,0,0,.749-1.53.207.207,0,0,1,.233-.127l.957.188.692-3.519-.957-.188a.208.208,0,0,1-.167-.206,10.738,10.738,0,0,0-.115-1.7.207.207,0,0,1,.138-.226l.922-.315-1.16-3.393-.924.316a.207.207,0,0,1-.248-.094,10.9,10.9,0,0,0-.949-1.414A.207.207,0,0,1,897,401.5l.642-.736-2.7-2.358-.641.734a.208.208,0,0,1-.262.042,10.74,10.74,0,0,0-1.53-.749.208.208,0,0,1-.127-.233l.188-.957-3.519-.692-.188.957a.207.207,0,0,1-.2.167h0a10.762,10.762,0,0,0-1.7.115.208.208,0,0,1-.226-.138l-.315-.922-3.393,1.16.316.924a.207.207,0,0,1-.094.248,10.91,10.91,0,0,0-1.414.949.207.207,0,0,1-.265-.007l-.736-.642-2.358,2.7.734.641a.207.207,0,0,1,.042.262,10.746,10.746,0,0,0-.749,1.53.207.207,0,0,1-.233.127l-.957-.188-.692,3.519.957.188a.208.208,0,0,1,.167.206,10.731,10.731,0,0,0,.115,1.7.208.208,0,0,1-.138.227l-.922.315,1.16,3.393.924-.316a.207.207,0,0,1,.248.094,10.891,10.891,0,0,0,.949,1.414.207.207,0,0,1-.006.265l-.642.736,2.7,2.358.641-.734a.207.207,0,0,1,.262-.042,10.724,10.724,0,0,0,1.53.749.208.208,0,0,1,.127.233Zm4.054-4.387a6.952,6.952,0,0,1-1.557-.178,6.845,6.845,0,0,1-5.211-7.761,6.834,6.834,0,1,1,6.768,7.939Zm-.039-13.266a6.43,6.43,0,0,0-6.32,5.394,6.422,6.422,0,0,0,9.919,6.364,6.422,6.422,0,0,0-2.136-11.59A6.534,6.534,0,0,0,888.514,402.04Z" transform="translate(-876.163 -396.096)" fill="#fff"/>
          </g>
        </g>
        <g id="Grupo_1162016" data-name="Grupo 1162016" transform="translate(108.893 101.517)">
          <g id="Grupo_1162011" data-name="Grupo 1162011" transform="translate(18.755 21.24)">
            <g id="Grupo_1162009" data-name="Grupo 1162009" transform="translate(16.803 5.113)">
              <path id="Trazado_1015793" data-name="Trazado 1015793" d="M1871.1,1719.782l-.036,0a.208.208,0,0,1-.168-.24c2.349-13.387,3.6-16.178,6.945-23.637l.562-1.255a.207.207,0,0,1,.379.169l-.562,1.255c-3.329,7.425-4.575,10.2-6.915,23.539A.208.208,0,0,1,1871.1,1719.782Z" transform="translate(-1870.893 -1694.525)" fill="#363e44"/>
            </g>
            <g id="Grupo_1162010" data-name="Grupo 1162010">
              <path id="Trazado_1015794" data-name="Trazado 1015794" d="M1703.805,1677.3a.207.207,0,0,1-.207-.2c-.732-19.69-5.792-27.732-11.15-36.247l-.247-.392a.207.207,0,1,1,.351-.221l.246.392c5.388,8.563,10.478,16.651,11.213,36.452a.207.207,0,0,1-.2.215Z" transform="translate(-1692.17 -1640.145)" fill="#363e44"/>
            </g>
            <path id="Trazado_1015795" data-name="Trazado 1015795" d="M1737.344,1965.736h-15.232l-1.741-19.966h18.714Z" transform="translate(-1717.719 -1917.037)" fill="#efbc73"/>
          </g>
          <g id="Grupo_1162013" data-name="Grupo 1162013">
            <g id="Grupo_1162012" data-name="Grupo 1162012">
              <path id="Trazado_1015796" data-name="Trazado 1015796" d="M1501.691,1415.3l.316,1.381a13.052,13.052,0,0,0-1.84.972l-.963-1.037-3.513,3.262.965,1.04a13.264,13.264,0,0,0-1.106,1.761l-1.356-.418-1.412,4.581,1.353.417a13.106,13.106,0,0,0-.076,2.08l-1.381.316,1.068,4.673,1.381-.316a13.09,13.09,0,0,0,.972,1.84l-1.037.963,3.262,3.514,1.04-.965a13.235,13.235,0,0,0,1.761,1.106l-.418,1.356,4.582,1.412.417-1.353a13.09,13.09,0,0,0,2.08.076l.316,1.381,4.674-1.068-.316-1.381a13.094,13.094,0,0,0,1.84-.972l.963,1.037,3.513-3.262-.965-1.04a13.247,13.247,0,0,0,1.106-1.761l1.356.418,1.412-4.582-1.353-.417a13.061,13.061,0,0,0,.076-2.08l1.381-.316-1.068-4.674-1.381.316a13.109,13.109,0,0,0-.972-1.84l1.037-.963-3.262-3.513-1.04.965a13.277,13.277,0,0,0-1.761-1.106l.418-1.356-4.581-1.412-.417,1.353a13.1,13.1,0,0,0-2.08-.076l-.316-1.381Zm13.381,14.835a7.375,7.375,0,0,1-3.219,5.127,7.979,7.979,0,0,1-12.461-7.824,7.375,7.375,0,0,1,3.219-5.127A7.979,7.979,0,0,1,1515.072,1430.132Z" transform="translate(-1492.677 -1414.228)" fill="#1d7b58"/>
            </g>
            <path id="Trazado_1015797" data-name="Trazado 1015797" d="M1544.411,1488.053a10.7,10.7,0,0,1-4.933-20.187.207.207,0,0,1,.191.368,10.281,10.281,0,0,0,7.033,19.145.207.207,0,1,1,.092.4A10.688,10.688,0,0,1,1544.411,1488.053Z" transform="translate(-1529.858 -1462.803)" fill="#1d7b58"/>
          </g>
          <g id="Grupo_1162015" data-name="Grupo 1162015" transform="translate(35.612 11.507)">
            <g id="Grupo_1162014" data-name="Grupo 1162014">
              <path id="Trazado_1015798" data-name="Trazado 1015798" d="M1877.285,1537.313l.2.891a8.45,8.45,0,0,0-1.188.628l-.622-.67-2.268,2.106.623.671a8.557,8.557,0,0,0-.714,1.137l-.875-.27-.911,2.958.874.269a8.439,8.439,0,0,0-.049,1.343l-.892.2.69,3.017.891-.2a8.486,8.486,0,0,0,.628,1.188l-.67.622,2.105,2.268.671-.623a8.585,8.585,0,0,0,1.137.714l-.27.875,2.958.911.269-.873a8.465,8.465,0,0,0,1.343.049l.2.891,3.017-.69-.2-.891a8.449,8.449,0,0,0,1.188-.627l.622.67,2.268-2.106-.623-.671a8.54,8.54,0,0,0,.714-1.137l.875.27.911-2.958-.873-.269a8.464,8.464,0,0,0,.049-1.343l.892-.2-.69-3.017-.892.2a8.42,8.42,0,0,0-.628-1.188l.67-.622-2.106-2.268-.671.623a8.529,8.529,0,0,0-1.137-.714l.27-.875-2.958-.911-.269.873a8.465,8.465,0,0,0-1.343-.049l-.2-.892Zm8.639,9.577a4.761,4.761,0,0,1-2.078,3.31,5.151,5.151,0,0,1-8.044-5.051,4.76,4.76,0,0,1,2.078-3.309A5.151,5.151,0,0,1,1885.924,1546.89Z" transform="translate(-1871.466 -1536.623)" fill="#14573f"/>
            </g>
            <path id="Trazado_1015799" data-name="Trazado 1015799" d="M1904.154,1583.65a6.98,6.98,0,0,1-3.205-13.172.207.207,0,1,1,.191.368,6.564,6.564,0,0,0,4.49,12.222.207.207,0,0,1,.093.4A7,7,0,0,1,1904.154,1583.65Z" transform="translate(-1894.771 -1567.274)" fill="#14573f"/>
          </g>
        </g>
      </g>
    </g>
  </g>
</svg>
