<svg id="Grupo_1162019" data-name="Grupo 1162019" xmlns="http://www.w3.org/2000/svg" xmlns:xlink="http://www.w3.org/1999/xlink" width="284.716" height="466.927" viewBox="0 0 284.716 466.927">
  <defs>
    <clipPath id="clip-path">
      <rect id="Rectángulo_419873" data-name="Rectángulo 419873" width="284.716" height="466.927" fill="none"/>
    </clipPath>
  </defs>
  <g id="Grupo_1162018" data-name="Grupo 1162018" transform="translate(0 0)" clip-path="url(#clip-path)">
    <path id="Trazado_1015801" data-name="Trazado 1015801" d="M33.1,16.072,19.336,14.983l-.055.824-.037.673-.059,1.281c-.032.837-.055,1.661-.069,2.476-.032,1.634-.018,3.245.009,4.846.059,3.208.215,6.389.453,9.565s.595,6.343,1.025,9.505.961,6.32,1.6,9.468,1.368,6.292,2.215,9.423,1.817,6.238,2.911,9.327A112.89,112.89,0,0,0,35.513,90.5c.828,1.464,1.689,2.915,2.6,4.343l.686,1.075.613.911.156.224.151.2.3.4c.407.549.778.984,1.172,1.46l.563.636c.183.215.375.426.554.613a54.89,54.89,0,0,0,4.21,4.018c1.359,1.172,2.691,2.229,4.009,3.24,2.636,2.014,5.254,3.808,7.858,5.524s5.2,3.345,7.816,4.906,5.226,3.075,7.844,4.549,5.254,2.9,7.89,4.3,5.295,2.755,7.958,4.1l4,1.991,2.027.975,2.078.984,10.828-20.488-3.579-2.192-3.629-2.233c-2.416-1.5-4.814-3.034-7.2-4.563s-4.759-3.071-7.107-4.631-4.672-3.126-6.951-4.718-4.521-3.19-6.681-4.814-4.233-3.277-6.141-4.9c-.952-.81-1.853-1.615-2.654-2.393a25.918,25.918,0,0,1-1.991-2.119c-.069-.082-.114-.146-.16-.211l-.146-.192a2.324,2.324,0,0,1-.165-.261l-.027-.046-.009-.018,0,0H62.4l-.453-.787c-.609-1.053-1.185-2.133-1.744-3.226a90.371,90.371,0,0,1-5.579-13.907A118,118,0,0,1,51.05,48.2a146.476,146.476,0,0,1-1.8-15.637q-.165-2.657-.233-5.318c-5.158-3.926-10.507-7.6-15.921-11.171" transform="translate(68.3 53.584)" fill="#fff"/>
    <path id="Trazado_1015802" data-name="Trazado 1015802" d="M39.3,38.36a1.66,1.66,0,1,1-2.343-.082,1.661,1.661,0,0,1,2.343.082" transform="translate(130.275 135.298)" fill="#c9dff4"/>
    <path id="Trazado_1015803" data-name="Trazado 1015803" d="M35.579,57.023a.709.709,0,0,1-1.167-.778c.055-.119,5.565-11.688,10.91-20.319a.708.708,0,1,1,1.2.746c-5.3,8.562-10.777,20.063-10.832,20.177a.763.763,0,0,1-.114.174" transform="translate(122.83 127.284)" fill="#c9dff4"/>
    <path id="Trazado_1015804" data-name="Trazado 1015804" d="M45.042,42.058a.714.714,0,0,1-.883.137L36.6,37.8a.708.708,0,1,1,.714-1.222l7.56,4.393a.71.71,0,0,1,.256.97.721.721,0,0,1-.087.119" transform="translate(129.632 130.46)" fill="#c9dff4"/>
    <path id="Trazado_1015805" data-name="Trazado 1015805" d="M37.4,30.829a.729.729,0,0,1-.22.165,49.117,49.117,0,0,0-9.615,6.26.711.711,0,1,1-.929-1.075,50.188,50.188,0,0,1,9.931-6.466.71.71,0,0,1,.833,1.117" transform="translate(94.376 106.012)" fill="#c9dff4"/>
    <path id="Trazado_1015806" data-name="Trazado 1015806" d="M34.806,30.956a.7.7,0,0,1-.673.22,35.21,35.21,0,0,0-6.375-.055.709.709,0,0,1-.1-1.414,35.608,35.608,0,0,1,6.768.082.705.705,0,0,1,.38,1.167" transform="translate(96.562 105.766)" fill="#c9dff4"/>
    <path id="Trazado_1015807" data-name="Trazado 1015807" d="M98.8,149.148c-5.8,5.418-14,9.871-24.081,12.74a90.358,90.358,0,0,1-25,3.414A66.32,66.32,0,0,1,18.6,158.067c-3.217-8.8-9.6-40.427-10.548-49.809-.188-1.867-.339-3.739-.467-5.606A246.913,246.913,0,0,1,7.561,75.1c.023-.513.046-1.03.073-1.551.384-7.8.956-15.894,1.5-24.483,1.071-17.006,6.75-27.485,16.612-29.055A40.242,40.242,0,0,0,36.63,16.727c.325-.156.632-.307.934-.462a30.73,30.73,0,0,0,4.979-3.08l21.092.718c1.895,2.76,5.185,3.775,7.752,5,.284.133.572.265.86.394,7.807,3.368,16.914,2.7,18.79,12.114,1.181,5.913-3.35,18.076-2.874,42.734q.055,2.711.192,5.629.13,2.732.348,5.652c.128,1.808.293,3.679.485,5.6q.247,2.526.572,5.18.323,2.725.737,5.583c1.464,10.246,4.933,34.181,8.306,47.356" transform="translate(25.713 47.154)" fill="#fff"/>
    <path id="Trazado_1015808" data-name="Trazado 1015808" d="M35.679,28.527a16.009,16.009,0,0,1-2.229-.156C22.824,26.911,14.339,15.75,13.982,15.278a.595.595,0,1,1,.952-.714c.082.114,8.549,11.239,18.681,12.631A14.744,14.744,0,0,0,44.9,24.042a.594.594,0,1,1,.723.943,16.091,16.091,0,0,1-9.94,3.542" transform="translate(49.583 51.238)" fill="#c9dff4"/>
    <path id="Trazado_1015809" data-name="Trazado 1015809" d="M26.994,14.662C37.579,29.69,39.483,50.531,39.483,50.531c12.324-.59,36.83-.764,36.83-.764,1.1-16.15-3.808-35.1-3.808-35.1,2.21-.023,6.16,2.242,6.16,2.242,4.581,20.049,2.691,33.036,8.173,61.217S97.991,146.3,97.991,146.3l-80.6,8.86c-4.416-10.283-7.276-26.346-9.844-43.493,0,0,14.04-19.587,21.609-43.786s-7.949-51.841-7.949-51.841a8.119,8.119,0,0,1,5.789-1.377" transform="translate(26.983 52.025)" fill="#5dabff"/>
    <path id="Trazado_1015810" data-name="Trazado 1015810" d="M55.64,57.681C43.5,57.681,33.55,51.608,27,46.062A70.155,70.155,0,0,1,13.954,31.381a.593.593,0,1,1,1.007-.627A69.229,69.229,0,0,0,27.793,45.178C35.207,51.448,47.078,58.418,61.516,56a.594.594,0,0,1,.2,1.172,36.738,36.738,0,0,1-6.073.508" transform="translate(49.583 108.989)" fill="#007ded"/>
    <path id="Trazado_1015811" data-name="Trazado 1015811" d="M18.916,73a.741.741,0,0,1-.664-.412C11.786,59.679,8.184,35.95,8.152,35.712a.74.74,0,1,1,1.464-.22c.037.238,3.6,23.733,9.963,36.432a.742.742,0,0,1-.334,1,.773.773,0,0,1-.329.078" transform="translate(29.122 124.679)" fill="#007ded"/>
    <path id="Trazado_1015812" data-name="Trazado 1015812" d="M34.116,47.715c-5.13,0-9.349-1.583-12.553-4.714C15.1,36.672,15.07,26.376,15.074,25.941a.592.592,0,0,1,.577-.59l34.181-.9h.018a.593.593,0,0,1,.581.481c.082.435,1.991,10.782-3.364,17.44-2.737,3.4-6.864,5.194-12.274,5.336-.229.009-.453.009-.677.009M16.278,26.522c.105,2.238.856,10.484,6.123,15.633,3.1,3.034,7.253,4.5,12.361,4.366,5.043-.133,8.869-1.78,11.377-4.888,4.375-5.437,3.51-13.866,3.2-15.985Z" transform="translate(53.909 87.437)" fill="#007ded"/>
    <path id="Trazado_1015813" data-name="Trazado 1015813" d="M19.628,4.741S11.72,18.8,13.116,23.774s5.258,2.3,5.258,2.3-4.819,8.764.352,11.29c3.258,1.588,6.549-5.148,6.549-5.148S29.719,9.047,19.628,4.741" transform="translate(46.317 16.955)" fill="#6a3649"/>
    <path id="Trazado_1015814" data-name="Trazado 1015814" d="M30.065,6.994s6.1,11.761,3.556,16.251-5.656.966-5.656.966,2.567,9.665-3.062,10.869c-3.547.76-5.116-6.567-5.116-6.567S19.233,8.751,30.065,6.994" transform="translate(70.747 25.013)" fill="#6a3649"/>
    <path id="Trazado_1015815" data-name="Trazado 1015815" d="M38.4,26.129,37.7,31.9a17.757,17.757,0,0,1-2.22,1.185c-10.759,4.8-20.662-3.977-20.662-3.977L17.262,9.091,35.883,24.1Z" transform="translate(52.994 32.512)" fill="#f2c9ad"/>
    <path id="Trazado_1015816" data-name="Trazado 1015816" d="M32.6,18.425,31.9,24.2a17.757,17.757,0,0,1-2.22,1.185C21.556,20.961,16.44,11.245,16.44,11.245l13.642,5.148Z" transform="translate(58.795 40.216)" fill="#6a3649"/>
    <path id="Trazado_1015817" data-name="Trazado 1015817" d="M21.534,2.575S35.322,5.591,28.5,19.567c0,0-7.757-13.216-6.97-16.992" transform="translate(76.811 9.209)" fill="#6a3649"/>
    <path id="Trazado_1015818" data-name="Trazado 1015818" d="M22.782,8.489s3.753-3.473,5.13.627-1,11.766-5.835,9.876Z" transform="translate(78.954 25.449)" fill="#ef9f6a"/>
    <path id="Trazado_1015819" data-name="Trazado 1015819" d="M49.051,40.68S47.61,52.62,35.2,51.073C22.866,49.544,15.64,38.831,15.255,38.328l-.009-.014.169-2.522L16.3,22.686l.476-7.006S16.733,2.957,28.92,2.124C37.826,1.516,45.807,3.96,49.372,9A10.8,10.8,0,0,1,51.33,15.62L50.186,28.168l-.279,3.071Z" transform="translate(54.525 7.271)" fill="#f2c9ad"/>
    <path id="Trazado_1015820" data-name="Trazado 1015820" d="M21.341,8.453c-.128,1.117-.741,1.963-1.364,1.895s-1.03-1.039-.9-2.155.741-1.963,1.364-1.89,1.03,1.034.9,2.151" transform="translate(68.135 22.524)" fill="#6a3649"/>
    <path id="Trazado_1015821" data-name="Trazado 1015821" d="M23.794,8.738c-.128,1.117-.741,1.963-1.364,1.895s-1.03-1.039-.9-2.155.741-1.963,1.364-1.895,1.03,1.039.9,2.155" transform="translate(76.908 23.529)" fill="#6a3649"/>
    <path id="Trazado_1015822" data-name="Trazado 1015822" d="M25.553,9.315c-.105.87-1.982,1.355-4.187,1.085s-3.913-1.19-3.807-2.059,1.982-1.355,4.187-1.085,3.913,1.19,3.807,2.059" transform="translate(62.779 25.68)" fill="#ef9f6a"/>
    <path id="Trazado_1015823" data-name="Trazado 1015823" d="M26.554,10.988a9.075,9.075,0,0,1-.97-.073c-2.206-.265-3.908-1.19-3.8-2.059S23.762,7.5,25.968,7.77c.3.037.59.082.865.142Z" transform="translate(77.878 27.522)" fill="#ef9f6a"/>
    <path id="Trazado_1015824" data-name="Trazado 1015824" d="M18.9,8.055c1.121.654,3.592,1.492,6.471-1.373a1.073,1.073,0,0,0,.151-1.323,1.062,1.062,0,0,0-1.538-.288,4.769,4.769,0,0,1-4.261.883,1.064,1.064,0,0,0-1.313.837l-.027.142A1.071,1.071,0,0,0,18.9,8.055" transform="translate(65.665 17.376)" fill="#6a3649"/>
    <path id="Trazado_1015825" data-name="Trazado 1015825" d="M27.8,9.137c-1.208.471-3.78.906-6.173-2.38A1.065,1.065,0,0,1,23.25,5.389a4.758,4.758,0,0,0,4.068,1.542,1.064,1.064,0,0,1,1.162,1.034l0,.142a1.072,1.072,0,0,1-.686,1.03" transform="translate(76.614 18.111)" fill="#6a3649"/>
    <path id="Trazado_1015826" data-name="Trazado 1015826" d="M26.712,13.805a7.624,7.624,0,0,0,4.65-.938.495.495,0,1,0-.471-.87c-5.876,3.2-10.85-3.473-10.9-3.542a.5.5,0,0,0-.8.586c.041.055,3.158,4.233,7.519,4.764" transform="translate(68.301 29.514)" fill="#6a3649"/>
    <path id="Trazado_1015827" data-name="Trazado 1015827" d="M19.735,9.009c-.073.124-2.087,3.579-4.476,4.37l-.014-.014.174-2.526a8.635,8.635,0,0,0,4.315-1.831" transform="translate(54.525 32.219)" fill="#6a3649"/>
    <path id="Trazado_1015828" data-name="Trazado 1015828" d="M23.252,10.23s-3.991-6.993-8.1-2.38c-3.386,3.8.737,15.28,6.892,12.269Z" transform="translate(49.832 22.445)" fill="#f2c9ad"/>
    <path id="Trazado_1015829" data-name="Trazado 1015829" d="M19.248,15.6l.055,0a.489.489,0,0,0,.5-.49,9.259,9.259,0,0,0-4.471-8.073.494.494,0,1,0-.476.865A8.26,8.26,0,0,1,18.813,15.1a.5.5,0,0,0,.435.5" transform="translate(52.211 24.954)" fill="#6a3649"/>
    <path id="Trazado_1015830" data-name="Trazado 1015830" d="M15.032,9.5a.489.489,0,0,0,.325-.073c.467-.293,1.867-.984,2.686-.664a.5.5,0,1,0,.357-.924c-1.428-.558-3.354.618-3.574.751a.5.5,0,0,0,.206.911" transform="translate(52.208 27.514)" fill="#6a3649"/>
    <path id="Trazado_1015831" data-name="Trazado 1015831" d="M20.833,16.871a4.223,4.223,0,0,0,4.192-1.638.49.49,0,0,0,.046-.421c-1.492-4.357-3-8.828-3.011-8.873a.495.495,0,1,0-.938.316c.014.041,1.464,4.348,2.929,8.626a3.384,3.384,0,0,1-3.1,1.007.5.5,0,0,0-.119.984" transform="translate(72.954 20.032)" fill="#6a3649"/>
    <path id="Trazado_1015832" data-name="Trazado 1015832" d="M52.557,9a2.119,2.119,0,0,1-.677,1c-2.718,2.238-8.311.641-13.395-1.634a9.354,9.354,0,0,0-9.262,1.1c.851,5.24-4.174,5.043-3.579,9a19.974,19.974,0,0,1,.169,3.515c-.009.384-.027.764-.05,1.13a35.952,35.952,0,0,1-.554,4.329l-3.048-.787a6.487,6.487,0,0,0-1.67-3.034,7.42,7.42,0,0,0-.975-.842,9.919,9.919,0,0,0-2.6-1.323c-3.7.224-2.993-7.327-.4-13.061,0,0,3.4-5.446,15.6-6.274C41.011,1.516,48.992,3.955,52.557,9" transform="translate(51.335 7.271)" fill="#6a3649"/>
    <path id="Trazado_1015833" data-name="Trazado 1015833" d="M14.887,20.627l6.6-3.89.851-.5,1.867-1.1c12.585-3.949,27.467-1.323,27.467-1.323S50.038,2.51,36.011.327A21.585,21.585,0,0,0,23.289,1.832a16.761,16.761,0,0,0-1.652.9,14.574,14.574,0,0,0-6.215,7.647c-2.133,6.324-.535,10.246-.535,10.246" transform="translate(51.186 -0.002)" fill="#5dabff"/>
    <path id="Trazado_1015834" data-name="Trazado 1015834" d="M17.435,15.305l.851-.5c-2.027-2.746-2.4-6.1-1.117-10.013A21.217,21.217,0,0,1,19.238.4a16.839,16.839,0,0,0-1.657.9,21.653,21.653,0,0,0-1.35,3.176c-1.364,4.146-.943,7.844,1.2,10.828" transform="translate(55.242 1.43)" fill="#007ded"/>
    <path id="Trazado_1015835" data-name="Trazado 1015835" d="M29.98,1.661s-4.942-2.416-12.269.023l.668,4.009s6.892-1.483,11.606-.842Z" transform="translate(63.34 2.124)" fill="#007ded"/>
    <path id="Trazado_1015836" data-name="Trazado 1015836" d="M48.259,19.546S65.649,12.3,58.363,4.5,30.5.111,16.476,13.743c0,0,30.84-5.739,31.783,5.8" transform="translate(58.923 1.39)" fill="#007ded"/>
    <path id="Trazado_1015837" data-name="Trazado 1015837" d="M28.427,18.4c-.023.2-1.551,15.4-2.187,28.3-.087-.064-.169-.124-.256-.183-.371-.27-.741-.54-1.112-.815.664-12.736,2.123-27.247,2.146-27.44a.705.705,0,0,1,.773-.636.716.716,0,0,1,.636.778" transform="translate(88.947 63.023)" fill="#c9dff4"/>
    <path id="Trazado_1015838" data-name="Trazado 1015838" d="M4.018,92.231,2.805,109.319l17.546.334.966-16.035Z" transform="translate(10.032 329.848)" fill="#f2c9ad"/>
    <path id="Trazado_1015839" data-name="Trazado 1015839" d="M75.568,65.881l-1.053,2.833-34.194,92.08c0,38.043-17.2,106.669-17.2,106.669l-20.607-.979,5.652-107.31.078-1.469c.032-.137.064-.27.1-.407,5.286-21.133,16.278-73.935,23.765-99.4.211-.718.412-1.409.613-2.078.645-2.2,1.213-4.123,1.68-5.72.4-1.341.723-2.448.975-3.3l0-.009.572-1.949,5.784,3.071L43.4,48.8l7.588,4.027Z" transform="translate(8.998 160.377)" fill="#5dabff"/>
    <path id="Trazado_1015840" data-name="Trazado 1015840" d="M14.684,70.947a21.7,21.7,0,0,1-8.045,1.46,28.506,28.506,0,0,1-2.888-.156l.078-1.474c.032-.133.064-.265.1-.4a27.286,27.286,0,0,0,2.75.146A19.744,19.744,0,0,0,14,69.217a.931.931,0,1,1,.686,1.73" transform="translate(13.415 247.3)" fill="#007ded"/>
    <path id="Trazado_1015841" data-name="Trazado 1015841" d="M34.355,120.816c0,.137,0,.27,0,.4-.014.6-.041,1.149-.069,1.615-.059,1.025-.133,1.657-.133,1.657H.087a18.511,18.511,0,0,1-.037-3.272c.22-3.478,1.377-8.979,6.082-12.608,6.439-4.979,3.954-3.94,5.272-6.21.151-.252,1.309-4.11,1.432-4.375,1.107-2.357,2.128-3.469,8.228-3.469,8.1,0,8.8,3.926,9.67,5.995a37.86,37.86,0,0,1,1.345,4.805c.206.865.412,1.78.609,2.718.5,2.348.966,4.8,1.286,6.755a35.436,35.436,0,0,1,.38,5.99" transform="translate(0 338.148)" fill="#3e4870"/>
    <path id="Trazado_1015842" data-name="Trazado 1015842" d="M10.883,112.4c0,.137,0,.27,0,.4-.014.6-.041,1.149-.069,1.615a9.565,9.565,0,0,1-3.537-4.586C5.167,104.085,8.407,97.2,8.544,96.9l.064.032c.206.865.412,1.78.609,2.718C8.453,102,7.57,105.939,8.8,109.275a7.89,7.89,0,0,0,2.087,3.126" transform="translate(23.472 346.563)" fill="#007ded"/>
    <path id="Trazado_1015843" data-name="Trazado 1015843" d="M34.349,100.378c-.046,1.94-.2,3.272-.2,3.272H.086a19.073,19.073,0,0,1-.037-3.272Z" transform="translate(0.001 358.984)" fill="#007ded"/>
    <path id="Trazado_1015844" data-name="Trazado 1015844" d="M12.172,98.843a.884.884,0,0,1-.243-.032,16.8,16.8,0,0,0-7.9-.16.971.971,0,0,1-.517-1.872,18.654,18.654,0,0,1,8.9.151.972.972,0,0,1-.243,1.913" transform="translate(10.019 344.475)" fill="#007ded"/>
    <path id="Trazado_1015845" data-name="Trazado 1015845" d="M12.294,97.985a.861.861,0,0,1-.243-.032,16.8,16.8,0,0,0-7.9-.16.971.971,0,0,1-.517-1.872,18.654,18.654,0,0,1,8.9.151.972.972,0,0,1-.243,1.913" transform="translate(10.455 341.406)" fill="#007ded"/>
    <path id="Trazado_1015846" data-name="Trazado 1015846" d="M11.853,99.515a.861.861,0,0,1-.243-.032,17.045,17.045,0,0,0-7.9-.16.971.971,0,0,1-.517-1.872,18.653,18.653,0,0,1,8.9.151.972.972,0,0,1-.243,1.913" transform="translate(8.878 346.878)" fill="#007ded"/>
    <path id="Trazado_1015847" data-name="Trazado 1015847" d="M11.479,100.28a.861.861,0,0,1-.243-.032,17.045,17.045,0,0,0-7.9-.16.971.971,0,0,1-.517-1.872,18.654,18.654,0,0,1,8.9.151.972.972,0,0,1-.243,1.913" transform="translate(7.54 349.614)" fill="#007ded"/>
    <path id="Trazado_1015848" data-name="Trazado 1015848" d="M7.278,247.2a.828.828,0,0,1-.183-.018.933.933,0,0,1-.732-1.1c.092-.448,9.038-44.907,11.491-58.577,2.444-13.615,3.473-49.342,3.483-49.7a.945.945,0,0,1,.082-.352c5.807-12.992,32.382-85.7,32.652-86.428a.931.931,0,1,1,1.748.641c-.265.732-26.643,72.883-32.625,86.378-.087,2.814-1.13,36.556-3.505,49.795C17.231,201.525,8.28,246,8.188,246.451a.929.929,0,0,1-.911.746" transform="translate(22.688 180.273)" fill="#007ded"/>
    <path id="Trazado_1015849" data-name="Trazado 1015849" d="M18.892,92.231l.307,17.12,16.026.3.087-16.1Z" transform="translate(67.563 329.848)" fill="#f2c9ad"/>
    <path id="Trazado_1015850" data-name="Trazado 1015850" d="M75.939,123.472l-57.177-.613a8.024,8.024,0,0,1-.718-3.181c-.307-4.842,1.318-12.544,2.128-17.4.1-.567.178-1.1.247-1.574a16.671,16.671,0,0,0,.192-1.986c.041-3.972,3.551-3.254,3.551-3.254,5.725,5.734,12.365-2.7,16.164.128,0,0,1.634,1.2,6.128,5.331s12.187,6.91,18.731,9.729c8.448,3.638,10.814,7.208,11.258,9.651a4.46,4.46,0,0,1-.5,3.171" transform="translate(64.394 339.711)" fill="#3e4870"/>
    <path id="Trazado_1015851" data-name="Trazado 1015851" d="M75.909,104.178l-57.177-.613a8.024,8.024,0,0,1-.718-3.181l58.4.622a4.461,4.461,0,0,1-.5,3.171" transform="translate(64.424 359.006)" fill="#007ded"/>
    <path id="Trazado_1015852" data-name="Trazado 1015852" d="M22.9,118.46l-1.7-.018a12.554,12.554,0,0,0,3.171-9.121,16.123,16.123,0,0,0-5.9-11.509c.1-.567.183-1.1.247-1.574a17.508,17.508,0,0,1,7.011,13.029A13.873,13.873,0,0,1,22.9,118.46" transform="translate(66.087 344.174)" fill="#007ded"/>
    <path id="Trazado_1015853" data-name="Trazado 1015853" d="M24.731,99.157a.942.942,0,0,1-.206-1.858l3.579-.851a.943.943,0,1,1,.435,1.835l-3.579.847a1.008,1.008,0,0,1-.229.027" transform="translate(85.115 344.838)" fill="#007ded"/>
    <path id="Trazado_1015854" data-name="Trazado 1015854" d="M23.875,98.474a.942.942,0,0,1-.206-1.858l3.579-.851a.943.943,0,1,1,.435,1.835l-3.579.847a1.008,1.008,0,0,1-.229.027" transform="translate(82.053 342.395)" fill="#007ded"/>
    <path id="Trazado_1015855" data-name="Trazado 1015855" d="M25.506,99.619a.942.942,0,0,1-.206-1.858l3.579-.851a.943.943,0,0,1,.435,1.835l-3.579.847a1.006,1.006,0,0,1-.229.027" transform="translate(87.886 346.49)" fill="#007ded"/>
    <path id="Trazado_1015856" data-name="Trazado 1015856" d="M26.282,100.063a.942.942,0,0,1-.206-1.858l3.579-.851a.943.943,0,0,1,.435,1.835l-3.579.847a1.007,1.007,0,0,1-.229.027" transform="translate(90.661 348.078)" fill="#007ded"/>
    <path id="Trazado_1015857" data-name="Trazado 1015857" d="M27.129,100.476a.942.942,0,0,1-.206-1.858l3.579-.851a.943.943,0,0,1,.435,1.835l-3.579.847a1.008,1.008,0,0,1-.229.027" transform="translate(93.691 349.555)" fill="#007ded"/>
    <path id="Trazado_1015858" data-name="Trazado 1015858" d="M28.048,100.829a.942.942,0,0,1-.206-1.858l3.579-.851a.943.943,0,0,1,.435,1.835l-3.579.847a1,1,0,0,1-.229.027" transform="translate(96.977 350.817)" fill="#007ded"/>
    <path id="Trazado_1015859" data-name="Trazado 1015859" d="M62.214,46.773,62.2,48.5c-.009,1.359-.027,2.714-.041,4.064,0,.7-.014,1.4-.023,2.091,0,.1,0,.192,0,.288,0,.641-.009,1.281-.018,1.922-.5,41.873-1.977,80.136-4.988,107.594v.014l-.334,1.881L39.927,261.315l-21.7-1.831s.787-75.189,5.565-92.35L23.7,61.888l-.009-15.152,29.247,3.08,1.826-.6,1.075-.352,1.785-.586Z" transform="translate(65.182 167.143)" fill="#5dabff"/>
    <path id="Trazado_1015860" data-name="Trazado 1015860" d="M38.532,75.166v.014L38.2,77.061c-.339.018-.673.023-1.007.023a28.814,28.814,0,0,1-13.313-3.647.933.933,0,1,1,.956-1.6c.1.064,6.562,3.812,13.7,3.332" transform="translate(83.774 256.438)" fill="#007ded"/>
    <path id="Trazado_1015861" data-name="Trazado 1015861" d="M19.8,241.52l.11,0a.905.905,0,0,0,.9-.911c-.5-63.4,7.441-88.515,7.519-88.762a.939.939,0,0,0,.046-.3L26.8,51a.909.909,0,0,0-1.817.032l1.583,100.4c-.664,2.187-8.05,27.984-7.56,89.188a.9.9,0,0,0,.8.892" transform="translate(67.875 179.213)" fill="#007ded"/>
    <path id="Trazado_1015862" data-name="Trazado 1015862" d="M91.055,80.68c-6.558,4.38-21.486,7.94-36.606,9.629-1.849.206-3.707.384-5.551.531-17.541,1.428-33.97.128-36.286-5.546-.288-.7-.554-1.442-.792-2.22L11.8,83.01q-.261-.851-.481-1.744c-.27-1.071-.49-2.178-.682-3.309-.114-.659-.215-1.332-.3-2C10.2,74.91,10.09,73.852,10,72.8l-.027-.3c-.1-1.2-.165-2.389-.211-3.56-.142-3.487-.078-6.773.032-9.349.146-3.277.371-5.414.371-5.414L84.1,38.656s2.293,6.627,4.512,14.64c.718,2.609,1.432,5.368,2.059,8.086a86.39,86.39,0,0,1,1.876,10.8c.064.677.11,1.336.133,1.963.124,3.254-.311,5.661-1.625,6.535" transform="translate(34.616 138.246)" fill="#5dabff"/>
    <path id="Trazado_1015863" data-name="Trazado 1015863" d="M40.393,64.273a1.871,1.871,0,0,1-.2-.059,17.789,17.789,0,0,1-3.862-1.872c-.325-.211-.641-.43-.952-.659a21.314,21.314,0,0,1-3.208-2.9c-5.981-6.562-7.771-15.83-7.853-16.3a.906.906,0,1,1,1.78-.334c.023.11,1.849,9.587,7.821,15.829a19.271,19.271,0,0,0,2.92,2.517c.156.105.316.211.476.316a15.955,15.955,0,0,0,2.952,1.492c.059.682.105,1.336.128,1.963" transform="translate(86.902 148.118)" fill="#007ded"/>
    <path id="Trazado_1015864" data-name="Trazado 1015864" d="M24.506,44.522a40.063,40.063,0,0,1-4.238,9.619,21.977,21.977,0,0,1-7.07,7.432c-.348.21-.7.4-1.066.581a12.917,12.917,0,0,1-3.149,1.089c.211-.718.412-1.409.609-2.078a11.212,11.212,0,0,0,1.721-.682,13.15,13.15,0,0,0,1.57-.92,20.8,20.8,0,0,0,5.725-6.3,39.223,39.223,0,0,0,4.1-9.226.934.934,0,0,1,1.8.485" transform="translate(32.126 155.029)" fill="#007ded"/>
    <path id="Trazado_1015865" data-name="Trazado 1015865" d="M24.563,80.007a.746.746,0,0,1-.714.764h0a.741.741,0,0,1-.792-.691c-.133-2.732-.293-5.533-.471-8.329-.027-.494-.059-.984-.1-1.478-.59-9.134-1.345-18.109-1.917-24.442-.046-.513-.092-1.007-.133-1.483-.128-1.391-.243-2.622-.343-3.67.5-.078,1-.156,1.5-.243.1,1.048.215,2.288.343,3.693.046.481.087.975.137,1.487.563,6.279,1.313,15.171,1.908,24.255l.1,1.506c.183,2.9.352,5.8.49,8.631" transform="translate(71.855 144.612)" fill="#007ded"/>
    <path id="Trazado_1015866" data-name="Trazado 1015866" d="M31.518,69.657a19.782,19.782,0,0,1-2.641,1.011c-.471.142-.975.275-1.492.375a10.959,10.959,0,0,1-1.432.188,5.233,5.233,0,0,1-2.535-.4A3.091,3.091,0,0,1,21.7,68.527c-.549-2.819-1.7-14.461-2.48-22.694-.05-.5-.1-1-.142-1.478-.124-1.318-.233-2.517-.325-3.533.5-.059,1-.124,1.5-.188.1,1.025.206,2.233.334,3.57.046.476.092.97.137,1.478.778,8.215,1.927,19.838,2.462,22.57a1.62,1.62,0,0,0,.911,1.277,5.348,5.348,0,0,0,3.194.041c.508-.11,1.016-.256,1.487-.407a17.058,17.058,0,0,0,2.073-.815.766.766,0,0,1,1.011.33.718.718,0,0,1-.343.979" transform="translate(67.056 145.32)" fill="#007ded"/>
    <path id="Trazado_1015867" data-name="Trazado 1015867" d="M24.255,55.13a7.52,7.52,0,1,1-8.942-5.762,7.516,7.516,0,0,1,8.942,5.762" transform="translate(33.562 175.942)" fill="#21255c"/>
    <rect id="Rectángulo_419861" data-name="Rectángulo 419861" width="13.219" height="223.779" transform="translate(95.218 222.971) rotate(-12.232)" fill="#21255c"/>
    <rect id="Rectángulo_419862" data-name="Rectángulo 419862" width="135.366" height="16.407" transform="matrix(0.977, -0.212, 0.212, 0.977, 142.478, 424.913)" fill="#21255c"/>
    <path id="Trazado_1015868" data-name="Trazado 1015868" d="M72.63,108.915a19.6,19.6,0,1,1-23.3-15,19.6,19.6,0,0,1,23.3,15" transform="translate(121.145 334.261)" fill="#495375"/>
    <path id="Trazado_1015869" data-name="Trazado 1015869" d="M53.786,102.81a8.885,8.885,0,1,1-10.567-6.8,8.885,8.885,0,0,1,10.567,6.8" transform="translate(129.519 342.635)" fill="#f4d071"/>
    <path id="Trazado_1015870" data-name="Trazado 1015870" d="M91.076,104.919a19.6,19.6,0,1,1-23.3-15,19.6,19.6,0,0,1,23.3,15" transform="translate(187.109 319.97)" fill="#495375"/>
    <path id="Trazado_1015871" data-name="Trazado 1015871" d="M72.234,98.815a8.887,8.887,0,1,1-10.567-6.8,8.883,8.883,0,0,1,10.567,6.8" transform="translate(195.48 328.344)" fill="#f4d071"/>
    <rect id="Rectángulo_419863" data-name="Rectángulo 419863" width="59.021" height="15.04" transform="translate(48.875 225.314) rotate(-12.225)" fill="#21255c"/>
    <path id="Trazado_1015872" data-name="Trazado 1015872" d="M74.852,93.014A8.2,8.2,0,1,1,65.1,86.735a8.2,8.2,0,0,1,9.752,6.279" transform="translate(209.676 309.52)" fill="#21255c"/>
    <rect id="Rectángulo_419864" data-name="Rectángulo 419864" width="94.839" height="115.887" transform="translate(163.365 301.813) rotate(-12.224)" fill="#f4d071"/>
    <rect id="Rectángulo_419865" data-name="Rectángulo 419865" width="20.654" height="36.273" transform="matrix(0.977, -0.212, 0.212, 0.977, 203.473, 293.123)" fill="#fbeed1"/>
    <rect id="Rectángulo_419866" data-name="Rectángulo 419866" width="37.39" height="115.887" transform="translate(126.823 309.728) rotate(-12.225)" fill="#eca85e"/>
    <rect id="Rectángulo_419867" data-name="Rectángulo 419867" width="72.443" height="72.874" transform="translate(170.229 227.732) rotate(-12.225)" fill="#f4d071"/>
    <rect id="Rectángulo_419868" data-name="Rectángulo 419868" width="20.654" height="36.273" transform="matrix(0.977, -0.212, 0.212, 0.977, 198.736, 221.555)" fill="#fbeed1"/>
    <rect id="Rectángulo_419869" data-name="Rectángulo 419869" width="59.784" height="72.873" transform="matrix(0.977, -0.212, 0.212, 0.977, 111.802, 240.389)" fill="#eca85e"/>
    <rect id="Rectángulo_419870" data-name="Rectángulo 419870" width="58.761" height="59.112" transform="matrix(0.977, -0.212, 0.212, 0.977, 106.098, 181.717)" fill="#f4d071"/>
    <rect id="Rectángulo_419871" data-name="Rectángulo 419871" width="16.752" height="29.42" transform="translate(124.032 177.833) rotate(-12.222)" fill="#fbeed1"/>
    <rect id="Rectángulo_419872" data-name="Rectángulo 419872" width="48.492" height="59.112" transform="translate(163.528 169.276) rotate(-12.226)" fill="#eca85e"/>
    <path id="Trazado_1015873" data-name="Trazado 1015873" d="M27.662,45.383s8.2,3.231,11.363,6.878a5.05,5.05,0,0,1,.293,6.823s5.3,7.331,4.361,10.077a3.1,3.1,0,0,1-3.753,2s.275,2.087-.888,2.97-3.881-.206-3.881-.206-.3,2.819-1.748,3.505-3.492-.531-3.492-.531-1.8,3.588-4.155,2.549c-5.409-2.38-14.919-21.738-14.919-21.738s8.988-9.253,16.818-12.333" transform="translate(38.782 162.304)" fill="#f2c9ad"/>
    <path id="Trazado_1015874" data-name="Trazado 1015874" d="M22.077,53.822a.568.568,0,0,1-.572-.133c-2.682-2.631-5.7-5.853-5.73-5.885a.567.567,0,0,1,.828-.773c.027.032,3.03,3.235,5.7,5.849a.569.569,0,0,1,0,.8.549.549,0,0,1-.229.142" transform="translate(55.871 167.553)" fill="#ef9f6a"/>
    <path id="Trazado_1015875" data-name="Trazado 1015875" d="M38.825,24.67,27.448,16.854l-.458.686-.371.563-.691,1.08c-.444.709-.874,1.41-1.3,2.11-.842,1.4-1.638,2.8-2.416,4.206q-2.32,4.215-4.384,8.512c-1.382,2.869-2.654,5.789-3.862,8.745s-2.32,5.958-3.341,9S8.672,57.89,7.843,61.025,6.3,67.335,5.706,70.562A112.681,112.681,0,0,0,3.743,90.35c-.014,1.684.009,3.373.082,5.061l.055,1.277.078,1.094.027.275.027.247.059.494c.078.677.183,1.24.284,1.849l.165.833c.059.279.119.558.178.81a54.979,54.979,0,0,0,1.643,5.583c.59,1.693,1.213,3.277,1.853,4.81,1.277,3.062,2.645,5.922,4.045,8.713s2.837,5.5,4.325,8.15,2.988,5.272,4.521,7.858,3.1,5.135,4.686,7.665,3.213,5.029,4.851,7.523l2.476,3.725,1.263,1.853,1.309,1.895,19.614-12.342-2-3.684-2.027-3.753c-1.345-2.5-2.659-5.029-3.963-7.546s-2.59-5.043-3.844-7.565-2.485-5.043-3.666-7.56-2.325-5.02-3.382-7.51-2.036-4.952-2.879-7.308c-.416-1.176-.8-2.325-1.1-3.4a26.068,26.068,0,0,1-.664-2.828c-.018-.105-.027-.183-.037-.261l-.032-.238a2.761,2.761,0,0,1-.009-.316v-.069h0l.014,0v-.906c0-1.217.041-2.439.1-3.666a90.3,90.3,0,0,1,2.114-14.836,118.457,118.457,0,0,1,4.416-14.814,146.314,146.314,0,0,1,6.251-14.443c.787-1.593-1.826-2.984-.984-4.54-2.5-5.981-1.867-12.017-4.773-17.816" transform="translate(13.372 60.275)" fill="#fff"/>
    <path id="Trazado_1015876" data-name="Trazado 1015876" d="M15.523,46.7a1.66,1.66,0,1,1-1.991-1.245A1.661,1.661,0,0,1,15.523,46.7" transform="translate(43.791 162.4)" fill="#c9dff4"/>
    <path id="Trazado_1015877" data-name="Trazado 1015877" d="M10.409,57.034a.71.71,0,0,1-.622-1.258c.11-.073,10.658-7.345,19.6-12.15a.707.707,0,1,1,.673,1.245c-8.873,4.773-19.362,12-19.463,12.072a.789.789,0,0,1-.188.092" transform="translate(33.908 155.71)" fill="#c9dff4"/>
    <path id="Trazado_1015878" data-name="Trazado 1015878" d="M18.176,53.038a.713.713,0,0,1-.833-.32L12.991,45.13a.706.706,0,0,1,.261-.966.714.714,0,0,1,.97.261l4.352,7.583a.714.714,0,0,1-.261.97.889.889,0,0,1-.137.059" transform="translate(46.121 157.614)" fill="#c9dff4"/>
    <path id="Trazado_1015879" data-name="Trazado 1015879" d="M19.646,35.767a.675.675,0,0,1-.27.032,49.5,49.5,0,0,0-11.459.618.708.708,0,0,1-.265-1.391,49.912,49.912,0,0,1,11.83-.641.709.709,0,0,1,.165,1.382" transform="translate(25.307 122.555)" fill="#c9dff4"/>
    <path id="Trazado_1015880" data-name="Trazado 1015880" d="M14.907,38.221a.711.711,0,0,1-.691-.146,35.346,35.346,0,0,0-5.5-3.231.709.709,0,1,1,.618-1.277,35.438,35.438,0,0,1,5.826,3.455.711.711,0,0,1-.256,1.2" transform="translate(29.754 119.795)" fill="#c9dff4"/>
  </g>
</svg>
