<svg xmlns="http://www.w3.org/2000/svg" width="85" height="85" viewBox="0 0 85 85">
  <g id="Grupo_1159344" data-name="Grupo 1159344" transform="translate(-284.975 -2051.143)">
    <circle id="Elipse_12655" data-name="Elipse 12655" cx="42.5" cy="42.5" r="42.5" transform="translate(284.975 2051.143)" fill="#e3e230"/>
    <g id="aprobado" transform="translate(313.705 2070.594)">
      <path id="Trazado_1013381" data-name="Trazado 1013381" d="M19.29.325,19.28.314A1.035,1.035,0,0,0,18.526,0a.41.41,0,0,0-.115.011H1.525A5.449,5.449,0,0,0-3.922,5.457V40.651A5.45,5.45,0,0,0,1.525,46.1h24.49a5.449,5.449,0,0,0,5.447-5.447V12.9a1.081,1.081,0,0,0-.3-.744Zm.283,3.236,8.338,8.317H22.925a3.361,3.361,0,0,1-3.352-3.352Zm6.442,40.421H1.525A3.362,3.362,0,0,1-1.827,40.63V5.436A3.363,3.363,0,0,1,1.525,2.084H17.478V8.526a5.45,5.45,0,0,0,5.447,5.447h6.442V40.63a3.355,3.355,0,0,1-3.352,3.352Zm0,0" transform="translate(0 0)" fill="#89821e"/>
      <path id="Trazado_1013382" data-name="Trazado 1013382" d="M111.855,264.135l-9.951,9.511L96.562,268.3a1.044,1.044,0,0,0-1.477,1.477l6.065,6.065a1.029,1.029,0,0,0,.744.3,1.014,1.014,0,0,0,.723-.293l10.695-10.213a1.043,1.043,0,0,0,.031-1.477,1.056,1.056,0,0,0-1.488-.031Zm0,0" transform="translate(-90.428 -241.731)" fill="#89821e"/>
    </g>
  </g>
</svg>
