<svg xmlns="http://www.w3.org/2000/svg" xmlns:xlink="http://www.w3.org/1999/xlink" width="144.359" height="131.164" viewBox="0 0 144.359 131.164">
  <defs>
    <filter id="Trazado_1000475" x="6.597" y="0" width="131.164" height="131.164" filterUnits="userSpaceOnUse">
      <feOffset dy="3" input="SourceAlpha"/>
      <feGaussianBlur stdDeviation="3" result="blur"/>
      <feFlood flood-opacity="0.412"/>
      <feComposite operator="in" in2="blur"/>
    </filter>
    <filter id="Trazado_1000475-2" x="6.597" y="0" width="131.164" height="131.164" filterUnits="userSpaceOnUse">
      <feOffset dy="3" input="SourceAlpha"/>
      <feGaussianBlur stdDeviation="3" result="blur-2"/>
      <feFlood flood-opacity="0.161" result="color"/>
      <feComposite operator="out" in="SourceGraphic" in2="blur-2"/>
      <feComposite operator="in" in="color"/>
      <feComposite operator="in" in2="SourceGraphic"/>
    </filter>
    <clipPath id="clip-path">
      <rect id="Rect치ngulo_419912" data-name="Rect치ngulo 419912" width="144.359" height="61.345" fill="none"/>
    </clipPath>
  </defs>
  <g id="Grupo_1162060" data-name="Grupo 1162060" transform="translate(-1054.238 -2565.73)">
    <g data-type="innerShadowGroup">
      <g transform="matrix(1, 0, 0, 1, 1054.24, 2565.73)" filter="url(#Trazado_1000475)">
        <g id="Trazado_1000475-3" data-name="Trazado 1000475" transform="translate(15.6 6)" fill="#f2f5f4" opacity="0.9">
          <path d="M 56.58214950561523 111.6642456054688 C 49.14544296264648 111.6642456054688 41.93198013305664 110.2080917358398 35.14215087890625 107.3362274169922 C 31.87862586975098 105.9558792114258 28.73084259033203 104.2473068237305 25.78624153137207 102.2579727172852 C 22.86922645568848 100.2872772216797 20.12613487243652 98.02401733398438 17.63318061828613 95.53105926513672 C 15.14022636413574 93.03810882568359 12.8769645690918 90.29502868652344 10.90627288818359 87.37801361083984 C 8.916934013366699 84.43340301513672 7.208364963531494 81.28562927246094 5.828011035919189 78.02210998535156 C 2.956149578094482 71.23227691650391 1.499995708465576 64.01881408691406 1.499995708465576 56.58212280273438 C 1.499995708465576 49.14541625976562 2.956149578094482 41.93196868896484 5.828011035919189 35.14213943481445 C 7.208364963531494 31.87861442565918 8.916934013366699 28.73083114624023 10.90627288818359 25.78623008728027 C 12.8769645690918 22.86921501159668 15.14022636413574 20.12613868713379 17.63318061828613 17.6331844329834 C 20.12613487243652 15.14023017883301 22.86922645568848 12.87696933746338 25.78624153137207 10.90627670288086 C 28.73084259033203 8.916937828063965 31.87862586975098 7.20836877822876 35.14215087890625 5.828015327453613 C 41.93198013305664 2.956153631210327 49.14544296264648 1.499999761581421 56.58214950561523 1.499999761581421 C 64.01885986328125 1.499999761581421 71.2322998046875 2.956153631210327 78.02214813232422 5.828015327453613 C 81.28565979003906 7.20836877822876 84.43344116210938 8.916937828063965 87.37805938720703 10.90627670288086 C 90.29507446289062 12.87696933746338 93.03814697265625 15.14023017883301 95.53110504150391 17.6331844329834 C 98.02405548095703 20.12613868713379 100.2873153686523 22.86921501159668 102.2580261230469 25.78623008728027 C 104.2473678588867 28.73083114624023 105.9559326171875 31.87861442565918 107.3362884521484 35.14213943481445 C 110.2081527709961 41.93196868896484 111.664306640625 49.14541625976562 111.664306640625 56.58212280273438 C 111.664306640625 64.01881408691406 110.2081527709961 71.23227691650391 107.3362884521484 78.02210998535156 C 105.9559326171875 81.28562927246094 104.2473678588867 84.43340301513672 102.2580261230469 87.37801361083984 C 100.2873153686523 90.29502868652344 98.02405548095703 93.03810882568359 95.53110504150391 95.53105926513672 C 93.03814697265625 98.02401733398438 90.29507446289062 100.2872772216797 87.37805938720703 102.2579727172852 C 84.43344116210938 104.2473068237305 81.28565979003906 105.9558792114258 78.02214813232422 107.3362274169922 C 71.2322998046875 110.2080917358398 64.01885986328125 111.6642456054688 56.58214950561523 111.6642456054688 Z" stroke="none"/>
          <path d="M 56.58214950561523 3.000007629394531 C 49.34728240966797 3.000007629394531 42.33041381835938 4.416290283203125 35.72648620605469 7.209526062011719 C 32.55214691162109 8.552139282226562 29.49030303955078 10.21408843994141 26.62594604492188 12.14920806884766 C 23.78803253173828 14.06645965576172 21.11930084228516 16.26838684082031 18.69384765625 18.69384002685547 C 16.26840209960938 21.11929321289062 14.06646728515625 23.78802490234375 12.14921569824219 26.62593841552734 C 10.21409606933594 29.49028778076172 8.552131652832031 32.55213928222656 7.209518432617188 35.72645568847656 C 4.416282653808594 42.33040618896484 3 49.34725570678711 3 56.58212280273438 C 3 63.81698989868164 4.416282653808594 70.83383941650391 7.209518432617188 77.43777465820312 C 8.552131652832031 80.61209106445312 10.21409606933594 83.67395782470703 12.14921569824219 86.53830718994141 C 14.06646728515625 89.37620544433594 16.26840209960938 92.04495239257812 18.69384765625 94.47040557861328 C 21.11930084228516 96.89584350585938 23.78803253173828 99.09777069091797 26.62594604492188 101.015022277832 C 29.49030303955078 102.9501419067383 32.55216979980469 104.6121063232422 35.72648620605469 105.954719543457 C 42.33041381835938 108.7479553222656 49.34728240966797 110.1642379760742 56.58214950561523 110.1642379760742 C 63.8170166015625 110.1642379760742 70.8338623046875 108.7479553222656 77.43782043457031 105.954719543457 C 80.61213684082031 104.6121063232422 83.67399597167969 102.9501419067383 86.53834533691406 101.015022277832 C 89.37625122070312 99.09777069091797 92.04499816894531 96.89584350585938 94.47045135498047 94.47039031982422 C 96.89589691162109 92.04495239257812 99.09783172607422 89.37620544433594 101.0150833129883 86.53830718994141 C 102.9501953125 83.67395782470703 104.6121520996094 80.61209106445312 105.9547805786133 77.43777465820312 C 108.7480163574219 70.83383941650391 110.1642990112305 63.81698989868164 110.1642990112305 56.58212280273438 C 110.1642990112305 49.34725570678711 108.7480163574219 42.33040618896484 105.9547805786133 35.72645568847656 C 104.6121520996094 32.55213928222656 102.9501953125 29.49028778076172 101.0150833129883 26.62593841552734 C 99.09783172607422 23.78804016113281 96.89589691162109 21.11929321289062 94.47045135498047 18.69384002685547 C 92.04499816894531 16.26838684082031 89.37625122070312 14.06645965576172 86.53834533691406 12.14920806884766 C 83.67399597167969 10.21408843994141 80.61213684082031 8.552139282226562 77.43782043457031 7.209526062011719 C 70.8338623046875 4.416290283203125 63.8170166015625 3.000007629394531 56.58214950561523 3.000007629394531 M 56.58214950561523 7.62939453125e-06 C 87.83160400390625 7.62939453125e-06 113.1642990112305 25.33267211914062 113.1642990112305 56.58212280273438 C 113.1642990112305 87.83155822753906 87.83160400390625 113.1642379760742 56.58214950561523 113.1642379760742 C 25.33267974853516 113.1642379760742 0 87.83155822753906 0 56.58212280273438 C 0 25.33267211914062 25.33267974853516 7.62939453125e-06 56.58214950561523 7.62939453125e-06 Z" stroke="none" fill="#fff"/>
        </g>
      </g>
      <g id="Trazado_1000475-4" data-name="Trazado 1000475" transform="translate(1069.836 2571.73)" fill="#f2f5f4" opacity="0.9">
        <path d="M 56.58214950561523 111.6642456054688 C 49.14544296264648 111.6642456054688 41.93198013305664 110.2080917358398 35.14215087890625 107.3362274169922 C 31.87862586975098 105.9558792114258 28.73084259033203 104.2473068237305 25.78624153137207 102.2579727172852 C 22.86922645568848 100.2872772216797 20.12613487243652 98.02401733398438 17.63318061828613 95.53105926513672 C 15.14022636413574 93.03810882568359 12.8769645690918 90.29502868652344 10.90627288818359 87.37801361083984 C 8.916934013366699 84.43340301513672 7.208364963531494 81.28562927246094 5.828011035919189 78.02210998535156 C 2.956149578094482 71.23227691650391 1.499995708465576 64.01881408691406 1.499995708465576 56.58212280273438 C 1.499995708465576 49.14541625976562 2.956149578094482 41.93196868896484 5.828011035919189 35.14213943481445 C 7.208364963531494 31.87861442565918 8.916934013366699 28.73083114624023 10.90627288818359 25.78623008728027 C 12.8769645690918 22.86921501159668 15.14022636413574 20.12613868713379 17.63318061828613 17.6331844329834 C 20.12613487243652 15.14023017883301 22.86922645568848 12.87696933746338 25.78624153137207 10.90627670288086 C 28.73084259033203 8.916937828063965 31.87862586975098 7.20836877822876 35.14215087890625 5.828015327453613 C 41.93198013305664 2.956153631210327 49.14544296264648 1.499999761581421 56.58214950561523 1.499999761581421 C 64.01885986328125 1.499999761581421 71.2322998046875 2.956153631210327 78.02214813232422 5.828015327453613 C 81.28565979003906 7.20836877822876 84.43344116210938 8.916937828063965 87.37805938720703 10.90627670288086 C 90.29507446289062 12.87696933746338 93.03814697265625 15.14023017883301 95.53110504150391 17.6331844329834 C 98.02405548095703 20.12613868713379 100.2873153686523 22.86921501159668 102.2580261230469 25.78623008728027 C 104.2473678588867 28.73083114624023 105.9559326171875 31.87861442565918 107.3362884521484 35.14213943481445 C 110.2081527709961 41.93196868896484 111.664306640625 49.14541625976562 111.664306640625 56.58212280273438 C 111.664306640625 64.01881408691406 110.2081527709961 71.23227691650391 107.3362884521484 78.02210998535156 C 105.9559326171875 81.28562927246094 104.2473678588867 84.43340301513672 102.2580261230469 87.37801361083984 C 100.2873153686523 90.29502868652344 98.02405548095703 93.03810882568359 95.53110504150391 95.53105926513672 C 93.03814697265625 98.02401733398438 90.29507446289062 100.2872772216797 87.37805938720703 102.2579727172852 C 84.43344116210938 104.2473068237305 81.28565979003906 105.9558792114258 78.02214813232422 107.3362274169922 C 71.2322998046875 110.2080917358398 64.01885986328125 111.6642456054688 56.58214950561523 111.6642456054688 Z" stroke="none"/>
        <path d="M 56.58214950561523 3.000007629394531 C 49.34728240966797 3.000007629394531 42.33041381835938 4.416290283203125 35.72648620605469 7.209526062011719 C 32.55214691162109 8.552139282226562 29.49030303955078 10.21408843994141 26.62594604492188 12.14920806884766 C 23.78803253173828 14.06645965576172 21.11930084228516 16.26838684082031 18.69384765625 18.69384002685547 C 16.26840209960938 21.11929321289062 14.06646728515625 23.78802490234375 12.14921569824219 26.62593841552734 C 10.21409606933594 29.49028778076172 8.552131652832031 32.55213928222656 7.209518432617188 35.72645568847656 C 4.416282653808594 42.33040618896484 3 49.34725570678711 3 56.58212280273438 C 3 63.81698989868164 4.416282653808594 70.83383941650391 7.209518432617188 77.43777465820312 C 8.552131652832031 80.61209106445312 10.21409606933594 83.67395782470703 12.14921569824219 86.53830718994141 C 14.06646728515625 89.37620544433594 16.26840209960938 92.04495239257812 18.69384765625 94.47040557861328 C 21.11930084228516 96.89584350585938 23.78803253173828 99.09777069091797 26.62594604492188 101.015022277832 C 29.49030303955078 102.9501419067383 32.55216979980469 104.6121063232422 35.72648620605469 105.954719543457 C 42.33041381835938 108.7479553222656 49.34728240966797 110.1642379760742 56.58214950561523 110.1642379760742 C 63.8170166015625 110.1642379760742 70.8338623046875 108.7479553222656 77.43782043457031 105.954719543457 C 80.61213684082031 104.6121063232422 83.67399597167969 102.9501419067383 86.53834533691406 101.015022277832 C 89.37625122070312 99.09777069091797 92.04499816894531 96.89584350585938 94.47045135498047 94.47039031982422 C 96.89589691162109 92.04495239257812 99.09783172607422 89.37620544433594 101.0150833129883 86.53830718994141 C 102.9501953125 83.67395782470703 104.6121520996094 80.61209106445312 105.9547805786133 77.43777465820312 C 108.7480163574219 70.83383941650391 110.1642990112305 63.81698989868164 110.1642990112305 56.58212280273438 C 110.1642990112305 49.34725570678711 108.7480163574219 42.33040618896484 105.9547805786133 35.72645568847656 C 104.6121520996094 32.55213928222656 102.9501953125 29.49028778076172 101.0150833129883 26.62593841552734 C 99.09783172607422 23.78804016113281 96.89589691162109 21.11929321289062 94.47045135498047 18.69384002685547 C 92.04499816894531 16.26838684082031 89.37625122070312 14.06645965576172 86.53834533691406 12.14920806884766 C 83.67399597167969 10.21408843994141 80.61213684082031 8.552139282226562 77.43782043457031 7.209526062011719 C 70.8338623046875 4.416290283203125 63.8170166015625 3.000007629394531 56.58214950561523 3.000007629394531 M 56.58214950561523 7.62939453125e-06 C 87.83160400390625 7.62939453125e-06 113.1642990112305 25.33267211914062 113.1642990112305 56.58212280273438 C 113.1642990112305 87.83155822753906 87.83160400390625 113.1642379760742 56.58214950561523 113.1642379760742 C 25.33267974853516 113.1642379760742 0 87.83155822753906 0 56.58212280273438 C 0 25.33267211914062 25.33267974853516 7.62939453125e-06 56.58214950561523 7.62939453125e-06 Z" stroke="none"/>
      </g>
      <g transform="matrix(1, 0, 0, 1, 1054.24, 2565.73)" filter="url(#Trazado_1000475-2)">
        <g id="Trazado_1000475-5" data-name="Trazado 1000475" transform="translate(15.6 6)" fill="#fff" opacity="0.9">
          <path d="M 56.58214950561523 111.6642456054688 C 49.14544296264648 111.6642456054688 41.93198013305664 110.2080917358398 35.14215087890625 107.3362274169922 C 31.87862586975098 105.9558792114258 28.73084259033203 104.2473068237305 25.78624153137207 102.2579727172852 C 22.86922645568848 100.2872772216797 20.12613487243652 98.02401733398438 17.63318061828613 95.53105926513672 C 15.14022636413574 93.03810882568359 12.8769645690918 90.29502868652344 10.90627288818359 87.37801361083984 C 8.916934013366699 84.43340301513672 7.208364963531494 81.28562927246094 5.828011035919189 78.02210998535156 C 2.956149578094482 71.23227691650391 1.499995708465576 64.01881408691406 1.499995708465576 56.58212280273438 C 1.499995708465576 49.14541625976562 2.956149578094482 41.93196868896484 5.828011035919189 35.14213943481445 C 7.208364963531494 31.87861442565918 8.916934013366699 28.73083114624023 10.90627288818359 25.78623008728027 C 12.8769645690918 22.86921501159668 15.14022636413574 20.12613868713379 17.63318061828613 17.6331844329834 C 20.12613487243652 15.14023017883301 22.86922645568848 12.87696933746338 25.78624153137207 10.90627670288086 C 28.73084259033203 8.916937828063965 31.87862586975098 7.20836877822876 35.14215087890625 5.828015327453613 C 41.93198013305664 2.956153631210327 49.14544296264648 1.499999761581421 56.58214950561523 1.499999761581421 C 64.01885986328125 1.499999761581421 71.2322998046875 2.956153631210327 78.02214813232422 5.828015327453613 C 81.28565979003906 7.20836877822876 84.43344116210938 8.916937828063965 87.37805938720703 10.90627670288086 C 90.29507446289062 12.87696933746338 93.03814697265625 15.14023017883301 95.53110504150391 17.6331844329834 C 98.02405548095703 20.12613868713379 100.2873153686523 22.86921501159668 102.2580261230469 25.78623008728027 C 104.2473678588867 28.73083114624023 105.9559326171875 31.87861442565918 107.3362884521484 35.14213943481445 C 110.2081527709961 41.93196868896484 111.664306640625 49.14541625976562 111.664306640625 56.58212280273438 C 111.664306640625 64.01881408691406 110.2081527709961 71.23227691650391 107.3362884521484 78.02210998535156 C 105.9559326171875 81.28562927246094 104.2473678588867 84.43340301513672 102.2580261230469 87.37801361083984 C 100.2873153686523 90.29502868652344 98.02405548095703 93.03810882568359 95.53110504150391 95.53105926513672 C 93.03814697265625 98.02401733398438 90.29507446289062 100.2872772216797 87.37805938720703 102.2579727172852 C 84.43344116210938 104.2473068237305 81.28565979003906 105.9558792114258 78.02214813232422 107.3362274169922 C 71.2322998046875 110.2080917358398 64.01885986328125 111.6642456054688 56.58214950561523 111.6642456054688 Z" stroke="none"/>
          <path d="M 56.58214950561523 3.000007629394531 C 49.34728240966797 3.000007629394531 42.33041381835938 4.416290283203125 35.72648620605469 7.209526062011719 C 32.55214691162109 8.552139282226562 29.49030303955078 10.21408843994141 26.62594604492188 12.14920806884766 C 23.78803253173828 14.06645965576172 21.11930084228516 16.26838684082031 18.69384765625 18.69384002685547 C 16.26840209960938 21.11929321289062 14.06646728515625 23.78802490234375 12.14921569824219 26.62593841552734 C 10.21409606933594 29.49028778076172 8.552131652832031 32.55213928222656 7.209518432617188 35.72645568847656 C 4.416282653808594 42.33040618896484 3 49.34725570678711 3 56.58212280273438 C 3 63.81698989868164 4.416282653808594 70.83383941650391 7.209518432617188 77.43777465820312 C 8.552131652832031 80.61209106445312 10.21409606933594 83.67395782470703 12.14921569824219 86.53830718994141 C 14.06646728515625 89.37620544433594 16.26840209960938 92.04495239257812 18.69384765625 94.47040557861328 C 21.11930084228516 96.89584350585938 23.78803253173828 99.09777069091797 26.62594604492188 101.015022277832 C 29.49030303955078 102.9501419067383 32.55216979980469 104.6121063232422 35.72648620605469 105.954719543457 C 42.33041381835938 108.7479553222656 49.34728240966797 110.1642379760742 56.58214950561523 110.1642379760742 C 63.8170166015625 110.1642379760742 70.8338623046875 108.7479553222656 77.43782043457031 105.954719543457 C 80.61213684082031 104.6121063232422 83.67399597167969 102.9501419067383 86.53834533691406 101.015022277832 C 89.37625122070312 99.09777069091797 92.04499816894531 96.89584350585938 94.47045135498047 94.47039031982422 C 96.89589691162109 92.04495239257812 99.09783172607422 89.37620544433594 101.0150833129883 86.53830718994141 C 102.9501953125 83.67395782470703 104.6121520996094 80.61209106445312 105.9547805786133 77.43777465820312 C 108.7480163574219 70.83383941650391 110.1642990112305 63.81698989868164 110.1642990112305 56.58212280273438 C 110.1642990112305 49.34725570678711 108.7480163574219 42.33040618896484 105.9547805786133 35.72645568847656 C 104.6121520996094 32.55213928222656 102.9501953125 29.49028778076172 101.0150833129883 26.62593841552734 C 99.09783172607422 23.78804016113281 96.89589691162109 21.11929321289062 94.47045135498047 18.69384002685547 C 92.04499816894531 16.26838684082031 89.37625122070312 14.06645965576172 86.53834533691406 12.14920806884766 C 83.67399597167969 10.21408843994141 80.61213684082031 8.552139282226562 77.43782043457031 7.209526062011719 C 70.8338623046875 4.416290283203125 63.8170166015625 3.000007629394531 56.58214950561523 3.000007629394531 M 56.58214950561523 7.62939453125e-06 C 87.83160400390625 7.62939453125e-06 113.1642990112305 25.33267211914062 113.1642990112305 56.58212280273438 C 113.1642990112305 87.83155822753906 87.83160400390625 113.1642379760742 56.58214950561523 113.1642379760742 C 25.33267974853516 113.1642379760742 0 87.83155822753906 0 56.58212280273438 C 0 25.33267211914062 25.33267974853516 7.62939453125e-06 56.58214950561523 7.62939453125e-06 Z" stroke="none"/>
        </g>
      </g>
      <g id="Trazado_1000475-6" data-name="Trazado 1000475" transform="translate(1069.836 2571.73)" fill="none" opacity="0.9">
        <path d="M 56.58214950561523 111.6642456054688 C 49.14544296264648 111.6642456054688 41.93198013305664 110.2080917358398 35.14215087890625 107.3362274169922 C 31.87862586975098 105.9558792114258 28.73084259033203 104.2473068237305 25.78624153137207 102.2579727172852 C 22.86922645568848 100.2872772216797 20.12613487243652 98.02401733398438 17.63318061828613 95.53105926513672 C 15.14022636413574 93.03810882568359 12.8769645690918 90.29502868652344 10.90627288818359 87.37801361083984 C 8.916934013366699 84.43340301513672 7.208364963531494 81.28562927246094 5.828011035919189 78.02210998535156 C 2.956149578094482 71.23227691650391 1.499995708465576 64.01881408691406 1.499995708465576 56.58212280273438 C 1.499995708465576 49.14541625976562 2.956149578094482 41.93196868896484 5.828011035919189 35.14213943481445 C 7.208364963531494 31.87861442565918 8.916934013366699 28.73083114624023 10.90627288818359 25.78623008728027 C 12.8769645690918 22.86921501159668 15.14022636413574 20.12613868713379 17.63318061828613 17.6331844329834 C 20.12613487243652 15.14023017883301 22.86922645568848 12.87696933746338 25.78624153137207 10.90627670288086 C 28.73084259033203 8.916937828063965 31.87862586975098 7.20836877822876 35.14215087890625 5.828015327453613 C 41.93198013305664 2.956153631210327 49.14544296264648 1.499999761581421 56.58214950561523 1.499999761581421 C 64.01885986328125 1.499999761581421 71.2322998046875 2.956153631210327 78.02214813232422 5.828015327453613 C 81.28565979003906 7.20836877822876 84.43344116210938 8.916937828063965 87.37805938720703 10.90627670288086 C 90.29507446289062 12.87696933746338 93.03814697265625 15.14023017883301 95.53110504150391 17.6331844329834 C 98.02405548095703 20.12613868713379 100.2873153686523 22.86921501159668 102.2580261230469 25.78623008728027 C 104.2473678588867 28.73083114624023 105.9559326171875 31.87861442565918 107.3362884521484 35.14213943481445 C 110.2081527709961 41.93196868896484 111.664306640625 49.14541625976562 111.664306640625 56.58212280273438 C 111.664306640625 64.01881408691406 110.2081527709961 71.23227691650391 107.3362884521484 78.02210998535156 C 105.9559326171875 81.28562927246094 104.2473678588867 84.43340301513672 102.2580261230469 87.37801361083984 C 100.2873153686523 90.29502868652344 98.02405548095703 93.03810882568359 95.53110504150391 95.53105926513672 C 93.03814697265625 98.02401733398438 90.29507446289062 100.2872772216797 87.37805938720703 102.2579727172852 C 84.43344116210938 104.2473068237305 81.28565979003906 105.9558792114258 78.02214813232422 107.3362274169922 C 71.2322998046875 110.2080917358398 64.01885986328125 111.6642456054688 56.58214950561523 111.6642456054688 Z" stroke="none"/>
        <path d="M 56.58214950561523 3.000007629394531 C 49.34728240966797 3.000007629394531 42.33041381835938 4.416290283203125 35.72648620605469 7.209526062011719 C 32.55214691162109 8.552139282226562 29.49030303955078 10.21408843994141 26.62594604492188 12.14920806884766 C 23.78803253173828 14.06645965576172 21.11930084228516 16.26838684082031 18.69384765625 18.69384002685547 C 16.26840209960938 21.11929321289062 14.06646728515625 23.78802490234375 12.14921569824219 26.62593841552734 C 10.21409606933594 29.49028778076172 8.552131652832031 32.55213928222656 7.209518432617188 35.72645568847656 C 4.416282653808594 42.33040618896484 3 49.34725570678711 3 56.58212280273438 C 3 63.81698989868164 4.416282653808594 70.83383941650391 7.209518432617188 77.43777465820312 C 8.552131652832031 80.61209106445312 10.21409606933594 83.67395782470703 12.14921569824219 86.53830718994141 C 14.06646728515625 89.37620544433594 16.26840209960938 92.04495239257812 18.69384765625 94.47040557861328 C 21.11930084228516 96.89584350585938 23.78803253173828 99.09777069091797 26.62594604492188 101.015022277832 C 29.49030303955078 102.9501419067383 32.55216979980469 104.6121063232422 35.72648620605469 105.954719543457 C 42.33041381835938 108.7479553222656 49.34728240966797 110.1642379760742 56.58214950561523 110.1642379760742 C 63.8170166015625 110.1642379760742 70.8338623046875 108.7479553222656 77.43782043457031 105.954719543457 C 80.61213684082031 104.6121063232422 83.67399597167969 102.9501419067383 86.53834533691406 101.015022277832 C 89.37625122070312 99.09777069091797 92.04499816894531 96.89584350585938 94.47045135498047 94.47039031982422 C 96.89589691162109 92.04495239257812 99.09783172607422 89.37620544433594 101.0150833129883 86.53830718994141 C 102.9501953125 83.67395782470703 104.6121520996094 80.61209106445312 105.9547805786133 77.43777465820312 C 108.7480163574219 70.83383941650391 110.1642990112305 63.81698989868164 110.1642990112305 56.58212280273438 C 110.1642990112305 49.34725570678711 108.7480163574219 42.33040618896484 105.9547805786133 35.72645568847656 C 104.6121520996094 32.55213928222656 102.9501953125 29.49028778076172 101.0150833129883 26.62593841552734 C 99.09783172607422 23.78804016113281 96.89589691162109 21.11929321289062 94.47045135498047 18.69384002685547 C 92.04499816894531 16.26838684082031 89.37625122070312 14.06645965576172 86.53834533691406 12.14920806884766 C 83.67399597167969 10.21408843994141 80.61213684082031 8.552139282226562 77.43782043457031 7.209526062011719 C 70.8338623046875 4.416290283203125 63.8170166015625 3.000007629394531 56.58214950561523 3.000007629394531 M 56.58214950561523 7.62939453125e-06 C 87.83160400390625 7.62939453125e-06 113.1642990112305 25.33267211914062 113.1642990112305 56.58212280273438 C 113.1642990112305 87.83155822753906 87.83160400390625 113.1642379760742 56.58214950561523 113.1642379760742 C 25.33267974853516 113.1642379760742 0 87.83155822753906 0 56.58212280273438 C 0 25.33267211914062 25.33267974853516 7.62939453125e-06 56.58214950561523 7.62939453125e-06 Z" stroke="none" fill="#fff"/>
      </g>
    </g>
    <g id="Grupo_1162032" data-name="Grupo 1162032" transform="translate(1054.238 2595.162)">
      <g id="Grupo_1162031" data-name="Grupo 1162031" clip-path="url(#clip-path)">
        <path id="Trazado_1016243" data-name="Trazado 1016243" d="M344.872,5.757c-5.114,4.6-18.026,8.055-11.89,9.206s12.658,5.242,4.987,7.543-9.334,10.37-9.334,10.37l-1.023-3.339c1.375-3.882,2.085-6.639.64-8.916-.838-1.323-2.4-2.485-4.987-3.613-7.031-3.068-12.018-11.89-2.173-15.47C329.3-1.447,343.9.279,345.572,3.6c.335.663.152,1.39-.7,2.155" transform="translate(-273.771 0)" fill="#c5d3de"/>
        <path id="Trazado_1016244" data-name="Trazado 1016244" d="M422.389,29.336c-5.114,4.6-18.026,8.055-11.89,9.206s12.658,5.242,4.987,7.543-9.334,10.37-9.334,10.37l-1.023-3.339c1.375-3.882,2.085-6.639.64-8.916,1.77-.778,2.892-3.584.426-5.828-3.324-3.026.042-6.862,8.694-7.074,6.3-.156,7.831-2.73,8.2-4.116.335.663.152,1.39-.7,2.155" transform="translate(-351.288 -23.58)" fill="#b2c3ce"/>
        <path id="Trazado_1016245" data-name="Trazado 1016245" d="M401.879,162.354c.455-2.5-.4-4.432-.739-3.58a6,6,0,0,1-1.023,2.273c-.568.511-1.364-1.989-.966-3.693a9,9,0,0,0-.171-5.455c-.739-1.932-2.1-4.546-2.1-4.546a9.967,9.967,0,0,1-.4,4.318c-.739,1.761-1.762,2.046-1.421,3.637s.511,1.477-.114,2.671-.227,3.125-.455,4.489-1.193,1.364-.4,3.693.455,4.2,1.932,2.614,2.557-2.9,2.557-2.9l3.1-2.7Z" transform="translate(-341.615 -127.831)" fill="#fdb747"/>
        <path id="Trazado_1016246" data-name="Trazado 1016246" d="M405.377,221.954c-.057-1.534.568-3.495-.227-2.188s-2.244,1.7-2.557-.6a33.383,33.383,0,0,0-.909-4.972c-.256-.654-.085,1.818-.54,3.3s-.824.937-.966,3.267-1.634,6.875-1.151,7.671,4.531-4.006,4.531-4.006l2.3-1.335Z" transform="translate(-346.08 -185.727)" fill="#f65a43"/>
        <path id="Trazado_1016247" data-name="Trazado 1016247" d="M144.359,373.911c0,3.492-32.316,6.323-72.18,6.323S0,377.4,0,373.911s32.316-6.323,72.179-6.323,72.18,2.831,72.18,6.323" transform="translate(0 -318.889)" fill="#e8e8e8" style="mix-blend-mode: multiply;isolation: isolate"/>
        <path id="Trazado_1016248" data-name="Trazado 1016248" d="M388.615,293.742c.94-1.488,3.45-2.433,7.51-2.857s8.564,3.682,8.564,3.682l5.413-9.255-6.074-6.039-4.18.616-1.7.25a18.26,18.26,0,0,1-2.207.269,3.457,3.457,0,0,0-.978.238c-.527.336-.406.939-.648,1.181-1.449,1.57-3.864,1.087-5.527,2.372-.179.093-.351.19-.521.289a13.463,13.463,0,0,0-1.481,1,2.542,2.542,0,0,0-.282.486,2.255,2.255,0,0,0,.434,2.6c.051.182.1.368.14.557a5.367,5.367,0,0,1-.132,2.887c-.6.554.487,1.157,1.076,1.407.335.18.592.315.592.315" transform="translate(-335.098 -242.275)" fill="#301211"/>
        <path id="Trazado_1016249" data-name="Trazado 1016249" d="M878.711,304.45a10.438,10.438,0,0,0-7.81-2.889,13.969,13.969,0,0,0-8.512,3.3l-1.818-4.388,4.049-5.952,3.223-1.434,7.727-.7,6.4,1.781,2.231,3.215-3.471,6.213Z" transform="translate(-746.56 -253.656)" fill="#301211"/>
        <path id="Trazado_1016250" data-name="Trazado 1016250" d="M457.517,193.938c-2.107,2.175-10.33,2.281-10.33,2.281s.537-5.842-3.306-8.363-7.685-1.782-9.5-.478-3.719,4.172-3.389,9.081c0,0,0,1-2.065.867s-44.3.392-44.3.392.854-9.838-5.325-11.464a7.309,7.309,0,0,0-1.849-.238,15,15,0,0,0-2.577.386c-.21.056-.417.118-.618.19a4.286,4.286,0,0,0-1.134.551,4.05,4.05,0,0,0-.5.378,3.862,3.862,0,0,0-.815,1c-.041.206-.085.4-.14.584a7.006,7.006,0,0,1-1.914,2.728c-.272.285-.548.579-.814.9a9.2,9.2,0,0,0-.413,2.861c-.006.171-.007.336-.006.49,0,.308.016.581.034.805l-.21,0c-1.815.156-4.47.4-5.195-1.774,0,0,0,0,0,0a3.153,3.153,0,0,0,.262-.364,3.093,3.093,0,0,0,.415-1.913,7.3,7.3,0,0,1,.235-1.017,4.973,4.973,0,0,1,.163-.516,2.018,2.018,0,0,1,.12-.286,1.238,1.238,0,0,0,.19-1.019,1.225,1.225,0,0,1-.028-.278,2.462,2.462,0,0,0,.211-.438c.016-.043.03-.087.043-.13a5.642,5.642,0,0,1,.191-.577,2.374,2.374,0,0,1,.61-.795,3.6,3.6,0,0,1,.391-.292c1.421-.949,4.078-1.311,3.957-3.485l.107.037c.343.124-.1.035-.1-.293.121-.6-.248-.348.114-1.073.362-.966,1.449-.966,2.259-1.252l.53-.156c.533-.156.377-.29.876-.5a3.562,3.562,0,0,1,.8-.512c2.173-.724,4.347-1.207,6.408-2.115l.821-.391c3.993-1.9,13.391-6.343,17.536-8.042.6-.246,1.093-.435,1.44-.548,3.43-1.129,14.462-1.739,19.462-1.478s10.413.956,14.5,2.955a55.95,55.95,0,0,0,8.845,3.259l.082.045s11.858,1.519,12.85,1.824.372,1.651.5,3.3a16.667,16.667,0,0,0,.989,4.476c.539,1.564,1.7,8.212-.412,10.383" transform="translate(-315.035 -145.427)" fill="#e65c00"/>
        <path id="Trazado_1016251" data-name="Trazado 1016251" d="M881.469,321.008a7.106,7.106,0,1,0,7.1-7.462,7.287,7.287,0,0,0-7.1,7.462" transform="translate(-764.689 -272.006)" fill="#060707"/>
        <path id="Trazado_1016252" data-name="Trazado 1016252" d="M908.37,345a3.724,3.724,0,1,0,3.719-3.91A3.818,3.818,0,0,0,908.37,345" transform="translate(-788.026 -295.905)" fill="#8b929e"/>
        <path id="Trazado_1016253" data-name="Trazado 1016253" d="M410.345,321.367a7.9,7.9,0,0,0,.114,1.341,7.208,7.208,0,0,0,6.983,6.121,7.287,7.287,0,0,0,7.1-7.462,7.458,7.458,0,0,0-4.621-7,6.76,6.76,0,0,0-1.2-.347,6.218,6.218,0,0,0-4.788,1.048,2.5,2.5,0,0,0-.3.5c-.243.539-.363,1.172-.6,1.776-.483.966-2.053,1.449-2.534,2.674a2.953,2.953,0,0,0-.118.662q-.029.336-.029.679" transform="translate(-355.981 -272.365)" fill="#060707"/>
        <path id="Trazado_1016254" data-name="Trazado 1016254" d="M437.246,345a3.724,3.724,0,1,0,3.719-3.91,3.567,3.567,0,0,0-.6.051,3.1,3.1,0,0,0-.56.148,4.946,4.946,0,0,0-2.366,2.475,4.059,4.059,0,0,0-.141.6,4.151,4.151,0,0,0-.049.634" transform="translate(-379.318 -295.905)" fill="#8b929e"/>
        <path id="Trazado_1016255" data-name="Trazado 1016255" d="M781.732,188.572s-2.578-5.75-8.117-7.71c-3.371-1.193-11.994-.978-11.994-.978l-.155,9.027s12.382.114,14.645-.081,5.621-.258,5.621-.258" transform="translate(-660.585 -156.04)" fill="#301211"/>
        <path id="Trazado_1016256" data-name="Trazado 1016256" d="M602.4,181.381l-.725,8.39a.465.465,0,0,1-.439.425c-2.2.116-12.8.679-17.57,1.054h-.005a.461.461,0,0,1-.5-.46v-3.453a.465.465,0,0,1,.254-.415c4.542-2.314,9.562-4.708,11.188-5.122a41.581,41.581,0,0,1,7.31-.925.465.465,0,0,1,.485.506" transform="translate(-505.907 -156.912)" fill="#301211"/>
        <path id="Trazado_1016257" data-name="Trazado 1016257" d="M857.545,255.515l4.129-.165a.739.739,0,0,0-.053-1.476l-4.129.165a.74.74,0,0,0,.053,1.476" transform="translate(-743.302 -220.239)" fill="#060707"/>
        <path id="Trazado_1016258" data-name="Trazado 1016258" d="M679.186,268.995l4.129-.165a.739.739,0,0,0-.053-1.476l-4.129.165a.74.74,0,0,0,.053,1.476" transform="translate(-588.573 -231.933)" fill="#060707"/>
        <path id="Trazado_1016259" data-name="Trazado 1016259" d="M737.731,203.057h0a.183.183,0,0,1-.179-.187c0-.112.248-11.23.207-13.331s.532-15.3.537-15.436a.18.18,0,0,1,.191-.175.183.183,0,0,1,.175.191c-.006.133-.578,13.314-.537,15.413s-.2,13.234-.206,13.346a.183.183,0,0,1-.183.179" transform="translate(-639.835 -150.885)" fill="#d34013"/>
        <path id="Trazado_1016260" data-name="Trazado 1016260" d="M569.5,198.955a.183.183,0,0,1-.183-.175c-.029-.683-.7-16.733-.514-17.784.213-1.193,4.972-3.79,9.283-5.467,3.58-1.392,8.649-2.1,15.066-2.1h.362c4.475-.007,11.243,0,13.783,1.124,2.517,1.116,6.979,4.42,7.986,6.7.707,1.6.53,9.4.522,9.735a.183.183,0,0,1-.366-.009c0-.08.183-8.053-.491-9.578-.888-2.009-5.1-5.315-7.8-6.511-2.4-1.064-8.812-1.092-13.253-1.092h-.743c-6.372,0-11.4.7-14.933,2.073-4.92,1.913-8.908,4.361-9.056,5.19-.144.809.277,11.934.52,17.7a.183.183,0,0,1-.175.191H569.5" transform="translate(-493.417 -150.454)" fill="#d34013"/>
        <path id="Trazado_1016261" data-name="Trazado 1016261" d="M1020.284,244.765c-4.2.17-6,.059-7.327.14-1.4.087.827,1,2.025,1.911s1.075,1.651,1.363,2.129c.184.3,2.606-.079,4.336-.4Z" transform="translate(-878.368 -212.338)" fill="#f2eee2"/>
        <path id="Trazado_1016262" data-name="Trazado 1016262" d="M1046.9,341.315c1.862-.277,1.88.348,1.859,1.217s-2.066.891-3,.782-1.2-1.651,1.136-2" transform="translate(-906.631 -296.039)" fill="#f9593e"/>
        <path id="Trazado_1016263" data-name="Trazado 1016263" d="M1045.427,342.342a7.87,7.87,0,0,1-.881-.048.923.923,0,0,1-.84-.9c-.009-.566.5-1.248,1.971-1.466.907-.135,1.451-.073,1.76.2a1.457,1.457,0,0,1,.309,1.2.714.714,0,0,1-.265.536,3.484,3.484,0,0,1-2.054.472m.3-2.048c-1.234.184-1.665.706-1.658,1.1a.561.561,0,0,0,.516.538,4.533,4.533,0,0,0,2.653-.336.353.353,0,0,0,.139-.268c.011-.446,0-.752-.185-.918-.216-.191-.695-.227-1.464-.113" transform="translate(-905.433 -294.837)" fill="#d34013"/>
        <path id="Trazado_1016264" data-name="Trazado 1016264" d="M497.175,191.814a1.268,1.268,0,0,0,.237.6.532.532,0,0,0,.523.126,4.216,4.216,0,0,0,1.032-.389c1.551-.748,15.837-8.016,16.457-8.179.237-.063.219-.31.109-.593-4.145,1.7-13.543,6.142-17.536,8.042l-.821.391" transform="translate(-431.308 -159.086)" fill="#442f2c"/>
        <path id="Trazado_1016265" data-name="Trazado 1016265" d="M365.3,340.706a1.133,1.133,0,0,1-.318.612,1.748,1.748,0,0,1-.6.389,1.72,1.72,0,0,1-1.232.2s0,0,0,0a3.154,3.154,0,0,0,.262-.363,3.092,3.092,0,0,0,.415-1.913,7.289,7.289,0,0,1,.235-1.017,4.983,4.983,0,0,1,.163-.516,2.032,2.032,0,0,1,.12-.286,1.212,1.212,0,0,0,.252-.977c.966.121.6.845.349,1.532,0,.149,0,.295.006.438a2.886,2.886,0,0,0,.309,1.24,1.63,1.63,0,0,1,.042.667" transform="translate(-315.033 -292.205)" fill="#331514"/>
        <path id="Trazado_1016266" data-name="Trazado 1016266" d="M854.07,298.544a.183.183,0,0,1-.172-.244c.049-.137.1-.3.165-.5.791-2.434,2.891-8.9,10.759-8.532,7.659.359,9.3,4.606,10.187,6.888.092.237.179.461.261.651a.183.183,0,1,1-.336.146c-.085-.2-.173-.424-.267-.665-.853-2.2-2.442-6.307-9.863-6.655-7.584-.353-9.627,5.918-10.394,8.279-.064.2-.119.366-.169.506a.183.183,0,0,1-.173.122" transform="translate(-740.762 -250.934)" fill="#d34013"/>
        <path id="Trazado_1016267" data-name="Trazado 1016267" d="M421.54,298.161a.183.183,0,0,1-.179-.145c-.017-.081-1.784-8.087-8.019-8.654-.361-.033-.719-.056-1.065-.068-.389-.014-.72-.015-.931-.012-.193.02-.381.036-.567.052-.208.019-.413.036-.614.058a7.605,7.605,0,0,0-1.1.185c-.425.11-.482.306-.577.63a2.469,2.469,0,0,1-.156.429c-.537,1.181-1.866,1.386-3.038,1.566-.248.038-.482.074-.709.118s-.421.1-.615.166a3.5,3.5,0,0,0-1.552.914.183.183,0,0,1-.267-.251,3.854,3.854,0,0,1,1.707-1.012c.2-.066.418-.123.652-.176s.488-.085.729-.122c1.134-.174,2.306-.355,2.764-1.362a2.182,2.182,0,0,0,.135-.373,1.053,1.053,0,0,1,.837-.882,7.917,7.917,0,0,1,1.151-.194c.2-.022.411-.04.621-.058.187-.016.377-.033.57-.053h.017c.215,0,.556,0,.957.012.353.013.718.036,1.085.069,2.7.246,5,1.874,6.65,4.709a15.784,15.784,0,0,1,1.695,4.233.183.183,0,0,1-.141.217.179.179,0,0,1-.038,0" transform="translate(-348.83 -250.638)" fill="#d34013"/>
        <path id="Trazado_1016268" data-name="Trazado 1016268" d="M917.432,194.685c-3.45,0-7.094-.289-8.529-.936-1.729-.779-6.993-4.256-7.216-4.4a.183.183,0,1,1,.2-.305c.054.036,5.462,3.607,7.165,4.375,1.734.782,6.872,1.023,10.826.853a.179.179,0,0,1,.191.175.183.183,0,0,1-.175.191c-.786.034-1.619.051-2.463.051" transform="translate(-782.157 -163.97)" fill="#d34013"/>
        <path id="Trazado_1016269" data-name="Trazado 1016269" d="M594.26,378.286H555.583a.183.183,0,0,1,0-.366H594.26a.183.183,0,1,1,0,.366" transform="translate(-481.819 -327.852)" fill="#d34013"/>
        <path id="Trazado_1016270" data-name="Trazado 1016270" d="M593.968,364.565H555.291a.183.183,0,0,1,0-.366h38.677a.183.183,0,1,1,0,.366" transform="translate(-481.566 -315.949)" fill="#d34013"/>
        <path id="Trazado_1016271" data-name="Trazado 1016271" d="M381.505,292.341c-.483,1.328-2.173,1.57-3.343,2.048a5.71,5.71,0,0,0-.592.26,3.654,3.654,0,0,0-1.384,1.154c-.077.168-.155.342-.236.523-.121.242-.6.6-.966.242v-.034q.024-.065.043-.13a5.667,5.667,0,0,1,.191-.577,2.374,2.374,0,0,1,.61-.794,3.62,3.62,0,0,1,.391-.292c1.421-.949,4.078-1.311,3.957-3.485l.107.038c.12.612.346,1.152,1.221,1.049" transform="translate(-325.306 -252.668)" fill="#f2eee2"/>
        <path id="Trazado_1016272" data-name="Trazado 1016272" d="M536.075,302.357c-2.34,0-4.358-.226-4.472-.992s1.712-1.287,2.275-1.424c1.787-.435,2.722-1,2.694-1.314-.012-.13-.3-.789-4.792-1.053-3.755-.221-3.752-.5-3.749-.724s.006-.483,3.5-.81c2.3-.215,5.6-.4,9.547-.536a.181.181,0,0,1,.189.176.183.183,0,0,1-.177.189c-8.515.292-11.784.729-12.547.978a17.918,17.918,0,0,0,3.261.361c4.515.266,5.093.918,5.135,1.386.078.865-2.052,1.479-2.972,1.7-1.431.348-2.03.8-2,1.014.006.04.225.976,7.059.586a.18.18,0,0,1,.193.172.183.183,0,0,1-.172.193c-.97.055-2,.094-2.97.094" transform="translate(-458.075 -256.355)" fill="#d34013"/>
        <path id="Trazado_1016273" data-name="Trazado 1016273" d="M46.986,322.494c-.6,6.719-.139,11.863.88,12.512s4.31.417,5.746.185,1.019-2.41,1.159-3.336-1.2-8.62-1.2-8.62Z" transform="translate(-40.529 -279.769)" fill="#060707"/>
        <path id="Trazado_1016274" data-name="Trazado 1016274" d="M362.183,318.275a3.225,3.225,0,0,1,.224,1.093c.02.177.033.352.046.525.4,5.915-.071,10.3-1.007,10.9-1.019.649-4.31.417-5.746.185s-1.019-2.41-1.158-3.336,1.2-8.619,1.2-8.619l4.353-.49.373-.042c.32.094.683-.147,1.1-.135l.612-.076" transform="translate(-307.561 -276.109)" fill="#060707"/>
        <path id="Trazado_1016275" data-name="Trazado 1016275" d="M96.068,140.362c-1.02,3.243-1.112,4.542-3.43,5.005s-40.5,0-40.5,0c-3.3-2.508-4.211-8.119-4.284-12.634-.022-1.325.029-2.555.113-3.586a24.327,24.327,0,0,1,.822-4.756,43.577,43.577,0,0,1,2.144-5.533,79.882,79.882,0,0,1,6.024-10.751c1.113-1.482,10.844-1.39,15.294-1.576s10.287-.092,13.16,1.02,5.839,5.652,7.693,9.175a29.822,29.822,0,0,1,2.737,7.325q.057.253.109.509t.1.513a6.3,6.3,0,0,1,.3,2.237q-.011.277-.042.552c-.725,1.89-2.3,4.184-.3,6.046.088.17.169.337.245.5a3.454,3.454,0,0,1,.391,1.571q0,.328-.007.649a13.267,13.267,0,0,1-.566,3.728" transform="translate(-41.508 -92.354)" fill="#d8deee"/>
        <path id="Trazado_1016276" data-name="Trazado 1016276" d="M119.7,141.831c-.073.311-1.185.525-2.822.664h0q-.295.026-.613.048a129.5,129.5,0,0,1-13.124.03c-1.358-.079-4.094-.134-7.254-.171l-.6-.006c-6.516-.07-14.541-.07-16.122-.07-2.41,0-1.668-1.669-1.236-2.533s4.511-10.165,5.5-10.782,14.273-.4,17.795-.278,11.059-.062,12.049.309,3.165,4.733,3.668,5.545c.719,1.159,1.893,3.477,1.893,3.477s1.112,2.719.865,3.768" transform="translate(-67.213 -111.557)" fill="#2d3547"/>
        <path id="Trazado_1016277" data-name="Trazado 1016277" d="M105.841,304.826a.183.183,0,0,1,0-.366l33.489-.371h0a.183.183,0,0,1,0,.366l-33.489.371Z" transform="translate(-91.66 -263.802)" fill="#7d8fb5"/>
        <path id="Trazado_1016278" data-name="Trazado 1016278" d="M87.652,382.343H87.63a.183.183,0,0,1-.16-.2l.109-.9a1.494,1.494,0,0,1,1.471-1.312l36.035-.233h.01a1.484,1.484,0,0,1,1.472,1.254l.13.808a.183.183,0,1,1-.361.058l-.13-.808a1.12,1.12,0,0,0-1.111-.946h-.008l-36.035.233a1.128,1.128,0,0,0-1.11.99l-.108.9a.183.183,0,0,1-.182.161" transform="translate(-75.881 -329.394)" fill="#7d8fb5"/>
        <rect id="Rect치ngulo_419911" data-name="Rect치ngulo 419911" width="17.517" height="3.754" transform="translate(22.352 35.728)" fill="#fff"/>
        <path id="Trazado_1016279" data-name="Trazado 1016279" d="M54.422,250.381l-.108.046-6.463-.26c-.022-1.325.029-2.555.113-3.586a24.327,24.327,0,0,1,.822-4.756,6.506,6.506,0,0,1,.924.043,15.277,15.277,0,0,1,3.444.712,6.332,6.332,0,0,1,.6,1.668Z" transform="translate(-41.508 -209.788)" fill="#f2eee2"/>
        <path id="Trazado_1016280" data-name="Trazado 1016280" d="M372.3,248.234s.336-4.692.266-6.035a3.13,3.13,0,0,1,.738-2.19,30.082,30.082,0,0,1,3.028-.618c.245-.024.593-.067.977-.12q.057.253.109.509t.1.513a6.1,6.1,0,0,1,.278,2.269q-.016.284-.052.566c-.326,1.6-2.379,3.414-.809,4.984a9.1,9.1,0,0,0-2.229.064l-.413.01-1.99.049" transform="translate(-322.972 -207.572)" fill="#f2eee2"/>
        <path id="Trazado_1016281" data-name="Trazado 1016281" d="M69.106,251.381c-2.019,0-4.4-.249-4.887-1.593-.522-1.426-1.106-6.6-1.409-9.561a1.481,1.481,0,0,0-1.3-1.313l-2.792-.314a.183.183,0,1,1,.041-.364l2.792.314a1.849,1.849,0,0,1,1.625,1.64c.242,2.368.861,8.032,1.388,9.472.576,1.575,4.7,1.379,6.464,1.3.228-.011.427-.02.587-.025.391-.012,2.15-.024,4.584-.04,7.034-.047,20.127-.135,21.669-.375,1.737-.27,1.977-1.765,1.977-3.341,0-.844.287-4.922.457-7.278a1.844,1.844,0,0,1,1.606-1.692l2.731-.341a.183.183,0,0,1,.045.363l-2.731.341a1.477,1.477,0,0,0-1.287,1.355c-.137,1.893-.456,6.387-.456,7.251,0,1.086,0,3.347-2.287,3.7-1.568.244-14.679.332-21.723.379-2.431.016-4.188.028-4.575.04-.159,0-.356.014-.581.025-.529.025-1.211.057-1.938.057" transform="translate(-50.797 -206.351)" fill="#7d8fb5"/>
        <path id="Trazado_1016282" data-name="Trazado 1016282" d="M175.934,260.771H158.417a.182.182,0,0,1-.094-.026l-1.39-.834a.183.183,0,0,1,.188-.314l1.347.808h17.4l1.479-1.166a.183.183,0,0,1,.227.288l-1.529,1.2a.183.183,0,0,1-.113.039" transform="translate(-136.064 -224.86)" fill="#7d8fb5"/>
        <path id="Trazado_1016283" data-name="Trazado 1016283" d="M195.688,257.351H182.1a.183.183,0,1,1,0-.366h13.593a.183.183,0,1,1,0,.366" transform="translate(-157.812 -222.939)" fill="#7d8fb5"/>
        <path id="Trazado_1016284" data-name="Trazado 1016284" d="M46.857,178.768c-2.471-1.73-5-.989-5.128.371s4.078,2.1,4.078,2.1Z" transform="translate(-36.198 -154.208)" fill="#d8deee"/>
        <path id="Trazado_1016285" data-name="Trazado 1016285" d="M386.849,178.768c2.471-1.73,5-.989,5.128.371s-4.078,2.1-4.078,2.1Z" transform="translate(-335.598 -154.208)" fill="#d8deee"/>
        <path id="Trazado_1016286" data-name="Trazado 1016286" d="M47.418,308.408a.183.183,0,0,1-.012-.366l4.126-.285a1.058,1.058,0,0,0-.046-2.112l-4.413-.142a.183.183,0,0,1-.177-.189.185.185,0,0,1,.189-.177l4.412.142a1.424,1.424,0,0,1,.061,2.843l-4.126.285h-.013" transform="translate(-40.682 -264.712)" fill="#7d8fb5"/>
        <path id="Trazado_1016287" data-name="Trazado 1016287" d="M379.159,308.763h-.01l-3.877-.215a1.424,1.424,0,0,1,.059-2.844l.69-.014a20.357,20.357,0,0,1,2.608-.041.183.183,0,1,1-.015.366,20.079,20.079,0,0,0-2.574.04l-.7.014a1.058,1.058,0,0,0-.045,2.112l3.874.215a.183.183,0,0,1-.01.366" transform="translate(-324.403 -265.137)" fill="#7d8fb5"/>
        <path id="Trazado_1016288" data-name="Trazado 1016288" d="M202.467,322.877h-8.712a.183.183,0,0,1,0-.366h8.712a.183.183,0,1,1,0,.366" transform="translate(-167.927 -279.784)" fill="#7d8fb5"/>
        <path id="Trazado_1016289" data-name="Trazado 1016289" d="M67.224,344.8H63.729a.767.767,0,0,1-.767-.767v-.384a.767.767,0,0,1,.767-.767h3.495a.767.767,0,0,1,.767.767v.384a.767.767,0,0,1-.767.767" transform="translate(-54.621 -297.46)" fill="#f9593e"/>
        <path id="Trazado_1016290" data-name="Trazado 1016290" d="M66.025,343.789H62.53a.951.951,0,0,1-.95-.95v-.384a.951.951,0,0,1,.95-.95h3.495a.951.951,0,0,1,.95.95v.384a.951.951,0,0,1-.95.95m-3.495-1.918a.585.585,0,0,0-.584.584v.384a.585.585,0,0,0,.584.584h3.495a.585.585,0,0,0,.584-.584v-.384a.585.585,0,0,0-.584-.584Z" transform="translate(-53.422 -296.261)" fill="#7d8fb5"/>
        <path id="Trazado_1016291" data-name="Trazado 1016291" d="M370.239,344.8h-3.495a.767.767,0,0,1-.767-.767v-.384a.767.767,0,0,1,.767-.767h3.495a.767.767,0,0,1,.767.767v.384a.767.767,0,0,1-.767.767" transform="translate(-317.491 -297.46)" fill="#f9593e"/>
        <path id="Trazado_1016292" data-name="Trazado 1016292" d="M369.041,343.789h-3.495a.951.951,0,0,1-.95-.95v-.384a.951.951,0,0,1,.95-.95h3.495a.951.951,0,0,1,.95.95v.384a.951.951,0,0,1-.95.95m-3.495-1.918a.585.585,0,0,0-.584.584v.384a.585.585,0,0,0,.584.584h3.495a.585.585,0,0,0,.584-.584v-.384a.585.585,0,0,0-.584-.584Z" transform="translate(-316.293 -296.261)" fill="#7d8fb5"/>
        <path id="Trazado_1016293" data-name="Trazado 1016293" d="M51.029,182.287c-1.227-.711-3.079-.991-3.661-.366s-.172,1.012,1.163,1.637,1.761.467,1.761.467l.952-1.63Z" transform="translate(-40.869 -157.519)" fill="#e9f0ff"/>
        <path id="Trazado_1016294" data-name="Trazado 1016294" d="M391.464,182.785c1.263-.645,3.127-.827,3.675-.173s.119,1.02-1.247,1.573-1.783.374-1.783.374l-.865-1.678Z" transform="translate(-339.41 -158.063)" fill="#e9f0ff"/>
        <path id="Trazado_1016295" data-name="Trazado 1016295" d="M68.706,186.574a.186.186,0,0,1-.081-.019.183.183,0,0,1-.083-.245l1.182-2.387a.183.183,0,0,1,.328.162l-1.182,2.387a.183.183,0,0,1-.164.1" transform="translate(-59.445 -159.468)" fill="#7d8fb5"/>
        <path id="Trazado_1016296" data-name="Trazado 1016296" d="M389.395,185.421a.183.183,0,0,1-.166-.105l-1.158-2.456a.183.183,0,0,1,.331-.156l1.158,2.456a.183.183,0,0,1-.088.244.181.181,0,0,1-.078.017" transform="translate(-336.643 -158.407)" fill="#7d8fb5"/>
        <path id="Trazado_1016297" data-name="Trazado 1016297" d="M297.74,159.066q-.295.026-.613.048l-3.934-2.466a.184.184,0,0,1-.083-.128l-.676-4.556-4.651-2.283a.241.241,0,0,1-.046-.032l-1.722-1.636a.183.183,0,1,1,.251-.266l1.7,1.617,4.711,2.314a.185.185,0,0,1,.1.138l.676,4.567Z" transform="translate(-248.074 -128.128)" fill="#1e2533"/>
        <path id="Trazado_1016298" data-name="Trazado 1016298" d="M273.334,186.517a.181.181,0,0,1-.079-.018l-4.865-2.347-4.99.384a.183.183,0,1,1-.028-.365l5.039-.388a.185.185,0,0,1,.094.018l4.91,2.369a.183.183,0,0,1-.08.348" transform="translate(-228.333 -159.434)" fill="#1e2533"/>
        <path id="Trazado_1016299" data-name="Trazado 1016299" d="M354.224,194.019a.183.183,0,0,1-.179-.148l-.574-2.911a.183.183,0,0,1,.034-.147l1.263-1.651a.183.183,0,1,1,.291.222l-1.213,1.585.558,2.83a.183.183,0,0,1-.144.215.181.181,0,0,1-.036,0" transform="translate(-306.638 -164.04)" fill="#1e2533"/>
        <path id="Trazado_1016300" data-name="Trazado 1016300" d="M216.184,209.791l-3.646,2.766-.6-.006,4.021-3.052a.183.183,0,1,1,.222.292" transform="translate(-183.862 -181.712)" fill="#1e2533"/>
        <path id="Trazado_1016301" data-name="Trazado 1016301" d="M301.146,213.243a.183.183,0,0,1-.074-.016l-3.3-1.464a.183.183,0,1,1,.149-.335l3.242,1.438,2.952-.815a.183.183,0,1,1,.1.353l-3.015.833a.186.186,0,0,1-.049.006" transform="translate(-258.226 -183.404)" fill="#1e2533"/>
        <path id="Trazado_1016302" data-name="Trazado 1016302" d="M641.516,315.926a.2.2,0,0,1-.05-.391c.869-.229,7.257-2.635,7.322-2.659a.2.2,0,0,1,.14.372c-.264.1-6.472,2.438-7.361,2.671a.2.2,0,0,1-.051.007" transform="translate(-556.353 -271.414)" fill="#d34013"/>
        <path id="Trazado_1016303" data-name="Trazado 1016303" d="M787.053,294.257s1.652-1.5,2.525-2.12a9.808,9.808,0,0,1,4.863-1.309,1.971,1.971,0,0,1,1.995,2.463c-.156,1-4.738.779-5.923,1.091a8.186,8.186,0,0,0-2.525,1.434Z" transform="translate(-682.782 -252.298)" fill="#e65c00"/>
        <path id="Trazado_1016304" data-name="Trazado 1016304" d="M786.693,314.483a.2.2,0,0,1-.1-.37,7.892,7.892,0,0,0,1.07-.762c.691-.563,1.108-.9,3.328-.949a9.3,9.3,0,0,0,4.6-1.151.2.2,0,0,1,.22.331A9.5,9.5,0,0,1,791,312.8c-2.084.043-2.44.333-3.086.86a8.354,8.354,0,0,1-1.119.8.2.2,0,0,1-.1.028" transform="translate(-682.297 -269.986)" fill="#d34013"/>
      </g>
    </g>
  </g>
</svg>
